<?xml version="1.0" encoding="utf-8" standalone="no"?>
<!DOCTYPE svg PUBLIC "-//W3C//DTD SVG 1.1//EN"
  "http://www.w3.org/Graphics/SVG/1.1/DTD/svg11.dtd">
<svg xmlns:xlink="http://www.w3.org/1999/xlink" width="491.74797pt" height="280.8pt" viewBox="0 0 491.74797 280.8" xmlns="http://www.w3.org/2000/svg" version="1.1">
 <metadata>
  <rdf:RDF xmlns:dc="http://purl.org/dc/elements/1.1/" xmlns:cc="http://creativecommons.org/ns#" xmlns:rdf="http://www.w3.org/1999/02/22-rdf-syntax-ns#">
   <cc:Work>
    <dc:type rdf:resource="http://purl.org/dc/dcmitype/StillImage"/>
    <dc:date>2025-09-10T09:33:36.935584</dc:date>
    <dc:format>image/svg+xml</dc:format>
    <dc:creator>
     <cc:Agent>
      <dc:title>Matplotlib v3.10.0, https://matplotlib.org/</dc:title>
     </cc:Agent>
    </dc:creator>
   </cc:Work>
  </rdf:RDF>
 </metadata>
 <defs>
  <style type="text/css">*{stroke-linejoin: round; stroke-linecap: butt}</style>
 </defs>
 <g id="figure_1">
  <g id="patch_1">
   <path d="M 0 280.8 
L 491.74797 280.8 
L 491.74797 0 
L 0 0 
z
" style="fill: #ffffff"/>
  </g>
  <g id="axes_1">
   <g id="patch_2">
    <path d="M 39.606646 108.681683 
L 226.169313 108.681683 
L 226.169313 10.659249 
L 39.606646 10.659249 
L 39.606646 108.681683 
z
" style="fill: none"/>
   </g>
   <g id="matplotlib.axis_1">
    <g id="xtick_1">
     <g id="line2d_1">
      <path d="M 39.606646 108.681683 
L 39.606646 10.659249 
" clip-path="url(#pc5c4987b95)" style="fill: none; stroke: #b0b0b0; stroke-width: 0.8; stroke-linecap: square"/>
     </g>
     <g id="line2d_2">
      <defs>
       <path id="ma20e3ca985" d="M 0 0 
L 0 -3.5 
" style="stroke: #000000; stroke-width: 0.8"/>
      </defs>
      <g>
       <use xlink:href="#ma20e3ca985" x="39.606646" y="108.681683" style="stroke: #000000; stroke-width: 0.8"/>
      </g>
     </g>
     <g id="text_1">
      <!-- 0 -->
      <g transform="translate(37.115978 119.100182) scale(0.1 -0.1)">
       <defs>
        <path id="CMSS17-30" d="M 2758 2073 
C 2758 2439 2752 3120 2490 3647 
C 2227 4153 1805 4288 1504 4288 
C 1069 4288 698 4031 506 3621 
C 301 3191 243 2748 243 2073 
C 243 1611 262 1046 493 551 
C 755 6 1197 -128 1498 -128 
C 1894 -128 2278 83 2496 525 
C 2720 988 2758 1495 2758 2073 
z
M 1498 262 
C 1011 262 864 821 819 1007 
C 742 1328 730 1636 730 2144 
C 730 2542 730 2992 851 3345 
C 998 3756 1254 3897 1498 3897 
C 1971 3897 2125 3422 2176 3255 
C 2272 2915 2272 2516 2272 2144 
C 2272 1546 2272 262 1498 262 
z
" transform="scale(0.015625)"/>
       </defs>
       <use xlink:href="#CMSS17-30" transform="scale(0.996264)"/>
      </g>
     </g>
    </g>
    <g id="xtick_2">
     <g id="line2d_3">
      <path d="M 76.919179 108.681683 
L 76.919179 10.659249 
" clip-path="url(#pc5c4987b95)" style="fill: none; stroke: #b0b0b0; stroke-width: 0.8; stroke-linecap: square"/>
     </g>
     <g id="line2d_4">
      <g>
       <use xlink:href="#ma20e3ca985" x="76.919179" y="108.681683" style="stroke: #000000; stroke-width: 0.8"/>
      </g>
     </g>
     <g id="text_2">
      <!-- 5 -->
      <g transform="translate(74.428512 119.100182) scale(0.1 -0.1)">
       <defs>
        <path id="CMSS17-35" d="M 934 3814 
L 2502 3814 
L 2502 4224 
L 467 4224 
L 467 1830 
L 896 1830 
C 1011 2103 1248 2304 1555 2304 
C 1843 2304 2163 2044 2163 1299 
C 2163 502 1709 268 1376 268 
C 966 268 589 521 422 871 
L 218 508 
C 512 51 992 -128 1376 -128 
C 2118 -128 2701 508 2701 1286 
C 2701 2083 2182 2694 1562 2694 
C 1338 2694 1120 2617 934 2464 
L 934 3814 
z
" transform="scale(0.015625)"/>
       </defs>
       <use xlink:href="#CMSS17-35" transform="scale(0.996264)"/>
      </g>
     </g>
    </g>
    <g id="xtick_3">
     <g id="line2d_5">
      <path d="M 114.231713 108.681683 
L 114.231713 10.659249 
" clip-path="url(#pc5c4987b95)" style="fill: none; stroke: #b0b0b0; stroke-width: 0.8; stroke-linecap: square"/>
     </g>
     <g id="line2d_6">
      <g>
       <use xlink:href="#ma20e3ca985" x="114.231713" y="108.681683" style="stroke: #000000; stroke-width: 0.8"/>
      </g>
     </g>
     <g id="text_3">
      <!-- 10 -->
      <g transform="translate(109.250378 119.100182) scale(0.1 -0.1)">
       <defs>
        <path id="CMSS17-31" d="M 1818 4288 
L 1696 4288 
C 1350 3949 947 3902 538 3891 
L 538 3520 
C 723 3526 1024 3539 1325 3673 
L 1325 371 
L 570 371 
L 570 0 
L 2573 0 
L 2573 371 
L 1818 371 
L 1818 4288 
z
" transform="scale(0.015625)"/>
       </defs>
       <use xlink:href="#CMSS17-31" transform="scale(0.996264)"/>
       <use xlink:href="#CMSS17-30" transform="translate(46.843624 0) scale(0.996264)"/>
      </g>
     </g>
    </g>
    <g id="xtick_4">
     <g id="line2d_7">
      <path d="M 151.544246 108.681683 
L 151.544246 10.659249 
" clip-path="url(#pc5c4987b95)" style="fill: none; stroke: #b0b0b0; stroke-width: 0.8; stroke-linecap: square"/>
     </g>
     <g id="line2d_8">
      <g>
       <use xlink:href="#ma20e3ca985" x="151.544246" y="108.681683" style="stroke: #000000; stroke-width: 0.8"/>
      </g>
     </g>
     <g id="text_4">
      <!-- 15 -->
      <g transform="translate(146.562911 119.100182) scale(0.1 -0.1)">
       <use xlink:href="#CMSS17-31" transform="scale(0.996264)"/>
       <use xlink:href="#CMSS17-35" transform="translate(46.843624 0) scale(0.996264)"/>
      </g>
     </g>
    </g>
    <g id="xtick_5">
     <g id="line2d_9">
      <path d="M 188.85678 108.681683 
L 188.85678 10.659249 
" clip-path="url(#pc5c4987b95)" style="fill: none; stroke: #b0b0b0; stroke-width: 0.8; stroke-linecap: square"/>
     </g>
     <g id="line2d_10">
      <g>
       <use xlink:href="#ma20e3ca985" x="188.85678" y="108.681683" style="stroke: #000000; stroke-width: 0.8"/>
      </g>
     </g>
     <g id="text_5">
      <!-- 20 -->
      <g transform="translate(183.875444 119.100182) scale(0.1 -0.1)">
       <defs>
        <path id="CMSS17-32" d="M 1651 1353 
C 1830 1538 2099 1761 2285 1984 
C 2464 2201 2701 2507 2701 2953 
C 2701 3655 2227 4288 1421 4288 
C 787 4288 422 3891 250 3272 
L 499 2928 
C 640 3508 838 3878 1338 3878 
C 1888 3878 2195 3431 2195 2940 
C 2195 2354 1747 1901 1408 1563 
C 1030 1187 659 805 301 409 
L 301 0 
L 2701 0 
L 2701 435 
L 1613 435 
C 1536 435 1459 428 1382 428 
L 742 428 
L 742 435 
L 1651 1353 
z
" transform="scale(0.015625)"/>
       </defs>
       <use xlink:href="#CMSS17-32" transform="scale(0.996264)"/>
       <use xlink:href="#CMSS17-30" transform="translate(46.843624 0) scale(0.996264)"/>
      </g>
     </g>
    </g>
    <g id="xtick_6">
     <g id="line2d_11">
      <path d="M 226.169313 108.681683 
L 226.169313 10.659249 
" clip-path="url(#pc5c4987b95)" style="fill: none; stroke: #b0b0b0; stroke-width: 0.8; stroke-linecap: square"/>
     </g>
     <g id="line2d_12">
      <g>
       <use xlink:href="#ma20e3ca985" x="226.169313" y="108.681683" style="stroke: #000000; stroke-width: 0.8"/>
      </g>
     </g>
     <g id="text_6">
      <!-- 25 -->
      <g transform="translate(221.187978 119.100182) scale(0.1 -0.1)">
       <use xlink:href="#CMSS17-32" transform="scale(0.996264)"/>
       <use xlink:href="#CMSS17-35" transform="translate(46.843624 0) scale(0.996264)"/>
      </g>
     </g>
    </g>
    <g id="text_7">
     <!-- frequency [GHz] -->
     <g transform="translate(99.450808 132.50934) scale(0.1 -0.1)">
      <defs>
       <path id="CMSS17-66" d="M 1075 2380 
L 1722 2380 
L 1722 2752 
L 1062 2752 
L 1062 3563 
C 1062 4013 1408 4089 1606 4089 
C 1670 4089 1850 4089 2080 4007 
L 2080 4428 
C 1933 4460 1754 4480 1613 4480 
C 1018 4480 602 3994 602 3366 
L 602 2752 
L 160 2752 
L 160 2380 
L 602 2380 
L 602 0 
L 1075 0 
L 1075 2380 
z
" transform="scale(0.015625)"/>
       <path id="CMSS17-72" d="M 954 1369 
C 954 1974 1395 2379 1958 2392 
L 1958 2816 
C 1549 2809 1165 2604 934 2270 
L 934 2783 
L 480 2783 
L 480 0 
L 954 0 
L 954 1369 
z
" transform="scale(0.015625)"/>
       <path id="CMSS17-65" d="M 2502 1375 
C 2502 1587 2490 2001 2285 2347 
C 2061 2713 1696 2816 1421 2816 
C 755 2816 192 2184 192 1363 
C 192 579 774 -64 1510 -64 
C 1798 -64 2150 19 2470 249 
C 2470 275 2458 414 2451 421 
C 2451 433 2432 629 2432 655 
C 2125 408 1773 326 1517 326 
C 1107 326 666 667 646 1375 
L 2502 1375 
z
M 698 1728 
C 781 2086 1062 2425 1421 2425 
C 1517 2425 1965 2412 2080 1728 
L 698 1728 
z
" transform="scale(0.015625)"/>
       <path id="CMSS17-71" d="M 2611 2816 
L 2138 2816 
L 2138 2425 
C 2112 2457 1818 2816 1318 2816 
C 736 2816 211 2218 211 1369 
C 211 585 653 -64 1229 -64 
C 1498 -64 1837 32 2125 307 
L 2125 -1280 
L 2611 -1280 
L 2611 2816 
z
M 2138 870 
C 2138 786 2138 669 1939 501 
C 1888 456 1747 326 1504 326 
C 1050 326 698 805 698 1369 
C 698 1998 1126 2412 1562 2412 
C 1926 2412 2138 2049 2138 1777 
L 2138 870 
z
" transform="scale(0.015625)"/>
       <path id="CMSS17-75" d="M 2618 2752 
L 2131 2752 
L 2131 976 
C 2131 500 1786 307 1421 307 
C 998 307 960 448 960 712 
L 960 2752 
L 474 2752 
L 474 680 
C 474 179 646 -64 1088 -64 
C 1306 -64 1798 -13 2144 307 
L 2144 -13 
L 2618 -13 
L 2618 2752 
z
" transform="scale(0.015625)"/>
       <path id="CMSS17-6e" d="M 2618 1878 
C 2618 2283 2522 2816 1798 2816 
C 1389 2816 1120 2604 941 2386 
L 941 2783 
L 474 2783 
L 474 0 
L 960 0 
L 960 1556 
C 960 1962 1114 2425 1549 2425 
C 2112 2425 2131 2045 2131 1826 
L 2131 0 
L 2618 0 
L 2618 1878 
z
" transform="scale(0.015625)"/>
       <path id="CMSS17-63" d="M 2464 2540 
C 2464 2585 2170 2713 2093 2739 
C 1882 2816 1613 2816 1542 2816 
C 710 2816 211 2092 211 1363 
C 211 595 768 -64 1517 -64 
C 1946 -64 2253 76 2502 243 
L 2464 665 
C 2189 454 1869 339 1523 339 
C 1024 339 698 774 698 1369 
C 698 1830 909 2412 1549 2412 
C 1901 2412 2099 2342 2394 2143 
L 2464 2540 
z
" transform="scale(0.015625)"/>
       <path id="CMSS17-79" d="M 2675 2752 
L 2176 2752 
C 1632 1293 1446 701 1434 383 
L 1427 383 
C 1408 695 1126 1459 902 2006 
L 602 2752 
L 83 2752 
L 1216 14 
C 1146 -177 1043 -464 1011 -527 
C 870 -884 774 -884 672 -884 
C 646 -884 442 -877 211 -807 
L 250 -1229 
C 410 -1261 570 -1280 685 -1280 
C 845 -1280 1165 -1280 1459 -495 
L 2675 2752 
z
" transform="scale(0.015625)"/>
       <path id="CMSS17-5b" d="M 1613 -1600 
L 1613 -1210 
L 1062 -1210 
L 1062 4409 
L 1613 4409 
L 1613 4800 
L 595 4800 
L 595 -1600 
L 1613 -1600 
z
" transform="scale(0.015625)"/>
       <path id="CMSS17-47" d="M 3610 1868 
L 2336 1868 
L 2336 1472 
L 3123 1472 
L 3123 473 
C 2874 403 2618 352 2362 352 
C 1466 352 934 1311 934 2220 
C 934 3123 1491 4070 2362 4070 
C 2854 4070 3130 3916 3469 3660 
L 3552 4172 
C 3130 4390 2867 4480 2387 4480 
C 1146 4480 397 3353 397 2201 
C 397 1100 1152 -64 2349 -64 
C 2797 -64 3213 51 3610 249 
L 3610 1868 
z
" transform="scale(0.015625)"/>
       <path id="CMSS17-48" d="M 3674 4416 
L 3136 4416 
L 3136 2496 
L 1101 2496 
L 1101 4416 
L 563 4416 
L 563 0 
L 1101 0 
L 1101 2105 
L 3136 2105 
L 3136 0 
L 3674 0 
L 3674 4416 
z
" transform="scale(0.015625)"/>
       <path id="CMSS17-7a" d="M 2400 2502 
L 2400 2752 
L 250 2752 
L 250 2367 
L 1069 2367 
C 1146 2367 1222 2374 1299 2374 
L 1747 2374 
L 166 262 
L 166 0 
L 2419 0 
L 2419 396 
L 1549 396 
C 1472 396 1395 390 1318 390 
L 826 390 
L 2400 2502 
z
" transform="scale(0.015625)"/>
       <path id="CMSS17-5d" d="M 1146 4800 
L 128 4800 
L 128 4409 
L 678 4409 
L 678 -1210 
L 128 -1210 
L 128 -1600 
L 1146 -1600 
L 1146 4800 
z
" transform="scale(0.015625)"/>
      </defs>
      <use xlink:href="#CMSS17-66" transform="scale(0.996264)"/>
      <use xlink:href="#CMSS17-72" transform="translate(28.626659 0) scale(0.996264)"/>
      <use xlink:href="#CMSS17-65" transform="translate(60.536431 0) scale(0.996264)"/>
      <use xlink:href="#CMSS17-71" transform="translate(102.175253 0) scale(0.996264)"/>
      <use xlink:href="#CMSS17-75" transform="translate(150.380197 0) scale(0.996264)"/>
      <use xlink:href="#CMSS17-65" transform="translate(198.58514 0) scale(0.996264)"/>
      <use xlink:href="#CMSS17-6e" transform="translate(240.223962 0) scale(0.996264)"/>
      <use xlink:href="#CMSS17-63" transform="translate(288.428905 0) scale(0.996264)"/>
      <use xlink:href="#CMSS17-79" transform="translate(330.067727 0) scale(0.996264)"/>
      <use xlink:href="#CMSS17-5b" transform="translate(404.296981 0) scale(0.996264)"/>
      <use xlink:href="#CMSS17-47" transform="translate(431.48242 0) scale(0.996264)"/>
      <use xlink:href="#CMSS17-48" transform="translate(493.940646 0) scale(0.996264)"/>
      <use xlink:href="#CMSS17-7a" transform="translate(560.002165 0) scale(0.996264)"/>
      <use xlink:href="#CMSS17-5d" transform="translate(600.680037 0) scale(0.996264)"/>
     </g>
    </g>
   </g>
   <g id="matplotlib.axis_2">
    <g id="ytick_1">
     <g id="line2d_13">
      <path d="M 39.606646 108.681683 
L 226.169313 108.681683 
" clip-path="url(#pc5c4987b95)" style="fill: none; stroke: #b0b0b0; stroke-width: 0.8; stroke-linecap: square"/>
     </g>
     <g id="line2d_14">
      <defs>
       <path id="m004f9e5e7b" d="M 0 0 
L 3.5 0 
" style="stroke: #000000; stroke-width: 0.8"/>
      </defs>
      <g>
       <use xlink:href="#m004f9e5e7b" x="39.606646" y="108.681683" style="stroke: #000000; stroke-width: 0.8"/>
      </g>
     </g>
     <g id="text_8">
      <!-- -10 -->
      <g transform="translate(22.8231 112.140932) scale(0.1 -0.1)">
       <defs>
        <path id="CMSS17-2d" d="M 1664 1216 
L 1664 1587 
L 64 1587 
L 64 1216 
L 1664 1216 
z
" transform="scale(0.015625)"/>
       </defs>
       <use xlink:href="#CMSS17-2d" transform="scale(0.996264)"/>
       <use xlink:href="#CMSS17-31" transform="translate(31.229113 0) scale(0.996264)"/>
       <use xlink:href="#CMSS17-30" transform="translate(78.072736 0) scale(0.996264)"/>
      </g>
     </g>
    </g>
    <g id="ytick_2">
     <g id="line2d_15">
      <path d="M 39.606646 67.839002 
L 226.169313 67.839002 
" clip-path="url(#pc5c4987b95)" style="fill: none; stroke: #b0b0b0; stroke-width: 0.8; stroke-linecap: square"/>
     </g>
     <g id="line2d_16">
      <g>
       <use xlink:href="#m004f9e5e7b" x="39.606646" y="67.839002" style="stroke: #000000; stroke-width: 0.8"/>
      </g>
     </g>
     <g id="text_9">
      <!-- -5 -->
      <g transform="translate(27.804436 71.298252) scale(0.1 -0.1)">
       <use xlink:href="#CMSS17-2d" transform="scale(0.996264)"/>
       <use xlink:href="#CMSS17-35" transform="translate(31.229113 0) scale(0.996264)"/>
      </g>
     </g>
    </g>
    <g id="ytick_3">
     <g id="line2d_17">
      <path d="M 39.606646 26.996322 
L 226.169313 26.996322 
" clip-path="url(#pc5c4987b95)" style="fill: none; stroke: #b0b0b0; stroke-width: 0.8; stroke-linecap: square"/>
     </g>
     <g id="line2d_18">
      <g>
       <use xlink:href="#m004f9e5e7b" x="39.606646" y="26.996322" style="stroke: #000000; stroke-width: 0.8"/>
      </g>
     </g>
     <g id="text_10">
      <!-- 0 -->
      <g transform="translate(31.125311 30.455571) scale(0.1 -0.1)">
       <use xlink:href="#CMSS17-30" transform="scale(0.996264)"/>
      </g>
     </g>
    </g>
    <g id="text_11">
     <!-- $|S_{21}|^2$ [dB] -->
     <g transform="translate(16.33244 82.380485) rotate(-90) scale(0.1 -0.1)">
      <defs>
       <path id="CMSY10-6a" d="M 1018 4569 
C 1018 4684 1018 4800 890 4800 
C 762 4800 762 4684 762 4569 
L 762 -1370 
C 762 -1485 762 -1600 890 -1600 
C 1018 -1600 1018 -1485 1018 -1370 
L 1018 4569 
z
" transform="scale(0.015625)"/>
       <path id="CMMI12-53" d="M 4064 4422 
C 4064 4480 4019 4480 4006 4480 
C 3981 4480 3974 4473 3898 4377 
C 3859 4332 3597 4002 3590 3996 
C 3379 4409 2957 4480 2688 4480 
C 1875 4480 1139 3742 1139 3024 
C 1139 2547 1427 2268 1741 2160 
C 1811 2134 2189 2033 2381 1988 
C 2707 1899 2790 1874 2925 1734 
C 2950 1702 3078 1556 3078 1258 
C 3078 667 2528 57 1888 57 
C 1363 57 781 279 781 991 
C 781 1112 806 1264 826 1328 
C 826 1347 832 1378 832 1391 
C 832 1417 819 1448 768 1448 
C 710 1448 704 1436 678 1328 
L 352 25 
C 352 19 326 -64 326 -71 
C 326 -128 378 -128 390 -128 
C 416 -128 422 -122 499 -26 
L 794 356 
C 947 127 1280 -128 1875 -128 
C 2701 -128 3456 667 3456 1461 
C 3456 1728 3392 1963 3149 2198 
C 3014 2331 2899 2363 2310 2516 
C 1882 2630 1824 2649 1709 2751 
C 1600 2859 1517 3011 1517 3227 
C 1517 3761 2061 4307 2669 4307 
C 3296 4307 3590 3926 3590 3322 
C 3590 3157 3558 2986 3558 2960 
C 3558 2903 3610 2903 3629 2903 
C 3686 2903 3693 2922 3718 3024 
L 4064 4422 
z
" transform="scale(0.015625)"/>
       <path id="CMR17-32" d="M 2669 990 
L 2554 990 
C 2490 537 2438 460 2413 422 
C 2381 371 1920 371 1830 371 
L 602 371 
C 832 620 1280 1073 1824 1596 
C 2214 1966 2669 2400 2669 3033 
C 2669 3788 2067 4224 1395 4224 
C 691 4224 262 3603 262 3027 
C 262 2777 448 2745 525 2745 
C 589 2745 781 2783 781 3007 
C 781 3206 614 3264 525 3264 
C 486 3264 448 3257 422 3244 
C 544 3788 915 4057 1306 4057 
C 1862 4057 2227 3616 2227 3033 
C 2227 2477 1901 1998 1536 1583 
L 262 147 
L 262 0 
L 2515 0 
L 2669 990 
z
" transform="scale(0.015625)"/>
       <path id="CMR17-31" d="M 1702 4083 
C 1702 4217 1696 4224 1606 4224 
C 1357 3927 979 3833 621 3820 
C 602 3820 570 3820 563 3808 
C 557 3795 557 3782 557 3648 
C 755 3648 1088 3686 1344 3839 
L 1344 467 
C 1344 243 1331 166 781 166 
L 589 166 
L 589 0 
C 896 6 1216 12 1523 12 
C 1830 12 2150 6 2458 0 
L 2458 166 
L 2266 166 
C 1715 166 1702 236 1702 467 
L 1702 4083 
z
" transform="scale(0.015625)"/>
       <path id="CMSS17-64" d="M 2611 4416 
L 2138 4416 
L 2138 2495 
C 1939 2662 1613 2816 1254 2816 
C 672 2816 211 2179 211 1375 
C 211 572 666 -64 1235 -64 
C 1677 -64 1971 172 2125 307 
L 2125 -13 
L 2611 -13 
L 2611 4416 
z
M 2125 851 
C 2125 760 2125 663 1926 488 
C 1798 378 1645 326 1498 326 
C 1152 326 698 585 698 1369 
C 698 2185 1210 2425 1562 2425 
C 1798 2425 1990 2308 2125 2114 
L 2125 851 
z
" transform="scale(0.015625)"/>
       <path id="CMSS17-42" d="M 570 4416 
L 570 0 
L 2163 0 
C 3034 0 3667 575 3667 1200 
C 3667 1684 3251 2175 2502 2316 
C 3334 2559 3501 3039 3501 3311 
C 3501 3880 2874 4416 1997 4416 
L 570 4416 
z
M 1088 2496 
L 1088 4057 
L 1824 4057 
C 2483 4057 3002 3722 3002 3305 
C 3002 2925 2592 2496 1766 2496 
L 1088 2496 
z
M 1088 358 
L 1088 2105 
L 1939 2105 
C 2630 2105 3162 1678 3162 1206 
C 3162 772 2694 358 1984 358 
L 1088 358 
z
" transform="scale(0.015625)"/>
      </defs>
      <use xlink:href="#CMSY10-6a" transform="scale(0.996264)"/>
      <use xlink:href="#CMMI12-53" transform="translate(27.674085 0) scale(0.996264)"/>
      <use xlink:href="#CMR17-32" transform="translate(87.668573 -14.943915) scale(0.697382)"/>
      <use xlink:href="#CMR17-31" transform="translate(119.651755 -14.943915) scale(0.697382)"/>
      <use xlink:href="#CMSY10-6a" transform="translate(152.133068 0) scale(0.996264)"/>
      <use xlink:href="#CMR17-32" transform="translate(179.807153 36.153639) scale(0.697382)"/>
      <use xlink:href="#CMSS17-5b" transform="translate(243.51758 0) scale(0.996264)"/>
      <use xlink:href="#CMSS17-64" transform="translate(270.703019 0) scale(0.996264)"/>
      <use xlink:href="#CMSS17-42" transform="translate(318.907962 0) scale(0.996264)"/>
      <use xlink:href="#CMSS17-5d" transform="translate(381.246002 0) scale(0.996264)"/>
     </g>
    </g>
   </g>
   <g id="line2d_19">
    <path d="M 39.643958 26.996322 
L 104.866267 27.077195 
L 104.940892 27.116195 
L 105.015517 27.015545 
L 105.090142 27.192043 
L 105.127455 26.999159 
L 105.164767 27.238249 
L 105.20208 27.180652 
L 105.239392 27.210803 
L 105.276705 27.152405 
L 105.388642 28.048499 
L 105.425955 27.301101 
L 105.463267 27.882496 
L 105.575205 34.592518 
L 105.537892 27.361118 
L 105.612518 30.819129 
M 105.760216 281.8 
L 105.79908 27.512159 
L 105.836393 29.101999 
L 105.873705 29.22914 
L 106.022955 27.201965 
L 106.060268 27.328072 
L 106.09758 27.937416 
L 106.134893 27.079871 
L 106.172206 27.566919 
L 106.209518 27.467999 
L 106.246831 26.998311 
L 106.284143 27.3818 
L 106.321456 27.49947 
L 106.396081 26.996744 
L 106.433393 27.146622 
L 106.508018 27.358633 
L 106.545331 27.224665 
L 106.619956 26.997695 
L 106.657268 27.02844 
L 106.806519 27.24962 
L 106.843831 27.199018 
L 107.030394 27.007575 
L 107.328894 27.151556 
L 107.627394 27.006507 
L 108.075145 27.107569 
L 108.485583 27.014651 
L 109.007958 27.09302 
L 109.530334 27.024177 
L 110.052709 27.093067 
L 110.64971 27.02472 
L 111.209398 27.088053 
L 111.843711 27.030205 
L 112.403399 27.087286 
L 113.037712 27.027254 
L 113.634712 27.084888 
L 114.269025 27.02963 
L 114.866026 27.086845 
L 115.500339 27.029358 
L 116.097339 27.091457 
L 116.731653 27.027596 
L 117.328653 27.097634 
L 117.962966 27.025104 
L 118.597279 27.09477 
L 119.19428 27.0224 
L 119.828593 27.102339 
L 120.425593 27.019841 
L 121.097219 27.098871 
L 121.656907 27.017673 
L 122.328533 27.106274 
L 122.888221 27.016065 
L 123.559846 27.113227 
L 124.156847 27.025794 
L 124.753847 27.131035 
L 125.425473 27.038769 
L 125.985161 27.136902 
L 126.619474 27.027294 
L 127.216474 27.141887 
L 127.850787 27.030046 
L 128.447788 27.14572 
L 129.082101 27.034553 
L 129.641789 27.160446 
L 130.313415 27.041256 
L 130.83579 27.17357 
L 131.544728 27.050704 
L 132.029791 27.1853 
L 132.813354 27.082888 
L 133.223792 27.195902 
L 134.007356 27.080392 
L 134.417793 27.20563 
L 135.238669 27.101828 
L 135.611794 27.214666 
L 136.43267 27.105301 
L 136.805796 27.223047 
L 137.626671 27.111985 
L 137.999797 27.230616 
L 138.78336 27.097683 
L 139.193798 27.236949 
L 139.940048 27.08582 
L 140.350486 27.251299 
L 140.723612 27.040208 
L 140.984799 27.016737 
L 141.656425 27.203716 
L 142.141488 27.012338 
L 142.850426 27.193799 
L 143.260864 27.000331 
L 143.559364 27.180811 
L 143.857864 27.280174 
L 144.193677 27.063904 
L 144.454865 27.00925 
L 145.163803 27.212848 
L 145.574241 27.000249 
L 145.872741 27.195171 
L 146.171241 27.300301 
L 146.507054 27.0642 
L 146.768242 27.013601 
L 147.439868 27.24565 
L 147.887618 27.005418 
L 148.186118 27.228985 
L 148.447306 27.32579 
L 148.708494 27.141243 
L 149.006994 27.000664 
L 149.268182 27.186047 
L 149.566682 27.340893 
L 149.82787 27.161266 
L 150.12637 26.998246 
L 150.350245 27.143017 
L 150.686058 27.354529 
L 150.909933 27.214347 
L 151.245746 26.997223 
L 151.469621 27.140478 
L 151.805434 27.367512 
L 152.029309 27.226805 
L 152.365122 26.99695 
L 152.588997 27.143288 
L 152.92481 27.380298 
L 153.148685 27.234003 
L 153.484498 26.9972 
L 153.708373 27.15209 
L 154.044186 27.392866 
L 154.268061 27.235232 
L 154.603874 26.998295 
L 154.827749 27.167689 
L 155.163562 27.40459 
L 155.387437 27.229616 
L 155.72325 27.001235 
L 155.947125 27.191023 
L 156.245625 27.420843 
L 156.432188 27.303474 
L 156.805313 26.997706 
L 156.991876 27.131647 
L 157.365001 27.431983 
L 157.588877 27.241242 
L 157.887377 26.996507 
L 158.07394 27.122363 
L 158.447065 27.448051 
L 158.633628 27.307353 
L 159.006753 27.001713 
L 159.230628 27.215443 
L 159.529128 27.463294 
L 159.715691 27.321387 
L 160.088816 27.001543 
L 160.275379 27.171089 
L 160.611192 27.478126 
L 160.797755 27.32856 
L 161.17088 27.003145 
L 161.357443 27.184393 
L 161.693255 27.492235 
L 161.879818 27.327902 
L 162.215631 26.99706 
L 162.402193 27.153067 
L 162.775319 27.504414 
L 162.961881 27.318112 
L 163.297694 27.000082 
L 163.484257 27.182617 
L 163.82007 27.525039 
L 164.006632 27.354543 
L 164.342445 26.997097 
L 164.529008 27.165938 
L 164.864821 27.542913 
L 165.014071 27.435637 
L 165.424509 27.004218 
L 165.611071 27.216362 
L 165.909572 27.559844 
L 166.058822 27.457707 
L 166.46926 27.002818 
L 166.655822 27.217651 
L 166.954323 27.576975 
L 167.103573 27.472817 
L 167.514011 27.003586 
L 167.700573 27.228773 
L 167.999073 27.59458 
L 168.148324 27.480234 
L 168.558762 27.007049 
L 168.745324 27.250909 
L 169.043824 27.611863 
L 169.193075 27.478491 
L 169.5662 26.998478 
L 169.71545 27.149401 
L 170.088575 27.626731 
L 170.237826 27.465394 
L 170.610951 27.00499 
L 170.797514 27.259505 
L 171.096014 27.64876 
L 171.245264 27.504821 
L 171.618389 27.000196 
L 171.767639 27.171888 
L 172.140765 27.659496 
L 172.327327 27.394404 
L 172.625828 26.998332 
L 172.775078 27.165303 
L 173.148203 27.680567 
L 173.297453 27.488655 
L 173.633266 26.99807 
L 173.782516 27.169149 
L 174.155642 27.699404 
L 174.304892 27.497817 
L 174.640704 26.999248 
L 174.789955 27.184482 
L 175.16308 27.715348 
L 175.31233 27.494579 
L 175.648143 27.003137 
L 175.797393 27.213119 
L 176.133206 27.746098 
L 176.282456 27.558663 
L 176.618269 26.996911 
L 176.767519 27.175176 
L 177.140644 27.759239 
L 177.289894 27.530883 
L 177.625707 27.00372 
L 177.774957 27.230355 
L 178.11077 27.786293 
L 178.26002 27.572921 
L 178.595833 26.999779 
L 178.745083 27.215731 
L 179.080896 27.81019 
L 179.230146 27.602875 
L 179.565959 26.998573 
L 179.715209 27.214012 
L 180.051022 27.832598 
L 180.200272 27.620238 
L 180.536085 26.999125 
L 180.685335 27.226095 
L 181.021148 27.853707 
L 181.170398 27.623753 
L 181.506211 27.002141 
L 181.655461 27.253721 
L 181.991274 27.871903 
L 182.140524 27.611241 
L 182.439024 26.996324 
L 182.550962 27.115271 
L 182.924087 27.902704 
L 182.961399 27.883477 
L 183.11065 27.579757 
L 183.40915 27.000106 
L 183.521087 27.161633 
L 183.894213 27.918251 
L 184.043463 27.637469 
L 184.341963 26.996758 
L 184.453901 27.13765 
L 184.827026 27.947211 
L 184.864339 27.91755 
L 185.050901 27.448483 
L 185.274776 26.996327 
L 185.386714 27.126693 
L 185.759839 27.973255 
L 185.797152 27.945838 
L 185.983715 27.469376 
L 186.20759 26.996373 
L 186.319527 27.128374 
L 186.692653 27.997626 
L 186.729965 27.967981 
L 186.916528 27.471608 
L 187.140403 26.996377 
L 187.252341 27.143717 
L 187.625466 28.019509 
L 187.662779 27.982692 
L 187.849341 27.453461 
L 188.073217 26.998138 
L 188.185154 27.175475 
L 188.520967 28.052055 
L 188.558279 28.035652 
L 188.70753 27.681073 
L 189.00603 27.006193 
L 189.15528 27.351001 
L 189.45378 28.074245 
L 189.565718 27.877695 
L 189.901531 26.998173 
L 189.938843 27.028128 
L 190.088093 27.442578 
L 190.349281 28.104698 
L 190.461219 27.93493 
L 190.797031 26.996351 
L 190.834344 27.016974 
L 190.983594 27.418587 
L 191.244782 28.132012 
L 191.356719 27.976746 
L 191.692532 26.99647 
L 191.767157 27.067931 
L 192.177595 28.144552 
L 192.25222 28.003833 
L 192.588033 26.996398 
L 192.662658 27.072527 
L 193.035783 28.187614 
L 193.147721 28.015215 
L 193.483534 26.996605 
L 193.520846 27.022826 
L 193.670097 27.476832 
L 193.931284 28.214907 
L 194.043222 28.007854 
L 194.379035 27.000644 
L 194.416347 27.042014 
L 194.60291 27.712672 
L 194.826785 28.236152 
L 194.938723 27.976635 
L 195.237223 26.996482 
L 195.274535 27.015631 
L 195.423786 27.477719 
L 195.684973 28.273392 
L 195.796911 28.057111 
L 196.132724 27.003334 
L 196.170036 27.05245 
L 196.356599 27.778457 
L 196.543162 28.303543 
L 196.580474 28.285642 
L 196.729724 27.816161 
L 196.990912 26.998792 
L 197.10285 27.251322 
L 197.40135 28.33227 
L 197.438662 28.321052 
L 197.5506 28.021427 
L 197.8491 26.997779 
L 197.886413 27.035412 
L 198.035663 27.588455 
L 198.259538 28.362768 
L 198.296851 28.351307 
L 198.408788 28.041687 
L 198.707289 26.998858 
L 198.819226 27.268672 
L 199.117726 28.395255 
L 199.155039 28.375882 
L 199.266977 28.037568 
L 199.565477 27.003971 
L 199.677414 27.313515 
L 199.975915 28.42644 
L 200.013227 28.390796 
L 200.162477 27.814936 
L 200.386353 26.996658 
L 200.423665 27.018982 
L 200.572915 27.580518 
L 200.834103 28.44895 
L 200.946041 28.123329 
L 201.244541 27.001141 
L 201.356478 27.314561 
L 201.654979 28.490483 
L 201.692291 28.450939 
L 201.841541 27.833153 
L 202.065417 26.996436 
L 202.140042 27.123326 
L 202.475854 28.524168 
L 202.550479 28.416363 
L 202.886292 26.996908 
L 202.960917 27.104488 
L 203.29673 28.556372 
L 203.371355 28.459602 
L 203.707168 26.997479 
L 203.819106 27.243407 
L 204.117606 28.590348 
L 204.154918 28.570105 
L 204.266856 28.16549 
L 204.528044 26.996627 
L 204.565356 27.024175 
L 204.714606 27.687695 
L 204.938482 28.625632 
L 205.013107 28.498416 
L 205.348919 26.997037 
L 205.423545 27.153506 
L 205.759357 28.657418 
L 205.79667 28.603696 
L 205.94592 27.863403 
L 206.169795 27.006297 
L 206.281733 27.411345 
L 206.542921 28.69312 
L 206.580233 28.675931 
L 206.692171 28.241998 
L 206.953358 26.9964 
L 206.990671 27.037445 
L 207.139921 27.793016 
L 207.363796 28.726891 
L 207.475734 28.351245 
L 207.736922 26.999598 
L 207.774234 27.016077 
L 207.886172 27.483345 
L 208.14736 28.766937 
L 208.184672 28.723668 
L 208.333922 27.949281 
L 208.557797 27.007189 
L 208.669735 27.453543 
L 208.930923 28.803599 
L 208.968235 28.768322 
L 209.117485 27.992951 
L 209.341361 27.00543 
L 209.453298 27.456267 
L 209.714486 28.840671 
L 209.751798 28.802705 
L 209.901049 27.999293 
L 210.124924 27.009663 
L 210.236861 27.493666 
L 210.498049 28.877492 
L 210.572674 28.693794 
L 210.871174 26.998437 
L 210.9458 27.135879 
L 211.281612 28.908231 
L 211.356237 28.670903 
L 211.654738 26.997379 
L 211.69205 27.057337 
L 211.8413 27.988326 
L 212.027863 28.953809 
L 212.065176 28.921228 
L 212.177113 28.353884 
L 212.400988 27.001967 
L 212.438301 27.017048 
L 212.550238 27.572861 
L 212.811426 28.984548 
L 212.923364 28.490702 
L 213.184552 27.00085 
L 213.296489 27.491852 
L 213.557677 29.03183 
L 213.594989 28.969805 
L 213.74424 27.994587 
L 213.930802 26.996681 
L 213.968115 27.056213 
L 214.117365 28.060942 
L 214.303928 29.072893 
L 214.34124 29.023324 
L 214.49049 28.051799 
L 214.677053 26.996322 
L 214.714365 27.049365 
L 214.863616 28.066396 
L 215.050178 29.113308 
L 215.087491 29.063422 
L 215.236741 28.065649 
L 215.423304 26.996499 
L 215.460616 27.057252 
L 215.609866 28.117636 
L 215.796429 29.15353 
L 215.871054 28.926284 
L 216.169554 26.999792 
L 216.206867 27.083678 
L 216.393429 28.552531 
L 216.54268 29.188093 
L 216.654617 28.628869 
L 216.878492 27.007073 
L 216.915805 27.015518 
L 217.027742 27.665111 
L 217.251618 29.234522 
L 217.28893 29.204839 
L 217.400868 28.525498 
L 217.624743 26.99638 
L 217.662056 27.060388 
L 217.811306 28.212381 
L 217.997868 29.275151 
L 218.072493 28.987766 
L 218.333681 27.00521 
L 218.408306 27.158143 
L 218.706806 29.322943 
L 218.781432 29.101969 
L 219.079932 27.00422 
L 219.117244 27.112603 
L 219.415745 29.362553 
L 219.527682 28.929197 
L 219.78887 26.999177 
L 219.826182 27.092733 
L 220.012745 28.766624 
L 220.124683 29.403657 
L 220.161995 29.382578 
L 220.273933 28.643982 
L 220.497808 26.998961 
L 220.572433 27.315519 
L 220.833621 29.450319 
L 220.908246 29.265267 
L 221.206746 27.003413 
L 221.281371 27.360805 
L 221.542559 29.500138 
L 221.579872 29.445453 
L 221.729122 28.17559 
L 221.878372 27.010343 
L 221.915684 27.019838 
L 222.027622 27.823895 
L 222.251497 29.543274 
L 222.326122 29.215277 
L 222.58731 26.996568 
L 222.624622 27.063831 
L 222.773873 28.447416 
L 222.923123 29.585048 
L 222.960435 29.561519 
L 223.072373 28.729823 
L 223.296248 27.01236 
L 223.408186 27.827913 
L 223.632061 29.636353 
L 223.706686 29.28338 
L 223.967874 26.99693 
L 224.005186 27.091593 
L 224.191749 29.02548 
L 224.303686 29.688138 
L 224.340999 29.621732 
L 224.490249 28.189802 
L 224.639499 26.998241 
L 224.676812 27.056732 
L 224.826062 28.533001 
L 224.975312 29.732717 
L 225.012625 29.691508 
L 225.124562 28.749144 
L 225.311125 27.002277 
L 225.348437 27.043604 
L 225.460375 28.041712 
L 225.646938 29.780185 
L 225.68425 29.745411 
L 225.796188 28.791351 
L 225.98275 27.001783 
L 226.020063 27.04718 
L 226.132001 28.081096 
L 226.169313 28.576175 
L 226.169313 28.576175 
" clip-path="url(#pc5c4987b95)" style="fill: none; stroke: #000000; stroke-linecap: square"/>
   </g>
   <g id="line2d_20">
    <path d="M 104.008079 108.681683 
L 104.008079 10.659249 
" clip-path="url(#pc5c4987b95)" style="fill: none; stroke: #98509f; stroke-linecap: square"/>
   </g>
   <g id="line2d_21">
    <path d="M 126.395599 108.681683 
L 126.395599 10.659249 
" clip-path="url(#pc5c4987b95)" style="fill: none; stroke: #387eb9; stroke-linecap: square"/>
   </g>
   <g id="line2d_22">
    <path d="M 81.620559 108.681683 
L 81.620559 10.659249 
" clip-path="url(#pc5c4987b95)" style="fill: none; stroke: #393b7a; stroke-linecap: square"/>
   </g>
   <g id="line2d_23">
    <path d="M 232.810944 108.681683 
L 232.810944 10.659249 
" clip-path="url(#pc5c4987b95)" style="fill: none; stroke: #98509f; stroke-linecap: square"/>
   </g>
   <g id="patch_3">
    <path d="M 39.606646 108.681683 
L 39.606646 10.659249 
" style="fill: none; stroke: #000000; stroke-width: 0.8; stroke-linejoin: miter; stroke-linecap: square"/>
   </g>
   <g id="patch_4">
    <path d="M 226.169313 108.681683 
L 226.169313 10.659249 
" style="fill: none; stroke: #000000; stroke-width: 0.8; stroke-linejoin: miter; stroke-linecap: square"/>
   </g>
   <g id="patch_5">
    <path d="M 39.606646 108.681683 
L 226.169313 108.681683 
" style="fill: none; stroke: #000000; stroke-width: 0.8; stroke-linejoin: miter; stroke-linecap: square"/>
   </g>
   <g id="patch_6">
    <path d="M 39.606646 10.659249 
L 226.169313 10.659249 
" style="fill: none; stroke: #000000; stroke-width: 0.8; stroke-linejoin: miter; stroke-linecap: square"/>
   </g>
   <g id="legend_1">
    <g id="line2d_24">
     <path d="M 185.117804 52.43297 
L 190.117804 52.43297 
L 195.117804 52.43297 
" style="fill: none; stroke: #000000; stroke-linecap: square"/>
    </g>
    <g id="text_12">
     <!-- $S_{21}$ -->
     <g transform="translate(203.117804 55.93297) scale(0.1 -0.1)">
      <use xlink:href="#CMMI12-53" transform="scale(0.996264)"/>
      <use xlink:href="#CMR17-32" transform="translate(59.994488 -14.943915) scale(0.697382)"/>
      <use xlink:href="#CMR17-31" transform="translate(91.97767 -14.943915) scale(0.697382)"/>
     </g>
    </g>
    <g id="line2d_25">
     <path d="M 185.117804 66.370148 
L 190.117804 66.370148 
L 195.117804 66.370148 
" style="fill: none; stroke: #98509f; stroke-linecap: square"/>
    </g>
    <g id="text_13">
     <!-- a -->
     <g transform="translate(203.117804 69.870148) scale(0.1 -0.1)">
      <defs>
       <path id="CMSS17-61" d="M 2406 1789 
C 2406 2399 1978 2816 1402 2816 
C 1120 2816 813 2764 461 2559 
L 499 2133 
C 659 2250 934 2438 1395 2438 
C 1722 2438 1920 2185 1920 1782 
L 1920 1536 
C 896 1504 256 1209 256 711 
C 256 452 416 -64 947 -64 
C 1043 -64 1562 -52 1933 224 
L 1933 -13 
L 2406 -13 
L 2406 1789 
z
M 1920 824 
C 1920 711 1920 559 1728 446 
C 1562 339 1350 326 1261 326 
C 941 326 723 503 723 723 
C 723 1165 1722 1209 1920 1216 
L 1920 824 
z
" transform="scale(0.015625)"/>
      </defs>
      <use xlink:href="#CMSS17-61" transform="scale(0.996264)"/>
     </g>
    </g>
    <g id="line2d_26">
     <path d="M 185.117804 80.307327 
L 190.117804 80.307327 
L 195.117804 80.307327 
" style="fill: none; stroke: #387eb9; stroke-linecap: square"/>
    </g>
    <g id="text_14">
     <!-- s -->
     <g transform="translate(203.117804 83.807327) scale(0.1 -0.1)">
      <defs>
       <path id="CMSS17-73" d="M 2061 2623 
C 1683 2803 1389 2816 1197 2816 
C 742 2816 198 2655 198 2009 
C 198 1363 902 1222 1094 1183 
C 1389 1126 1715 1062 1715 742 
C 1715 339 1254 339 1171 339 
C 915 339 563 409 243 639 
L 166 211 
C 531 0 883 -64 1178 -64 
C 1965 -64 2163 416 2163 780 
C 2163 1094 1984 1305 1862 1401 
C 1651 1567 1574 1587 1050 1695 
C 960 1708 646 1779 646 2067 
C 646 2431 1050 2431 1139 2431 
C 1555 2431 1811 2303 1984 2207 
L 2061 2623 
z
" transform="scale(0.015625)"/>
      </defs>
      <use xlink:href="#CMSS17-73" transform="scale(0.996264)"/>
     </g>
    </g>
    <g id="line2d_27">
     <path d="M 185.117804 94.244505 
L 190.117804 94.244505 
L 195.117804 94.244505 
" style="fill: none; stroke: #393b7a; stroke-linecap: square"/>
    </g>
    <g id="text_15">
     <!-- i -->
     <g transform="translate(203.117804 97.744505) scale(0.1 -0.1)">
      <defs>
       <path id="CMSS17-69" d="M 979 4224 
L 442 4224 
L 442 3686 
L 979 3686 
L 979 4224 
z
M 947 2752 
L 474 2752 
L 474 0 
L 947 0 
L 947 2752 
z
" transform="scale(0.015625)"/>
      </defs>
      <use xlink:href="#CMSS17-69" transform="scale(0.996264)"/>
     </g>
    </g>
   </g>
  </g>
  <g id="axes_2">
   <g id="patch_7">
    <path d="M 293.003968 108.681683 
L 479.566635 108.681683 
L 479.566635 10.659249 
L 293.003968 10.659249 
L 293.003968 108.681683 
z
" style="fill: none"/>
   </g>
   <g id="matplotlib.axis_3">
    <g id="xtick_7">
     <g id="line2d_28">
      <path d="M 339.609645 108.681683 
L 339.609645 10.659249 
" clip-path="url(#pa28db24d49)" style="fill: none; stroke: #b0b0b0; stroke-width: 0.8; stroke-linecap: square"/>
     </g>
     <g id="line2d_29">
      <g>
       <use xlink:href="#ma20e3ca985" x="339.609645" y="108.681683" style="stroke: #000000; stroke-width: 0.8"/>
      </g>
     </g>
     <g id="text_16">
      <!-- 5 -->
      <g transform="translate(337.118978 119.100182) scale(0.1 -0.1)">
       <use xlink:href="#CMSS17-35" transform="scale(0.996264)"/>
      </g>
     </g>
    </g>
    <g id="xtick_8">
     <g id="line2d_30">
      <path d="M 386.261975 108.681683 
L 386.261975 10.659249 
" clip-path="url(#pa28db24d49)" style="fill: none; stroke: #b0b0b0; stroke-width: 0.8; stroke-linecap: square"/>
     </g>
     <g id="line2d_31">
      <g>
       <use xlink:href="#ma20e3ca985" x="386.261975" y="108.681683" style="stroke: #000000; stroke-width: 0.8"/>
      </g>
     </g>
     <g id="text_17">
      <!-- 10 -->
      <g transform="translate(381.28064 119.100182) scale(0.1 -0.1)">
       <use xlink:href="#CMSS17-31" transform="scale(0.996264)"/>
       <use xlink:href="#CMSS17-30" transform="translate(46.843624 0) scale(0.996264)"/>
      </g>
     </g>
    </g>
    <g id="xtick_9">
     <g id="line2d_32">
      <path d="M 432.914305 108.681683 
L 432.914305 10.659249 
" clip-path="url(#pa28db24d49)" style="fill: none; stroke: #b0b0b0; stroke-width: 0.8; stroke-linecap: square"/>
     </g>
     <g id="line2d_33">
      <g>
       <use xlink:href="#ma20e3ca985" x="432.914305" y="108.681683" style="stroke: #000000; stroke-width: 0.8"/>
      </g>
     </g>
     <g id="text_18">
      <!-- 15 -->
      <g transform="translate(427.93297 119.100182) scale(0.1 -0.1)">
       <use xlink:href="#CMSS17-31" transform="scale(0.996264)"/>
       <use xlink:href="#CMSS17-35" transform="translate(46.843624 0) scale(0.996264)"/>
      </g>
     </g>
    </g>
    <g id="xtick_10">
     <g id="line2d_34">
      <path d="M 479.566635 108.681683 
L 479.566635 10.659249 
" clip-path="url(#pa28db24d49)" style="fill: none; stroke: #b0b0b0; stroke-width: 0.8; stroke-linecap: square"/>
     </g>
     <g id="line2d_35">
      <g>
       <use xlink:href="#ma20e3ca985" x="479.566635" y="108.681683" style="stroke: #000000; stroke-width: 0.8"/>
      </g>
     </g>
     <g id="text_19">
      <!-- 20 -->
      <g transform="translate(474.5853 119.100182) scale(0.1 -0.1)">
       <use xlink:href="#CMSS17-32" transform="scale(0.996264)"/>
       <use xlink:href="#CMSS17-30" transform="translate(46.843624 0) scale(0.996264)"/>
      </g>
     </g>
    </g>
    <g id="text_20">
     <!-- frequency [GHz] -->
     <g transform="translate(352.84813 132.50934) scale(0.1 -0.1)">
      <use xlink:href="#CMSS17-66" transform="scale(0.996264)"/>
      <use xlink:href="#CMSS17-72" transform="translate(28.626659 0) scale(0.996264)"/>
      <use xlink:href="#CMSS17-65" transform="translate(60.536431 0) scale(0.996264)"/>
      <use xlink:href="#CMSS17-71" transform="translate(102.175253 0) scale(0.996264)"/>
      <use xlink:href="#CMSS17-75" transform="translate(150.380197 0) scale(0.996264)"/>
      <use xlink:href="#CMSS17-65" transform="translate(198.58514 0) scale(0.996264)"/>
      <use xlink:href="#CMSS17-6e" transform="translate(240.223962 0) scale(0.996264)"/>
      <use xlink:href="#CMSS17-63" transform="translate(288.428905 0) scale(0.996264)"/>
      <use xlink:href="#CMSS17-79" transform="translate(330.067727 0) scale(0.996264)"/>
      <use xlink:href="#CMSS17-5b" transform="translate(404.296981 0) scale(0.996264)"/>
      <use xlink:href="#CMSS17-47" transform="translate(431.48242 0) scale(0.996264)"/>
      <use xlink:href="#CMSS17-48" transform="translate(493.940646 0) scale(0.996264)"/>
      <use xlink:href="#CMSS17-7a" transform="translate(560.002165 0) scale(0.996264)"/>
      <use xlink:href="#CMSS17-5d" transform="translate(600.680037 0) scale(0.996264)"/>
     </g>
    </g>
   </g>
   <g id="matplotlib.axis_4">
    <g id="ytick_4">
     <g id="line2d_36">
      <path d="M 293.003968 108.681683 
L 479.566635 108.681683 
" clip-path="url(#pa28db24d49)" style="fill: none; stroke: #b0b0b0; stroke-width: 0.8; stroke-linecap: square"/>
     </g>
     <g id="line2d_37">
      <g>
       <use xlink:href="#m004f9e5e7b" x="293.003968" y="108.681683" style="stroke: #000000; stroke-width: 0.8"/>
      </g>
     </g>
     <g id="text_21">
      <!-- $-\pi$ -->
      <g transform="translate(276.076249 112.140932) scale(0.1 -0.1)">
       <defs>
        <path id="CMSY10-0" d="M 4218 1472 
C 4326 1472 4442 1472 4442 1600 
C 4442 1728 4326 1728 4218 1728 
L 755 1728 
C 646 1728 531 1728 531 1600 
C 531 1472 646 1472 755 1472 
L 4218 1472 
z
" transform="scale(0.015625)"/>
        <path id="CMMI12-19" d="M 1658 2406 
L 2381 2406 
C 2208 1691 2099 1225 2099 715 
C 2099 625 2099 -64 2362 -64 
C 2496 -64 2611 57 2611 166 
C 2611 198 2611 210 2566 306 
C 2394 746 2394 1295 2394 1340 
C 2394 1378 2394 1832 2528 2406 
L 3245 2406 
C 3328 2406 3539 2406 3539 2611 
C 3539 2752 3418 2752 3302 2752 
L 1197 2752 
C 1050 2752 832 2752 538 2438 
C 371 2253 166 1915 166 1876 
C 166 1838 198 1825 237 1825 
C 282 1825 288 1844 320 1883 
C 653 2406 986 2406 1146 2406 
L 1510 2406 
C 1370 1927 1210 1372 685 255 
C 634 153 634 140 634 102 
C 634 -32 749 -64 806 -64 
C 992 -64 1043 102 1120 370 
C 1222 695 1222 708 1286 964 
L 1658 2406 
z
" transform="scale(0.015625)"/>
       </defs>
       <use xlink:href="#CMSY10-0" transform="scale(0.996264)"/>
       <use xlink:href="#CMMI12-19" transform="translate(77.487468 0) scale(0.996264)"/>
      </g>
     </g>
    </g>
    <g id="ytick_5">
     <g id="line2d_38">
      <path d="M 293.003968 84.176075 
L 479.566635 84.176075 
" clip-path="url(#pa28db24d49)" style="fill: none; stroke: #b0b0b0; stroke-width: 0.8; stroke-linecap: square"/>
     </g>
     <g id="line2d_39">
      <g>
       <use xlink:href="#m004f9e5e7b" x="293.003968" y="84.176075" style="stroke: #000000; stroke-width: 0.8"/>
      </g>
     </g>
     <g id="text_22">
      <!-- $-\pi/2$ -->
      <g transform="translate(265.756139 87.912065) scale(0.1 -0.1)">
       <defs>
        <path id="CMMI12-3d" d="M 2746 4563 
C 2746 4569 2784 4665 2784 4678 
C 2784 4755 2720 4800 2669 4800 
C 2637 4800 2579 4800 2528 4659 
L 384 -1364 
C 384 -1370 346 -1466 346 -1479 
C 346 -1556 410 -1600 461 -1600 
C 499 -1600 557 -1594 602 -1460 
L 2746 4563 
z
" transform="scale(0.015625)"/>
       </defs>
       <use xlink:href="#CMSY10-0" transform="scale(0.996264)"/>
       <use xlink:href="#CMMI12-19" transform="translate(77.487468 0) scale(0.996264)"/>
       <use xlink:href="#CMMI12-3d" transform="translate(136.398068 0) scale(0.996264)"/>
       <use xlink:href="#CMR17-32" transform="translate(185.172987 0) scale(0.996264)"/>
      </g>
     </g>
    </g>
    <g id="ytick_6">
     <g id="line2d_40">
      <path d="M 293.003968 59.670466 
L 479.566635 59.670466 
" clip-path="url(#pa28db24d49)" style="fill: none; stroke: #b0b0b0; stroke-width: 0.8; stroke-linecap: square"/>
     </g>
     <g id="line2d_41">
      <g>
       <use xlink:href="#m004f9e5e7b" x="293.003968" y="59.670466" style="stroke: #000000; stroke-width: 0.8"/>
      </g>
     </g>
     <g id="text_23">
      <!-- 0 -->
      <g transform="translate(284.522633 63.129715) scale(0.1 -0.1)">
       <use xlink:href="#CMSS17-30" transform="scale(0.996264)"/>
      </g>
     </g>
    </g>
    <g id="ytick_7">
     <g id="line2d_42">
      <path d="M 293.003968 35.164858 
L 479.566635 35.164858 
" clip-path="url(#pa28db24d49)" style="fill: none; stroke: #b0b0b0; stroke-width: 0.8; stroke-linecap: square"/>
     </g>
     <g id="line2d_43">
      <g>
       <use xlink:href="#m004f9e5e7b" x="293.003968" y="35.164858" style="stroke: #000000; stroke-width: 0.8"/>
      </g>
     </g>
     <g id="text_24">
      <!-- $\pi/2$ -->
      <g transform="translate(273.504882 38.900848) scale(0.1 -0.1)">
       <use xlink:href="#CMMI12-19" transform="scale(0.996264)"/>
       <use xlink:href="#CMMI12-3d" transform="translate(58.910601 0) scale(0.996264)"/>
       <use xlink:href="#CMR17-32" transform="translate(107.68552 0) scale(0.996264)"/>
      </g>
     </g>
    </g>
    <g id="ytick_8">
     <g id="line2d_44">
      <path d="M 293.003968 10.659249 
L 479.566635 10.659249 
" clip-path="url(#pa28db24d49)" style="fill: none; stroke: #b0b0b0; stroke-width: 0.8; stroke-linecap: square"/>
     </g>
     <g id="line2d_45">
      <g>
       <use xlink:href="#m004f9e5e7b" x="293.003968" y="10.659249" style="stroke: #000000; stroke-width: 0.8"/>
      </g>
     </g>
     <g id="text_25">
      <!-- $\pi$ -->
      <g transform="translate(283.824992 14.118498) scale(0.1 -0.1)">
       <use xlink:href="#CMMI12-19" transform="scale(0.996264)"/>
      </g>
     </g>
    </g>
    <g id="text_26">
     <!-- k [rad/cell] -->
     <g transform="translate(259.265479 82.612244) rotate(-90) scale(0.1 -0.1)">
      <defs>
       <path id="CMSS17-6b" d="M 1696 1686 
L 2688 2735 
L 2074 2735 
L 954 1552 
L 954 4416 
L 480 4416 
L 480 0 
L 947 0 
L 947 891 
L 1376 1342 
L 2278 0 
L 2822 0 
L 1696 1686 
z
" transform="scale(0.015625)"/>
       <path id="CMSS17-2f" d="M 2637 4575 
C 2669 4658 2669 4671 2669 4684 
C 2669 4761 2611 4800 2560 4800 
C 2483 4800 2458 4748 2432 4671 
L 365 -1376 
C 333 -1460 333 -1472 333 -1485 
C 333 -1562 390 -1600 442 -1600 
C 518 -1600 544 -1549 570 -1472 
L 2637 4575 
z
" transform="scale(0.015625)"/>
       <path id="CMSS17-6c" d="M 947 4416 
L 474 4416 
L 474 0 
L 947 0 
L 947 4416 
z
" transform="scale(0.015625)"/>
      </defs>
      <use xlink:href="#CMSS17-6b" transform="scale(0.996264)"/>
      <use xlink:href="#CMSS17-5b" transform="translate(76.831602 0) scale(0.996264)"/>
      <use xlink:href="#CMSS17-72" transform="translate(104.017041 0) scale(0.996264)"/>
      <use xlink:href="#CMSS17-61" transform="translate(135.926813 0) scale(0.996264)"/>
      <use xlink:href="#CMSS17-64" transform="translate(180.848734 0) scale(0.996264)"/>
      <use xlink:href="#CMSS17-2f" transform="translate(229.053677 0) scale(0.996264)"/>
      <use xlink:href="#CMSS17-63" transform="translate(275.8973 0) scale(0.996264)"/>
      <use xlink:href="#CMSS17-65" transform="translate(317.536122 0) scale(0.996264)"/>
      <use xlink:href="#CMSS17-6c" transform="translate(359.174945 0) scale(0.996264)"/>
      <use xlink:href="#CMSS17-6c" transform="translate(381.355668 0) scale(0.996264)"/>
      <use xlink:href="#CMSS17-5d" transform="translate(403.536391 0) scale(0.996264)"/>
     </g>
    </g>
   </g>
   <g id="line2d_46">
    <path d="M 293.003968 59.663358 
L 349.31333 50.97154 
L 368.907309 47.748385 
L 372.872757 46.919099 
L 374.085717 46.466391 
L 374.645545 46.028266 
L 374.972111 45.464236 
L 375.158721 44.760541 
L 375.298678 43.573976 
L 375.391982 41.605263 
L 375.485287 32.714903 
L 375.625244 59.670466 
L 375.811853 50.044481 
L 376.045115 48.407353 
L 376.371681 47.669644 
L 376.838205 47.222548 
L 377.584642 46.861913 
L 379.030864 46.45346 
L 382.483137 45.762285 
L 395.35918 43.511387 
L 420.131567 39.103108 
L 439.352327 35.45677 
L 456.287122 32.021537 
L 471.44913 28.722748 
L 479.613287 26.84157 
L 479.613287 26.84157 
" clip-path="url(#pa28db24d49)" style="fill: none; stroke: #000000; stroke-linecap: square"/>
   </g>
   <g id="line2d_47">
    <path d="M 373.479237 108.681683 
L 373.479237 10.659249 
" clip-path="url(#pa28db24d49)" style="fill: none; stroke: #98509f; stroke-linecap: square"/>
   </g>
   <g id="line2d_48">
    <path d="M 401.470635 108.681683 
L 401.470635 10.659249 
" clip-path="url(#pa28db24d49)" style="fill: none; stroke: #387eb9; stroke-linecap: square"/>
   </g>
   <g id="line2d_49">
    <path d="M 345.487839 108.681683 
L 345.487839 10.659249 
" clip-path="url(#pa28db24d49)" style="fill: none; stroke: #393b7a; stroke-linecap: square"/>
   </g>
   <g id="line2d_50">
    <path d="M 293.003968 59.670466 
L 479.566635 59.670466 
" clip-path="url(#pa28db24d49)" style="fill: none; stroke: #808080; stroke-linecap: square"/>
   </g>
   <g id="patch_8">
    <path d="M 293.003968 108.681683 
L 293.003968 10.659249 
" style="fill: none; stroke: #000000; stroke-width: 0.8; stroke-linejoin: miter; stroke-linecap: square"/>
   </g>
   <g id="patch_9">
    <path d="M 479.566635 108.681683 
L 479.566635 10.659249 
" style="fill: none; stroke: #000000; stroke-width: 0.8; stroke-linejoin: miter; stroke-linecap: square"/>
   </g>
   <g id="patch_10">
    <path d="M 293.003968 108.681683 
L 479.566635 108.681683 
" style="fill: none; stroke: #000000; stroke-width: 0.8; stroke-linejoin: miter; stroke-linecap: square"/>
   </g>
   <g id="patch_11">
    <path d="M 293.003968 10.659249 
L 479.566635 10.659249 
" style="fill: none; stroke: #000000; stroke-width: 0.8; stroke-linejoin: miter; stroke-linecap: square"/>
   </g>
  </g>
  <g id="axes_3">
   <g id="patch_12">
    <path d="M 39.606646 247.281683 
L 226.169313 247.281683 
L 226.169313 149.259249 
L 39.606646 149.259249 
L 39.606646 247.281683 
z
" style="fill: none"/>
   </g>
   <g id="matplotlib.axis_5">
    <g id="xtick_11">
     <g id="line2d_51">
      <path d="M 86.212323 247.281683 
L 86.212323 149.259249 
" clip-path="url(#p4d4062aad6)" style="fill: none; stroke: #b0b0b0; stroke-width: 0.8; stroke-linecap: square"/>
     </g>
     <g id="line2d_52">
      <g>
       <use xlink:href="#ma20e3ca985" x="86.212323" y="247.281683" style="stroke: #000000; stroke-width: 0.8"/>
      </g>
     </g>
     <g id="text_27">
      <!-- 5 -->
      <g transform="translate(83.721656 257.700182) scale(0.1 -0.1)">
       <use xlink:href="#CMSS17-35" transform="scale(0.996264)"/>
      </g>
     </g>
    </g>
    <g id="xtick_12">
     <g id="line2d_53">
      <path d="M 132.864653 247.281683 
L 132.864653 149.259249 
" clip-path="url(#p4d4062aad6)" style="fill: none; stroke: #b0b0b0; stroke-width: 0.8; stroke-linecap: square"/>
     </g>
     <g id="line2d_54">
      <g>
       <use xlink:href="#ma20e3ca985" x="132.864653" y="247.281683" style="stroke: #000000; stroke-width: 0.8"/>
      </g>
     </g>
     <g id="text_28">
      <!-- 10 -->
      <g transform="translate(127.883318 257.700182) scale(0.1 -0.1)">
       <use xlink:href="#CMSS17-31" transform="scale(0.996264)"/>
       <use xlink:href="#CMSS17-30" transform="translate(46.843624 0) scale(0.996264)"/>
      </g>
     </g>
    </g>
    <g id="xtick_13">
     <g id="line2d_55">
      <path d="M 179.516983 247.281683 
L 179.516983 149.259249 
" clip-path="url(#p4d4062aad6)" style="fill: none; stroke: #b0b0b0; stroke-width: 0.8; stroke-linecap: square"/>
     </g>
     <g id="line2d_56">
      <g>
       <use xlink:href="#ma20e3ca985" x="179.516983" y="247.281683" style="stroke: #000000; stroke-width: 0.8"/>
      </g>
     </g>
     <g id="text_29">
      <!-- 15 -->
      <g transform="translate(174.535648 257.700182) scale(0.1 -0.1)">
       <use xlink:href="#CMSS17-31" transform="scale(0.996264)"/>
       <use xlink:href="#CMSS17-35" transform="translate(46.843624 0) scale(0.996264)"/>
      </g>
     </g>
    </g>
    <g id="xtick_14">
     <g id="line2d_57">
      <path d="M 226.169313 247.281683 
L 226.169313 149.259249 
" clip-path="url(#p4d4062aad6)" style="fill: none; stroke: #b0b0b0; stroke-width: 0.8; stroke-linecap: square"/>
     </g>
     <g id="line2d_58">
      <g>
       <use xlink:href="#ma20e3ca985" x="226.169313" y="247.281683" style="stroke: #000000; stroke-width: 0.8"/>
      </g>
     </g>
     <g id="text_30">
      <!-- 20 -->
      <g transform="translate(221.187978 257.700182) scale(0.1 -0.1)">
       <use xlink:href="#CMSS17-32" transform="scale(0.996264)"/>
       <use xlink:href="#CMSS17-30" transform="translate(46.843624 0) scale(0.996264)"/>
      </g>
     </g>
    </g>
    <g id="text_31">
     <!-- frequency [GHz] -->
     <g transform="translate(99.450808 271.10934) scale(0.1 -0.1)">
      <use xlink:href="#CMSS17-66" transform="scale(0.996264)"/>
      <use xlink:href="#CMSS17-72" transform="translate(28.626659 0) scale(0.996264)"/>
      <use xlink:href="#CMSS17-65" transform="translate(60.536431 0) scale(0.996264)"/>
      <use xlink:href="#CMSS17-71" transform="translate(102.175253 0) scale(0.996264)"/>
      <use xlink:href="#CMSS17-75" transform="translate(150.380197 0) scale(0.996264)"/>
      <use xlink:href="#CMSS17-65" transform="translate(198.58514 0) scale(0.996264)"/>
      <use xlink:href="#CMSS17-6e" transform="translate(240.223962 0) scale(0.996264)"/>
      <use xlink:href="#CMSS17-63" transform="translate(288.428905 0) scale(0.996264)"/>
      <use xlink:href="#CMSS17-79" transform="translate(330.067727 0) scale(0.996264)"/>
      <use xlink:href="#CMSS17-5b" transform="translate(404.296981 0) scale(0.996264)"/>
      <use xlink:href="#CMSS17-47" transform="translate(431.48242 0) scale(0.996264)"/>
      <use xlink:href="#CMSS17-48" transform="translate(493.940646 0) scale(0.996264)"/>
      <use xlink:href="#CMSS17-7a" transform="translate(560.002165 0) scale(0.996264)"/>
      <use xlink:href="#CMSS17-5d" transform="translate(600.680037 0) scale(0.996264)"/>
     </g>
    </g>
   </g>
   <g id="matplotlib.axis_6">
    <g id="ytick_9">
     <g id="line2d_59">
      <path d="M 39.606646 247.281683 
L 226.169313 247.281683 
" clip-path="url(#p4d4062aad6)" style="fill: none; stroke: #b0b0b0; stroke-width: 0.8; stroke-linecap: square"/>
     </g>
     <g id="line2d_60">
      <g>
       <use xlink:href="#m004f9e5e7b" x="39.606646" y="247.281683" style="stroke: #000000; stroke-width: 0.8"/>
      </g>
     </g>
     <g id="text_32">
      <!-- 0 -->
      <g transform="translate(31.125311 250.740932) scale(0.1 -0.1)">
       <use xlink:href="#CMSS17-30" transform="scale(0.996264)"/>
      </g>
     </g>
    </g>
    <g id="ytick_10">
     <g id="line2d_61">
      <path d="M 39.606646 222.776075 
L 226.169313 222.776075 
" clip-path="url(#p4d4062aad6)" style="fill: none; stroke: #b0b0b0; stroke-width: 0.8; stroke-linecap: square"/>
     </g>
     <g id="line2d_62">
      <g>
       <use xlink:href="#m004f9e5e7b" x="39.606646" y="222.776075" style="stroke: #000000; stroke-width: 0.8"/>
      </g>
     </g>
     <g id="text_33">
      <!-- 25 -->
      <g transform="translate(26.143975 226.235324) scale(0.1 -0.1)">
       <use xlink:href="#CMSS17-32" transform="scale(0.996264)"/>
       <use xlink:href="#CMSS17-35" transform="translate(46.843624 0) scale(0.996264)"/>
      </g>
     </g>
    </g>
    <g id="ytick_11">
     <g id="line2d_63">
      <path d="M 39.606646 198.270466 
L 226.169313 198.270466 
" clip-path="url(#p4d4062aad6)" style="fill: none; stroke: #b0b0b0; stroke-width: 0.8; stroke-linecap: square"/>
     </g>
     <g id="line2d_64">
      <g>
       <use xlink:href="#m004f9e5e7b" x="39.606646" y="198.270466" style="stroke: #000000; stroke-width: 0.8"/>
      </g>
     </g>
     <g id="text_34">
      <!-- 50 -->
      <g transform="translate(26.143975 201.729715) scale(0.1 -0.1)">
       <use xlink:href="#CMSS17-35" transform="scale(0.996264)"/>
       <use xlink:href="#CMSS17-30" transform="translate(46.843624 0) scale(0.996264)"/>
      </g>
     </g>
    </g>
    <g id="ytick_12">
     <g id="line2d_65">
      <path d="M 39.606646 173.764858 
L 226.169313 173.764858 
" clip-path="url(#p4d4062aad6)" style="fill: none; stroke: #b0b0b0; stroke-width: 0.8; stroke-linecap: square"/>
     </g>
     <g id="line2d_66">
      <g>
       <use xlink:href="#m004f9e5e7b" x="39.606646" y="173.764858" style="stroke: #000000; stroke-width: 0.8"/>
      </g>
     </g>
     <g id="text_35">
      <!-- 75 -->
      <g transform="translate(26.143975 177.224107) scale(0.1 -0.1)">
       <defs>
        <path id="CMSS17-37" d="M 1389 3788 
C 1466 3788 1542 3795 1619 3795 
L 2355 3795 
C 1440 2715 915 1350 915 -64 
L 1427 -64 
C 1427 1305 1875 2695 2752 3807 
L 2752 4224 
L 250 4224 
L 250 3788 
L 1389 3788 
z
" transform="scale(0.015625)"/>
       </defs>
       <use xlink:href="#CMSS17-37" transform="scale(0.996264)"/>
       <use xlink:href="#CMSS17-35" transform="translate(46.843624 0) scale(0.996264)"/>
      </g>
     </g>
    </g>
    <g id="ytick_13">
     <g id="line2d_67">
      <path d="M 39.606646 149.259249 
L 226.169313 149.259249 
" clip-path="url(#p4d4062aad6)" style="fill: none; stroke: #b0b0b0; stroke-width: 0.8; stroke-linecap: square"/>
     </g>
     <g id="line2d_68">
      <g>
       <use xlink:href="#m004f9e5e7b" x="39.606646" y="149.259249" style="stroke: #000000; stroke-width: 0.8"/>
      </g>
     </g>
     <g id="text_36">
      <!-- 100 -->
      <g transform="translate(21.16264 152.718498) scale(0.1 -0.1)">
       <use xlink:href="#CMSS17-31" transform="scale(0.996264)"/>
       <use xlink:href="#CMSS17-30" transform="translate(46.843624 0) scale(0.996264)"/>
       <use xlink:href="#CMSS17-30" transform="translate(93.687247 0) scale(0.996264)"/>
      </g>
     </g>
    </g>
    <g id="text_37">
     <!-- $Z_\mathrm{Bloch}$ [Ohm] -->
     <g transform="translate(14.67198 226.525669) rotate(-90) scale(0.1 -0.1)">
      <defs>
       <path id="CMMI12-5a" d="M 4480 4153 
C 4518 4198 4550 4236 4550 4300 
C 4550 4345 4544 4352 4397 4352 
L 1754 4352 
C 1606 4352 1600 4345 1562 4230 
L 1210 3083 
C 1190 3019 1190 3007 1190 2994 
C 1190 2968 1210 2930 1254 2930 
C 1306 2930 1318 2956 1344 3039 
C 1581 3726 1894 4166 2906 4166 
L 3955 4166 
L 448 217 
C 390 147 365 121 365 51 
C 365 0 397 0 518 0 
L 3251 0 
C 3398 0 3405 6 3443 121 
L 3891 1529 
C 3898 1548 3910 1593 3910 1618 
C 3910 1650 3885 1682 3846 1682 
C 3795 1682 3789 1676 3738 1516 
C 3469 695 3187 198 2074 198 
L 966 198 
L 4480 4153 
z
" transform="scale(0.015625)"/>
       <path id="CMR17-42" d="M 333 4352 
L 333 4185 
C 774 4185 845 4185 845 3897 
L 845 451 
C 845 166 774 166 333 166 
L 333 0 
L 2534 0 
C 3354 0 3885 578 3885 1155 
C 3885 1726 3360 2214 2675 2259 
C 3290 2380 3718 2790 3718 3276 
C 3718 3808 3194 4352 2368 4352 
L 333 4352 
z
M 1248 2304 
L 1248 3936 
C 1248 4153 1261 4185 1517 4185 
L 2336 4185 
C 2970 4185 3251 3673 3251 3276 
C 3251 2790 2861 2304 2170 2304 
L 1248 2304 
z
M 1517 166 
C 1261 166 1248 198 1248 413 
L 1248 2201 
L 2432 2201 
C 3091 2201 3411 1624 3411 1161 
C 3411 698 3046 166 2349 166 
L 1517 166 
z
" transform="scale(0.015625)"/>
       <path id="CMR17-6c" d="M 979 4416 
L 218 4345 
L 218 4179 
C 595 4179 653 4141 653 3835 
L 653 439 
C 653 198 627 166 218 166 
L 218 0 
C 371 12 653 12 813 12 
C 979 12 1261 12 1414 0 
L 1414 166 
C 1005 166 979 191 979 439 
L 979 4416 
z
" transform="scale(0.015625)"/>
       <path id="CMR17-6f" d="M 2758 1356 
C 2758 2176 2163 2816 1466 2816 
C 768 2816 173 2176 173 1356 
C 173 550 768 -64 1466 -64 
C 2163 -64 2758 550 2758 1356 
z
M 1466 51 
C 1165 51 909 230 762 480 
C 602 768 582 1126 582 1408 
C 582 1676 595 2009 762 2297 
C 890 2508 1139 2713 1466 2713 
C 1754 2713 1997 2553 2150 2329 
C 2349 2028 2349 1606 2349 1408 
C 2349 1158 2336 774 2163 467 
C 1984 172 1709 51 1466 51 
z
" transform="scale(0.015625)"/>
       <path id="CMR17-63" d="M 2234 2240 
C 2112 2240 1933 2240 1933 2015 
C 1933 1836 2080 1785 2163 1785 
C 2208 1785 2394 1804 2394 2028 
C 2394 2476 1958 2816 1466 2816 
C 787 2816 211 2201 211 1379 
C 211 521 813 -64 1466 -64 
C 2259 -64 2458 676 2458 747 
C 2458 773 2451 792 2406 792 
C 2362 792 2355 786 2330 702 
C 2163 180 1798 51 1523 51 
C 1114 51 621 431 621 1385 
C 621 2358 1094 2700 1472 2700 
C 1722 2700 2093 2582 2234 2240 
z
" transform="scale(0.015625)"/>
       <path id="CMR17-68" d="M 2656 1954 
C 2656 2282 2592 2816 1837 2816 
C 1312 2816 1056 2392 979 2179 
L 973 2179 
L 973 4416 
L 211 4345 
L 211 4179 
C 589 4179 646 4141 646 3843 
L 646 443 
C 646 198 621 166 211 166 
L 211 0 
C 365 12 646 12 813 12 
C 979 12 1267 12 1421 0 
L 1421 166 
C 1011 166 986 192 986 443 
L 986 1678 
C 986 2269 1344 2713 1792 2713 
C 2266 2713 2317 2289 2317 1980 
L 2317 443 
C 2317 198 2291 166 1882 166 
L 1882 0 
C 2035 12 2317 12 2483 12 
C 2650 12 2938 12 3091 0 
L 3091 166 
C 2682 166 2656 192 2656 443 
L 2656 1954 
z
" transform="scale(0.015625)"/>
       <path id="CMSS17-4f" d="M 4096 2201 
C 4096 3541 3219 4544 2214 4544 
C 1210 4544 333 3535 333 2201 
C 333 855 1222 -128 2214 -128 
C 3206 -128 4096 855 4096 2201 
z
M 2214 275 
C 1510 275 870 1067 870 2285 
C 870 3470 1549 4140 2214 4140 
C 2880 4140 3558 3470 3558 2285 
C 3558 1061 2912 275 2214 275 
z
" transform="scale(0.015625)"/>
       <path id="CMSS17-68" d="M 2618 1878 
C 2618 2283 2522 2816 1798 2816 
C 1395 2816 1133 2617 947 2399 
L 947 4416 
L 474 4416 
L 474 0 
L 960 0 
L 960 1556 
C 960 1962 1114 2425 1549 2425 
C 2112 2425 2131 2045 2131 1826 
L 2131 0 
L 2618 0 
L 2618 1878 
z
" transform="scale(0.015625)"/>
       <path id="CMSS17-6d" d="M 4288 1878 
C 4288 2309 4179 2816 3462 2816 
C 2982 2816 2694 2515 2566 2328 
C 2451 2668 2182 2816 1798 2816 
C 1363 2816 1088 2566 941 2386 
L 941 2783 
L 474 2783 
L 474 0 
L 960 0 
L 960 1556 
C 960 1936 1101 2425 1555 2425 
C 2138 2425 2138 2013 2138 1826 
L 2138 0 
L 2624 0 
L 2624 1556 
C 2624 1936 2765 2425 3219 2425 
C 3802 2425 3802 2013 3802 1826 
L 3802 0 
L 4288 0 
L 4288 1878 
z
" transform="scale(0.015625)"/>
      </defs>
      <use xlink:href="#CMMI12-5a" transform="scale(0.996264)"/>
      <use xlink:href="#CMR17-42" transform="translate(66.768782 -14.943915) scale(0.697382)"/>
      <use xlink:href="#CMR17-6c" transform="translate(112.400702 -14.943915) scale(0.697382)"/>
      <use xlink:href="#CMR17-6f" transform="translate(129.810361 -14.943915) scale(0.697382)"/>
      <use xlink:href="#CMR17-63" transform="translate(163.615248 -14.943915) scale(0.697382)"/>
      <use xlink:href="#CMR17-68" transform="translate(190.133359 -14.943915) scale(0.697382)"/>
      <use xlink:href="#CMSS17-5b" transform="translate(257.487212 0) scale(0.996264)"/>
      <use xlink:href="#CMSS17-4f" transform="translate(284.672651 0) scale(0.996264)"/>
      <use xlink:href="#CMSS17-68" transform="translate(353.696906 0) scale(0.996264)"/>
      <use xlink:href="#CMSS17-6d" transform="translate(401.901849 0) scale(0.996264)"/>
      <use xlink:href="#CMSS17-5d" transform="translate(476.131104 0) scale(0.996264)"/>
     </g>
    </g>
   </g>
   <g id="line2d_69">
    <path d="M 39.606646 198.346447 
L 66.151822 198.234948 
L 94.889657 197.884414 
L 113.037413 197.724015 
L 116.816252 197.895322 
L 118.58904 198.171405 
L 119.615392 198.534241 
L 120.268524 198.980328 
L 120.735048 199.549983 
L 121.108266 200.359371 
L 121.38818 201.452186 
L 121.621442 203.157521 
L 121.808051 205.947296 
L 121.948008 210.684279 
L 122.041313 218.560196 
L 122.227922 247.281683 
L 122.274574 100.423668 
L 122.321227 157.561435 
L 122.507836 184.33315 
L 122.741098 190.083747 
L 123.067664 192.767717 
L 123.440883 194.064314 
L 123.907406 194.869925 
L 124.467234 195.386669 
L 125.213671 195.764448 
L 126.333327 196.057416 
L 128.106116 196.264217 
L 131.185169 196.371151 
L 137.063363 196.320375 
L 148.446532 195.972646 
L 165.567937 195.222314 
L 183.995607 194.195695 
L 201.583535 192.996531 
L 217.865198 191.666875 
L 226.215965 190.890329 
L 226.215965 190.890329 
" clip-path="url(#p4d4062aad6)" style="fill: none; stroke: #000000; stroke-linecap: square"/>
   </g>
   <g id="line2d_70">
    <path d="M 120.081915 247.281683 
L 120.081915 149.259249 
" clip-path="url(#p4d4062aad6)" style="fill: none; stroke: #98509f; stroke-linecap: square"/>
   </g>
   <g id="line2d_71">
    <path d="M 148.073313 247.281683 
L 148.073313 149.259249 
" clip-path="url(#p4d4062aad6)" style="fill: none; stroke: #387eb9; stroke-linecap: square"/>
   </g>
   <g id="line2d_72">
    <path d="M 92.090517 247.281683 
L 92.090517 149.259249 
" clip-path="url(#p4d4062aad6)" style="fill: none; stroke: #393b7a; stroke-linecap: square"/>
   </g>
   <g id="line2d_73">
    <path d="M 39.606646 198.270466 
L 226.169313 198.270466 
" clip-path="url(#p4d4062aad6)" style="fill: none; stroke: #000000; stroke-linecap: square"/>
   </g>
   <g id="patch_13">
    <path d="M 39.606646 247.281683 
L 39.606646 149.259249 
" style="fill: none; stroke: #000000; stroke-width: 0.8; stroke-linejoin: miter; stroke-linecap: square"/>
   </g>
   <g id="patch_14">
    <path d="M 226.169313 247.281683 
L 226.169313 149.259249 
" style="fill: none; stroke: #000000; stroke-width: 0.8; stroke-linejoin: miter; stroke-linecap: square"/>
   </g>
   <g id="patch_15">
    <path d="M 39.606646 247.281683 
L 226.169313 247.281683 
" style="fill: none; stroke: #000000; stroke-width: 0.8; stroke-linejoin: miter; stroke-linecap: square"/>
   </g>
   <g id="patch_16">
    <path d="M 39.606646 149.259249 
L 226.169313 149.259249 
" style="fill: none; stroke: #000000; stroke-width: 0.8; stroke-linejoin: miter; stroke-linecap: square"/>
   </g>
  </g>
  <g id="axes_4">
   <g id="patch_17">
    <path d="M 293.003968 247.281683 
L 479.566635 247.281683 
L 479.566635 149.259249 
L 293.003968 149.259249 
L 293.003968 247.281683 
z
" style="fill: none"/>
   </g>
   <g id="line2d_74">
    <path d="M 293.003968 218.452465 
L 479.566635 218.452465 
" clip-path="url(#pad82c4853a)" style="fill: none; stroke: #808080; stroke-linecap: square"/>
   </g>
   <g id="matplotlib.axis_7">
    <g id="xtick_15">
     <g id="line2d_75">
      <path d="M 302.332101 247.281683 
L 302.332101 149.259249 
" clip-path="url(#pad82c4853a)" style="fill: none; stroke: #b0b0b0; stroke-width: 0.8; stroke-linecap: square"/>
     </g>
     <g id="line2d_76">
      <g>
       <use xlink:href="#ma20e3ca985" x="302.332101" y="247.281683" style="stroke: #000000; stroke-width: 0.8"/>
      </g>
     </g>
     <g id="text_38">
      <!-- 7.8 -->
      <g transform="translate(295.967062 257.700182) scale(0.1 -0.1)">
       <defs>
        <path id="CMSS17-2e" d="M 1088 512 
L 576 512 
L 576 0 
L 1088 0 
L 1088 512 
z
" transform="scale(0.015625)"/>
        <path id="CMSS17-38" d="M 1933 2246 
C 2419 2406 2669 2793 2669 3174 
C 2669 3774 2157 4288 1504 4288 
C 826 4288 333 3755 333 3174 
C 333 2799 576 2412 1069 2246 
C 442 2003 250 1516 250 1152 
C 250 448 819 -128 1498 -128 
C 2202 -128 2752 460 2752 1152 
C 2752 1574 2502 2022 1933 2246 
z
M 1504 2438 
C 1075 2438 787 2728 787 3167 
C 787 3613 1075 3897 1504 3897 
C 1901 3897 2214 3639 2214 3167 
C 2214 2703 1907 2438 1504 2438 
z
M 1504 268 
C 1139 268 749 518 749 1158 
C 749 1817 1184 2048 1498 2048 
C 1843 2048 2253 1804 2253 1158 
C 2253 492 1830 268 1504 268 
z
" transform="scale(0.015625)"/>
       </defs>
       <use xlink:href="#CMSS17-37" transform="scale(0.996264)"/>
       <use xlink:href="#CMSS17-2e" transform="translate(46.843624 0) scale(0.996264)"/>
       <use xlink:href="#CMSS17-38" transform="translate(72.867828 0) scale(0.996264)"/>
      </g>
     </g>
    </g>
    <g id="xtick_16">
     <g id="line2d_77">
      <path d="M 339.644635 247.281683 
L 339.644635 149.259249 
" clip-path="url(#pad82c4853a)" style="fill: none; stroke: #b0b0b0; stroke-width: 0.8; stroke-linecap: square"/>
     </g>
     <g id="line2d_78">
      <g>
       <use xlink:href="#ma20e3ca985" x="339.644635" y="247.281683" style="stroke: #000000; stroke-width: 0.8"/>
      </g>
     </g>
     <g id="text_39">
      <!-- 8 -->
      <g transform="translate(337.153967 257.700182) scale(0.1 -0.1)">
       <use xlink:href="#CMSS17-38" transform="scale(0.996264)"/>
      </g>
     </g>
    </g>
    <g id="xtick_17">
     <g id="line2d_79">
      <path d="M 376.957168 247.281683 
L 376.957168 149.259249 
" clip-path="url(#pad82c4853a)" style="fill: none; stroke: #b0b0b0; stroke-width: 0.8; stroke-linecap: square"/>
     </g>
     <g id="line2d_80">
      <g>
       <use xlink:href="#ma20e3ca985" x="376.957168" y="247.281683" style="stroke: #000000; stroke-width: 0.8"/>
      </g>
     </g>
     <g id="text_40">
      <!-- 8.2 -->
      <g transform="translate(370.592129 257.700182) scale(0.1 -0.1)">
       <use xlink:href="#CMSS17-38" transform="scale(0.996264)"/>
       <use xlink:href="#CMSS17-2e" transform="translate(46.843624 0) scale(0.996264)"/>
       <use xlink:href="#CMSS17-32" transform="translate(72.867828 0) scale(0.996264)"/>
      </g>
     </g>
    </g>
    <g id="xtick_18">
     <g id="line2d_81">
      <path d="M 414.269702 247.281683 
L 414.269702 149.259249 
" clip-path="url(#pad82c4853a)" style="fill: none; stroke: #b0b0b0; stroke-width: 0.8; stroke-linecap: square"/>
     </g>
     <g id="line2d_82">
      <g>
       <use xlink:href="#ma20e3ca985" x="414.269702" y="247.281683" style="stroke: #000000; stroke-width: 0.8"/>
      </g>
     </g>
     <g id="text_41">
      <!-- 8.4 -->
      <g transform="translate(407.904662 257.700182) scale(0.1 -0.1)">
       <defs>
        <path id="CMSS17-34" d="M 2253 1088 
L 2835 1088 
L 2835 1478 
L 2253 1478 
L 2253 4224 
L 1690 4224 
L 166 1478 
L 166 1088 
L 1747 1088 
L 1747 0 
L 2253 0 
L 2253 1088 
z
M 659 1478 
C 1030 2139 1766 3474 1766 3927 
L 1766 1478 
L 659 1478 
z
" transform="scale(0.015625)"/>
       </defs>
       <use xlink:href="#CMSS17-38" transform="scale(0.996264)"/>
       <use xlink:href="#CMSS17-2e" transform="translate(46.843624 0) scale(0.996264)"/>
       <use xlink:href="#CMSS17-34" transform="translate(72.867828 0) scale(0.996264)"/>
      </g>
     </g>
    </g>
    <g id="xtick_19">
     <g id="line2d_83">
      <path d="M 451.582235 247.281683 
L 451.582235 149.259249 
" clip-path="url(#pad82c4853a)" style="fill: none; stroke: #b0b0b0; stroke-width: 0.8; stroke-linecap: square"/>
     </g>
     <g id="line2d_84">
      <g>
       <use xlink:href="#ma20e3ca985" x="451.582235" y="247.281683" style="stroke: #000000; stroke-width: 0.8"/>
      </g>
     </g>
     <g id="text_42">
      <!-- 8.6 -->
      <g transform="translate(445.217195 257.700182) scale(0.1 -0.1)">
       <defs>
        <path id="CMSS17-36" d="M 2496 4159 
C 2227 4268 2035 4288 1856 4288 
C 1024 4288 250 3408 250 2023 
C 250 268 986 -128 1510 -128 
C 1798 -128 2086 -39 2362 281 
C 2643 619 2752 900 2752 1392 
C 2752 2183 2362 2886 1779 2886 
C 1357 2886 992 2662 768 2381 
C 832 3290 1254 3897 1862 3897 
C 2029 3897 2246 3871 2496 3760 
L 2496 4159 
z
M 774 1372 
C 774 1423 774 1455 781 1551 
C 781 2049 1069 2496 1536 2496 
C 1837 2496 1990 2336 2106 2138 
C 2240 1889 2246 1653 2246 1392 
C 2246 1143 2246 894 2099 638 
C 1978 441 1818 268 1510 268 
C 902 268 800 1117 774 1372 
z
" transform="scale(0.015625)"/>
       </defs>
       <use xlink:href="#CMSS17-38" transform="scale(0.996264)"/>
       <use xlink:href="#CMSS17-2e" transform="translate(46.843624 0) scale(0.996264)"/>
       <use xlink:href="#CMSS17-36" transform="translate(72.867828 0) scale(0.996264)"/>
      </g>
     </g>
    </g>
    <g id="text_43">
     <!-- pump frequency [GHz] -->
     <g transform="translate(339.50925 271.10934) scale(0.1 -0.1)">
      <defs>
       <path id="CMSS17-70" d="M 966 275 
C 1178 70 1466 -64 1773 -64 
C 2368 -64 2880 553 2880 1382 
C 2880 2147 2496 2816 1946 2816 
C 1626 2816 1242 2700 954 2470 
L 954 2764 
L 480 2764 
L 480 -1280 
L 966 -1280 
L 966 275 
z
M 966 2088 
C 1018 2166 1235 2412 1587 2412 
C 2035 2412 2394 1946 2394 1382 
C 2394 741 1958 326 1530 326 
C 1402 326 1267 358 1139 468 
C 966 624 966 721 966 812 
L 966 2088 
z
" transform="scale(0.015625)"/>
      </defs>
      <use xlink:href="#CMSS17-70" transform="scale(0.996264)"/>
      <use xlink:href="#CMSS17-75" transform="translate(48.204943 0) scale(0.996264)"/>
      <use xlink:href="#CMSS17-6d" transform="translate(96.409886 0) scale(0.996264)"/>
      <use xlink:href="#CMSS17-70" transform="translate(170.639141 0) scale(0.996264)"/>
      <use xlink:href="#CMSS17-66" transform="translate(250.073197 0) scale(0.996264)"/>
      <use xlink:href="#CMSS17-72" transform="translate(278.699855 0) scale(0.996264)"/>
      <use xlink:href="#CMSS17-65" transform="translate(310.609628 0) scale(0.996264)"/>
      <use xlink:href="#CMSS17-71" transform="translate(352.24845 0) scale(0.996264)"/>
      <use xlink:href="#CMSS17-75" transform="translate(400.453393 0) scale(0.996264)"/>
      <use xlink:href="#CMSS17-65" transform="translate(448.658336 0) scale(0.996264)"/>
      <use xlink:href="#CMSS17-6e" transform="translate(490.297158 0) scale(0.996264)"/>
      <use xlink:href="#CMSS17-63" transform="translate(538.502101 0) scale(0.996264)"/>
      <use xlink:href="#CMSS17-79" transform="translate(580.140924 0) scale(0.996264)"/>
      <use xlink:href="#CMSS17-5b" transform="translate(654.370178 0) scale(0.996264)"/>
      <use xlink:href="#CMSS17-47" transform="translate(681.555617 0) scale(0.996264)"/>
      <use xlink:href="#CMSS17-48" transform="translate(744.013842 0) scale(0.996264)"/>
      <use xlink:href="#CMSS17-7a" transform="translate(810.075361 0) scale(0.996264)"/>
      <use xlink:href="#CMSS17-5d" transform="translate(850.753233 0) scale(0.996264)"/>
     </g>
    </g>
   </g>
   <g id="matplotlib.axis_8">
    <g id="ytick_14">
     <g id="line2d_85">
      <path d="M 293.003968 218.452465 
L 479.566635 218.452465 
" clip-path="url(#pad82c4853a)" style="fill: none; stroke: #b0b0b0; stroke-width: 0.8; stroke-linecap: square"/>
     </g>
     <g id="line2d_86">
      <g>
       <use xlink:href="#m004f9e5e7b" x="293.003968" y="218.452465" style="stroke: #000000; stroke-width: 0.8"/>
      </g>
     </g>
     <g id="text_44">
      <!-- 0 -->
      <g transform="translate(284.522633 221.911715) scale(0.1 -0.1)">
       <use xlink:href="#CMSS17-30" transform="scale(0.996264)"/>
      </g>
     </g>
    </g>
    <g id="ytick_15">
     <g id="line2d_87">
      <path d="M 293.003968 179.051324 
L 479.566635 179.051324 
" clip-path="url(#pad82c4853a)" style="fill: none; stroke: #b0b0b0; stroke-width: 0.8; stroke-linecap: square"/>
     </g>
     <g id="line2d_88">
      <g>
       <use xlink:href="#m004f9e5e7b" x="293.003968" y="179.051324" style="stroke: #000000; stroke-width: 0.8"/>
      </g>
     </g>
     <g id="text_45">
      <!-- 0.005 -->
      <g transform="translate(266.811218 182.510573) scale(0.1 -0.1)">
       <use xlink:href="#CMSS17-30" transform="scale(0.996264)"/>
       <use xlink:href="#CMSS17-2e" transform="translate(46.843624 0) scale(0.996264)"/>
       <use xlink:href="#CMSS17-30" transform="translate(72.867828 0) scale(0.996264)"/>
       <use xlink:href="#CMSS17-30" transform="translate(119.711452 0) scale(0.996264)"/>
       <use xlink:href="#CMSS17-35" transform="translate(166.555075 0) scale(0.996264)"/>
      </g>
     </g>
    </g>
    <g id="text_46">
     <!-- $\Delta_\beta^\mathrm{PA}$ [rad/cell] -->
     <g transform="translate(258.633692 228.473231) rotate(-90) scale(0.1 -0.1)">
      <defs>
       <path id="CMR17-1" d="M 2598 4435 
C 2547 4544 2522 4544 2470 4544 
C 2394 4544 2387 4531 2342 4441 
L 269 108 
C 262 96 237 38 237 32 
C 237 6 243 0 358 0 
L 4576 0 
C 4691 0 4698 6 4698 32 
C 4698 38 4672 96 4666 108 
L 2598 4435 
z
M 2310 4056 
L 4083 358 
L 531 358 
L 2310 4056 
z
" transform="scale(0.015625)"/>
       <path id="CMR17-50" d="M 1267 2048 
L 2291 2048 
C 3117 2048 3718 2583 3718 3187 
C 3718 3791 3130 4352 2291 4352 
L 333 4352 
L 333 4185 
C 774 4185 845 4185 845 3899 
L 845 453 
C 845 166 774 166 333 166 
L 333 0 
C 518 12 858 12 1056 12 
C 1254 12 1594 12 1779 0 
L 1779 166 
C 1338 166 1267 166 1267 453 
L 1267 2048 
z
M 1254 2182 
L 1254 3937 
C 1254 4153 1267 4185 1523 4185 
L 2170 4185 
C 2995 4185 3232 3715 3232 3187 
C 3232 2608 2950 2182 2170 2182 
L 1254 2182 
z
" transform="scale(0.015625)"/>
       <path id="CMR17-41" d="M 2323 4441 
C 2291 4524 2278 4544 2214 4544 
C 2150 4544 2138 4524 2106 4441 
L 749 580 
C 627 236 371 166 147 166 
L 147 0 
C 262 12 518 12 640 12 
C 800 12 1056 12 1210 0 
L 1210 166 
C 909 179 864 382 864 459 
C 864 516 877 548 890 586 
L 1229 1536 
L 2906 1536 
L 3290 453 
C 3322 376 3322 363 3322 338 
C 3322 166 3046 166 2925 166 
L 2925 0 
C 3110 12 3443 12 3642 12 
C 3808 12 4128 12 4282 0 
L 4282 166 
C 3942 166 3827 166 3744 402 
L 2323 4441 
z
M 2067 3924 
L 2848 1702 
L 1286 1702 
L 2067 3924 
z
" transform="scale(0.015625)"/>
       <path id="CMMI12-c" d="M 3622 3739 
C 3622 4131 3296 4544 2714 4544 
C 1888 4544 1363 3510 1197 2830 
L 186 -1152 
C 173 -1204 211 -1216 243 -1216 
C 288 -1216 320 -1210 326 -1178 
L 774 592 
C 838 231 1190 -64 1568 -64 
C 2483 -64 3347 657 3347 1618 
C 3347 1863 3290 2108 3155 2314 
C 3078 2437 2982 2527 2880 2599 
C 3341 2823 3622 3222 3622 3739 
z
M 2509 2605 
C 2406 2571 2304 2560 2182 2560 
C 2093 2560 2010 2553 1894 2588 
C 1958 2627 2054 2639 2189 2639 
C 2304 2639 2419 2627 2509 2605 
z
M 3290 3798 
C 3290 3438 3117 2915 2701 2684 
C 2579 2723 2413 2752 2272 2752 
C 2138 2752 1754 2765 1754 2582 
C 1754 2411 2106 2430 2214 2430 
C 2381 2430 2528 2469 2682 2514 
C 2886 2347 2976 2127 2976 1805 
C 2976 1431 2874 1128 2752 850 
C 2541 373 2042 64 1600 64 
C 1133 64 890 438 890 876 
C 890 934 890 1018 915 1115 
L 1331 2784 
C 1542 3641 2080 4413 2701 4413 
C 3162 4413 3290 4086 3290 3798 
z
" transform="scale(0.015625)"/>
      </defs>
      <use xlink:href="#CMR17-1" transform="scale(0.996264)"/>
      <use xlink:href="#CMR17-50" transform="translate(76.91959 36.153639) scale(0.697382)"/>
      <use xlink:href="#CMR17-41" transform="translate(115.264748 36.153639) scale(0.697382)"/>
      <use xlink:href="#CMMI12-c" transform="translate(76.91959 -28.21539) scale(0.697382)"/>
      <use xlink:href="#CMSS17-5b" transform="translate(195.342478 0) scale(0.996264)"/>
      <use xlink:href="#CMSS17-72" transform="translate(222.527917 0) scale(0.996264)"/>
      <use xlink:href="#CMSS17-61" transform="translate(254.437689 0) scale(0.996264)"/>
      <use xlink:href="#CMSS17-64" transform="translate(299.35961 0) scale(0.996264)"/>
      <use xlink:href="#CMSS17-2f" transform="translate(347.564553 0) scale(0.996264)"/>
      <use xlink:href="#CMSS17-63" transform="translate(394.408176 0) scale(0.996264)"/>
      <use xlink:href="#CMSS17-65" transform="translate(436.046998 0) scale(0.996264)"/>
      <use xlink:href="#CMSS17-6c" transform="translate(477.685821 0) scale(0.996264)"/>
      <use xlink:href="#CMSS17-6c" transform="translate(499.866544 0) scale(0.996264)"/>
      <use xlink:href="#CMSS17-5d" transform="translate(522.047267 0) scale(0.996264)"/>
     </g>
    </g>
   </g>
   <g id="line2d_89">
    <path d="M 293.003968 219.452315 
L 316.324301 218.858132 
L 335.913381 218.140841 
L 352.704021 217.306749 
L 366.696221 216.400186 
L 378.822795 215.404502 
L 389.083741 214.359808 
L 398.411875 213.198811 
L 406.807195 211.929762 
L 414.269702 210.570454 
L 420.799395 209.151311 
L 426.396275 207.718062 
L 431.993155 206.031519 
L 436.657222 204.38315 
L 440.388475 202.867313 
L 444.119728 201.137307 
L 447.850982 199.145981 
L 450.649422 197.444366 
L 453.447862 195.527575 
L 456.246302 193.353038 
L 459.044742 190.866154 
L 461.843182 187.995725 
L 463.708808 185.823541 
L 465.574435 183.403691 
L 467.440062 180.691779 
L 469.305688 177.632122 
L 471.171315 174.15391 
L 473.036942 170.165696 
L 474.902568 165.547285 
L 476.768195 160.137456 
L 478.633822 153.714814 
L 478.633822 153.714814 
" clip-path="url(#pad82c4853a)" style="fill: none; stroke-dasharray: 3.7,1.6; stroke-dashoffset: 0; stroke: #000000"/>
   </g>
   <g id="line2d_90">
    <path d="M 293.003968 242.826118 
L 315.391488 242.628761 
L 334.980568 242.240386 
L 351.771208 241.687265 
L 365.763408 241.014323 
L 377.889981 240.221004 
L 388.150928 239.347845 
L 397.479061 238.343556 
L 405.874381 237.216867 
L 413.336888 235.986027 
L 419.866582 234.681799 
L 425.463462 233.349987 
L 431.060342 231.769029 
L 435.724408 230.213341 
L 439.455662 228.776043 
L 443.186915 227.129986 
L 446.918168 225.230037 
L 449.716608 223.603545 
L 452.515048 221.769411 
L 455.313488 219.687437 
L 458.111928 217.306328 
L 460.910368 214.559579 
L 462.775995 212.483048 
L 464.641622 210.172554 
L 466.507248 207.587377 
L 468.372875 204.676761 
L 470.238502 201.376615 
L 472.104128 197.604829 
L 473.969755 193.254457 
L 475.835382 188.183547 
L 477.701008 182.199535 
L 478.633822 178.785284 
L 478.633822 178.785284 
" clip-path="url(#pad82c4853a)" style="fill: none; stroke: #000000; stroke-linecap: square"/>
   </g>
   <g id="line2d_91">
    <path d="M 457.179115 247.281683 
L 457.179115 149.259249 
" clip-path="url(#pad82c4853a)" style="fill: none; stroke: #98509f; stroke-linecap: square"/>
   </g>
   <g id="patch_18">
    <path d="M 293.003968 247.281683 
L 293.003968 149.259249 
" style="fill: none; stroke: #000000; stroke-width: 0.8; stroke-linejoin: miter; stroke-linecap: square"/>
   </g>
   <g id="patch_19">
    <path d="M 479.566635 247.281683 
L 479.566635 149.259249 
" style="fill: none; stroke: #000000; stroke-width: 0.8; stroke-linejoin: miter; stroke-linecap: square"/>
   </g>
   <g id="patch_20">
    <path d="M 293.003968 247.281683 
L 479.566635 247.281683 
" style="fill: none; stroke: #000000; stroke-width: 0.8; stroke-linejoin: miter; stroke-linecap: square"/>
   </g>
   <g id="patch_21">
    <path d="M 293.003968 149.259249 
L 479.566635 149.259249 
" style="fill: none; stroke: #000000; stroke-width: 0.8; stroke-linejoin: miter; stroke-linecap: square"/>
   </g>
   <g id="legend_2">
    <g id="line2d_92">
     <path d="M 302.003968 161.759249 
L 307.003968 161.759249 
L 312.003968 161.759249 
" style="fill: none; stroke-dasharray: 3.7,1.6; stroke-dashoffset: 0; stroke: #000000"/>
    </g>
    <g id="text_47">
     <!-- pump off -->
     <g transform="translate(320.003968 165.259249) scale(0.1 -0.1)">
      <defs>
       <path id="CMSS17-6f" d="M 2829 1356 
C 2829 2175 2221 2816 1504 2816 
C 768 2816 173 2156 173 1356 
C 173 544 787 -64 1498 -64 
C 2227 -64 2829 563 2829 1356 
z
M 1504 339 
C 1050 339 659 710 659 1407 
C 659 2150 1114 2425 1498 2425 
C 1914 2425 2342 2124 2342 1407 
C 2342 684 1926 339 1504 339 
z
" transform="scale(0.015625)"/>
       <path id="CMSS17-b" d="M 1075 2380 
L 1734 2380 
L 1734 2752 
L 1062 2752 
L 1062 3563 
C 1062 4000 1395 4089 1613 4089 
C 1837 4089 2022 4032 2093 4007 
L 2093 4428 
C 2022 4441 1830 4480 1619 4480 
C 1030 4480 602 4000 602 3366 
L 602 2752 
L 160 2752 
L 160 2380 
L 602 2380 
L 602 0 
L 1075 0 
L 1075 2380 
z
M 2739 2380 
L 3398 2380 
L 3398 2752 
L 2726 2752 
L 2726 3563 
C 2726 4000 3059 4089 3277 4089 
C 3501 4089 3686 4032 3757 4007 
L 3757 4428 
C 3686 4441 3494 4480 3283 4480 
C 2694 4480 2266 4000 2266 3366 
L 2266 0 
L 2739 0 
L 2739 2380 
z
" transform="scale(0.015625)"/>
      </defs>
      <use xlink:href="#CMSS17-70" transform="scale(0.996264)"/>
      <use xlink:href="#CMSS17-75" transform="translate(48.204943 0) scale(0.996264)"/>
      <use xlink:href="#CMSS17-6d" transform="translate(96.409886 0) scale(0.996264)"/>
      <use xlink:href="#CMSS17-70" transform="translate(170.639141 0) scale(0.996264)"/>
      <use xlink:href="#CMSS17-6f" transform="translate(250.073197 0) scale(0.996264)"/>
      <use xlink:href="#CMSS17-b" transform="translate(296.91682 0) scale(0.996264)"/>
     </g>
    </g>
    <g id="line2d_93">
     <path d="M 302.003968 175.696428 
L 307.003968 175.696428 
L 312.003968 175.696428 
" style="fill: none; stroke: #000000; stroke-linecap: square"/>
    </g>
    <g id="text_48">
     <!-- $I_a$ = 3.0 A -->
     <g transform="translate(320.003968 179.196428) scale(0.1 -0.1)">
      <defs>
       <path id="CMMI12-49" d="M 2355 3879 
C 2413 4102 2426 4166 2893 4166 
C 3034 4166 3085 4166 3085 4287 
C 3085 4352 3014 4352 2995 4352 
C 2880 4352 2739 4339 2624 4339 
L 1837 4339 
C 1709 4339 1562 4352 1434 4352 
C 1382 4352 1312 4352 1312 4230 
C 1312 4166 1363 4166 1491 4166 
C 1888 4166 1888 4115 1888 4045 
C 1888 4000 1875 3962 1862 3905 
L 998 472 
C 941 249 928 185 461 185 
C 320 185 262 185 262 64 
C 262 0 326 0 358 0 
C 474 0 614 12 730 12 
L 1517 12 
C 1645 12 1786 0 1914 0 
C 1965 0 2042 0 2042 115 
C 2042 185 2003 185 1862 185 
C 1466 185 1466 236 1466 312 
C 1466 325 1466 357 1491 459 
L 2355 3879 
z
" transform="scale(0.015625)"/>
       <path id="CMMI12-61" d="M 1926 759 
C 1894 651 1894 638 1805 517 
C 1664 338 1382 64 1082 64 
C 819 64 672 300 672 676 
C 672 1028 870 1743 992 2011 
C 1210 2458 1510 2687 1760 2687 
C 2182 2687 2266 2164 2266 2113 
C 2266 2107 2246 2024 2240 2011 
L 1926 759 
z
M 2336 2394 
C 2266 2560 2093 2816 1760 2816 
C 1037 2816 256 1883 256 938 
C 256 306 627 -64 1062 -64 
C 1414 -64 1715 210 1894 421 
C 1958 44 2259 -64 2451 -64 
C 2643 -64 2797 51 2912 280 
C 3014 496 3104 885 3104 910 
C 3104 942 3078 968 3040 968 
C 2982 968 2976 936 2950 840 
C 2854 465 2733 64 2470 64 
C 2285 64 2272 229 2272 356 
C 2272 503 2291 573 2349 821 
C 2394 980 2426 1120 2477 1305 
C 2714 2260 2771 2489 2771 2528 
C 2771 2617 2701 2688 2605 2688 
C 2400 2688 2349 2464 2336 2388 
L 2336 2394 
z
" transform="scale(0.015625)"/>
       <path id="CMSS17-3d" d="M 4147 2048 
C 4243 2048 4339 2048 4339 2156 
C 4339 2272 4230 2272 4122 2272 
L 550 2272 
C 442 2272 333 2272 333 2156 
C 333 2048 429 2048 525 2048 
L 4147 2048 
z
M 4122 927 
C 4230 927 4339 927 4339 1043 
C 4339 1152 4243 1152 4147 1152 
L 525 1152 
C 429 1152 333 1152 333 1043 
C 333 927 442 927 550 927 
L 4122 927 
z
" transform="scale(0.015625)"/>
       <path id="CMSS17-33" d="M 1005 2060 
L 1440 2060 
C 2042 2060 2214 1532 2214 1164 
C 2214 662 1933 268 1472 268 
C 1114 268 608 449 320 926 
C 275 700 275 687 250 533 
C 550 89 1037 -128 1485 -128 
C 2214 -128 2752 481 2752 1158 
C 2752 1667 2400 2092 1920 2252 
C 2304 2463 2586 2860 2586 3321 
C 2586 3859 2093 4288 1491 4288 
C 941 4288 512 3948 333 3583 
C 378 3519 493 3334 550 3238 
C 691 3615 1056 3897 1485 3897 
C 1843 3897 2080 3660 2080 3321 
C 2080 2969 1856 2585 1478 2496 
C 1453 2496 1056 2457 1005 2451 
L 1005 2060 
z
" transform="scale(0.015625)"/>
       <path id="SFSS3583-b5" d="M 544 2688 
L 544 -1216 
L 819 -1216 
L 819 6 
C 934 -45 1056 -64 1184 -64 
C 1523 -64 1971 96 2125 361 
L 2131 -26 
L 2400 -26 
L 2400 2688 
L 2125 2688 
L 2125 1300 
C 2125 1215 2131 1124 2131 1032 
C 2131 472 1786 179 1350 179 
C 1050 179 819 283 819 700 
L 819 2688 
L 544 2688 
z
" transform="scale(0.015625)"/>
       <path id="CMSS17-41" d="M 2272 4416 
L 1722 4416 
L 166 0 
L 653 0 
L 1101 1280 
L 2816 1280 
L 3270 0 
L 3827 0 
L 2272 4416 
z
M 2694 1638 
L 1222 1638 
C 1530 2530 1914 3638 1958 3924 
L 1965 3924 
C 2010 3663 2138 3281 2246 2956 
L 2694 1638 
z
" transform="scale(0.015625)"/>
      </defs>
      <use xlink:href="#CMMI12-49" transform="scale(0.996264)"/>
      <use xlink:href="#CMMI12-61" transform="translate(43.024176 -14.943915) scale(0.697382)"/>
      <use xlink:href="#CMSS17-3d" transform="translate(110.596767 0) scale(0.996264)"/>
      <use xlink:href="#CMSS17-33" transform="translate(214.693815 0) scale(0.996264)"/>
      <use xlink:href="#CMSS17-2e" transform="translate(261.537438 0) scale(0.996264)"/>
      <use xlink:href="#CMSS17-30" transform="translate(287.561643 0) scale(0.996264)"/>
      <use xlink:href="#SFSS3583-b5" transform="translate(365.634379 0) scale(0.996264)"/>
      <use xlink:href="#CMSS17-41" transform="translate(411.583849 0) scale(0.996264)"/>
     </g>
    </g>
   </g>
  </g>
 </g>
 <defs>
  <clipPath id="pc5c4987b95">
   <rect x="39.606646" y="10.659249" width="186.562667" height="98.022434"/>
  </clipPath>
  <clipPath id="pa28db24d49">
   <rect x="293.003968" y="10.659249" width="186.562667" height="98.022434"/>
  </clipPath>
  <clipPath id="p4d4062aad6">
   <rect x="39.606646" y="149.259249" width="186.562667" height="98.022434"/>
  </clipPath>
  <clipPath id="pad82c4853a">
   <rect x="293.003968" y="149.259249" width="186.562667" height="98.022434"/>
  </clipPath>
 </defs>
</svg>
