<?xml version="1.0" encoding="utf-8" standalone="no"?>
<!DOCTYPE svg PUBLIC "-//W3C//DTD SVG 1.1//EN"
  "http://www.w3.org/Graphics/SVG/1.1/DTD/svg11.dtd">
<svg xmlns:xlink="http://www.w3.org/1999/xlink" width="491.74797pt" height="280.8pt" viewBox="0 0 491.74797 280.8" xmlns="http://www.w3.org/2000/svg" version="1.1">
 <metadata>
  <rdf:RDF xmlns:dc="http://purl.org/dc/elements/1.1/" xmlns:cc="http://creativecommons.org/ns#" xmlns:rdf="http://www.w3.org/1999/02/22-rdf-syntax-ns#">
   <cc:Work>
    <dc:type rdf:resource="http://purl.org/dc/dcmitype/StillImage"/>
    <dc:date>2026-05-18T11:18:44.704317</dc:date>
    <dc:format>image/svg+xml</dc:format>
    <dc:creator>
     <cc:Agent>
      <dc:title>Matplotlib v3.10.8, https://matplotlib.org/</dc:title>
     </cc:Agent>
    </dc:creator>
   </cc:Work>
  </rdf:RDF>
 </metadata>
 <defs>
  <style type="text/css">*{stroke-linejoin: round; stroke-linecap: butt}</style>
 </defs>
 <g id="figure_1">
  <g id="patch_1">
   <path d="M 0 280.8 
L 491.74797 280.8 
L 491.74797 0 
L 0 0 
z
" style="fill: #ffffff"/>
  </g>
  <g id="axes_1">
   <g id="patch_2">
    <path d="M 39.606646 108.681683 
L 230.320418 108.681683 
L 230.320418 10.659249 
L 39.606646 10.659249 
L 39.606646 108.681683 
z
" style="fill: none"/>
   </g>
   <g id="matplotlib.axis_1">
    <g id="xtick_1">
     <g id="line2d_1">
      <path d="M 39.606646 108.681683 
L 39.606646 10.659249 
" clip-path="url(#p10c4b0ad52)" style="fill: none; stroke: #b0b0b0; stroke-width: 0.8; stroke-linecap: square"/>
     </g>
     <g id="line2d_2">
      <defs>
       <path id="m252f384ed2" d="M 0 0 
L 0 -3.5 
" style="stroke: #000000; stroke-width: 0.8"/>
      </defs>
      <g>
       <use xlink:href="#m252f384ed2" x="39.606646" y="108.681683" style="stroke: #000000; stroke-width: 0.8"/>
      </g>
     </g>
     <g id="text_1">
      <!-- 0 -->
      <g transform="translate(37.115978 119.100182) scale(0.1 -0.1)">
       <defs>
        <path id="CMSS17-30" d="M 2758 2073 
C 2758 2439 2752 3120 2490 3647 
C 2227 4153 1805 4288 1504 4288 
C 1069 4288 698 4031 506 3621 
C 301 3191 243 2748 243 2073 
C 243 1611 262 1046 493 551 
C 755 6 1197 -128 1498 -128 
C 1894 -128 2278 83 2496 525 
C 2720 988 2758 1495 2758 2073 
z
M 1498 262 
C 1011 262 864 821 819 1007 
C 742 1328 730 1636 730 2144 
C 730 2542 730 2992 851 3345 
C 998 3756 1254 3897 1498 3897 
C 1971 3897 2125 3422 2176 3255 
C 2272 2915 2272 2516 2272 2144 
C 2272 1546 2272 262 1498 262 
z
" transform="scale(0.015625)"/>
       </defs>
       <use xlink:href="#CMSS17-30" transform="scale(0.996264)"/>
      </g>
     </g>
    </g>
    <g id="xtick_2">
     <g id="line2d_3">
      <path d="M 77.7494 108.681683 
L 77.7494 10.659249 
" clip-path="url(#p10c4b0ad52)" style="fill: none; stroke: #b0b0b0; stroke-width: 0.8; stroke-linecap: square"/>
     </g>
     <g id="line2d_4">
      <g>
       <use xlink:href="#m252f384ed2" x="77.7494" y="108.681683" style="stroke: #000000; stroke-width: 0.8"/>
      </g>
     </g>
     <g id="text_2">
      <!-- 5 -->
      <g transform="translate(75.258733 119.100182) scale(0.1 -0.1)">
       <defs>
        <path id="CMSS17-35" d="M 934 3814 
L 2502 3814 
L 2502 4224 
L 467 4224 
L 467 1830 
L 896 1830 
C 1011 2103 1248 2304 1555 2304 
C 1843 2304 2163 2044 2163 1299 
C 2163 502 1709 268 1376 268 
C 966 268 589 521 422 871 
L 218 508 
C 512 51 992 -128 1376 -128 
C 2118 -128 2701 508 2701 1286 
C 2701 2083 2182 2694 1562 2694 
C 1338 2694 1120 2617 934 2464 
L 934 3814 
z
" transform="scale(0.015625)"/>
       </defs>
       <use xlink:href="#CMSS17-35" transform="scale(0.996264)"/>
      </g>
     </g>
    </g>
    <g id="xtick_3">
     <g id="line2d_5">
      <path d="M 115.892155 108.681683 
L 115.892155 10.659249 
" clip-path="url(#p10c4b0ad52)" style="fill: none; stroke: #b0b0b0; stroke-width: 0.8; stroke-linecap: square"/>
     </g>
     <g id="line2d_6">
      <g>
       <use xlink:href="#m252f384ed2" x="115.892155" y="108.681683" style="stroke: #000000; stroke-width: 0.8"/>
      </g>
     </g>
     <g id="text_3">
      <!-- 10 -->
      <g transform="translate(110.91082 119.100182) scale(0.1 -0.1)">
       <defs>
        <path id="CMSS17-31" d="M 1818 4288 
L 1696 4288 
C 1350 3949 947 3902 538 3891 
L 538 3520 
C 723 3526 1024 3539 1325 3673 
L 1325 371 
L 570 371 
L 570 0 
L 2573 0 
L 2573 371 
L 1818 371 
L 1818 4288 
z
" transform="scale(0.015625)"/>
       </defs>
       <use xlink:href="#CMSS17-31" transform="scale(0.996264)"/>
       <use xlink:href="#CMSS17-30" transform="translate(46.843624 0) scale(0.996264)"/>
      </g>
     </g>
    </g>
    <g id="xtick_4">
     <g id="line2d_7">
      <path d="M 154.034909 108.681683 
L 154.034909 10.659249 
" clip-path="url(#p10c4b0ad52)" style="fill: none; stroke: #b0b0b0; stroke-width: 0.8; stroke-linecap: square"/>
     </g>
     <g id="line2d_8">
      <g>
       <use xlink:href="#m252f384ed2" x="154.034909" y="108.681683" style="stroke: #000000; stroke-width: 0.8"/>
      </g>
     </g>
     <g id="text_4">
      <!-- 15 -->
      <g transform="translate(149.053574 119.100182) scale(0.1 -0.1)">
       <use xlink:href="#CMSS17-31" transform="scale(0.996264)"/>
       <use xlink:href="#CMSS17-35" transform="translate(46.843624 0) scale(0.996264)"/>
      </g>
     </g>
    </g>
    <g id="xtick_5">
     <g id="line2d_9">
      <path d="M 192.177664 108.681683 
L 192.177664 10.659249 
" clip-path="url(#p10c4b0ad52)" style="fill: none; stroke: #b0b0b0; stroke-width: 0.8; stroke-linecap: square"/>
     </g>
     <g id="line2d_10">
      <g>
       <use xlink:href="#m252f384ed2" x="192.177664" y="108.681683" style="stroke: #000000; stroke-width: 0.8"/>
      </g>
     </g>
     <g id="text_5">
      <!-- 20 -->
      <g transform="translate(187.196329 119.100182) scale(0.1 -0.1)">
       <defs>
        <path id="CMSS17-32" d="M 1651 1353 
C 1830 1538 2099 1761 2285 1984 
C 2464 2201 2701 2507 2701 2953 
C 2701 3655 2227 4288 1421 4288 
C 787 4288 422 3891 250 3272 
L 499 2928 
C 640 3508 838 3878 1338 3878 
C 1888 3878 2195 3431 2195 2940 
C 2195 2354 1747 1901 1408 1563 
C 1030 1187 659 805 301 409 
L 301 0 
L 2701 0 
L 2701 435 
L 1613 435 
C 1536 435 1459 428 1382 428 
L 742 428 
L 742 435 
L 1651 1353 
z
" transform="scale(0.015625)"/>
       </defs>
       <use xlink:href="#CMSS17-32" transform="scale(0.996264)"/>
       <use xlink:href="#CMSS17-30" transform="translate(46.843624 0) scale(0.996264)"/>
      </g>
     </g>
    </g>
    <g id="xtick_6">
     <g id="line2d_11">
      <path d="M 230.320418 108.681683 
L 230.320418 10.659249 
" clip-path="url(#p10c4b0ad52)" style="fill: none; stroke: #b0b0b0; stroke-width: 0.8; stroke-linecap: square"/>
     </g>
     <g id="line2d_12">
      <g>
       <use xlink:href="#m252f384ed2" x="230.320418" y="108.681683" style="stroke: #000000; stroke-width: 0.8"/>
      </g>
     </g>
     <g id="text_6">
      <!-- 25 -->
      <g transform="translate(225.339083 119.100182) scale(0.1 -0.1)">
       <use xlink:href="#CMSS17-32" transform="scale(0.996264)"/>
       <use xlink:href="#CMSS17-35" transform="translate(46.843624 0) scale(0.996264)"/>
      </g>
     </g>
    </g>
    <g id="text_7">
     <!-- frequency [GHz] -->
     <g transform="translate(101.52636 132.50934) scale(0.1 -0.1)">
      <defs>
       <path id="CMSS17-66" d="M 1075 2380 
L 1722 2380 
L 1722 2752 
L 1062 2752 
L 1062 3563 
C 1062 4013 1408 4089 1606 4089 
C 1670 4089 1850 4089 2080 4007 
L 2080 4428 
C 1933 4460 1754 4480 1613 4480 
C 1018 4480 602 3994 602 3366 
L 602 2752 
L 160 2752 
L 160 2380 
L 602 2380 
L 602 0 
L 1075 0 
L 1075 2380 
z
" transform="scale(0.015625)"/>
       <path id="CMSS17-72" d="M 954 1369 
C 954 1974 1395 2379 1958 2392 
L 1958 2816 
C 1549 2809 1165 2604 934 2270 
L 934 2783 
L 480 2783 
L 480 0 
L 954 0 
L 954 1369 
z
" transform="scale(0.015625)"/>
       <path id="CMSS17-65" d="M 2502 1375 
C 2502 1587 2490 2001 2285 2347 
C 2061 2713 1696 2816 1421 2816 
C 755 2816 192 2184 192 1363 
C 192 579 774 -64 1510 -64 
C 1798 -64 2150 19 2470 249 
C 2470 275 2458 414 2451 421 
C 2451 433 2432 629 2432 655 
C 2125 408 1773 326 1517 326 
C 1107 326 666 667 646 1375 
L 2502 1375 
z
M 698 1728 
C 781 2086 1062 2425 1421 2425 
C 1517 2425 1965 2412 2080 1728 
L 698 1728 
z
" transform="scale(0.015625)"/>
       <path id="CMSS17-71" d="M 2611 2816 
L 2138 2816 
L 2138 2425 
C 2112 2457 1818 2816 1318 2816 
C 736 2816 211 2218 211 1369 
C 211 585 653 -64 1229 -64 
C 1498 -64 1837 32 2125 307 
L 2125 -1280 
L 2611 -1280 
L 2611 2816 
z
M 2138 870 
C 2138 786 2138 669 1939 501 
C 1888 456 1747 326 1504 326 
C 1050 326 698 805 698 1369 
C 698 1998 1126 2412 1562 2412 
C 1926 2412 2138 2049 2138 1777 
L 2138 870 
z
" transform="scale(0.015625)"/>
       <path id="CMSS17-75" d="M 2618 2752 
L 2131 2752 
L 2131 976 
C 2131 500 1786 307 1421 307 
C 998 307 960 448 960 712 
L 960 2752 
L 474 2752 
L 474 680 
C 474 179 646 -64 1088 -64 
C 1306 -64 1798 -13 2144 307 
L 2144 -13 
L 2618 -13 
L 2618 2752 
z
" transform="scale(0.015625)"/>
       <path id="CMSS17-6e" d="M 2618 1878 
C 2618 2283 2522 2816 1798 2816 
C 1389 2816 1120 2604 941 2386 
L 941 2783 
L 474 2783 
L 474 0 
L 960 0 
L 960 1556 
C 960 1962 1114 2425 1549 2425 
C 2112 2425 2131 2045 2131 1826 
L 2131 0 
L 2618 0 
L 2618 1878 
z
" transform="scale(0.015625)"/>
       <path id="CMSS17-63" d="M 2464 2540 
C 2464 2585 2170 2713 2093 2739 
C 1882 2816 1613 2816 1542 2816 
C 710 2816 211 2092 211 1363 
C 211 595 768 -64 1517 -64 
C 1946 -64 2253 76 2502 243 
L 2464 665 
C 2189 454 1869 339 1523 339 
C 1024 339 698 774 698 1369 
C 698 1830 909 2412 1549 2412 
C 1901 2412 2099 2342 2394 2143 
L 2464 2540 
z
" transform="scale(0.015625)"/>
       <path id="CMSS17-79" d="M 2675 2752 
L 2176 2752 
C 1632 1293 1446 701 1434 383 
L 1427 383 
C 1408 695 1126 1459 902 2006 
L 602 2752 
L 83 2752 
L 1216 14 
C 1146 -177 1043 -464 1011 -527 
C 870 -884 774 -884 672 -884 
C 646 -884 442 -877 211 -807 
L 250 -1229 
C 410 -1261 570 -1280 685 -1280 
C 845 -1280 1165 -1280 1459 -495 
L 2675 2752 
z
" transform="scale(0.015625)"/>
       <path id="CMSS17-5b" d="M 1613 -1600 
L 1613 -1210 
L 1062 -1210 
L 1062 4409 
L 1613 4409 
L 1613 4800 
L 595 4800 
L 595 -1600 
L 1613 -1600 
z
" transform="scale(0.015625)"/>
       <path id="CMSS17-47" d="M 3610 1868 
L 2336 1868 
L 2336 1472 
L 3123 1472 
L 3123 473 
C 2874 403 2618 352 2362 352 
C 1466 352 934 1311 934 2220 
C 934 3123 1491 4070 2362 4070 
C 2854 4070 3130 3916 3469 3660 
L 3552 4172 
C 3130 4390 2867 4480 2387 4480 
C 1146 4480 397 3353 397 2201 
C 397 1100 1152 -64 2349 -64 
C 2797 -64 3213 51 3610 249 
L 3610 1868 
z
" transform="scale(0.015625)"/>
       <path id="CMSS17-48" d="M 3674 4416 
L 3136 4416 
L 3136 2496 
L 1101 2496 
L 1101 4416 
L 563 4416 
L 563 0 
L 1101 0 
L 1101 2105 
L 3136 2105 
L 3136 0 
L 3674 0 
L 3674 4416 
z
" transform="scale(0.015625)"/>
       <path id="CMSS17-7a" d="M 2400 2502 
L 2400 2752 
L 250 2752 
L 250 2367 
L 1069 2367 
C 1146 2367 1222 2374 1299 2374 
L 1747 2374 
L 166 262 
L 166 0 
L 2419 0 
L 2419 396 
L 1549 396 
C 1472 396 1395 390 1318 390 
L 826 390 
L 2400 2502 
z
" transform="scale(0.015625)"/>
       <path id="CMSS17-5d" d="M 1146 4800 
L 128 4800 
L 128 4409 
L 678 4409 
L 678 -1210 
L 128 -1210 
L 128 -1600 
L 1146 -1600 
L 1146 4800 
z
" transform="scale(0.015625)"/>
      </defs>
      <use xlink:href="#CMSS17-66" transform="scale(0.996264)"/>
      <use xlink:href="#CMSS17-72" transform="translate(28.626659 0) scale(0.996264)"/>
      <use xlink:href="#CMSS17-65" transform="translate(60.536431 0) scale(0.996264)"/>
      <use xlink:href="#CMSS17-71" transform="translate(102.175253 0) scale(0.996264)"/>
      <use xlink:href="#CMSS17-75" transform="translate(150.380197 0) scale(0.996264)"/>
      <use xlink:href="#CMSS17-65" transform="translate(198.58514 0) scale(0.996264)"/>
      <use xlink:href="#CMSS17-6e" transform="translate(240.223962 0) scale(0.996264)"/>
      <use xlink:href="#CMSS17-63" transform="translate(288.428905 0) scale(0.996264)"/>
      <use xlink:href="#CMSS17-79" transform="translate(330.067727 0) scale(0.996264)"/>
      <use xlink:href="#CMSS17-5b" transform="translate(404.296981 0) scale(0.996264)"/>
      <use xlink:href="#CMSS17-47" transform="translate(431.48242 0) scale(0.996264)"/>
      <use xlink:href="#CMSS17-48" transform="translate(493.940646 0) scale(0.996264)"/>
      <use xlink:href="#CMSS17-7a" transform="translate(560.002165 0) scale(0.996264)"/>
      <use xlink:href="#CMSS17-5d" transform="translate(600.680037 0) scale(0.996264)"/>
     </g>
    </g>
   </g>
   <g id="matplotlib.axis_2">
    <g id="ytick_1">
     <g id="line2d_13">
      <path d="M 39.606646 108.681683 
L 230.320418 108.681683 
" clip-path="url(#p10c4b0ad52)" style="fill: none; stroke: #b0b0b0; stroke-width: 0.8; stroke-linecap: square"/>
     </g>
     <g id="line2d_14">
      <defs>
       <path id="m0feb304c6b" d="M 0 0 
L 3.5 0 
" style="stroke: #000000; stroke-width: 0.8"/>
      </defs>
      <g>
       <use xlink:href="#m0feb304c6b" x="39.606646" y="108.681683" style="stroke: #000000; stroke-width: 0.8"/>
      </g>
     </g>
     <g id="text_8">
      <!-- -10 -->
      <g transform="translate(22.8231 112.140932) scale(0.1 -0.1)">
       <defs>
        <path id="CMSS17-2d" d="M 1664 1216 
L 1664 1587 
L 64 1587 
L 64 1216 
L 1664 1216 
z
" transform="scale(0.015625)"/>
       </defs>
       <use xlink:href="#CMSS17-2d" transform="scale(0.996264)"/>
       <use xlink:href="#CMSS17-31" transform="translate(31.229113 0) scale(0.996264)"/>
       <use xlink:href="#CMSS17-30" transform="translate(78.072736 0) scale(0.996264)"/>
      </g>
     </g>
    </g>
    <g id="ytick_2">
     <g id="line2d_15">
      <path d="M 39.606646 67.839002 
L 230.320418 67.839002 
" clip-path="url(#p10c4b0ad52)" style="fill: none; stroke: #b0b0b0; stroke-width: 0.8; stroke-linecap: square"/>
     </g>
     <g id="line2d_16">
      <g>
       <use xlink:href="#m0feb304c6b" x="39.606646" y="67.839002" style="stroke: #000000; stroke-width: 0.8"/>
      </g>
     </g>
     <g id="text_9">
      <!-- -5 -->
      <g transform="translate(27.804436 71.298252) scale(0.1 -0.1)">
       <use xlink:href="#CMSS17-2d" transform="scale(0.996264)"/>
       <use xlink:href="#CMSS17-35" transform="translate(31.229113 0) scale(0.996264)"/>
      </g>
     </g>
    </g>
    <g id="ytick_3">
     <g id="line2d_17">
      <path d="M 39.606646 26.996322 
L 230.320418 26.996322 
" clip-path="url(#p10c4b0ad52)" style="fill: none; stroke: #b0b0b0; stroke-width: 0.8; stroke-linecap: square"/>
     </g>
     <g id="line2d_18">
      <g>
       <use xlink:href="#m0feb304c6b" x="39.606646" y="26.996322" style="stroke: #000000; stroke-width: 0.8"/>
      </g>
     </g>
     <g id="text_10">
      <!-- 0 -->
      <g transform="translate(31.125311 30.455571) scale(0.1 -0.1)">
       <use xlink:href="#CMSS17-30" transform="scale(0.996264)"/>
      </g>
     </g>
    </g>
    <g id="text_11">
     <!-- $|S_{21}|^2$ [dB] -->
     <g transform="translate(16.33244 82.380485) rotate(-90) scale(0.1 -0.1)">
      <defs>
       <path id="CMSY10-6a" d="M 1018 4569 
C 1018 4684 1018 4800 890 4800 
C 762 4800 762 4684 762 4569 
L 762 -1370 
C 762 -1485 762 -1600 890 -1600 
C 1018 -1600 1018 -1485 1018 -1370 
L 1018 4569 
z
" transform="scale(0.015625)"/>
       <path id="CMMI12-53" d="M 4064 4422 
C 4064 4480 4019 4480 4006 4480 
C 3981 4480 3974 4473 3898 4377 
C 3859 4332 3597 4002 3590 3996 
C 3379 4409 2957 4480 2688 4480 
C 1875 4480 1139 3742 1139 3024 
C 1139 2547 1427 2268 1741 2160 
C 1811 2134 2189 2033 2381 1988 
C 2707 1899 2790 1874 2925 1734 
C 2950 1702 3078 1556 3078 1258 
C 3078 667 2528 57 1888 57 
C 1363 57 781 279 781 991 
C 781 1112 806 1264 826 1328 
C 826 1347 832 1378 832 1391 
C 832 1417 819 1448 768 1448 
C 710 1448 704 1436 678 1328 
L 352 25 
C 352 19 326 -64 326 -71 
C 326 -128 378 -128 390 -128 
C 416 -128 422 -122 499 -26 
L 794 356 
C 947 127 1280 -128 1875 -128 
C 2701 -128 3456 667 3456 1461 
C 3456 1728 3392 1963 3149 2198 
C 3014 2331 2899 2363 2310 2516 
C 1882 2630 1824 2649 1709 2751 
C 1600 2859 1517 3011 1517 3227 
C 1517 3761 2061 4307 2669 4307 
C 3296 4307 3590 3926 3590 3322 
C 3590 3157 3558 2986 3558 2960 
C 3558 2903 3610 2903 3629 2903 
C 3686 2903 3693 2922 3718 3024 
L 4064 4422 
z
" transform="scale(0.015625)"/>
       <path id="CMR17-32" d="M 2669 990 
L 2554 990 
C 2490 537 2438 460 2413 422 
C 2381 371 1920 371 1830 371 
L 602 371 
C 832 620 1280 1073 1824 1596 
C 2214 1966 2669 2400 2669 3033 
C 2669 3788 2067 4224 1395 4224 
C 691 4224 262 3603 262 3027 
C 262 2777 448 2745 525 2745 
C 589 2745 781 2783 781 3007 
C 781 3206 614 3264 525 3264 
C 486 3264 448 3257 422 3244 
C 544 3788 915 4057 1306 4057 
C 1862 4057 2227 3616 2227 3033 
C 2227 2477 1901 1998 1536 1583 
L 262 147 
L 262 0 
L 2515 0 
L 2669 990 
z
" transform="scale(0.015625)"/>
       <path id="CMR17-31" d="M 1702 4083 
C 1702 4217 1696 4224 1606 4224 
C 1357 3927 979 3833 621 3820 
C 602 3820 570 3820 563 3808 
C 557 3795 557 3782 557 3648 
C 755 3648 1088 3686 1344 3839 
L 1344 467 
C 1344 243 1331 166 781 166 
L 589 166 
L 589 0 
C 896 6 1216 12 1523 12 
C 1830 12 2150 6 2458 0 
L 2458 166 
L 2266 166 
C 1715 166 1702 236 1702 467 
L 1702 4083 
z
" transform="scale(0.015625)"/>
       <path id="CMSS17-64" d="M 2611 4416 
L 2138 4416 
L 2138 2495 
C 1939 2662 1613 2816 1254 2816 
C 672 2816 211 2179 211 1375 
C 211 572 666 -64 1235 -64 
C 1677 -64 1971 172 2125 307 
L 2125 -13 
L 2611 -13 
L 2611 4416 
z
M 2125 851 
C 2125 760 2125 663 1926 488 
C 1798 378 1645 326 1498 326 
C 1152 326 698 585 698 1369 
C 698 2185 1210 2425 1562 2425 
C 1798 2425 1990 2308 2125 2114 
L 2125 851 
z
" transform="scale(0.015625)"/>
       <path id="CMSS17-42" d="M 570 4416 
L 570 0 
L 2163 0 
C 3034 0 3667 575 3667 1200 
C 3667 1684 3251 2175 2502 2316 
C 3334 2559 3501 3039 3501 3311 
C 3501 3880 2874 4416 1997 4416 
L 570 4416 
z
M 1088 2496 
L 1088 4057 
L 1824 4057 
C 2483 4057 3002 3722 3002 3305 
C 3002 2925 2592 2496 1766 2496 
L 1088 2496 
z
M 1088 358 
L 1088 2105 
L 1939 2105 
C 2630 2105 3162 1678 3162 1206 
C 3162 772 2694 358 1984 358 
L 1088 358 
z
" transform="scale(0.015625)"/>
      </defs>
      <use xlink:href="#CMSY10-6a" transform="scale(0.996264)"/>
      <use xlink:href="#CMMI12-53" transform="translate(27.674085 0) scale(0.996264)"/>
      <use xlink:href="#CMR17-32" transform="translate(87.668573 -14.943915) scale(0.697382)"/>
      <use xlink:href="#CMR17-31" transform="translate(119.651755 -14.943915) scale(0.697382)"/>
      <use xlink:href="#CMSY10-6a" transform="translate(152.133068 0) scale(0.996264)"/>
      <use xlink:href="#CMR17-32" transform="translate(179.807153 36.153639) scale(0.697382)"/>
      <use xlink:href="#CMSS17-5b" transform="translate(243.51758 0) scale(0.996264)"/>
      <use xlink:href="#CMSS17-64" transform="translate(270.703019 0) scale(0.996264)"/>
      <use xlink:href="#CMSS17-42" transform="translate(318.907962 0) scale(0.996264)"/>
      <use xlink:href="#CMSS17-5d" transform="translate(381.246002 0) scale(0.996264)"/>
     </g>
    </g>
   </g>
   <g id="line2d_19">
    <path d="M 39.644789 26.996355 
L 83.890384 27.001014 
L 87.361374 27.001547 
L 106.509037 27.01512 
L 106.585323 27.18725 
L 106.623465 26.999216 
L 106.661608 27.234237 
L 106.699751 27.10771 
L 106.737894 27.256301 
L 106.776037 26.998382 
L 106.814179 27.06533 
L 106.852322 27.043536 
L 106.928608 27.009604 
L 106.96675 28.252348 
L 107.004893 27.144191 
L 107.043036 27.226111 
L 107.081179 34.658651 
M 107.232033 281.8 
L 107.310035 26.996761 
L 107.348178 27.058534 
L 107.462606 27.874764 
L 107.538892 27.11106 
L 107.577034 28.107296 
L 107.615177 27.107 
L 107.65332 27.543014 
L 107.691463 27.668539 
L 107.729605 27.044289 
L 107.805891 27.391305 
L 107.920319 26.999635 
L 107.996605 27.139279 
L 108.111033 27.020343 
L 108.225461 27.044979 
M 108.301747 27.095612 
L 109.446029 27.10241 
L 109.751171 27.15296 
L 110.437741 27.040671 
L 110.933597 27.105872 
L 111.81088 27.025575 
L 112.573735 27.002043 
L 114.252016 27.019842 
L 119.134289 27.026597 
L 119.820859 27.018716 
L 121.23214 27.009403 
L 125.122701 27.107314 
L 125.580414 27.118386 
L 126.381412 27.024203 
L 127.067982 27.066443 
L 127.907122 27.018189 
L 129.318404 27.024196 
L 131.797683 27.129495 
L 132.217254 27.132908 
L 132.941966 27.030887 
L 133.628536 27.145424 
L 134.429534 27.02797 
L 135.07796 27.067876 
L 135.802673 27.017526 
L 136.565528 26.999841 
L 138.091238 27.02868 
L 138.777808 27.10724 
L 139.388092 27.022321 
L 140.150947 27.175551 
L 140.799374 27.019992 
L 141.524086 27.159419 
L 142.210655 27.017813 
L 142.859082 27.077862 
L 143.545652 27.024026 
L 144.155936 27.024026 
L 144.689934 27.038172 
L 145.223933 27.079221 
L 145.834217 27.036886 
L 146.482644 27.181896 
L 147.131071 27.030478 
L 147.81764 27.24238 
L 148.50421 27.030011 
L 149.152637 27.187201 
L 149.839206 27.02513 
L 150.411348 27.09683 
L 151.059774 27.028973 
L 151.593773 27.069169 
L 152.165914 27.037591 
L 152.738056 27.146057 
L 153.34834 27.038234 
L 153.996767 27.261528 
L 154.645193 27.040733 
L 155.255477 27.312934 
L 156.018333 27.067727 
L 156.476046 27.238927 
L 157.391472 27.100918 
L 157.734756 27.127287 
L 158.383183 27.042939 
L 158.879039 27.125782 
L 159.45118 27.037621 
L 160.023322 27.240601 
L 160.671749 27.059774 
L 161.24389 27.368964 
L 161.968602 27.090696 
L 162.426315 27.39016 
L 162.693315 27.204341 
L 163.036599 26.99754 
L 163.303599 27.134757 
L 163.646883 27.268838 
L 163.990168 27.067307 
L 164.29531 27.013436 
L 164.905594 27.143889 
L 165.40145 27.022179 
L 166.011734 27.178506 
L 166.469447 27.012451 
L 166.812732 27.291777 
L 167.079731 27.358615 
L 167.423016 27.062328 
L 167.651873 27.013213 
L 167.918872 27.282872 
L 168.224014 27.491096 
L 168.452871 27.303447 
L 168.796155 26.996833 
L 168.986869 27.101384 
L 169.444582 27.439008 
L 169.711581 27.194558 
L 170.016723 26.998835 
L 170.283723 27.173618 
L 170.588865 27.303171 
L 170.894007 27.089001 
L 171.161006 27.004762 
L 171.847576 27.155678 
L 172.229003 27.010515 
L 172.915573 27.23346 
L 173.297 27.003337 
L 173.525857 27.215084 
L 173.869142 27.504958 
L 174.059855 27.351209 
L 174.441283 26.999913 
L 174.631997 27.178426 
L 175.013424 27.595063 
L 175.204138 27.433104 
L 175.623708 27.003166 
L 175.814422 27.184609 
L 176.157707 27.50214 
L 176.348421 27.35449 
L 176.729848 26.998105 
L 176.958705 27.162518 
L 177.263847 27.355061 
L 177.492703 27.18741 
L 177.797845 26.999242 
L 178.026702 27.161296 
L 178.331844 27.324613 
L 178.598843 27.109893 
L 178.8277 26.999768 
L 179.018413 27.153563 
L 179.361698 27.464077 
L 179.552412 27.319393 
L 179.895697 26.998093 
L 180.048268 27.127305 
L 180.505981 27.634542 
L 180.696695 27.379459 
L 181.001837 26.996507 
L 181.154408 27.119693 
L 181.612121 27.679926 
L 181.802835 27.41618 
L 182.107977 26.998057 
L 182.260548 27.092468 
L 182.718261 27.536313 
L 182.947117 27.230669 
L 183.214116 26.999668 
L 183.40483 27.164676 
L 183.709972 27.421719 
L 183.900686 27.269338 
L 184.243971 27.004988 
L 184.472827 27.244431 
L 184.739827 27.439475 
L 184.93054 27.262266 
L 185.235682 27.001261 
L 185.426396 27.217834 
L 185.769681 27.620556 
L 185.922252 27.46206 
L 186.30368 27.009031 
L 186.456251 27.224038 
L 186.837678 27.796596 
L 186.990249 27.593187 
L 187.371677 27.003089 
L 187.524248 27.210017 
L 187.905675 27.783268 
L 188.058246 27.575033 
L 188.439674 27.003785 
L 188.592245 27.188628 
L 188.93553 27.61948 
L 189.088101 27.452781 
L 189.431385 26.997662 
L 189.583956 27.127309 
L 189.927241 27.510072 
L 190.079812 27.369638 
L 190.423097 27.001905 
L 190.575668 27.170154 
L 190.918953 27.584409 
L 191.071524 27.414971 
L 191.414809 27.007407 
L 191.56738 27.232345 
L 191.910665 27.804472 
L 192.063236 27.612428 
L 192.40652 26.996799 
L 192.444663 27.013865 
L 192.597234 27.296159 
L 192.940519 27.95284 
L 193.09309 27.719166 
L 193.474517 27.009157 
L 193.627088 27.278661 
L 193.93223 27.884028 
L 194.046659 27.791468 
L 194.466229 26.999536 
L 194.542515 27.061855 
L 194.962085 27.692461 
L 195.000228 27.663566 
L 195.229084 27.221318 
L 195.457941 27.010134 
L 195.648654 27.312462 
L 195.915654 27.624006 
L 196.068225 27.422258 
L 196.373367 27.000349 
L 196.525938 27.213032 
L 196.869223 27.758801 
L 197.021794 27.520456 
L 197.326936 26.999523 
L 197.441364 27.155226 
L 197.822791 28.00174 
L 197.860934 27.978583 
L 198.013505 27.640887 
L 198.318647 27.000837 
L 198.433076 27.185063 
L 198.814503 28.101435 
L 198.852646 28.069741 
L 199.04336 27.552372 
L 199.310359 27.001455 
L 199.424787 27.18103 
L 199.768072 27.978551 
L 199.806215 27.963063 
L 199.958786 27.646644 
L 200.263928 26.999044 
L 200.378356 27.141904 
L 200.721641 27.797011 
L 200.759784 27.775475 
L 200.950497 27.372686 
L 201.179354 26.997287 
L 201.293782 27.127902 
L 201.637067 27.781969 
L 201.67521 27.762701 
L 201.827781 27.46582 
L 202.09478 26.999562 
L 202.209208 27.168213 
L 202.552493 27.974009 
L 202.590636 27.956908 
L 202.743207 27.616547 
L 203.010206 26.996482 
L 203.124634 27.160317 
L 203.506062 28.204339 
L 203.544205 28.169402 
L 203.696776 27.724089 
L 203.963775 26.99664 
L 204.078203 27.181268 
L 204.459631 28.238843 
L 204.497773 28.191453 
L 204.688487 27.544807 
L 204.917344 26.999408 
L 205.031772 27.196463 
L 205.375057 28.076098 
L 205.489485 27.877954 
L 205.83277 27.000103 
L 205.870913 27.030326 
L 206.061626 27.542819 
L 206.290483 27.911448 
L 206.443054 27.578553 
L 206.710053 26.998233 
L 206.824482 27.178974 
L 207.167766 27.963173 
L 207.282195 27.74768 
L 207.587337 26.998488 
L 207.701765 27.206411 
L 208.04505 28.203367 
L 208.083192 28.169144 
L 208.235763 27.693615 
L 208.46462 26.998452 
L 208.502763 27.008052 
L 208.617191 27.299416 
L 208.960476 28.402079 
L 209.074904 28.113718 
L 209.380046 26.998009 
L 209.418189 27.011828 
L 209.532617 27.32665 
L 209.837759 28.38721 
L 209.875902 28.361923 
L 210.028473 27.857745 
L 210.295472 26.999049 
L 210.4099 27.225248 
L 210.715042 28.195321 
L 210.753185 28.177824 
L 210.905756 27.734107 
L 211.172756 27.001994 
L 211.287184 27.240814 
L 211.592326 28.081368 
L 211.706754 27.858686 
L 212.011896 26.998765 
L 212.050039 27.036429 
L 212.20261 27.542984 
L 212.431466 28.196003 
L 212.545895 27.990486 
L 212.851037 26.996788 
L 212.889179 27.025851 
L 213.04175 27.580492 
L 213.30875 28.443764 
L 213.423178 28.135247 
L 213.72832 26.999039 
L 213.766463 27.046737 
L 213.919034 27.707945 
L 214.14789 28.607614 
L 214.224176 28.511523 
L 214.453032 27.362234 
L 214.605603 27.003145 
L 214.720032 27.335258 
L 215.025174 28.522371 
L 215.139602 28.227961 
L 215.444744 26.998685 
L 215.482887 27.030081 
L 215.635458 27.60873 
L 215.864314 28.335772 
L 215.978743 28.067202 
L 216.283885 27.001048 
L 216.322027 27.049544 
L 216.512741 27.836177 
L 216.665312 28.282731 
L 216.703455 28.273537 
L 216.817883 27.948858 
L 217.084882 26.996614 
L 217.123025 27.031019 
L 217.275596 27.646213 
L 217.504453 28.450716 
L 217.580738 28.311319 
L 217.924023 27.007438 
L 217.962166 27.0784 
L 218.15288 28.096043 
L 218.343593 28.689227 
L 218.458022 28.301965 
L 218.725021 26.999445 
L 218.763164 27.015302 
L 218.877592 27.467261 
L 219.144591 28.791028 
L 219.182734 28.769155 
L 219.297162 28.311267 
L 219.564162 26.998103 
L 219.602304 27.030823 
L 219.754875 27.755969 
L 219.983732 28.666659 
L 220.09816 28.304328 
L 220.365159 27.003305 
L 220.403302 27.014558 
L 220.51773 27.430392 
L 220.78473 28.514862 
L 220.899158 28.172257 
L 221.166157 26.996779 
L 221.2043 27.028896 
L 221.356871 27.719144 
L 221.547585 28.52742 
L 221.585727 28.519633 
L 221.700156 28.115975 
L 221.967155 27.003616 
L 222.081583 27.413092 
L 222.348583 28.726829 
L 222.386725 28.693235 
L 222.539296 27.931655 
L 222.73001 27.001401 
L 222.768153 27.016932 
L 222.882581 27.527526 
L 223.14958 28.930282 
L 223.225866 28.737888 
L 223.531008 26.998471 
L 223.607293 27.140825 
L 223.950578 28.953734 
L 224.026864 28.711188 
L 224.332006 26.999586 
L 224.370149 27.053886 
L 224.52272 27.946723 
L 224.713433 28.840639 
L 224.789719 28.674009 
L 225.094861 27.000026 
L 225.171146 27.149487 
L 225.476288 28.755269 
L 225.552574 28.604893 
L 225.857716 26.996355 
L 225.934002 27.171916 
L 226.239144 28.825955 
L 226.315429 28.650351 
L 226.620571 26.9993 
L 226.658714 27.065428 
L 226.811285 28.055354 
L 227.001999 28.99942 
L 227.078284 28.784578 
L 227.383426 27.00093 
L 227.421569 27.081963 
L 227.612283 28.486178 
L 227.764854 29.122973 
L 227.841139 28.868036 
L 228.146281 27.005326 
L 228.184424 27.102077 
L 228.527709 29.103896 
L 228.603994 28.79268 
L 228.870994 27.004462 
L 228.909136 27.033126 
L 229.023565 27.691557 
L 229.252421 29.064381 
L 229.328707 28.842642 
L 229.633849 27.009785 
L 229.671991 27.114169 
L 229.977133 29.07868 
L 230.053419 28.905243 
L 230.320418 27.02737 
L 230.320418 27.02737 
" clip-path="url(#p10c4b0ad52)" style="fill: none; stroke: #000000; stroke-linecap: square"/>
   </g>
   <g id="line2d_20">
    <path d="M 105.364755 108.681683 
L 105.364755 10.659249 
" clip-path="url(#p10c4b0ad52)" style="fill: none; stroke: #98509f; stroke-linecap: square"/>
   </g>
   <g id="line2d_21">
    <path d="M 128.250407 108.681683 
L 128.250407 10.659249 
" clip-path="url(#p10c4b0ad52)" style="fill: none; stroke: #387eb9; stroke-linecap: square"/>
   </g>
   <g id="line2d_22">
    <path d="M 82.479102 108.681683 
L 82.479102 10.659249 
" clip-path="url(#p10c4b0ad52)" style="fill: none; stroke: #393b7a; stroke-linecap: square"/>
   </g>
   <g id="line2d_23">
    <path d="M 236.880972 108.681683 
L 236.880972 10.659249 
" clip-path="url(#p10c4b0ad52)" style="fill: none; stroke: #98509f; stroke-linecap: square"/>
   </g>
   <g id="patch_3">
    <path d="M 39.606646 108.681683 
L 39.606646 10.659249 
" style="fill: none; stroke: #000000; stroke-width: 0.8; stroke-linejoin: miter; stroke-linecap: square"/>
   </g>
   <g id="patch_4">
    <path d="M 230.320418 108.681683 
L 230.320418 10.659249 
" style="fill: none; stroke: #000000; stroke-width: 0.8; stroke-linejoin: miter; stroke-linecap: square"/>
   </g>
   <g id="patch_5">
    <path d="M 39.606646 108.681683 
L 230.320418 108.681683 
" style="fill: none; stroke: #000000; stroke-width: 0.8; stroke-linejoin: miter; stroke-linecap: square"/>
   </g>
   <g id="patch_6">
    <path d="M 39.606646 10.659249 
L 230.320418 10.659249 
" style="fill: none; stroke: #000000; stroke-width: 0.8; stroke-linejoin: miter; stroke-linecap: square"/>
   </g>
   <g id="legend_1">
    <g id="line2d_24">
     <path d="M 189.268909 52.43297 
L 194.268909 52.43297 
L 199.268909 52.43297 
" style="fill: none; stroke: #000000; stroke-linecap: square"/>
    </g>
    <g id="text_12">
     <!-- $S_{21}$ -->
     <g transform="translate(207.268909 55.93297) scale(0.1 -0.1)">
      <use xlink:href="#CMMI12-53" transform="scale(0.996264)"/>
      <use xlink:href="#CMR17-32" transform="translate(59.994488 -14.943915) scale(0.697382)"/>
      <use xlink:href="#CMR17-31" transform="translate(91.97767 -14.943915) scale(0.697382)"/>
     </g>
    </g>
    <g id="line2d_25">
     <path d="M 189.268909 66.370148 
L 194.268909 66.370148 
L 199.268909 66.370148 
" style="fill: none; stroke: #98509f; stroke-linecap: square"/>
    </g>
    <g id="text_13">
     <!-- a -->
     <g transform="translate(207.268909 69.870148) scale(0.1 -0.1)">
      <defs>
       <path id="CMSS17-61" d="M 2406 1789 
C 2406 2399 1978 2816 1402 2816 
C 1120 2816 813 2764 461 2559 
L 499 2133 
C 659 2250 934 2438 1395 2438 
C 1722 2438 1920 2185 1920 1782 
L 1920 1536 
C 896 1504 256 1209 256 711 
C 256 452 416 -64 947 -64 
C 1043 -64 1562 -52 1933 224 
L 1933 -13 
L 2406 -13 
L 2406 1789 
z
M 1920 824 
C 1920 711 1920 559 1728 446 
C 1562 339 1350 326 1261 326 
C 941 326 723 503 723 723 
C 723 1165 1722 1209 1920 1216 
L 1920 824 
z
" transform="scale(0.015625)"/>
      </defs>
      <use xlink:href="#CMSS17-61" transform="scale(0.996264)"/>
     </g>
    </g>
    <g id="line2d_26">
     <path d="M 189.268909 80.307327 
L 194.268909 80.307327 
L 199.268909 80.307327 
" style="fill: none; stroke: #387eb9; stroke-linecap: square"/>
    </g>
    <g id="text_14">
     <!-- s -->
     <g transform="translate(207.268909 83.807327) scale(0.1 -0.1)">
      <defs>
       <path id="CMSS17-73" d="M 2061 2623 
C 1683 2803 1389 2816 1197 2816 
C 742 2816 198 2655 198 2009 
C 198 1363 902 1222 1094 1183 
C 1389 1126 1715 1062 1715 742 
C 1715 339 1254 339 1171 339 
C 915 339 563 409 243 639 
L 166 211 
C 531 0 883 -64 1178 -64 
C 1965 -64 2163 416 2163 780 
C 2163 1094 1984 1305 1862 1401 
C 1651 1567 1574 1587 1050 1695 
C 960 1708 646 1779 646 2067 
C 646 2431 1050 2431 1139 2431 
C 1555 2431 1811 2303 1984 2207 
L 2061 2623 
z
" transform="scale(0.015625)"/>
      </defs>
      <use xlink:href="#CMSS17-73" transform="scale(0.996264)"/>
     </g>
    </g>
    <g id="line2d_27">
     <path d="M 189.268909 94.244505 
L 194.268909 94.244505 
L 199.268909 94.244505 
" style="fill: none; stroke: #393b7a; stroke-linecap: square"/>
    </g>
    <g id="text_15">
     <!-- i -->
     <g transform="translate(207.268909 97.744505) scale(0.1 -0.1)">
      <defs>
       <path id="CMSS17-69" d="M 979 4224 
L 442 4224 
L 442 3686 
L 979 3686 
L 979 4224 
z
M 947 2752 
L 474 2752 
L 474 0 
L 947 0 
L 947 2752 
z
" transform="scale(0.015625)"/>
      </defs>
      <use xlink:href="#CMSS17-69" transform="scale(0.996264)"/>
     </g>
    </g>
   </g>
  </g>
  <g id="axes_2">
   <g id="patch_7">
    <path d="M 288.852863 108.681683 
L 479.566635 108.681683 
L 479.566635 10.659249 
L 288.852863 10.659249 
L 288.852863 108.681683 
z
" style="fill: none"/>
   </g>
   <g id="matplotlib.axis_3">
    <g id="xtick_7">
     <g id="line2d_28">
      <path d="M 336.495538 108.681683 
L 336.495538 10.659249 
" clip-path="url(#p43ff3cc721)" style="fill: none; stroke: #b0b0b0; stroke-width: 0.8; stroke-linecap: square"/>
     </g>
     <g id="line2d_29">
      <g>
       <use xlink:href="#m252f384ed2" x="336.495538" y="108.681683" style="stroke: #000000; stroke-width: 0.8"/>
      </g>
     </g>
     <g id="text_16">
      <!-- 5 -->
      <g transform="translate(334.00487 119.100182) scale(0.1 -0.1)">
       <use xlink:href="#CMSS17-35" transform="scale(0.996264)"/>
      </g>
     </g>
    </g>
    <g id="xtick_8">
     <g id="line2d_30">
      <path d="M 384.185904 108.681683 
L 384.185904 10.659249 
" clip-path="url(#p43ff3cc721)" style="fill: none; stroke: #b0b0b0; stroke-width: 0.8; stroke-linecap: square"/>
     </g>
     <g id="line2d_31">
      <g>
       <use xlink:href="#m252f384ed2" x="384.185904" y="108.681683" style="stroke: #000000; stroke-width: 0.8"/>
      </g>
     </g>
     <g id="text_17">
      <!-- 10 -->
      <g transform="translate(379.204568 119.100182) scale(0.1 -0.1)">
       <use xlink:href="#CMSS17-31" transform="scale(0.996264)"/>
       <use xlink:href="#CMSS17-30" transform="translate(46.843624 0) scale(0.996264)"/>
      </g>
     </g>
    </g>
    <g id="xtick_9">
     <g id="line2d_32">
      <path d="M 431.876269 108.681683 
L 431.876269 10.659249 
" clip-path="url(#p43ff3cc721)" style="fill: none; stroke: #b0b0b0; stroke-width: 0.8; stroke-linecap: square"/>
     </g>
     <g id="line2d_33">
      <g>
       <use xlink:href="#m252f384ed2" x="431.876269" y="108.681683" style="stroke: #000000; stroke-width: 0.8"/>
      </g>
     </g>
     <g id="text_18">
      <!-- 15 -->
      <g transform="translate(426.894934 119.100182) scale(0.1 -0.1)">
       <use xlink:href="#CMSS17-31" transform="scale(0.996264)"/>
       <use xlink:href="#CMSS17-35" transform="translate(46.843624 0) scale(0.996264)"/>
      </g>
     </g>
    </g>
    <g id="xtick_10">
     <g id="line2d_34">
      <path d="M 479.566635 108.681683 
L 479.566635 10.659249 
" clip-path="url(#p43ff3cc721)" style="fill: none; stroke: #b0b0b0; stroke-width: 0.8; stroke-linecap: square"/>
     </g>
     <g id="line2d_35">
      <g>
       <use xlink:href="#m252f384ed2" x="479.566635" y="108.681683" style="stroke: #000000; stroke-width: 0.8"/>
      </g>
     </g>
     <g id="text_19">
      <!-- 20 -->
      <g transform="translate(474.5853 119.100182) scale(0.1 -0.1)">
       <use xlink:href="#CMSS17-32" transform="scale(0.996264)"/>
       <use xlink:href="#CMSS17-30" transform="translate(46.843624 0) scale(0.996264)"/>
      </g>
     </g>
    </g>
    <g id="text_20">
     <!-- frequency [GHz] -->
     <g transform="translate(350.772577 132.50934) scale(0.1 -0.1)">
      <use xlink:href="#CMSS17-66" transform="scale(0.996264)"/>
      <use xlink:href="#CMSS17-72" transform="translate(28.626659 0) scale(0.996264)"/>
      <use xlink:href="#CMSS17-65" transform="translate(60.536431 0) scale(0.996264)"/>
      <use xlink:href="#CMSS17-71" transform="translate(102.175253 0) scale(0.996264)"/>
      <use xlink:href="#CMSS17-75" transform="translate(150.380197 0) scale(0.996264)"/>
      <use xlink:href="#CMSS17-65" transform="translate(198.58514 0) scale(0.996264)"/>
      <use xlink:href="#CMSS17-6e" transform="translate(240.223962 0) scale(0.996264)"/>
      <use xlink:href="#CMSS17-63" transform="translate(288.428905 0) scale(0.996264)"/>
      <use xlink:href="#CMSS17-79" transform="translate(330.067727 0) scale(0.996264)"/>
      <use xlink:href="#CMSS17-5b" transform="translate(404.296981 0) scale(0.996264)"/>
      <use xlink:href="#CMSS17-47" transform="translate(431.48242 0) scale(0.996264)"/>
      <use xlink:href="#CMSS17-48" transform="translate(493.940646 0) scale(0.996264)"/>
      <use xlink:href="#CMSS17-7a" transform="translate(560.002165 0) scale(0.996264)"/>
      <use xlink:href="#CMSS17-5d" transform="translate(600.680037 0) scale(0.996264)"/>
     </g>
    </g>
   </g>
   <g id="matplotlib.axis_4">
    <g id="ytick_4">
     <g id="line2d_36">
      <path d="M 288.852863 108.681683 
L 479.566635 108.681683 
" clip-path="url(#p43ff3cc721)" style="fill: none; stroke: #b0b0b0; stroke-width: 0.8; stroke-linecap: square"/>
     </g>
     <g id="line2d_37">
      <g>
       <use xlink:href="#m0feb304c6b" x="288.852863" y="108.681683" style="stroke: #000000; stroke-width: 0.8"/>
      </g>
     </g>
     <g id="text_21">
      <!-- $-\pi$ -->
      <g transform="translate(271.925143 112.140932) scale(0.1 -0.1)">
       <defs>
        <path id="CMSY10-0" d="M 4218 1472 
C 4326 1472 4442 1472 4442 1600 
C 4442 1728 4326 1728 4218 1728 
L 755 1728 
C 646 1728 531 1728 531 1600 
C 531 1472 646 1472 755 1472 
L 4218 1472 
z
" transform="scale(0.015625)"/>
        <path id="CMMI12-19" d="M 1658 2406 
L 2381 2406 
C 2208 1691 2099 1225 2099 715 
C 2099 625 2099 -64 2362 -64 
C 2496 -64 2611 57 2611 166 
C 2611 198 2611 210 2566 306 
C 2394 746 2394 1295 2394 1340 
C 2394 1378 2394 1832 2528 2406 
L 3245 2406 
C 3328 2406 3539 2406 3539 2611 
C 3539 2752 3418 2752 3302 2752 
L 1197 2752 
C 1050 2752 832 2752 538 2438 
C 371 2253 166 1915 166 1876 
C 166 1838 198 1825 237 1825 
C 282 1825 288 1844 320 1883 
C 653 2406 986 2406 1146 2406 
L 1510 2406 
C 1370 1927 1210 1372 685 255 
C 634 153 634 140 634 102 
C 634 -32 749 -64 806 -64 
C 992 -64 1043 102 1120 370 
C 1222 695 1222 708 1286 964 
L 1658 2406 
z
" transform="scale(0.015625)"/>
       </defs>
       <use xlink:href="#CMSY10-0" transform="scale(0.996264)"/>
       <use xlink:href="#CMMI12-19" transform="translate(77.487468 0) scale(0.996264)"/>
      </g>
     </g>
    </g>
    <g id="ytick_5">
     <g id="line2d_38">
      <path d="M 288.852863 84.176075 
L 479.566635 84.176075 
" clip-path="url(#p43ff3cc721)" style="fill: none; stroke: #b0b0b0; stroke-width: 0.8; stroke-linecap: square"/>
     </g>
     <g id="line2d_39">
      <g>
       <use xlink:href="#m0feb304c6b" x="288.852863" y="84.176075" style="stroke: #000000; stroke-width: 0.8"/>
      </g>
     </g>
     <g id="text_22">
      <!-- $-\pi/2$ -->
      <g transform="translate(261.605033 87.912065) scale(0.1 -0.1)">
       <defs>
        <path id="CMMI12-3d" d="M 2746 4563 
C 2746 4569 2784 4665 2784 4678 
C 2784 4755 2720 4800 2669 4800 
C 2637 4800 2579 4800 2528 4659 
L 384 -1364 
C 384 -1370 346 -1466 346 -1479 
C 346 -1556 410 -1600 461 -1600 
C 499 -1600 557 -1594 602 -1460 
L 2746 4563 
z
" transform="scale(0.015625)"/>
       </defs>
       <use xlink:href="#CMSY10-0" transform="scale(0.996264)"/>
       <use xlink:href="#CMMI12-19" transform="translate(77.487468 0) scale(0.996264)"/>
       <use xlink:href="#CMMI12-3d" transform="translate(136.398068 0) scale(0.996264)"/>
       <use xlink:href="#CMR17-32" transform="translate(185.172987 0) scale(0.996264)"/>
      </g>
     </g>
    </g>
    <g id="ytick_6">
     <g id="line2d_40">
      <path d="M 288.852863 59.670466 
L 479.566635 59.670466 
" clip-path="url(#p43ff3cc721)" style="fill: none; stroke: #b0b0b0; stroke-width: 0.8; stroke-linecap: square"/>
     </g>
     <g id="line2d_41">
      <g>
       <use xlink:href="#m0feb304c6b" x="288.852863" y="59.670466" style="stroke: #000000; stroke-width: 0.8"/>
      </g>
     </g>
     <g id="text_23">
      <!-- 0 -->
      <g transform="translate(280.371527 63.129715) scale(0.1 -0.1)">
       <use xlink:href="#CMSS17-30" transform="scale(0.996264)"/>
      </g>
     </g>
    </g>
    <g id="ytick_7">
     <g id="line2d_42">
      <path d="M 288.852863 35.164858 
L 479.566635 35.164858 
" clip-path="url(#p43ff3cc721)" style="fill: none; stroke: #b0b0b0; stroke-width: 0.8; stroke-linecap: square"/>
     </g>
     <g id="line2d_43">
      <g>
       <use xlink:href="#m0feb304c6b" x="288.852863" y="35.164858" style="stroke: #000000; stroke-width: 0.8"/>
      </g>
     </g>
     <g id="text_24">
      <!-- $\pi/2$ -->
      <g transform="translate(269.353777 38.900848) scale(0.1 -0.1)">
       <use xlink:href="#CMMI12-19" transform="scale(0.996264)"/>
       <use xlink:href="#CMMI12-3d" transform="translate(58.910601 0) scale(0.996264)"/>
       <use xlink:href="#CMR17-32" transform="translate(107.68552 0) scale(0.996264)"/>
      </g>
     </g>
    </g>
    <g id="ytick_8">
     <g id="line2d_44">
      <path d="M 288.852863 10.659249 
L 479.566635 10.659249 
" clip-path="url(#p43ff3cc721)" style="fill: none; stroke: #b0b0b0; stroke-width: 0.8; stroke-linecap: square"/>
     </g>
     <g id="line2d_45">
      <g>
       <use xlink:href="#m0feb304c6b" x="288.852863" y="10.659249" style="stroke: #000000; stroke-width: 0.8"/>
      </g>
     </g>
     <g id="text_25">
      <!-- $\pi$ -->
      <g transform="translate(279.673887 14.118498) scale(0.1 -0.1)">
       <use xlink:href="#CMMI12-19" transform="scale(0.996264)"/>
      </g>
     </g>
    </g>
    <g id="text_26">
     <!-- k [rad/cell] -->
     <g transform="translate(255.114373 82.612244) rotate(-90) scale(0.1 -0.1)">
      <defs>
       <path id="CMSS17-6b" d="M 1696 1686 
L 2688 2735 
L 2074 2735 
L 954 1552 
L 954 4416 
L 480 4416 
L 480 0 
L 947 0 
L 947 891 
L 1376 1342 
L 2278 0 
L 2822 0 
L 1696 1686 
z
" transform="scale(0.015625)"/>
       <path id="CMSS17-2f" d="M 2637 4575 
C 2669 4658 2669 4671 2669 4684 
C 2669 4761 2611 4800 2560 4800 
C 2483 4800 2458 4748 2432 4671 
L 365 -1376 
C 333 -1460 333 -1472 333 -1485 
C 333 -1562 390 -1600 442 -1600 
C 518 -1600 544 -1549 570 -1472 
L 2637 4575 
z
" transform="scale(0.015625)"/>
       <path id="CMSS17-6c" d="M 947 4416 
L 474 4416 
L 474 0 
L 947 0 
L 947 4416 
z
" transform="scale(0.015625)"/>
      </defs>
      <use xlink:href="#CMSS17-6b" transform="scale(0.996264)"/>
      <use xlink:href="#CMSS17-5b" transform="translate(76.831602 0) scale(0.996264)"/>
      <use xlink:href="#CMSS17-72" transform="translate(104.017041 0) scale(0.996264)"/>
      <use xlink:href="#CMSS17-61" transform="translate(135.926813 0) scale(0.996264)"/>
      <use xlink:href="#CMSS17-64" transform="translate(180.848734 0) scale(0.996264)"/>
      <use xlink:href="#CMSS17-2f" transform="translate(229.053677 0) scale(0.996264)"/>
      <use xlink:href="#CMSS17-63" transform="translate(275.8973 0) scale(0.996264)"/>
      <use xlink:href="#CMSS17-65" transform="translate(317.536122 0) scale(0.996264)"/>
      <use xlink:href="#CMSS17-6c" transform="translate(359.174945 0) scale(0.996264)"/>
      <use xlink:href="#CMSS17-6c" transform="translate(381.355668 0) scale(0.996264)"/>
      <use xlink:href="#CMSS17-5d" transform="translate(403.536391 0) scale(0.996264)"/>
     </g>
    </g>
   </g>
   <g id="line2d_46">
    <path d="M 288.852863 59.663509 
L 346.701276 51.112795 
L 366.492778 47.989711 
L 370.498769 47.178567 
L 371.738718 46.724801 
L 372.263312 46.334475 
L 372.597145 45.824227 
L 372.835597 44.994733 
L 372.978668 43.791027 
L 373.074048 41.798305 
L 373.169429 32.845313 
L 373.3125 59.670466 
L 373.503262 50.421031 
L 373.741714 48.728545 
L 374.075546 47.972753 
L 374.55245 47.517814 
L 375.315496 47.154027 
L 376.793897 46.746688 
L 380.275294 46.073461 
L 392.86555 43.961817 
L 418.90449 39.527208 
L 438.743682 35.921848 
L 456.198356 32.527625 
L 471.793105 29.27266 
L 479.614325 27.545378 
L 479.614325 27.545378 
" clip-path="url(#p43ff3cc721)" style="fill: none; stroke: #000000; stroke-linecap: square"/>
   </g>
   <g id="line2d_47">
    <path d="M 371.023363 108.681683 
L 371.023363 10.659249 
" clip-path="url(#p43ff3cc721)" style="fill: none; stroke: #98509f; stroke-linecap: square"/>
   </g>
   <g id="line2d_48">
    <path d="M 399.637582 108.681683 
L 399.637582 10.659249 
" clip-path="url(#p43ff3cc721)" style="fill: none; stroke: #387eb9; stroke-linecap: square"/>
   </g>
   <g id="line2d_49">
    <path d="M 342.409143 108.681683 
L 342.409143 10.659249 
" clip-path="url(#p43ff3cc721)" style="fill: none; stroke: #393b7a; stroke-linecap: square"/>
   </g>
   <g id="line2d_50">
    <path d="M 288.852863 59.670466 
L 479.566635 59.670466 
" clip-path="url(#p43ff3cc721)" style="fill: none; stroke: #808080; stroke-linecap: square"/>
   </g>
   <g id="patch_8">
    <path d="M 288.852863 108.681683 
L 288.852863 10.659249 
" style="fill: none; stroke: #000000; stroke-width: 0.8; stroke-linejoin: miter; stroke-linecap: square"/>
   </g>
   <g id="patch_9">
    <path d="M 479.566635 108.681683 
L 479.566635 10.659249 
" style="fill: none; stroke: #000000; stroke-width: 0.8; stroke-linejoin: miter; stroke-linecap: square"/>
   </g>
   <g id="patch_10">
    <path d="M 288.852863 108.681683 
L 479.566635 108.681683 
" style="fill: none; stroke: #000000; stroke-width: 0.8; stroke-linejoin: miter; stroke-linecap: square"/>
   </g>
   <g id="patch_11">
    <path d="M 288.852863 10.659249 
L 479.566635 10.659249 
" style="fill: none; stroke: #000000; stroke-width: 0.8; stroke-linejoin: miter; stroke-linecap: square"/>
   </g>
  </g>
  <g id="axes_3">
   <g id="patch_12">
    <path d="M 39.606646 247.281683 
L 230.320418 247.281683 
L 230.320418 149.259249 
L 39.606646 149.259249 
L 39.606646 247.281683 
z
" style="fill: none"/>
   </g>
   <g id="matplotlib.axis_5">
    <g id="xtick_11">
     <g id="line2d_51">
      <path d="M 87.249321 247.281683 
L 87.249321 149.259249 
" clip-path="url(#p4458bcca94)" style="fill: none; stroke: #b0b0b0; stroke-width: 0.8; stroke-linecap: square"/>
     </g>
     <g id="line2d_52">
      <g>
       <use xlink:href="#m252f384ed2" x="87.249321" y="247.281683" style="stroke: #000000; stroke-width: 0.8"/>
      </g>
     </g>
     <g id="text_27">
      <!-- 5 -->
      <g transform="translate(84.758654 257.700182) scale(0.1 -0.1)">
       <use xlink:href="#CMSS17-35" transform="scale(0.996264)"/>
      </g>
     </g>
    </g>
    <g id="xtick_12">
     <g id="line2d_53">
      <path d="M 134.939687 247.281683 
L 134.939687 149.259249 
" clip-path="url(#p4458bcca94)" style="fill: none; stroke: #b0b0b0; stroke-width: 0.8; stroke-linecap: square"/>
     </g>
     <g id="line2d_54">
      <g>
       <use xlink:href="#m252f384ed2" x="134.939687" y="247.281683" style="stroke: #000000; stroke-width: 0.8"/>
      </g>
     </g>
     <g id="text_28">
      <!-- 10 -->
      <g transform="translate(129.958352 257.700182) scale(0.1 -0.1)">
       <use xlink:href="#CMSS17-31" transform="scale(0.996264)"/>
       <use xlink:href="#CMSS17-30" transform="translate(46.843624 0) scale(0.996264)"/>
      </g>
     </g>
    </g>
    <g id="xtick_13">
     <g id="line2d_55">
      <path d="M 182.630053 247.281683 
L 182.630053 149.259249 
" clip-path="url(#p4458bcca94)" style="fill: none; stroke: #b0b0b0; stroke-width: 0.8; stroke-linecap: square"/>
     </g>
     <g id="line2d_56">
      <g>
       <use xlink:href="#m252f384ed2" x="182.630053" y="247.281683" style="stroke: #000000; stroke-width: 0.8"/>
      </g>
     </g>
     <g id="text_29">
      <!-- 15 -->
      <g transform="translate(177.648717 257.700182) scale(0.1 -0.1)">
       <use xlink:href="#CMSS17-31" transform="scale(0.996264)"/>
       <use xlink:href="#CMSS17-35" transform="translate(46.843624 0) scale(0.996264)"/>
      </g>
     </g>
    </g>
    <g id="xtick_14">
     <g id="line2d_57">
      <path d="M 230.320418 247.281683 
L 230.320418 149.259249 
" clip-path="url(#p4458bcca94)" style="fill: none; stroke: #b0b0b0; stroke-width: 0.8; stroke-linecap: square"/>
     </g>
     <g id="line2d_58">
      <g>
       <use xlink:href="#m252f384ed2" x="230.320418" y="247.281683" style="stroke: #000000; stroke-width: 0.8"/>
      </g>
     </g>
     <g id="text_30">
      <!-- 20 -->
      <g transform="translate(225.339083 257.700182) scale(0.1 -0.1)">
       <use xlink:href="#CMSS17-32" transform="scale(0.996264)"/>
       <use xlink:href="#CMSS17-30" transform="translate(46.843624 0) scale(0.996264)"/>
      </g>
     </g>
    </g>
    <g id="text_31">
     <!-- frequency [GHz] -->
     <g transform="translate(101.52636 271.10934) scale(0.1 -0.1)">
      <use xlink:href="#CMSS17-66" transform="scale(0.996264)"/>
      <use xlink:href="#CMSS17-72" transform="translate(28.626659 0) scale(0.996264)"/>
      <use xlink:href="#CMSS17-65" transform="translate(60.536431 0) scale(0.996264)"/>
      <use xlink:href="#CMSS17-71" transform="translate(102.175253 0) scale(0.996264)"/>
      <use xlink:href="#CMSS17-75" transform="translate(150.380197 0) scale(0.996264)"/>
      <use xlink:href="#CMSS17-65" transform="translate(198.58514 0) scale(0.996264)"/>
      <use xlink:href="#CMSS17-6e" transform="translate(240.223962 0) scale(0.996264)"/>
      <use xlink:href="#CMSS17-63" transform="translate(288.428905 0) scale(0.996264)"/>
      <use xlink:href="#CMSS17-79" transform="translate(330.067727 0) scale(0.996264)"/>
      <use xlink:href="#CMSS17-5b" transform="translate(404.296981 0) scale(0.996264)"/>
      <use xlink:href="#CMSS17-47" transform="translate(431.48242 0) scale(0.996264)"/>
      <use xlink:href="#CMSS17-48" transform="translate(493.940646 0) scale(0.996264)"/>
      <use xlink:href="#CMSS17-7a" transform="translate(560.002165 0) scale(0.996264)"/>
      <use xlink:href="#CMSS17-5d" transform="translate(600.680037 0) scale(0.996264)"/>
     </g>
    </g>
   </g>
   <g id="matplotlib.axis_6">
    <g id="ytick_9">
     <g id="line2d_59">
      <path d="M 39.606646 247.281683 
L 230.320418 247.281683 
" clip-path="url(#p4458bcca94)" style="fill: none; stroke: #b0b0b0; stroke-width: 0.8; stroke-linecap: square"/>
     </g>
     <g id="line2d_60">
      <g>
       <use xlink:href="#m0feb304c6b" x="39.606646" y="247.281683" style="stroke: #000000; stroke-width: 0.8"/>
      </g>
     </g>
     <g id="text_32">
      <!-- 0 -->
      <g transform="translate(31.125311 250.740932) scale(0.1 -0.1)">
       <use xlink:href="#CMSS17-30" transform="scale(0.996264)"/>
      </g>
     </g>
    </g>
    <g id="ytick_10">
     <g id="line2d_61">
      <path d="M 39.606646 222.776075 
L 230.320418 222.776075 
" clip-path="url(#p4458bcca94)" style="fill: none; stroke: #b0b0b0; stroke-width: 0.8; stroke-linecap: square"/>
     </g>
     <g id="line2d_62">
      <g>
       <use xlink:href="#m0feb304c6b" x="39.606646" y="222.776075" style="stroke: #000000; stroke-width: 0.8"/>
      </g>
     </g>
     <g id="text_33">
      <!-- 25 -->
      <g transform="translate(26.143975 226.235324) scale(0.1 -0.1)">
       <use xlink:href="#CMSS17-32" transform="scale(0.996264)"/>
       <use xlink:href="#CMSS17-35" transform="translate(46.843624 0) scale(0.996264)"/>
      </g>
     </g>
    </g>
    <g id="ytick_11">
     <g id="line2d_63">
      <path d="M 39.606646 198.270466 
L 230.320418 198.270466 
" clip-path="url(#p4458bcca94)" style="fill: none; stroke: #b0b0b0; stroke-width: 0.8; stroke-linecap: square"/>
     </g>
     <g id="line2d_64">
      <g>
       <use xlink:href="#m0feb304c6b" x="39.606646" y="198.270466" style="stroke: #000000; stroke-width: 0.8"/>
      </g>
     </g>
     <g id="text_34">
      <!-- 50 -->
      <g transform="translate(26.143975 201.729715) scale(0.1 -0.1)">
       <use xlink:href="#CMSS17-35" transform="scale(0.996264)"/>
       <use xlink:href="#CMSS17-30" transform="translate(46.843624 0) scale(0.996264)"/>
      </g>
     </g>
    </g>
    <g id="ytick_12">
     <g id="line2d_65">
      <path d="M 39.606646 173.764858 
L 230.320418 173.764858 
" clip-path="url(#p4458bcca94)" style="fill: none; stroke: #b0b0b0; stroke-width: 0.8; stroke-linecap: square"/>
     </g>
     <g id="line2d_66">
      <g>
       <use xlink:href="#m0feb304c6b" x="39.606646" y="173.764858" style="stroke: #000000; stroke-width: 0.8"/>
      </g>
     </g>
     <g id="text_35">
      <!-- 75 -->
      <g transform="translate(26.143975 177.224107) scale(0.1 -0.1)">
       <defs>
        <path id="CMSS17-37" d="M 1389 3788 
C 1466 3788 1542 3795 1619 3795 
L 2355 3795 
C 1440 2715 915 1350 915 -64 
L 1427 -64 
C 1427 1305 1875 2695 2752 3807 
L 2752 4224 
L 250 4224 
L 250 3788 
L 1389 3788 
z
" transform="scale(0.015625)"/>
       </defs>
       <use xlink:href="#CMSS17-37" transform="scale(0.996264)"/>
       <use xlink:href="#CMSS17-35" transform="translate(46.843624 0) scale(0.996264)"/>
      </g>
     </g>
    </g>
    <g id="ytick_13">
     <g id="line2d_67">
      <path d="M 39.606646 149.259249 
L 230.320418 149.259249 
" clip-path="url(#p4458bcca94)" style="fill: none; stroke: #b0b0b0; stroke-width: 0.8; stroke-linecap: square"/>
     </g>
     <g id="line2d_68">
      <g>
       <use xlink:href="#m0feb304c6b" x="39.606646" y="149.259249" style="stroke: #000000; stroke-width: 0.8"/>
      </g>
     </g>
     <g id="text_36">
      <!-- 100 -->
      <g transform="translate(21.16264 152.718498) scale(0.1 -0.1)">
       <use xlink:href="#CMSS17-31" transform="scale(0.996264)"/>
       <use xlink:href="#CMSS17-30" transform="translate(46.843624 0) scale(0.996264)"/>
       <use xlink:href="#CMSS17-30" transform="translate(93.687247 0) scale(0.996264)"/>
      </g>
     </g>
    </g>
    <g id="text_37">
     <!-- $Z_\mathrm{Bloch}$ [Ohm] -->
     <g transform="translate(14.67198 226.525669) rotate(-90) scale(0.1 -0.1)">
      <defs>
       <path id="CMMI12-5a" d="M 4480 4153 
C 4518 4198 4550 4236 4550 4300 
C 4550 4345 4544 4352 4397 4352 
L 1754 4352 
C 1606 4352 1600 4345 1562 4230 
L 1210 3083 
C 1190 3019 1190 3007 1190 2994 
C 1190 2968 1210 2930 1254 2930 
C 1306 2930 1318 2956 1344 3039 
C 1581 3726 1894 4166 2906 4166 
L 3955 4166 
L 448 217 
C 390 147 365 121 365 51 
C 365 0 397 0 518 0 
L 3251 0 
C 3398 0 3405 6 3443 121 
L 3891 1529 
C 3898 1548 3910 1593 3910 1618 
C 3910 1650 3885 1682 3846 1682 
C 3795 1682 3789 1676 3738 1516 
C 3469 695 3187 198 2074 198 
L 966 198 
L 4480 4153 
z
" transform="scale(0.015625)"/>
       <path id="CMR17-42" d="M 333 4352 
L 333 4185 
C 774 4185 845 4185 845 3897 
L 845 451 
C 845 166 774 166 333 166 
L 333 0 
L 2534 0 
C 3354 0 3885 578 3885 1155 
C 3885 1726 3360 2214 2675 2259 
C 3290 2380 3718 2790 3718 3276 
C 3718 3808 3194 4352 2368 4352 
L 333 4352 
z
M 1248 2304 
L 1248 3936 
C 1248 4153 1261 4185 1517 4185 
L 2336 4185 
C 2970 4185 3251 3673 3251 3276 
C 3251 2790 2861 2304 2170 2304 
L 1248 2304 
z
M 1517 166 
C 1261 166 1248 198 1248 413 
L 1248 2201 
L 2432 2201 
C 3091 2201 3411 1624 3411 1161 
C 3411 698 3046 166 2349 166 
L 1517 166 
z
" transform="scale(0.015625)"/>
       <path id="CMR17-6c" d="M 979 4416 
L 218 4345 
L 218 4179 
C 595 4179 653 4141 653 3835 
L 653 439 
C 653 198 627 166 218 166 
L 218 0 
C 371 12 653 12 813 12 
C 979 12 1261 12 1414 0 
L 1414 166 
C 1005 166 979 191 979 439 
L 979 4416 
z
" transform="scale(0.015625)"/>
       <path id="CMR17-6f" d="M 2758 1356 
C 2758 2176 2163 2816 1466 2816 
C 768 2816 173 2176 173 1356 
C 173 550 768 -64 1466 -64 
C 2163 -64 2758 550 2758 1356 
z
M 1466 51 
C 1165 51 909 230 762 480 
C 602 768 582 1126 582 1408 
C 582 1676 595 2009 762 2297 
C 890 2508 1139 2713 1466 2713 
C 1754 2713 1997 2553 2150 2329 
C 2349 2028 2349 1606 2349 1408 
C 2349 1158 2336 774 2163 467 
C 1984 172 1709 51 1466 51 
z
" transform="scale(0.015625)"/>
       <path id="CMR17-63" d="M 2234 2240 
C 2112 2240 1933 2240 1933 2015 
C 1933 1836 2080 1785 2163 1785 
C 2208 1785 2394 1804 2394 2028 
C 2394 2476 1958 2816 1466 2816 
C 787 2816 211 2201 211 1379 
C 211 521 813 -64 1466 -64 
C 2259 -64 2458 676 2458 747 
C 2458 773 2451 792 2406 792 
C 2362 792 2355 786 2330 702 
C 2163 180 1798 51 1523 51 
C 1114 51 621 431 621 1385 
C 621 2358 1094 2700 1472 2700 
C 1722 2700 2093 2582 2234 2240 
z
" transform="scale(0.015625)"/>
       <path id="CMR17-68" d="M 2656 1954 
C 2656 2282 2592 2816 1837 2816 
C 1312 2816 1056 2392 979 2179 
L 973 2179 
L 973 4416 
L 211 4345 
L 211 4179 
C 589 4179 646 4141 646 3843 
L 646 443 
C 646 198 621 166 211 166 
L 211 0 
C 365 12 646 12 813 12 
C 979 12 1267 12 1421 0 
L 1421 166 
C 1011 166 986 192 986 443 
L 986 1678 
C 986 2269 1344 2713 1792 2713 
C 2266 2713 2317 2289 2317 1980 
L 2317 443 
C 2317 198 2291 166 1882 166 
L 1882 0 
C 2035 12 2317 12 2483 12 
C 2650 12 2938 12 3091 0 
L 3091 166 
C 2682 166 2656 192 2656 443 
L 2656 1954 
z
" transform="scale(0.015625)"/>
       <path id="CMSS17-4f" d="M 4096 2201 
C 4096 3541 3219 4544 2214 4544 
C 1210 4544 333 3535 333 2201 
C 333 855 1222 -128 2214 -128 
C 3206 -128 4096 855 4096 2201 
z
M 2214 275 
C 1510 275 870 1067 870 2285 
C 870 3470 1549 4140 2214 4140 
C 2880 4140 3558 3470 3558 2285 
C 3558 1061 2912 275 2214 275 
z
" transform="scale(0.015625)"/>
       <path id="CMSS17-68" d="M 2618 1878 
C 2618 2283 2522 2816 1798 2816 
C 1395 2816 1133 2617 947 2399 
L 947 4416 
L 474 4416 
L 474 0 
L 960 0 
L 960 1556 
C 960 1962 1114 2425 1549 2425 
C 2112 2425 2131 2045 2131 1826 
L 2131 0 
L 2618 0 
L 2618 1878 
z
" transform="scale(0.015625)"/>
       <path id="CMSS17-6d" d="M 4288 1878 
C 4288 2309 4179 2816 3462 2816 
C 2982 2816 2694 2515 2566 2328 
C 2451 2668 2182 2816 1798 2816 
C 1363 2816 1088 2566 941 2386 
L 941 2783 
L 474 2783 
L 474 0 
L 960 0 
L 960 1556 
C 960 1936 1101 2425 1555 2425 
C 2138 2425 2138 2013 2138 1826 
L 2138 0 
L 2624 0 
L 2624 1556 
C 2624 1936 2765 2425 3219 2425 
C 3802 2425 3802 2013 3802 1826 
L 3802 0 
L 4288 0 
L 4288 1878 
z
" transform="scale(0.015625)"/>
      </defs>
      <use xlink:href="#CMMI12-5a" transform="scale(0.996264)"/>
      <use xlink:href="#CMR17-42" transform="translate(66.768782 -14.943915) scale(0.697382)"/>
      <use xlink:href="#CMR17-6c" transform="translate(112.400702 -14.943915) scale(0.697382)"/>
      <use xlink:href="#CMR17-6f" transform="translate(129.810361 -14.943915) scale(0.697382)"/>
      <use xlink:href="#CMR17-63" transform="translate(163.615248 -14.943915) scale(0.697382)"/>
      <use xlink:href="#CMR17-68" transform="translate(190.133359 -14.943915) scale(0.697382)"/>
      <use xlink:href="#CMSS17-5b" transform="translate(257.487212 0) scale(0.996264)"/>
      <use xlink:href="#CMSS17-4f" transform="translate(284.672651 0) scale(0.996264)"/>
      <use xlink:href="#CMSS17-68" transform="translate(353.696906 0) scale(0.996264)"/>
      <use xlink:href="#CMSS17-6d" transform="translate(401.901849 0) scale(0.996264)"/>
      <use xlink:href="#CMSS17-5d" transform="translate(476.131104 0) scale(0.996264)"/>
     </g>
    </g>
   </g>
   <g id="line2d_69">
    <path d="M 39.606646 197.281674 
L 66.647083 197.169981 
L 96.072039 196.817905 
L 114.337449 196.662148 
L 118.295749 196.831728 
L 120.203364 197.114373 
L 121.300242 197.486956 
L 122.015598 197.963392 
L 122.492501 198.533157 
L 122.874024 199.327269 
L 123.207857 200.615184 
L 123.446309 202.405051 
L 123.63707 205.319307 
L 123.780141 210.23197 
L 123.875522 218.31437 
L 124.066284 247.281683 
L 124.113974 68.010342 
L 124.161664 151.367843 
L 124.352426 182.237652 
L 124.590878 188.504944 
L 124.87702 191.129654 
L 125.258543 192.661227 
L 125.687756 193.516382 
L 126.21235 194.09009 
L 126.927705 194.52387 
L 127.929203 194.847163 
L 129.455295 195.085422 
L 132.030575 195.235642 
L 136.70423 195.256169 
L 145.7654 195.045157 
L 161.312459 194.447216 
L 180.102463 193.503753 
L 198.701706 192.35037 
L 216.299451 191.039087 
L 230.368109 189.818132 
L 230.368109 189.818132 
" clip-path="url(#p4458bcca94)" style="fill: none; stroke: #000000; stroke-linecap: square"/>
   </g>
   <g id="line2d_70">
    <path d="M 121.777146 247.281683 
L 121.777146 149.259249 
" clip-path="url(#p4458bcca94)" style="fill: none; stroke: #98509f; stroke-linecap: square"/>
   </g>
   <g id="line2d_71">
    <path d="M 150.391365 247.281683 
L 150.391365 149.259249 
" clip-path="url(#p4458bcca94)" style="fill: none; stroke: #387eb9; stroke-linecap: square"/>
   </g>
   <g id="line2d_72">
    <path d="M 93.162927 247.281683 
L 93.162927 149.259249 
" clip-path="url(#p4458bcca94)" style="fill: none; stroke: #393b7a; stroke-linecap: square"/>
   </g>
   <g id="line2d_73">
    <path d="M 39.606646 198.270466 
L 230.320418 198.270466 
" clip-path="url(#p4458bcca94)" style="fill: none; stroke: #000000; stroke-linecap: square"/>
   </g>
   <g id="patch_13">
    <path d="M 39.606646 247.281683 
L 39.606646 149.259249 
" style="fill: none; stroke: #000000; stroke-width: 0.8; stroke-linejoin: miter; stroke-linecap: square"/>
   </g>
   <g id="patch_14">
    <path d="M 230.320418 247.281683 
L 230.320418 149.259249 
" style="fill: none; stroke: #000000; stroke-width: 0.8; stroke-linejoin: miter; stroke-linecap: square"/>
   </g>
   <g id="patch_15">
    <path d="M 39.606646 247.281683 
L 230.320418 247.281683 
" style="fill: none; stroke: #000000; stroke-width: 0.8; stroke-linejoin: miter; stroke-linecap: square"/>
   </g>
   <g id="patch_16">
    <path d="M 39.606646 149.259249 
L 230.320418 149.259249 
" style="fill: none; stroke: #000000; stroke-width: 0.8; stroke-linejoin: miter; stroke-linecap: square"/>
   </g>
  </g>
  <g id="axes_4">
   <g id="patch_17">
    <path d="M 288.852863 247.281683 
L 479.566635 247.281683 
L 479.566635 149.259249 
L 288.852863 149.259249 
L 288.852863 247.281683 
z
" style="fill: none"/>
   </g>
   <g id="line2d_74">
    <path d="M 288.852863 219.599909 
L 479.566635 219.599909 
" clip-path="url(#p85e64f2136)" style="fill: none; stroke: #808080; stroke-linecap: square"/>
   </g>
   <g id="matplotlib.axis_7">
    <g id="xtick_15">
     <g id="line2d_75">
      <path d="M 298.388551 247.281683 
L 298.388551 149.259249 
" clip-path="url(#p85e64f2136)" style="fill: none; stroke: #b0b0b0; stroke-width: 0.8; stroke-linecap: square"/>
     </g>
     <g id="line2d_76">
      <g>
       <use xlink:href="#m252f384ed2" x="298.388551" y="247.281683" style="stroke: #000000; stroke-width: 0.8"/>
      </g>
     </g>
     <g id="text_38">
      <!-- 7.8 -->
      <g transform="translate(292.023512 257.700182) scale(0.1 -0.1)">
       <defs>
        <path id="CMSS17-2e" d="M 1088 512 
L 576 512 
L 576 0 
L 1088 0 
L 1088 512 
z
" transform="scale(0.015625)"/>
        <path id="CMSS17-38" d="M 1933 2246 
C 2419 2406 2669 2793 2669 3174 
C 2669 3774 2157 4288 1504 4288 
C 826 4288 333 3755 333 3174 
C 333 2799 576 2412 1069 2246 
C 442 2003 250 1516 250 1152 
C 250 448 819 -128 1498 -128 
C 2202 -128 2752 460 2752 1152 
C 2752 1574 2502 2022 1933 2246 
z
M 1504 2438 
C 1075 2438 787 2728 787 3167 
C 787 3613 1075 3897 1504 3897 
C 1901 3897 2214 3639 2214 3167 
C 2214 2703 1907 2438 1504 2438 
z
M 1504 268 
C 1139 268 749 518 749 1158 
C 749 1817 1184 2048 1498 2048 
C 1843 2048 2253 1804 2253 1158 
C 2253 492 1830 268 1504 268 
z
" transform="scale(0.015625)"/>
       </defs>
       <use xlink:href="#CMSS17-37" transform="scale(0.996264)"/>
       <use xlink:href="#CMSS17-2e" transform="translate(46.843624 0) scale(0.996264)"/>
       <use xlink:href="#CMSS17-38" transform="translate(72.867828 0) scale(0.996264)"/>
      </g>
     </g>
    </g>
    <g id="xtick_16">
     <g id="line2d_77">
      <path d="M 336.531306 247.281683 
L 336.531306 149.259249 
" clip-path="url(#p85e64f2136)" style="fill: none; stroke: #b0b0b0; stroke-width: 0.8; stroke-linecap: square"/>
     </g>
     <g id="line2d_78">
      <g>
       <use xlink:href="#m252f384ed2" x="336.531306" y="247.281683" style="stroke: #000000; stroke-width: 0.8"/>
      </g>
     </g>
     <g id="text_39">
      <!-- 8 -->
      <g transform="translate(334.040638 257.700182) scale(0.1 -0.1)">
       <use xlink:href="#CMSS17-38" transform="scale(0.996264)"/>
      </g>
     </g>
    </g>
    <g id="xtick_17">
     <g id="line2d_79">
      <path d="M 374.67406 247.281683 
L 374.67406 149.259249 
" clip-path="url(#p85e64f2136)" style="fill: none; stroke: #b0b0b0; stroke-width: 0.8; stroke-linecap: square"/>
     </g>
     <g id="line2d_80">
      <g>
       <use xlink:href="#m252f384ed2" x="374.67406" y="247.281683" style="stroke: #000000; stroke-width: 0.8"/>
      </g>
     </g>
     <g id="text_40">
      <!-- 8.2 -->
      <g transform="translate(368.309021 257.700182) scale(0.1 -0.1)">
       <use xlink:href="#CMSS17-38" transform="scale(0.996264)"/>
       <use xlink:href="#CMSS17-2e" transform="translate(46.843624 0) scale(0.996264)"/>
       <use xlink:href="#CMSS17-32" transform="translate(72.867828 0) scale(0.996264)"/>
      </g>
     </g>
    </g>
    <g id="xtick_18">
     <g id="line2d_81">
      <path d="M 412.816815 247.281683 
L 412.816815 149.259249 
" clip-path="url(#p85e64f2136)" style="fill: none; stroke: #b0b0b0; stroke-width: 0.8; stroke-linecap: square"/>
     </g>
     <g id="line2d_82">
      <g>
       <use xlink:href="#m252f384ed2" x="412.816815" y="247.281683" style="stroke: #000000; stroke-width: 0.8"/>
      </g>
     </g>
     <g id="text_41">
      <!-- 8.4 -->
      <g transform="translate(406.451775 257.700182) scale(0.1 -0.1)">
       <defs>
        <path id="CMSS17-34" d="M 2253 1088 
L 2835 1088 
L 2835 1478 
L 2253 1478 
L 2253 4224 
L 1690 4224 
L 166 1478 
L 166 1088 
L 1747 1088 
L 1747 0 
L 2253 0 
L 2253 1088 
z
M 659 1478 
C 1030 2139 1766 3474 1766 3927 
L 1766 1478 
L 659 1478 
z
" transform="scale(0.015625)"/>
       </defs>
       <use xlink:href="#CMSS17-38" transform="scale(0.996264)"/>
       <use xlink:href="#CMSS17-2e" transform="translate(46.843624 0) scale(0.996264)"/>
       <use xlink:href="#CMSS17-34" transform="translate(72.867828 0) scale(0.996264)"/>
      </g>
     </g>
    </g>
    <g id="xtick_19">
     <g id="line2d_83">
      <path d="M 450.959569 247.281683 
L 450.959569 149.259249 
" clip-path="url(#p85e64f2136)" style="fill: none; stroke: #b0b0b0; stroke-width: 0.8; stroke-linecap: square"/>
     </g>
     <g id="line2d_84">
      <g>
       <use xlink:href="#m252f384ed2" x="450.959569" y="247.281683" style="stroke: #000000; stroke-width: 0.8"/>
      </g>
     </g>
     <g id="text_42">
      <!-- 8.6 -->
      <g transform="translate(444.59453 257.700182) scale(0.1 -0.1)">
       <defs>
        <path id="CMSS17-36" d="M 2496 4159 
C 2227 4268 2035 4288 1856 4288 
C 1024 4288 250 3408 250 2023 
C 250 268 986 -128 1510 -128 
C 1798 -128 2086 -39 2362 281 
C 2643 619 2752 900 2752 1392 
C 2752 2183 2362 2886 1779 2886 
C 1357 2886 992 2662 768 2381 
C 832 3290 1254 3897 1862 3897 
C 2029 3897 2246 3871 2496 3760 
L 2496 4159 
z
M 774 1372 
C 774 1423 774 1455 781 1551 
C 781 2049 1069 2496 1536 2496 
C 1837 2496 1990 2336 2106 2138 
C 2240 1889 2246 1653 2246 1392 
C 2246 1143 2246 894 2099 638 
C 1978 441 1818 268 1510 268 
C 902 268 800 1117 774 1372 
z
" transform="scale(0.015625)"/>
       </defs>
       <use xlink:href="#CMSS17-38" transform="scale(0.996264)"/>
       <use xlink:href="#CMSS17-2e" transform="translate(46.843624 0) scale(0.996264)"/>
       <use xlink:href="#CMSS17-36" transform="translate(72.867828 0) scale(0.996264)"/>
      </g>
     </g>
    </g>
    <g id="text_43">
     <!-- pump frequency [GHz] -->
     <g transform="translate(337.433697 271.10934) scale(0.1 -0.1)">
      <defs>
       <path id="CMSS17-70" d="M 966 275 
C 1178 70 1466 -64 1773 -64 
C 2368 -64 2880 553 2880 1382 
C 2880 2147 2496 2816 1946 2816 
C 1626 2816 1242 2700 954 2470 
L 954 2764 
L 480 2764 
L 480 -1280 
L 966 -1280 
L 966 275 
z
M 966 2088 
C 1018 2166 1235 2412 1587 2412 
C 2035 2412 2394 1946 2394 1382 
C 2394 741 1958 326 1530 326 
C 1402 326 1267 358 1139 468 
C 966 624 966 721 966 812 
L 966 2088 
z
" transform="scale(0.015625)"/>
      </defs>
      <use xlink:href="#CMSS17-70" transform="scale(0.996264)"/>
      <use xlink:href="#CMSS17-75" transform="translate(48.204943 0) scale(0.996264)"/>
      <use xlink:href="#CMSS17-6d" transform="translate(96.409886 0) scale(0.996264)"/>
      <use xlink:href="#CMSS17-70" transform="translate(170.639141 0) scale(0.996264)"/>
      <use xlink:href="#CMSS17-66" transform="translate(250.073197 0) scale(0.996264)"/>
      <use xlink:href="#CMSS17-72" transform="translate(278.699855 0) scale(0.996264)"/>
      <use xlink:href="#CMSS17-65" transform="translate(310.609628 0) scale(0.996264)"/>
      <use xlink:href="#CMSS17-71" transform="translate(352.24845 0) scale(0.996264)"/>
      <use xlink:href="#CMSS17-75" transform="translate(400.453393 0) scale(0.996264)"/>
      <use xlink:href="#CMSS17-65" transform="translate(448.658336 0) scale(0.996264)"/>
      <use xlink:href="#CMSS17-6e" transform="translate(490.297158 0) scale(0.996264)"/>
      <use xlink:href="#CMSS17-63" transform="translate(538.502101 0) scale(0.996264)"/>
      <use xlink:href="#CMSS17-79" transform="translate(580.140924 0) scale(0.996264)"/>
      <use xlink:href="#CMSS17-5b" transform="translate(654.370178 0) scale(0.996264)"/>
      <use xlink:href="#CMSS17-47" transform="translate(681.555617 0) scale(0.996264)"/>
      <use xlink:href="#CMSS17-48" transform="translate(744.013842 0) scale(0.996264)"/>
      <use xlink:href="#CMSS17-7a" transform="translate(810.075361 0) scale(0.996264)"/>
      <use xlink:href="#CMSS17-5d" transform="translate(850.753233 0) scale(0.996264)"/>
     </g>
    </g>
   </g>
   <g id="matplotlib.axis_8">
    <g id="ytick_14">
     <g id="line2d_85">
      <path d="M 288.852863 219.599909 
L 479.566635 219.599909 
" clip-path="url(#p85e64f2136)" style="fill: none; stroke: #b0b0b0; stroke-width: 0.8; stroke-linecap: square"/>
     </g>
     <g id="line2d_86">
      <g>
       <use xlink:href="#m0feb304c6b" x="288.852863" y="219.599909" style="stroke: #000000; stroke-width: 0.8"/>
      </g>
     </g>
     <g id="text_44">
      <!-- 0 -->
      <g transform="translate(280.371527 223.059158) scale(0.1 -0.1)">
       <use xlink:href="#CMSS17-30" transform="scale(0.996264)"/>
      </g>
     </g>
    </g>
    <g id="ytick_15">
     <g id="line2d_87">
      <path d="M 288.852863 180.601704 
L 479.566635 180.601704 
" clip-path="url(#p85e64f2136)" style="fill: none; stroke: #b0b0b0; stroke-width: 0.8; stroke-linecap: square"/>
     </g>
     <g id="line2d_88">
      <g>
       <use xlink:href="#m0feb304c6b" x="288.852863" y="180.601704" style="stroke: #000000; stroke-width: 0.8"/>
      </g>
     </g>
     <g id="text_45">
      <!-- 0.005 -->
      <g transform="translate(262.660113 184.060953) scale(0.1 -0.1)">
       <use xlink:href="#CMSS17-30" transform="scale(0.996264)"/>
       <use xlink:href="#CMSS17-2e" transform="translate(46.843624 0) scale(0.996264)"/>
       <use xlink:href="#CMSS17-30" transform="translate(72.867828 0) scale(0.996264)"/>
       <use xlink:href="#CMSS17-30" transform="translate(119.711452 0) scale(0.996264)"/>
       <use xlink:href="#CMSS17-35" transform="translate(166.555075 0) scale(0.996264)"/>
      </g>
     </g>
    </g>
    <g id="text_46">
     <!-- $\Delta_\beta^\mathrm{PA}$ [rad/cell] -->
     <g transform="translate(254.482587 228.473231) rotate(-90) scale(0.1 -0.1)">
      <defs>
       <path id="CMR17-1" d="M 2598 4435 
C 2547 4544 2522 4544 2470 4544 
C 2394 4544 2387 4531 2342 4441 
L 269 108 
C 262 96 237 38 237 32 
C 237 6 243 0 358 0 
L 4576 0 
C 4691 0 4698 6 4698 32 
C 4698 38 4672 96 4666 108 
L 2598 4435 
z
M 2310 4056 
L 4083 358 
L 531 358 
L 2310 4056 
z
" transform="scale(0.015625)"/>
       <path id="CMR17-50" d="M 1267 2048 
L 2291 2048 
C 3117 2048 3718 2583 3718 3187 
C 3718 3791 3130 4352 2291 4352 
L 333 4352 
L 333 4185 
C 774 4185 845 4185 845 3899 
L 845 453 
C 845 166 774 166 333 166 
L 333 0 
C 518 12 858 12 1056 12 
C 1254 12 1594 12 1779 0 
L 1779 166 
C 1338 166 1267 166 1267 453 
L 1267 2048 
z
M 1254 2182 
L 1254 3937 
C 1254 4153 1267 4185 1523 4185 
L 2170 4185 
C 2995 4185 3232 3715 3232 3187 
C 3232 2608 2950 2182 2170 2182 
L 1254 2182 
z
" transform="scale(0.015625)"/>
       <path id="CMR17-41" d="M 2323 4441 
C 2291 4524 2278 4544 2214 4544 
C 2150 4544 2138 4524 2106 4441 
L 749 580 
C 627 236 371 166 147 166 
L 147 0 
C 262 12 518 12 640 12 
C 800 12 1056 12 1210 0 
L 1210 166 
C 909 179 864 382 864 459 
C 864 516 877 548 890 586 
L 1229 1536 
L 2906 1536 
L 3290 453 
C 3322 376 3322 363 3322 338 
C 3322 166 3046 166 2925 166 
L 2925 0 
C 3110 12 3443 12 3642 12 
C 3808 12 4128 12 4282 0 
L 4282 166 
C 3942 166 3827 166 3744 402 
L 2323 4441 
z
M 2067 3924 
L 2848 1702 
L 1286 1702 
L 2067 3924 
z
" transform="scale(0.015625)"/>
       <path id="CMMI12-c" d="M 3622 3739 
C 3622 4131 3296 4544 2714 4544 
C 1888 4544 1363 3510 1197 2830 
L 186 -1152 
C 173 -1204 211 -1216 243 -1216 
C 288 -1216 320 -1210 326 -1178 
L 774 592 
C 838 231 1190 -64 1568 -64 
C 2483 -64 3347 657 3347 1618 
C 3347 1863 3290 2108 3155 2314 
C 3078 2437 2982 2527 2880 2599 
C 3341 2823 3622 3222 3622 3739 
z
M 2509 2605 
C 2406 2571 2304 2560 2182 2560 
C 2093 2560 2010 2553 1894 2588 
C 1958 2627 2054 2639 2189 2639 
C 2304 2639 2419 2627 2509 2605 
z
M 3290 3798 
C 3290 3438 3117 2915 2701 2684 
C 2579 2723 2413 2752 2272 2752 
C 2138 2752 1754 2765 1754 2582 
C 1754 2411 2106 2430 2214 2430 
C 2381 2430 2528 2469 2682 2514 
C 2886 2347 2976 2127 2976 1805 
C 2976 1431 2874 1128 2752 850 
C 2541 373 2042 64 1600 64 
C 1133 64 890 438 890 876 
C 890 934 890 1018 915 1115 
L 1331 2784 
C 1542 3641 2080 4413 2701 4413 
C 3162 4413 3290 4086 3290 3798 
z
" transform="scale(0.015625)"/>
      </defs>
      <use xlink:href="#CMR17-1" transform="scale(0.996264)"/>
      <use xlink:href="#CMR17-50" transform="translate(76.91959 36.153639) scale(0.697382)"/>
      <use xlink:href="#CMR17-41" transform="translate(115.264748 36.153639) scale(0.697382)"/>
      <use xlink:href="#CMMI12-c" transform="translate(76.91959 -28.21539) scale(0.697382)"/>
      <use xlink:href="#CMSS17-5b" transform="translate(195.342478 0) scale(0.996264)"/>
      <use xlink:href="#CMSS17-72" transform="translate(222.527917 0) scale(0.996264)"/>
      <use xlink:href="#CMSS17-61" transform="translate(254.437689 0) scale(0.996264)"/>
      <use xlink:href="#CMSS17-64" transform="translate(299.35961 0) scale(0.996264)"/>
      <use xlink:href="#CMSS17-2f" transform="translate(347.564553 0) scale(0.996264)"/>
      <use xlink:href="#CMSS17-63" transform="translate(394.408176 0) scale(0.996264)"/>
      <use xlink:href="#CMSS17-65" transform="translate(436.046998 0) scale(0.996264)"/>
      <use xlink:href="#CMSS17-6c" transform="translate(477.685821 0) scale(0.996264)"/>
      <use xlink:href="#CMSS17-6c" transform="translate(499.866544 0) scale(0.996264)"/>
      <use xlink:href="#CMSS17-5d" transform="translate(522.047267 0) scale(0.996264)"/>
     </g>
    </g>
   </g>
   <g id="line2d_89">
    <path d="M 288.852863 220.195864 
L 311.738515 219.616111 
L 331.763461 218.895062 
L 348.927701 218.058846 
L 363.231234 217.152052 
L 375.627629 216.158173 
L 386.116887 215.117396 
L 395.652575 213.962947 
L 404.234695 212.70351 
L 411.863246 211.357176 
L 418.538228 209.95441 
L 424.259641 208.540534 
L 429.981054 206.88034 
L 434.748899 205.261354 
L 439.516743 203.373533 
L 443.331018 201.623428 
L 447.145294 199.609304 
L 450.006 197.888461 
L 452.866707 195.950263 
L 455.727414 193.751733 
L 458.58812 191.23776 
L 461.448827 188.33649 
L 463.355964 186.141249 
L 465.263102 183.695982 
L 467.17024 180.955906 
L 469.077378 177.864861 
L 470.984515 174.351444 
L 472.891653 170.323461 
L 474.798791 165.659762 
L 476.705928 160.197889 
L 478.613066 153.714814 
L 478.613066 153.714814 
" clip-path="url(#p85e64f2136)" style="fill: none; stroke-dasharray: 3.7,1.6; stroke-dashoffset: 0; stroke: #000000"/>
   </g>
   <g id="line2d_90">
    <path d="M 288.852863 242.826118 
L 311.738515 242.602443 
L 331.763461 242.188496 
L 348.927701 241.610894 
L 363.231234 240.915114 
L 375.627629 240.099611 
L 386.116887 239.205406 
L 395.652575 238.179631 
L 404.234695 237.031135 
L 411.863246 235.778388 
L 418.538228 234.452514 
L 424.259641 233.099834 
L 429.981054 231.495336 
L 434.748899 229.917498 
L 438.563174 228.460448 
L 442.377449 226.792457 
L 446.191725 224.867943 
L 449.052431 223.22096 
L 451.913138 221.364225 
L 454.773845 219.257154 
L 457.634551 216.84797 
L 460.495258 214.069552 
L 462.402396 211.969527 
L 464.309533 209.633296 
L 466.216671 207.019782 
L 468.123809 204.077787 
L 470.030946 200.74268 
L 471.938084 196.931671 
L 473.845222 192.536951 
L 475.75236 187.415461 
L 477.659497 181.373184 
L 478.613066 177.92634 
L 478.613066 177.92634 
" clip-path="url(#p85e64f2136)" style="fill: none; stroke: #000000; stroke-linecap: square"/>
   </g>
   <g id="line2d_91">
    <path d="M 454.773845 247.281683 
L 454.773845 149.259249 
" clip-path="url(#p85e64f2136)" style="fill: none; stroke: #98509f; stroke-linecap: square"/>
   </g>
   <g id="patch_18">
    <path d="M 288.852863 247.281683 
L 288.852863 149.259249 
" style="fill: none; stroke: #000000; stroke-width: 0.8; stroke-linejoin: miter; stroke-linecap: square"/>
   </g>
   <g id="patch_19">
    <path d="M 479.566635 247.281683 
L 479.566635 149.259249 
" style="fill: none; stroke: #000000; stroke-width: 0.8; stroke-linejoin: miter; stroke-linecap: square"/>
   </g>
   <g id="patch_20">
    <path d="M 288.852863 247.281683 
L 479.566635 247.281683 
" style="fill: none; stroke: #000000; stroke-width: 0.8; stroke-linejoin: miter; stroke-linecap: square"/>
   </g>
   <g id="patch_21">
    <path d="M 288.852863 149.259249 
L 479.566635 149.259249 
" style="fill: none; stroke: #000000; stroke-width: 0.8; stroke-linejoin: miter; stroke-linecap: square"/>
   </g>
   <g id="legend_2">
    <g id="line2d_92">
     <path d="M 297.852863 161.759249 
L 302.852863 161.759249 
L 307.852863 161.759249 
" style="fill: none; stroke-dasharray: 3.7,1.6; stroke-dashoffset: 0; stroke: #000000"/>
    </g>
    <g id="text_47">
     <!-- pump off -->
     <g transform="translate(315.852863 165.259249) scale(0.1 -0.1)">
      <defs>
       <path id="CMSS17-6f" d="M 2829 1356 
C 2829 2175 2221 2816 1504 2816 
C 768 2816 173 2156 173 1356 
C 173 544 787 -64 1498 -64 
C 2227 -64 2829 563 2829 1356 
z
M 1504 339 
C 1050 339 659 710 659 1407 
C 659 2150 1114 2425 1498 2425 
C 1914 2425 2342 2124 2342 1407 
C 2342 684 1926 339 1504 339 
z
" transform="scale(0.015625)"/>
       <path id="CMSS17-b" d="M 1075 2380 
L 1734 2380 
L 1734 2752 
L 1062 2752 
L 1062 3563 
C 1062 4000 1395 4089 1613 4089 
C 1837 4089 2022 4032 2093 4007 
L 2093 4428 
C 2022 4441 1830 4480 1619 4480 
C 1030 4480 602 4000 602 3366 
L 602 2752 
L 160 2752 
L 160 2380 
L 602 2380 
L 602 0 
L 1075 0 
L 1075 2380 
z
M 2739 2380 
L 3398 2380 
L 3398 2752 
L 2726 2752 
L 2726 3563 
C 2726 4000 3059 4089 3277 4089 
C 3501 4089 3686 4032 3757 4007 
L 3757 4428 
C 3686 4441 3494 4480 3283 4480 
C 2694 4480 2266 4000 2266 3366 
L 2266 0 
L 2739 0 
L 2739 2380 
z
" transform="scale(0.015625)"/>
      </defs>
      <use xlink:href="#CMSS17-70" transform="scale(0.996264)"/>
      <use xlink:href="#CMSS17-75" transform="translate(48.204943 0) scale(0.996264)"/>
      <use xlink:href="#CMSS17-6d" transform="translate(96.409886 0) scale(0.996264)"/>
      <use xlink:href="#CMSS17-70" transform="translate(170.639141 0) scale(0.996264)"/>
      <use xlink:href="#CMSS17-6f" transform="translate(250.073197 0) scale(0.996264)"/>
      <use xlink:href="#CMSS17-b" transform="translate(296.91682 0) scale(0.996264)"/>
     </g>
    </g>
    <g id="line2d_93">
     <path d="M 297.852863 175.696428 
L 302.852863 175.696428 
L 307.852863 175.696428 
" style="fill: none; stroke: #000000; stroke-linecap: square"/>
    </g>
    <g id="text_48">
     <!-- $I_a$ = 3.0 µA -->
     <g transform="translate(315.852863 179.196428) scale(0.1 -0.1)">
      <defs>
       <path id="CMMI12-49" d="M 2355 3879 
C 2413 4102 2426 4166 2893 4166 
C 3034 4166 3085 4166 3085 4287 
C 3085 4352 3014 4352 2995 4352 
C 2880 4352 2739 4339 2624 4339 
L 1837 4339 
C 1709 4339 1562 4352 1434 4352 
C 1382 4352 1312 4352 1312 4230 
C 1312 4166 1363 4166 1491 4166 
C 1888 4166 1888 4115 1888 4045 
C 1888 4000 1875 3962 1862 3905 
L 998 472 
C 941 249 928 185 461 185 
C 320 185 262 185 262 64 
C 262 0 326 0 358 0 
C 474 0 614 12 730 12 
L 1517 12 
C 1645 12 1786 0 1914 0 
C 1965 0 2042 0 2042 115 
C 2042 185 2003 185 1862 185 
C 1466 185 1466 236 1466 312 
C 1466 325 1466 357 1491 459 
L 2355 3879 
z
" transform="scale(0.015625)"/>
       <path id="CMMI12-61" d="M 1926 759 
C 1894 651 1894 638 1805 517 
C 1664 338 1382 64 1082 64 
C 819 64 672 300 672 676 
C 672 1028 870 1743 992 2011 
C 1210 2458 1510 2687 1760 2687 
C 2182 2687 2266 2164 2266 2113 
C 2266 2107 2246 2024 2240 2011 
L 1926 759 
z
M 2336 2394 
C 2266 2560 2093 2816 1760 2816 
C 1037 2816 256 1883 256 938 
C 256 306 627 -64 1062 -64 
C 1414 -64 1715 210 1894 421 
C 1958 44 2259 -64 2451 -64 
C 2643 -64 2797 51 2912 280 
C 3014 496 3104 885 3104 910 
C 3104 942 3078 968 3040 968 
C 2982 968 2976 936 2950 840 
C 2854 465 2733 64 2470 64 
C 2285 64 2272 229 2272 356 
C 2272 503 2291 573 2349 821 
C 2394 980 2426 1120 2477 1305 
C 2714 2260 2771 2489 2771 2528 
C 2771 2617 2701 2688 2605 2688 
C 2400 2688 2349 2464 2336 2388 
L 2336 2394 
z
" transform="scale(0.015625)"/>
       <path id="CMSS17-3d" d="M 4147 2048 
C 4243 2048 4339 2048 4339 2156 
C 4339 2272 4230 2272 4122 2272 
L 550 2272 
C 442 2272 333 2272 333 2156 
C 333 2048 429 2048 525 2048 
L 4147 2048 
z
M 4122 927 
C 4230 927 4339 927 4339 1043 
C 4339 1152 4243 1152 4147 1152 
L 525 1152 
C 429 1152 333 1152 333 1043 
C 333 927 442 927 550 927 
L 4122 927 
z
" transform="scale(0.015625)"/>
       <path id="CMSS17-33" d="M 1005 2060 
L 1440 2060 
C 2042 2060 2214 1532 2214 1164 
C 2214 662 1933 268 1472 268 
C 1114 268 608 449 320 926 
C 275 700 275 687 250 533 
C 550 89 1037 -128 1485 -128 
C 2214 -128 2752 481 2752 1158 
C 2752 1667 2400 2092 1920 2252 
C 2304 2463 2586 2860 2586 3321 
C 2586 3859 2093 4288 1491 4288 
C 941 4288 512 3948 333 3583 
C 378 3519 493 3334 550 3238 
C 691 3615 1056 3897 1485 3897 
C 1843 3897 2080 3660 2080 3321 
C 2080 2969 1856 2585 1478 2496 
C 1453 2496 1056 2457 1005 2451 
L 1005 2060 
z
" transform="scale(0.015625)"/>
       <path id="SFSS3583-b5" d="M 544 2688 
L 544 -1216 
L 819 -1216 
L 819 6 
C 934 -45 1056 -64 1184 -64 
C 1523 -64 1971 96 2125 361 
L 2131 -26 
L 2400 -26 
L 2400 2688 
L 2125 2688 
L 2125 1300 
C 2125 1215 2131 1124 2131 1032 
C 2131 472 1786 179 1350 179 
C 1050 179 819 283 819 700 
L 819 2688 
L 544 2688 
z
" transform="scale(0.015625)"/>
       <path id="CMSS17-41" d="M 2272 4416 
L 1722 4416 
L 166 0 
L 653 0 
L 1101 1280 
L 2816 1280 
L 3270 0 
L 3827 0 
L 2272 4416 
z
M 2694 1638 
L 1222 1638 
C 1530 2530 1914 3638 1958 3924 
L 1965 3924 
C 2010 3663 2138 3281 2246 2956 
L 2694 1638 
z
" transform="scale(0.015625)"/>
      </defs>
      <use xlink:href="#CMMI12-49" transform="scale(0.996264)"/>
      <use xlink:href="#CMMI12-61" transform="translate(43.024176 -14.943915) scale(0.697382)"/>
      <use xlink:href="#CMSS17-3d" transform="translate(110.596767 0) scale(0.996264)"/>
      <use xlink:href="#CMSS17-33" transform="translate(214.693815 0) scale(0.996264)"/>
      <use xlink:href="#CMSS17-2e" transform="translate(261.537438 0) scale(0.996264)"/>
      <use xlink:href="#CMSS17-30" transform="translate(287.561643 0) scale(0.996264)"/>
      <use xlink:href="#SFSS3583-b5" transform="translate(365.634379 0) scale(0.996264)"/>
      <use xlink:href="#CMSS17-41" transform="translate(411.583849 0) scale(0.996264)"/>
     </g>
    </g>
   </g>
  </g>
 </g>
 <defs>
  <clipPath id="p10c4b0ad52">
   <rect x="39.606646" y="10.659249" width="190.713772" height="98.022434"/>
  </clipPath>
  <clipPath id="p43ff3cc721">
   <rect x="288.852863" y="10.659249" width="190.713772" height="98.022434"/>
  </clipPath>
  <clipPath id="p4458bcca94">
   <rect x="39.606646" y="149.259249" width="190.713772" height="98.022434"/>
  </clipPath>
  <clipPath id="p85e64f2136">
   <rect x="288.852863" y="149.259249" width="190.713772" height="98.022434"/>
  </clipPath>
 </defs>
</svg>
