<?xml version="1.0" encoding="utf-8" standalone="no"?>
<!DOCTYPE svg PUBLIC "-//W3C//DTD SVG 1.1//EN"
  "http://www.w3.org/Graphics/SVG/1.1/DTD/svg11.dtd">
<svg xmlns:xlink="http://www.w3.org/1999/xlink" width="239.056655pt" height="329.453119pt" viewBox="0 0 239.056655 329.453119" xmlns="http://www.w3.org/2000/svg" version="1.1">
 <metadata>
  <rdf:RDF xmlns:dc="http://purl.org/dc/elements/1.1/" xmlns:cc="http://creativecommons.org/ns#" xmlns:rdf="http://www.w3.org/1999/02/22-rdf-syntax-ns#">
   <cc:Work>
    <dc:type rdf:resource="http://purl.org/dc/dcmitype/StillImage"/>
    <dc:date>2026-04-09T16:48:32.156760</dc:date>
    <dc:format>image/svg+xml</dc:format>
    <dc:creator>
     <cc:Agent>
      <dc:title>Matplotlib v3.10.8, https://matplotlib.org/</dc:title>
     </cc:Agent>
    </dc:creator>
   </cc:Work>
  </rdf:RDF>
 </metadata>
 <defs>
  <style type="text/css">*{stroke-linejoin: round; stroke-linecap: butt}</style>
 </defs>
 <g id="figure_1">
  <g id="patch_1">
   <path d="M 0 329.453119 
L 239.056655 329.453119 
L 239.056655 0 
L 0 0 
z
" style="fill: #ffffff"/>
  </g>
  <g id="axes_1">
   <g id="patch_2">
    <path d="M 37.946186 166.574802 
L 226.875319 166.574802 
L 226.875319 18.734802 
L 37.946186 18.734802 
z
" style="fill: #ffffff"/>
   </g>
   <g id="matplotlib.axis_1">
    <g id="xtick_1">
     <g id="line2d_1">
      <path d="M 37.946186 166.574802 
L 37.946186 18.734802 
" clip-path="url(#p8cb4c89875)" style="fill: none; stroke: #b0b0b0; stroke-opacity: 0.3; stroke-width: 0.8; stroke-linecap: square"/>
     </g>
     <g id="line2d_2">
      <defs>
       <path id="m8116adbfbe" d="M 0 0 
L 0 -3.5 
" style="stroke: #000000; stroke-width: 0.8"/>
      </defs>
      <g>
       <use xlink:href="#m8116adbfbe" x="37.946186" y="166.574802" style="stroke: #000000; stroke-width: 0.8"/>
      </g>
     </g>
     <g id="text_1">
      <!-- 4 -->
      <g transform="translate(35.455518 176.9933) scale(0.1 -0.1)">
       <defs>
        <path id="CMSS17-34" d="M 2253 1088 
L 2835 1088 
L 2835 1478 
L 2253 1478 
L 2253 4224 
L 1690 4224 
L 166 1478 
L 166 1088 
L 1747 1088 
L 1747 0 
L 2253 0 
L 2253 1088 
z
M 659 1478 
C 1030 2139 1766 3474 1766 3927 
L 1766 1478 
L 659 1478 
z
" transform="scale(0.015625)"/>
       </defs>
       <use xlink:href="#CMSS17-34" transform="scale(0.996264)"/>
      </g>
     </g>
    </g>
    <g id="xtick_2">
     <g id="line2d_3">
      <path d="M 85.178469 166.574802 
L 85.178469 18.734802 
" clip-path="url(#p8cb4c89875)" style="fill: none; stroke: #b0b0b0; stroke-opacity: 0.3; stroke-width: 0.8; stroke-linecap: square"/>
     </g>
     <g id="line2d_4">
      <g>
       <use xlink:href="#m8116adbfbe" x="85.178469" y="166.574802" style="stroke: #000000; stroke-width: 0.8"/>
      </g>
     </g>
     <g id="text_2">
      <!-- 6 -->
      <g transform="translate(82.687801 176.9933) scale(0.1 -0.1)">
       <defs>
        <path id="CMSS17-36" d="M 2496 4159 
C 2227 4268 2035 4288 1856 4288 
C 1024 4288 250 3408 250 2023 
C 250 268 986 -128 1510 -128 
C 1798 -128 2086 -39 2362 281 
C 2643 619 2752 900 2752 1392 
C 2752 2183 2362 2886 1779 2886 
C 1357 2886 992 2662 768 2381 
C 832 3290 1254 3897 1862 3897 
C 2029 3897 2246 3871 2496 3760 
L 2496 4159 
z
M 774 1372 
C 774 1423 774 1455 781 1551 
C 781 2049 1069 2496 1536 2496 
C 1837 2496 1990 2336 2106 2138 
C 2240 1889 2246 1653 2246 1392 
C 2246 1143 2246 894 2099 638 
C 1978 441 1818 268 1510 268 
C 902 268 800 1117 774 1372 
z
" transform="scale(0.015625)"/>
       </defs>
       <use xlink:href="#CMSS17-36" transform="scale(0.996264)"/>
      </g>
     </g>
    </g>
    <g id="xtick_3">
     <g id="line2d_5">
      <path d="M 132.410752 166.574802 
L 132.410752 18.734802 
" clip-path="url(#p8cb4c89875)" style="fill: none; stroke: #b0b0b0; stroke-opacity: 0.3; stroke-width: 0.8; stroke-linecap: square"/>
     </g>
     <g id="line2d_6">
      <g>
       <use xlink:href="#m8116adbfbe" x="132.410752" y="166.574802" style="stroke: #000000; stroke-width: 0.8"/>
      </g>
     </g>
     <g id="text_3">
      <!-- 8 -->
      <g transform="translate(129.920085 176.9933) scale(0.1 -0.1)">
       <defs>
        <path id="CMSS17-38" d="M 1933 2246 
C 2419 2406 2669 2793 2669 3174 
C 2669 3774 2157 4288 1504 4288 
C 826 4288 333 3755 333 3174 
C 333 2799 576 2412 1069 2246 
C 442 2003 250 1516 250 1152 
C 250 448 819 -128 1498 -128 
C 2202 -128 2752 460 2752 1152 
C 2752 1574 2502 2022 1933 2246 
z
M 1504 2438 
C 1075 2438 787 2728 787 3167 
C 787 3613 1075 3897 1504 3897 
C 1901 3897 2214 3639 2214 3167 
C 2214 2703 1907 2438 1504 2438 
z
M 1504 268 
C 1139 268 749 518 749 1158 
C 749 1817 1184 2048 1498 2048 
C 1843 2048 2253 1804 2253 1158 
C 2253 492 1830 268 1504 268 
z
" transform="scale(0.015625)"/>
       </defs>
       <use xlink:href="#CMSS17-38" transform="scale(0.996264)"/>
      </g>
     </g>
    </g>
    <g id="xtick_4">
     <g id="line2d_7">
      <path d="M 179.643036 166.574802 
L 179.643036 18.734802 
" clip-path="url(#p8cb4c89875)" style="fill: none; stroke: #b0b0b0; stroke-opacity: 0.3; stroke-width: 0.8; stroke-linecap: square"/>
     </g>
     <g id="line2d_8">
      <g>
       <use xlink:href="#m8116adbfbe" x="179.643036" y="166.574802" style="stroke: #000000; stroke-width: 0.8"/>
      </g>
     </g>
     <g id="text_4">
      <!-- 10 -->
      <g transform="translate(174.661701 176.9933) scale(0.1 -0.1)">
       <defs>
        <path id="CMSS17-31" d="M 1818 4288 
L 1696 4288 
C 1350 3949 947 3902 538 3891 
L 538 3520 
C 723 3526 1024 3539 1325 3673 
L 1325 371 
L 570 371 
L 570 0 
L 2573 0 
L 2573 371 
L 1818 371 
L 1818 4288 
z
" transform="scale(0.015625)"/>
        <path id="CMSS17-30" d="M 2758 2073 
C 2758 2439 2752 3120 2490 3647 
C 2227 4153 1805 4288 1504 4288 
C 1069 4288 698 4031 506 3621 
C 301 3191 243 2748 243 2073 
C 243 1611 262 1046 493 551 
C 755 6 1197 -128 1498 -128 
C 1894 -128 2278 83 2496 525 
C 2720 988 2758 1495 2758 2073 
z
M 1498 262 
C 1011 262 864 821 819 1007 
C 742 1328 730 1636 730 2144 
C 730 2542 730 2992 851 3345 
C 998 3756 1254 3897 1498 3897 
C 1971 3897 2125 3422 2176 3255 
C 2272 2915 2272 2516 2272 2144 
C 2272 1546 2272 262 1498 262 
z
" transform="scale(0.015625)"/>
       </defs>
       <use xlink:href="#CMSS17-31" transform="scale(0.996264)"/>
       <use xlink:href="#CMSS17-30" transform="translate(46.843624 0) scale(0.996264)"/>
      </g>
     </g>
    </g>
    <g id="xtick_5">
     <g id="line2d_9">
      <path d="M 226.875319 166.574802 
L 226.875319 18.734802 
" clip-path="url(#p8cb4c89875)" style="fill: none; stroke: #b0b0b0; stroke-opacity: 0.3; stroke-width: 0.8; stroke-linecap: square"/>
     </g>
     <g id="line2d_10">
      <g>
       <use xlink:href="#m8116adbfbe" x="226.875319" y="166.574802" style="stroke: #000000; stroke-width: 0.8"/>
      </g>
     </g>
     <g id="text_5">
      <!-- 12 -->
      <g transform="translate(221.893984 176.9933) scale(0.1 -0.1)">
       <defs>
        <path id="CMSS17-32" d="M 1651 1353 
C 1830 1538 2099 1761 2285 1984 
C 2464 2201 2701 2507 2701 2953 
C 2701 3655 2227 4288 1421 4288 
C 787 4288 422 3891 250 3272 
L 499 2928 
C 640 3508 838 3878 1338 3878 
C 1888 3878 2195 3431 2195 2940 
C 2195 2354 1747 1901 1408 1563 
C 1030 1187 659 805 301 409 
L 301 0 
L 2701 0 
L 2701 435 
L 1613 435 
C 1536 435 1459 428 1382 428 
L 742 428 
L 742 435 
L 1651 1353 
z
" transform="scale(0.015625)"/>
       </defs>
       <use xlink:href="#CMSS17-31" transform="scale(0.996264)"/>
       <use xlink:href="#CMSS17-32" transform="translate(46.843624 0) scale(0.996264)"/>
      </g>
     </g>
    </g>
   </g>
   <g id="matplotlib.axis_2">
    <g id="ytick_1">
     <g id="line2d_11">
      <path d="M 37.946186 166.574802 
L 226.875319 166.574802 
" clip-path="url(#p8cb4c89875)" style="fill: none; stroke: #b0b0b0; stroke-opacity: 0.3; stroke-width: 0.8; stroke-linecap: square"/>
     </g>
     <g id="line2d_12">
      <defs>
       <path id="m62c3ef5d59" d="M 0 0 
L 3.5 0 
" style="stroke: #000000; stroke-width: 0.8"/>
      </defs>
      <g>
       <use xlink:href="#m62c3ef5d59" x="37.946186" y="166.574802" style="stroke: #000000; stroke-width: 0.8"/>
      </g>
     </g>
     <g id="text_6">
      <!-- -30 -->
      <g transform="translate(21.16264 170.034051) scale(0.1 -0.1)">
       <defs>
        <path id="CMSS17-2d" d="M 1664 1216 
L 1664 1587 
L 64 1587 
L 64 1216 
L 1664 1216 
z
" transform="scale(0.015625)"/>
        <path id="CMSS17-33" d="M 1005 2060 
L 1440 2060 
C 2042 2060 2214 1532 2214 1164 
C 2214 662 1933 268 1472 268 
C 1114 268 608 449 320 926 
C 275 700 275 687 250 533 
C 550 89 1037 -128 1485 -128 
C 2214 -128 2752 481 2752 1158 
C 2752 1667 2400 2092 1920 2252 
C 2304 2463 2586 2860 2586 3321 
C 2586 3859 2093 4288 1491 4288 
C 941 4288 512 3948 333 3583 
C 378 3519 493 3334 550 3238 
C 691 3615 1056 3897 1485 3897 
C 1843 3897 2080 3660 2080 3321 
C 2080 2969 1856 2585 1478 2496 
C 1453 2496 1056 2457 1005 2451 
L 1005 2060 
z
" transform="scale(0.015625)"/>
       </defs>
       <use xlink:href="#CMSS17-2d" transform="scale(0.996264)"/>
       <use xlink:href="#CMSS17-33" transform="translate(31.229113 0) scale(0.996264)"/>
       <use xlink:href="#CMSS17-30" transform="translate(78.072736 0) scale(0.996264)"/>
      </g>
     </g>
    </g>
    <g id="ytick_2">
     <g id="line2d_13">
      <path d="M 37.946186 141.934802 
L 226.875319 141.934802 
" clip-path="url(#p8cb4c89875)" style="fill: none; stroke: #b0b0b0; stroke-opacity: 0.3; stroke-width: 0.8; stroke-linecap: square"/>
     </g>
     <g id="line2d_14">
      <g>
       <use xlink:href="#m62c3ef5d59" x="37.946186" y="141.934802" style="stroke: #000000; stroke-width: 0.8"/>
      </g>
     </g>
     <g id="text_7">
      <!-- -20 -->
      <g transform="translate(21.16264 145.394051) scale(0.1 -0.1)">
       <use xlink:href="#CMSS17-2d" transform="scale(0.996264)"/>
       <use xlink:href="#CMSS17-32" transform="translate(31.229113 0) scale(0.996264)"/>
       <use xlink:href="#CMSS17-30" transform="translate(78.072736 0) scale(0.996264)"/>
      </g>
     </g>
    </g>
    <g id="ytick_3">
     <g id="line2d_15">
      <path d="M 37.946186 117.294802 
L 226.875319 117.294802 
" clip-path="url(#p8cb4c89875)" style="fill: none; stroke: #b0b0b0; stroke-opacity: 0.3; stroke-width: 0.8; stroke-linecap: square"/>
     </g>
     <g id="line2d_16">
      <g>
       <use xlink:href="#m62c3ef5d59" x="37.946186" y="117.294802" style="stroke: #000000; stroke-width: 0.8"/>
      </g>
     </g>
     <g id="text_8">
      <!-- -10 -->
      <g transform="translate(21.16264 120.754051) scale(0.1 -0.1)">
       <use xlink:href="#CMSS17-2d" transform="scale(0.996264)"/>
       <use xlink:href="#CMSS17-31" transform="translate(31.229113 0) scale(0.996264)"/>
       <use xlink:href="#CMSS17-30" transform="translate(78.072736 0) scale(0.996264)"/>
      </g>
     </g>
    </g>
    <g id="ytick_4">
     <g id="line2d_17">
      <path d="M 37.946186 92.654802 
L 226.875319 92.654802 
" clip-path="url(#p8cb4c89875)" style="fill: none; stroke: #b0b0b0; stroke-opacity: 0.3; stroke-width: 0.8; stroke-linecap: square"/>
     </g>
     <g id="line2d_18">
      <g>
       <use xlink:href="#m62c3ef5d59" x="37.946186" y="92.654802" style="stroke: #000000; stroke-width: 0.8"/>
      </g>
     </g>
     <g id="text_9">
      <!-- 0 -->
      <g transform="translate(29.46485 96.114051) scale(0.1 -0.1)">
       <use xlink:href="#CMSS17-30" transform="scale(0.996264)"/>
      </g>
     </g>
    </g>
    <g id="ytick_5">
     <g id="line2d_19">
      <path d="M 37.946186 68.014802 
L 226.875319 68.014802 
" clip-path="url(#p8cb4c89875)" style="fill: none; stroke: #b0b0b0; stroke-opacity: 0.3; stroke-width: 0.8; stroke-linecap: square"/>
     </g>
     <g id="line2d_20">
      <g>
       <use xlink:href="#m62c3ef5d59" x="37.946186" y="68.014802" style="stroke: #000000; stroke-width: 0.8"/>
      </g>
     </g>
     <g id="text_10">
      <!-- 10 -->
      <g transform="translate(24.483515 71.474051) scale(0.1 -0.1)">
       <use xlink:href="#CMSS17-31" transform="scale(0.996264)"/>
       <use xlink:href="#CMSS17-30" transform="translate(46.843624 0) scale(0.996264)"/>
      </g>
     </g>
    </g>
    <g id="ytick_6">
     <g id="line2d_21">
      <path d="M 37.946186 43.374802 
L 226.875319 43.374802 
" clip-path="url(#p8cb4c89875)" style="fill: none; stroke: #b0b0b0; stroke-opacity: 0.3; stroke-width: 0.8; stroke-linecap: square"/>
     </g>
     <g id="line2d_22">
      <g>
       <use xlink:href="#m62c3ef5d59" x="37.946186" y="43.374802" style="stroke: #000000; stroke-width: 0.8"/>
      </g>
     </g>
     <g id="text_11">
      <!-- 20 -->
      <g transform="translate(24.483515 46.834051) scale(0.1 -0.1)">
       <use xlink:href="#CMSS17-32" transform="scale(0.996264)"/>
       <use xlink:href="#CMSS17-30" transform="translate(46.843624 0) scale(0.996264)"/>
      </g>
     </g>
    </g>
    <g id="ytick_7">
     <g id="line2d_23">
      <path d="M 37.946186 18.734802 
L 226.875319 18.734802 
" clip-path="url(#p8cb4c89875)" style="fill: none; stroke: #b0b0b0; stroke-opacity: 0.3; stroke-width: 0.8; stroke-linecap: square"/>
     </g>
     <g id="line2d_24">
      <g>
       <use xlink:href="#m62c3ef5d59" x="37.946186" y="18.734802" style="stroke: #000000; stroke-width: 0.8"/>
      </g>
     </g>
     <g id="text_12">
      <!-- 30 -->
      <g transform="translate(24.483515 22.194051) scale(0.1 -0.1)">
       <use xlink:href="#CMSS17-33" transform="scale(0.996264)"/>
       <use xlink:href="#CMSS17-30" transform="translate(46.843624 0) scale(0.996264)"/>
      </g>
     </g>
    </g>
    <g id="text_13">
     <!-- $|S|$-parameters [dB] -->
     <g transform="translate(14.67198 133.577772) rotate(-90) scale(0.1 -0.1)">
      <defs>
       <path id="CMSY10-6a" d="M 1018 4569 
C 1018 4684 1018 4800 890 4800 
C 762 4800 762 4684 762 4569 
L 762 -1370 
C 762 -1485 762 -1600 890 -1600 
C 1018 -1600 1018 -1485 1018 -1370 
L 1018 4569 
z
" transform="scale(0.015625)"/>
       <path id="CMMI12-53" d="M 4064 4422 
C 4064 4480 4019 4480 4006 4480 
C 3981 4480 3974 4473 3898 4377 
C 3859 4332 3597 4002 3590 3996 
C 3379 4409 2957 4480 2688 4480 
C 1875 4480 1139 3742 1139 3024 
C 1139 2547 1427 2268 1741 2160 
C 1811 2134 2189 2033 2381 1988 
C 2707 1899 2790 1874 2925 1734 
C 2950 1702 3078 1556 3078 1258 
C 3078 667 2528 57 1888 57 
C 1363 57 781 279 781 991 
C 781 1112 806 1264 826 1328 
C 826 1347 832 1378 832 1391 
C 832 1417 819 1448 768 1448 
C 710 1448 704 1436 678 1328 
L 352 25 
C 352 19 326 -64 326 -71 
C 326 -128 378 -128 390 -128 
C 416 -128 422 -122 499 -26 
L 794 356 
C 947 127 1280 -128 1875 -128 
C 2701 -128 3456 667 3456 1461 
C 3456 1728 3392 1963 3149 2198 
C 3014 2331 2899 2363 2310 2516 
C 1882 2630 1824 2649 1709 2751 
C 1600 2859 1517 3011 1517 3227 
C 1517 3761 2061 4307 2669 4307 
C 3296 4307 3590 3926 3590 3322 
C 3590 3157 3558 2986 3558 2960 
C 3558 2903 3610 2903 3629 2903 
C 3686 2903 3693 2922 3718 3024 
L 4064 4422 
z
" transform="scale(0.015625)"/>
       <path id="CMSS17-70" d="M 966 275 
C 1178 70 1466 -64 1773 -64 
C 2368 -64 2880 553 2880 1382 
C 2880 2147 2496 2816 1946 2816 
C 1626 2816 1242 2700 954 2470 
L 954 2764 
L 480 2764 
L 480 -1280 
L 966 -1280 
L 966 275 
z
M 966 2088 
C 1018 2166 1235 2412 1587 2412 
C 2035 2412 2394 1946 2394 1382 
C 2394 741 1958 326 1530 326 
C 1402 326 1267 358 1139 468 
C 966 624 966 721 966 812 
L 966 2088 
z
" transform="scale(0.015625)"/>
       <path id="CMSS17-61" d="M 2406 1789 
C 2406 2399 1978 2816 1402 2816 
C 1120 2816 813 2764 461 2559 
L 499 2133 
C 659 2250 934 2438 1395 2438 
C 1722 2438 1920 2185 1920 1782 
L 1920 1536 
C 896 1504 256 1209 256 711 
C 256 452 416 -64 947 -64 
C 1043 -64 1562 -52 1933 224 
L 1933 -13 
L 2406 -13 
L 2406 1789 
z
M 1920 824 
C 1920 711 1920 559 1728 446 
C 1562 339 1350 326 1261 326 
C 941 326 723 503 723 723 
C 723 1165 1722 1209 1920 1216 
L 1920 824 
z
" transform="scale(0.015625)"/>
       <path id="CMSS17-72" d="M 954 1369 
C 954 1974 1395 2379 1958 2392 
L 1958 2816 
C 1549 2809 1165 2604 934 2270 
L 934 2783 
L 480 2783 
L 480 0 
L 954 0 
L 954 1369 
z
" transform="scale(0.015625)"/>
       <path id="CMSS17-6d" d="M 4288 1878 
C 4288 2309 4179 2816 3462 2816 
C 2982 2816 2694 2515 2566 2328 
C 2451 2668 2182 2816 1798 2816 
C 1363 2816 1088 2566 941 2386 
L 941 2783 
L 474 2783 
L 474 0 
L 960 0 
L 960 1556 
C 960 1936 1101 2425 1555 2425 
C 2138 2425 2138 2013 2138 1826 
L 2138 0 
L 2624 0 
L 2624 1556 
C 2624 1936 2765 2425 3219 2425 
C 3802 2425 3802 2013 3802 1826 
L 3802 0 
L 4288 0 
L 4288 1878 
z
" transform="scale(0.015625)"/>
       <path id="CMSS17-65" d="M 2502 1375 
C 2502 1587 2490 2001 2285 2347 
C 2061 2713 1696 2816 1421 2816 
C 755 2816 192 2184 192 1363 
C 192 579 774 -64 1510 -64 
C 1798 -64 2150 19 2470 249 
C 2470 275 2458 414 2451 421 
C 2451 433 2432 629 2432 655 
C 2125 408 1773 326 1517 326 
C 1107 326 666 667 646 1375 
L 2502 1375 
z
M 698 1728 
C 781 2086 1062 2425 1421 2425 
C 1517 2425 1965 2412 2080 1728 
L 698 1728 
z
" transform="scale(0.015625)"/>
       <path id="CMSS17-74" d="M 1069 2380 
L 1901 2380 
L 1901 2752 
L 1069 2752 
L 1069 3520 
L 614 3520 
L 614 2752 
L 109 2752 
L 109 2380 
L 602 2380 
L 602 751 
C 602 384 685 -64 1107 -64 
C 1427 -64 1722 25 2003 172 
L 1901 551 
C 1747 416 1562 339 1363 339 
C 1082 339 1069 699 1069 860 
L 1069 2380 
z
" transform="scale(0.015625)"/>
       <path id="CMSS17-73" d="M 2061 2623 
C 1683 2803 1389 2816 1197 2816 
C 742 2816 198 2655 198 2009 
C 198 1363 902 1222 1094 1183 
C 1389 1126 1715 1062 1715 742 
C 1715 339 1254 339 1171 339 
C 915 339 563 409 243 639 
L 166 211 
C 531 0 883 -64 1178 -64 
C 1965 -64 2163 416 2163 780 
C 2163 1094 1984 1305 1862 1401 
C 1651 1567 1574 1587 1050 1695 
C 960 1708 646 1779 646 2067 
C 646 2431 1050 2431 1139 2431 
C 1555 2431 1811 2303 1984 2207 
L 2061 2623 
z
" transform="scale(0.015625)"/>
       <path id="CMSS17-5b" d="M 1613 -1600 
L 1613 -1210 
L 1062 -1210 
L 1062 4409 
L 1613 4409 
L 1613 4800 
L 595 4800 
L 595 -1600 
L 1613 -1600 
z
" transform="scale(0.015625)"/>
       <path id="CMSS17-64" d="M 2611 4416 
L 2138 4416 
L 2138 2495 
C 1939 2662 1613 2816 1254 2816 
C 672 2816 211 2179 211 1375 
C 211 572 666 -64 1235 -64 
C 1677 -64 1971 172 2125 307 
L 2125 -13 
L 2611 -13 
L 2611 4416 
z
M 2125 851 
C 2125 760 2125 663 1926 488 
C 1798 378 1645 326 1498 326 
C 1152 326 698 585 698 1369 
C 698 2185 1210 2425 1562 2425 
C 1798 2425 1990 2308 2125 2114 
L 2125 851 
z
" transform="scale(0.015625)"/>
       <path id="CMSS17-42" d="M 570 4416 
L 570 0 
L 2163 0 
C 3034 0 3667 575 3667 1200 
C 3667 1684 3251 2175 2502 2316 
C 3334 2559 3501 3039 3501 3311 
C 3501 3880 2874 4416 1997 4416 
L 570 4416 
z
M 1088 2496 
L 1088 4057 
L 1824 4057 
C 2483 4057 3002 3722 3002 3305 
C 3002 2925 2592 2496 1766 2496 
L 1088 2496 
z
M 1088 358 
L 1088 2105 
L 1939 2105 
C 2630 2105 3162 1678 3162 1206 
C 3162 772 2694 358 1984 358 
L 1088 358 
z
" transform="scale(0.015625)"/>
       <path id="CMSS17-5d" d="M 1146 4800 
L 128 4800 
L 128 4409 
L 678 4409 
L 678 -1210 
L 128 -1210 
L 128 -1600 
L 1146 -1600 
L 1146 4800 
z
" transform="scale(0.015625)"/>
      </defs>
      <use xlink:href="#CMSY10-6a" transform="scale(0.996264)"/>
      <use xlink:href="#CMMI12-53" transform="translate(27.674085 0) scale(0.996264)"/>
      <use xlink:href="#CMSY10-6a" transform="translate(93.468524 0) scale(0.996264)"/>
      <use xlink:href="#CMSS17-2d" transform="translate(121.142609 0) scale(0.996264)"/>
      <use xlink:href="#CMSS17-70" transform="translate(152.371721 0) scale(0.996264)"/>
      <use xlink:href="#CMSS17-61" transform="translate(200.576664 0) scale(0.996264)"/>
      <use xlink:href="#CMSS17-72" transform="translate(242.896131 0) scale(0.996264)"/>
      <use xlink:href="#CMSS17-61" transform="translate(274.805904 0) scale(0.996264)"/>
      <use xlink:href="#CMSS17-6d" transform="translate(319.727824 0) scale(0.996264)"/>
      <use xlink:href="#CMSS17-65" transform="translate(393.957079 0) scale(0.996264)"/>
      <use xlink:href="#CMSS17-74" transform="translate(435.595901 0) scale(0.996264)"/>
      <use xlink:href="#CMSS17-65" transform="translate(469.427467 0) scale(0.996264)"/>
      <use xlink:href="#CMSS17-72" transform="translate(511.06629 0) scale(0.996264)"/>
      <use xlink:href="#CMSS17-73" transform="translate(542.976062 0) scale(0.996264)"/>
      <use xlink:href="#CMSS17-5b" transform="translate(610.118717 0) scale(0.996264)"/>
      <use xlink:href="#CMSS17-64" transform="translate(637.304155 0) scale(0.996264)"/>
      <use xlink:href="#CMSS17-42" transform="translate(685.509099 0) scale(0.996264)"/>
      <use xlink:href="#CMSS17-5d" transform="translate(747.847139 0) scale(0.996264)"/>
     </g>
    </g>
   </g>
   <g id="line2d_25">
    <path d="M 37.946186 64.227281 
L 39.126993 63.456113 
L 40.3078 62.459345 
L 41.488607 61.15367 
L 42.669414 60.590176 
L 43.850221 59.789374 
L 45.031028 58.550074 
L 46.211835 58.153149 
L 47.392642 57.554441 
L 48.573449 56.383638 
L 50.935064 55.746348 
L 52.115871 54.620232 
L 53.296678 54.386353 
L 54.477485 54.330156 
L 55.658292 53.257876 
L 56.839099 52.935832 
L 58.019906 53.174461 
L 59.200713 52.226154 
L 60.38152 51.731816 
L 61.562327 52.195269 
L 63.923941 50.839975 
L 65.104749 51.39069 
L 66.285556 51.074762 
L 67.466363 50.257771 
L 68.64717 50.704028 
L 69.827977 50.755543 
L 71.008784 49.927485 
L 73.370398 50.522548 
L 74.551205 49.853489 
L 75.732012 49.893996 
L 76.912819 50.375672 
L 78.093627 49.938152 
L 79.274434 49.796942 
L 80.455241 50.293864 
L 82.816855 49.87133 
L 83.997662 50.349044 
L 85.178469 50.313178 
L 86.359276 50.101755 
L 87.540083 50.541597 
L 88.72089 50.591159 
L 89.901697 50.397555 
L 91.082504 50.799739 
L 92.263312 50.969043 
L 93.444119 50.752095 
L 95.805733 51.465068 
L 96.98654 51.184393 
L 99.348154 51.985188 
L 100.528961 51.709216 
L 101.709768 51.914711 
L 102.890575 52.557565 
L 104.071382 52.381271 
L 105.25219 52.35406 
L 106.432997 53.115787 
L 107.613804 53.112572 
L 108.794611 52.86842 
L 109.975418 53.654579 
L 111.156225 53.916226 
L 112.337032 53.586155 
L 114.698646 54.866282 
L 115.879453 54.272425 
L 117.06026 55.484293 
L 118.241067 55.797283 
L 119.421875 54.843136 
L 121.783489 56.630538 
L 124.145103 56.950161 
L 125.32591 58.337322 
L 126.506717 58.746269 
L 127.687524 59.3275 
L 128.868331 61.149335 
L 130.049138 62.306459 
L 131.229945 64.028206 
L 133.59156 70.097092 
L 134.772367 75.402284 
L 135.953174 82.763234 
L 137.133981 95.250022 
L 138.314788 103.970098 
L 139.495595 105.473824 
L 140.676402 111.060924 
L 143.038016 119.199577 
L 144.218823 120.61242 
L 145.39963 120.279641 
L 146.580438 112.062893 
L 147.761245 116.69654 
L 151.303666 164.59754 
L 152.484473 298.941059 
L 153.66528 177.809116 
L 154.846087 175.830885 
L 156.026894 179.984075 
L 157.207701 182.854804 
L 158.388508 176.328554 
L 159.569315 175.644337 
L 160.750123 176.981355 
L 163.111737 184.032202 
L 164.292544 188.27316 
L 165.473351 193.4346 
L 166.654158 197.604849 
L 167.834965 202.648769 
L 169.015772 208.215355 
L 170.196579 212.608796 
L 171.377386 217.773986 
L 172.558193 223.437848 
L 174.919808 232.710049 
L 177.281422 244.643633 
L 178.462229 248.424056 
L 179.643036 254.248703 
L 183.185457 269.240498 
L 184.366264 274.454909 
L 185.547071 278.830749 
L 187.908686 289.488695 
L 189.089493 293.915723 
L 190.2703 298.850908 
L 191.451107 304.277308 
L 193.812721 313.49605 
L 194.993528 318.844693 
L 197.902401 330.453119 
L 197.902401 330.453119 
" clip-path="url(#p8cb4c89875)" style="fill: none; stroke: #387eb9; stroke-linecap: square"/>
   </g>
   <g id="line2d_26">
    <path d="M 37.946186 92.807536 
L 46.211835 92.624679 
L 47.392642 89.330915 
L 48.573449 85.495084 
L 49.754256 92.754756 
L 50.935064 92.611321 
L 52.115871 92.675472 
L 53.296678 92.861221 
L 60.38152 92.784223 
L 61.562327 92.928777 
L 63.923941 92.766369 
L 66.285556 92.946401 
L 67.466363 92.797784 
L 68.64717 92.805264 
L 69.827977 92.977347 
L 72.189591 92.754989 
L 73.370398 92.937441 
L 74.551205 92.963129 
L 75.732012 92.771605 
L 78.093627 93.01773 
L 80.455241 92.766861 
L 81.636048 92.997143 
L 82.816855 92.951629 
L 83.997662 92.753306 
L 86.359276 93.022409 
L 88.72089 92.534366 
L 89.901697 92.835283 
L 91.082504 92.92285 
L 92.263312 92.738237 
L 93.444119 92.983093 
L 94.624926 93.025612 
L 95.805733 92.789806 
L 96.98654 92.868389 
L 98.167347 93.086441 
L 100.528961 92.784138 
L 101.709768 93.060198 
L 102.890575 92.9914 
L 104.071382 92.776959 
L 106.432997 93.088948 
L 107.613804 92.827719 
L 108.794611 92.866268 
L 109.975418 93.116522 
L 112.337032 92.815127 
L 113.517839 93.081367 
L 114.698646 93.063785 
L 115.879453 92.821844 
L 118.241067 93.173655 
L 119.421875 92.941249 
L 120.602682 93.044715 
L 121.783489 93.314469 
L 122.964296 93.190123 
L 124.145103 93.210548 
L 125.32591 93.618382 
L 127.687524 93.789509 
L 128.868331 94.365748 
L 131.229945 95.214112 
L 133.59156 97.243507 
L 134.772367 98.475718 
L 135.953174 100.301643 
L 137.133981 102.350932 
L 138.314788 104.857912 
L 139.495595 107.858018 
L 140.676402 111.360701 
L 141.857209 115.246893 
L 144.218823 124.332093 
L 146.580438 134.674923 
L 148.942052 146.168957 
L 150.122859 152.899705 
L 151.303666 164.158543 
L 152.484473 319.330649 
L 153.66528 177.848099 
L 154.846087 176.386698 
L 156.026894 180.620383 
L 157.207701 187.420354 
L 158.388508 192.003647 
L 159.569315 198.037479 
L 160.750123 203.322019 
L 163.111737 214.979353 
L 164.292544 220.501634 
L 165.473351 226.609697 
L 167.834965 237.548008 
L 169.015772 243.508801 
L 171.377386 254.283472 
L 172.558193 260.175783 
L 174.919808 270.717103 
L 176.100615 276.60215 
L 178.462229 286.909141 
L 179.643036 292.749877 
L 182.00465 302.865275 
L 183.185457 308.628901 
L 188.138026 330.453119 
L 188.138026 330.453119 
" clip-path="url(#p8cb4c89875)" style="fill: none; stroke: #e21f26; stroke-linecap: square"/>
   </g>
   <g id="line2d_27">
    <path d="M 94.459872 330.453119 
L 105.25219 257.820911 
L 106.432997 250.800047 
L 109.975418 228.325015 
L 115.879453 191.653318 
L 117.06026 185.560709 
L 118.241067 178.618745 
L 119.421875 170.4585 
L 122.964296 151.044484 
L 124.145103 144.216805 
L 125.32591 138.632595 
L 127.687524 125.814818 
L 128.868331 120.79892 
L 130.049138 115.161726 
L 131.229945 110.132021 
L 133.59156 102.824462 
L 134.772367 101.503617 
L 135.953174 102.279306 
L 137.133981 108.22111 
L 138.314788 110.435989 
L 139.495595 105.473824 
L 140.676402 104.633868 
L 143.038016 100.033066 
L 144.218823 95.132607 
L 145.39963 88.523554 
L 146.580438 74.067128 
L 147.761245 72.497271 
L 148.942052 82.65682 
L 150.122859 93.870954 
L 151.303666 102.000656 
L 152.484473 230.28126 
L 153.66528 103.120559 
L 154.846087 95.147346 
L 156.026894 93.338951 
L 157.207701 90.281124 
L 158.388508 77.858983 
L 159.569315 71.311181 
L 160.750123 66.816568 
L 163.111737 62.298636 
L 164.292544 60.80177 
L 165.473351 60.255988 
L 166.654158 58.749293 
L 167.834965 58.146226 
L 169.015772 58.095467 
L 170.196579 56.900898 
L 171.377386 56.507105 
L 172.558193 56.640714 
L 173.739001 55.8943 
L 174.919808 54.937418 
L 176.100615 55.683161 
L 177.281422 56.006933 
L 178.462229 54.396404 
L 179.643036 54.857122 
L 180.823843 54.440388 
L 182.00465 53.658052 
L 183.185457 53.916589 
L 184.366264 53.872505 
L 185.547071 53.015564 
L 187.908686 53.284093 
L 189.089493 52.553995 
L 190.2703 52.356788 
L 191.451107 52.675295 
L 192.631914 52.133583 
L 193.812721 51.750818 
L 194.993528 52.063679 
L 196.174335 51.740056 
L 197.355142 51.257332 
L 198.535949 51.499749 
L 199.716756 51.348151 
L 200.897564 50.85174 
L 202.078371 51.020139 
L 203.259178 50.986077 
L 204.439985 50.51972 
L 206.801599 50.696852 
L 207.982406 50.229734 
L 210.34402 50.512265 
L 211.524827 50.033842 
L 212.705634 50.090505 
L 213.886441 50.435035 
L 215.067249 49.98707 
L 216.248056 49.919051 
L 217.428863 50.45712 
L 219.790477 49.85308 
L 220.971284 50.554089 
L 222.152091 50.441015 
L 223.332898 49.973888 
L 224.513705 50.717437 
L 225.694512 50.931756 
L 225.694512 50.931756 
" clip-path="url(#p8cb4c89875)" style="fill: none; stroke: #f57e20; stroke-linecap: square"/>
   </g>
   <g id="line2d_28">
    <path d="M 37.946186 145.69217 
L 39.126993 158.462115 
L 40.3078 146.455754 
L 41.488607 140.63609 
L 42.669414 145.091969 
L 43.850221 140.620814 
L 45.031028 133.764973 
L 46.211835 136.006505 
L 47.392642 135.90212 
L 48.573449 123.848663 
L 49.754256 131.043088 
L 50.935064 135.661442 
L 53.296678 127.998437 
L 54.477485 131.165014 
L 55.658292 132.023422 
L 56.839099 126.751445 
L 58.019906 127.143793 
L 59.200713 130.367521 
L 60.38152 126.950736 
L 61.562327 124.701973 
L 62.743134 127.336073 
L 63.923941 127.631946 
L 65.104749 123.965482 
L 66.285556 124.387557 
L 67.466363 127.117799 
L 68.64717 124.331197 
L 69.827977 122.428517 
L 71.008784 125.030537 
L 72.189591 125.35366 
L 73.370398 121.953468 
L 74.551205 122.731791 
L 75.732012 125.80903 
L 76.912819 122.673671 
L 78.093627 121.008344 
L 79.274434 124.514739 
L 80.455241 124.039882 
L 81.636048 120.492004 
L 82.816855 122.489733 
L 83.997662 125.302233 
L 85.178469 121.329257 
L 86.359276 120.743473 
L 87.540083 125.077707 
L 88.72089 122.712767 
L 89.901697 119.918177 
L 91.082504 123.472202 
L 92.263312 124.803942 
L 93.444119 120.591076 
L 94.624926 121.827211 
L 95.805733 125.804025 
L 96.98654 122.142567 
L 98.167347 120.746856 
L 99.348154 125.105869 
L 100.528961 124.401461 
L 101.709768 120.788768 
L 104.071382 126.431563 
L 105.25219 121.923762 
L 106.432997 122.438146 
L 107.613804 127.005051 
L 108.794611 124.049514 
L 109.975418 122.018198 
L 111.156225 126.292313 
L 112.337032 126.710389 
L 113.517839 122.614795 
L 114.698646 125.280418 
L 115.879453 128.458696 
L 117.06026 124.934886 
L 118.241067 124.95575 
L 119.421875 128.92065 
L 120.602682 126.468371 
L 121.783489 125.497065 
L 122.964296 130.263125 
L 124.145103 128.403515 
L 125.32591 127.948745 
L 126.506717 133.022557 
L 127.687524 128.941667 
L 128.868331 131.708116 
L 130.049138 143.627353 
L 131.229945 126.739463 
L 132.410752 132.211394 
L 133.59156 142.957409 
L 134.772367 120.475976 
L 135.953174 121.265116 
L 137.133981 116.936504 
L 138.314788 111.454628 
L 139.495595 107.831535 
L 143.038016 100.068964 
L 144.218823 98.526448 
L 145.39963 97.168281 
L 146.580438 96.031939 
L 147.761245 95.510914 
L 148.942052 94.678974 
L 150.122859 94.078154 
L 151.303666 93.75477 
L 152.484473 93.089726 
L 153.66528 93.366927 
L 156.026894 93.042179 
L 157.207701 93.030781 
L 158.388508 92.840352 
L 159.569315 92.858981 
L 160.750123 92.757402 
L 165.473351 92.710163 
L 172.558193 92.666528 
L 199.716756 92.654841 
L 225.694512 92.654802 
L 225.694512 92.654802 
" clip-path="url(#p8cb4c89875)" style="fill: none; stroke: #4daf49; stroke-opacity: 0.7; stroke-linecap: square"/>
   </g>
   <g id="line2d_29">
    <path d="M 37.946186 159.185948 
L 39.126993 168.618734 
L 40.3078 152.618235 
L 41.488607 146.983863 
L 43.850221 164.634792 
L 45.031028 147.959466 
L 46.211835 147.495212 
L 47.392642 152.210478 
L 48.573449 136.844893 
L 49.754256 141.50209 
L 50.935064 148.835901 
L 52.115871 145.654517 
L 53.296678 137.980005 
L 54.477485 140.645846 
L 55.658292 144.740169 
L 56.839099 136.657838 
L 58.019906 134.979083 
L 59.200713 139.719855 
L 60.38152 136.761404 
L 61.562327 132.180999 
L 63.923941 136.947949 
L 65.104749 131.652821 
L 66.285556 130.898612 
L 67.466363 134.951923 
L 68.64717 132.18101 
L 69.827977 128.505975 
L 71.008784 130.957068 
L 72.189591 132.62053 
L 73.370398 127.956848 
L 74.551205 127.853962 
L 75.732012 132.203951 
L 78.093627 126.025765 
L 79.274434 129.547042 
L 80.455241 130.120294 
L 81.636048 125.319592 
L 82.816855 126.516365 
L 83.997662 130.466971 
L 85.178469 126.365015 
L 86.359276 124.768774 
L 87.540083 129.173706 
L 88.72089 127.649039 
L 89.901697 123.359481 
L 91.082504 126.487229 
L 92.263312 129.079806 
L 93.444119 124.374973 
L 94.624926 124.549154 
L 95.805733 129.144805 
L 96.98654 126.114239 
L 98.167347 123.427364 
L 99.348154 127.117628 
L 100.528961 127.627516 
L 101.709768 123.372718 
L 102.890575 125.226421 
L 104.071382 128.844592 
L 105.25219 124.727146 
L 106.432997 123.869852 
L 107.613804 127.909267 
L 108.794611 126.22278 
L 109.975418 123.309215 
L 111.156225 126.433203 
L 112.337032 128.187696 
L 113.517839 124.091399 
L 114.698646 125.119226 
L 115.879453 128.29865 
L 117.06026 125.768017 
L 118.241067 124.266909 
L 119.421875 127.302438 
L 120.602682 127.472081 
L 121.783489 125.043726 
L 124.145103 128.247665 
L 125.32591 127.493871 
L 126.506717 126.277945 
L 127.687524 127.873 
L 128.868331 135.165252 
L 130.049138 127.738812 
L 131.229945 123.945809 
L 132.410752 152.286214 
L 133.59156 125.998528 
L 134.772367 118.582686 
L 135.953174 126.698118 
L 137.133981 115.384141 
L 138.314788 110.473252 
L 139.495595 108.635432 
L 141.857209 101.852544 
L 145.39963 96.846783 
L 146.580438 96.375571 
L 147.761245 95.360137 
L 148.942052 94.540286 
L 151.303666 93.734485 
L 152.484473 93.015143 
L 153.66528 93.357697 
L 156.026894 93.050124 
L 157.207701 93.025949 
L 158.388508 92.855863 
L 197.355142 92.654851 
L 225.694512 92.654802 
L 225.694512 92.654802 
" clip-path="url(#p8cb4c89875)" style="fill: none; stroke-dasharray: 3.7,1.6; stroke-dashoffset: 0; stroke: #4daf49; stroke-opacity: 0.7"/>
   </g>
   <g id="line2d_30">
    <path d="M 147.288922 166.574802 
L 147.288922 18.734802 
" clip-path="url(#p8cb4c89875)" style="fill: none; stroke-dasharray: 1,1.65; stroke-dashoffset: 0; stroke: #98509f; stroke-opacity: 0.5"/>
   </g>
   <g id="patch_3">
    <path d="M 37.946186 166.574802 
L 37.946186 18.734802 
" style="fill: none; stroke: #000000; stroke-width: 0.8; stroke-linejoin: miter; stroke-linecap: square"/>
   </g>
   <g id="patch_4">
    <path d="M 226.875319 166.574802 
L 226.875319 18.734802 
" style="fill: none; stroke: #000000; stroke-width: 0.8; stroke-linejoin: miter; stroke-linecap: square"/>
   </g>
   <g id="patch_5">
    <path d="M 37.946186 166.574802 
L 226.875319 166.574802 
" style="fill: none; stroke: #000000; stroke-width: 0.8; stroke-linejoin: miter; stroke-linecap: square"/>
   </g>
   <g id="patch_6">
    <path d="M 37.946186 18.734802 
L 226.875319 18.734802 
" style="fill: none; stroke: #000000; stroke-width: 0.8; stroke-linejoin: miter; stroke-linecap: square"/>
   </g>
   <g id="text_14">
    <!-- Diplexed TWPA -->
    <g transform="translate(103.767759 12.734802) scale(0.08 -0.08)">
     <defs>
      <path id="CMSS17-44" d="M 570 4416 
L 570 0 
L 2144 0 
C 3194 0 4000 981 4000 2169 
C 4000 3396 3194 4416 2144 4416 
L 570 4416 
z
M 1094 358 
L 1094 4057 
L 2003 4057 
C 2861 4057 3475 3275 3475 2169 
C 3475 1108 2867 358 2003 358 
L 1094 358 
z
" transform="scale(0.015625)"/>
      <path id="CMSS17-69" d="M 979 4224 
L 442 4224 
L 442 3686 
L 979 3686 
L 979 4224 
z
M 947 2752 
L 474 2752 
L 474 0 
L 947 0 
L 947 2752 
z
" transform="scale(0.015625)"/>
      <path id="CMSS17-6c" d="M 947 4416 
L 474 4416 
L 474 0 
L 947 0 
L 947 4416 
z
" transform="scale(0.015625)"/>
      <path id="CMSS17-78" d="M 1587 1420 
L 2656 2752 
L 2099 2752 
L 1363 1785 
L 602 2752 
L 32 2752 
L 1139 1420 
L 0 0 
L 563 0 
L 1363 1126 
L 2195 0 
L 2758 0 
L 1587 1420 
z
" transform="scale(0.015625)"/>
      <path id="CMSS17-54" d="M 2317 3987 
L 2848 3987 
C 2925 3987 3002 3980 3078 3980 
L 3878 3980 
L 3878 4396 
L 218 4396 
L 218 3980 
L 1018 3980 
C 1094 3980 1171 3987 1248 3987 
L 1779 3987 
L 1779 0 
L 2317 0 
L 2317 3987 
z
" transform="scale(0.015625)"/>
      <path id="CMSS17-57" d="M 5581 4416 
L 5094 4416 
L 4557 2436 
C 4474 2118 4397 1800 4320 1482 
C 4205 1012 4122 681 4109 516 
L 4102 516 
C 4090 687 4006 1050 3904 1457 
C 3827 1794 3744 2131 3654 2462 
L 3123 4416 
L 2586 4416 
L 2080 2564 
L 1824 1552 
C 1632 751 1626 636 1613 509 
L 1606 509 
C 1606 547 1581 757 1402 1501 
C 1312 1870 1222 2246 1126 2602 
L 634 4416 
L 83 4416 
L 1299 0 
L 1830 0 
L 2336 1838 
L 2592 2850 
C 2765 3562 2803 3740 2816 3899 
L 2822 3899 
C 2822 3874 2880 3473 3130 2544 
L 3808 0 
L 4365 0 
L 5581 4416 
z
" transform="scale(0.015625)"/>
      <path id="CMSS17-50" d="M 2106 1856 
C 2874 1856 3501 2447 3501 3139 
C 3501 3818 2899 4416 2067 4416 
L 570 4416 
L 570 0 
L 1107 0 
L 1107 1856 
L 2106 1856 
z
M 1926 4057 
C 2669 4057 2995 3598 2995 3139 
C 2995 2711 2694 2227 1926 2227 
L 1094 2227 
L 1094 4057 
L 1926 4057 
z
" transform="scale(0.015625)"/>
      <path id="CMSS17-41" d="M 2272 4416 
L 1722 4416 
L 166 0 
L 653 0 
L 1101 1280 
L 2816 1280 
L 3270 0 
L 3827 0 
L 2272 4416 
z
M 2694 1638 
L 1222 1638 
C 1530 2530 1914 3638 1958 3924 
L 1965 3924 
C 2010 3663 2138 3281 2246 2956 
L 2694 1638 
z
" transform="scale(0.015625)"/>
     </defs>
     <use xlink:href="#CMSS17-44" transform="scale(0.996264)"/>
     <use xlink:href="#CMSS17-69" transform="translate(67.542842 0) scale(0.996264)"/>
     <use xlink:href="#CMSS17-70" transform="translate(89.723565 0) scale(0.996264)"/>
     <use xlink:href="#CMSS17-6c" transform="translate(137.928508 0) scale(0.996264)"/>
     <use xlink:href="#CMSS17-65" transform="translate(160.109231 0) scale(0.996264)"/>
     <use xlink:href="#CMSS17-78" transform="translate(201.748053 0) scale(0.996264)"/>
     <use xlink:href="#CMSS17-65" transform="translate(244.748195 0) scale(0.996264)"/>
     <use xlink:href="#CMSS17-64" transform="translate(286.387017 0) scale(0.996264)"/>
     <use xlink:href="#CMSS17-54" transform="translate(365.821073 0) scale(0.996264)"/>
     <use xlink:href="#CMSS17-57" transform="translate(429.640526 0) scale(0.996264)"/>
     <use xlink:href="#CMSS17-50" transform="translate(517.882693 0) scale(0.996264)"/>
     <use xlink:href="#CMSS17-41" transform="translate(569.811024 0) scale(0.996264)"/>
    </g>
   </g>
   <g id="legend_1">
    <g id="patch_7">
     <path d="M 150.602158 162.574802 
L 221.275319 162.574802 
Q 222.875319 162.574802 222.875319 160.974802 
L 222.875319 92.374496 
Q 222.875319 90.774496 221.275319 90.774496 
L 150.602158 90.774496 
Q 149.002158 90.774496 149.002158 92.374496 
L 149.002158 160.974802 
Q 149.002158 162.574802 150.602158 162.574802 
z
" style="fill: #ffffff; opacity: 0.7; stroke: #808080; stroke-linejoin: miter"/>
    </g>
    <g id="line2d_31">
     <path d="M 151.402158 96.35208 
L 157.402158 96.35208 
L 163.402158 96.35208 
" style="fill: none; stroke: #387eb9; stroke-linecap: square"/>
    </g>
    <g id="text_15">
     <!-- $|S_{31}|$ -->
     <g transform="translate(167.402158 99.15208) scale(0.08 -0.08)">
      <defs>
       <path id="CMR17-33" d="M 1414 2176 
C 1984 2176 2234 1673 2234 1094 
C 2234 322 1824 25 1453 25 
C 1114 25 563 193 390 691 
C 422 678 454 678 486 678 
C 640 678 755 780 755 947 
C 755 1132 614 1216 486 1216 
C 378 1216 211 1164 211 927 
C 211 335 787 -128 1466 -128 
C 2176 -128 2720 432 2720 1087 
C 2720 1718 2208 2176 1600 2246 
C 2086 2347 2554 2776 2554 3353 
C 2554 3856 2048 4224 1472 4224 
C 890 4224 378 3862 378 3347 
C 378 3123 544 3084 627 3084 
C 762 3084 877 3167 877 3334 
C 877 3500 762 3584 627 3584 
C 602 3584 570 3584 544 3571 
C 730 3999 1235 4076 1459 4076 
C 1683 4076 2106 3966 2106 3347 
C 2106 3167 2080 2851 1862 2574 
C 1670 2329 1453 2316 1242 2297 
C 1210 2297 1062 2284 1037 2284 
C 992 2278 966 2272 966 2227 
C 966 2182 973 2176 1101 2176 
L 1414 2176 
z
" transform="scale(0.015625)"/>
       <path id="CMR17-31" d="M 1702 4083 
C 1702 4217 1696 4224 1606 4224 
C 1357 3927 979 3833 621 3820 
C 602 3820 570 3820 563 3808 
C 557 3795 557 3782 557 3648 
C 755 3648 1088 3686 1344 3839 
L 1344 467 
C 1344 243 1331 166 781 166 
L 589 166 
L 589 0 
C 896 6 1216 12 1523 12 
C 1830 12 2150 6 2458 0 
L 2458 166 
L 2266 166 
C 1715 166 1702 236 1702 467 
L 1702 4083 
z
" transform="scale(0.015625)"/>
      </defs>
      <use xlink:href="#CMSY10-6a" transform="scale(0.996264)"/>
      <use xlink:href="#CMMI12-53" transform="translate(27.674085 0) scale(0.996264)"/>
      <use xlink:href="#CMR17-33" transform="translate(87.668573 -14.943915) scale(0.697382)"/>
      <use xlink:href="#CMR17-31" transform="translate(119.651755 -14.943915) scale(0.697382)"/>
      <use xlink:href="#CMSY10-6a" transform="translate(152.133068 0) scale(0.996264)"/>
     </g>
    </g>
    <g id="line2d_32">
     <path d="M 151.402158 108.322192 
L 157.402158 108.322192 
L 163.402158 108.322192 
" style="fill: none; stroke: #e21f26; stroke-linecap: square"/>
    </g>
    <g id="text_16">
     <!-- $|S_{13}|$ -->
     <g transform="translate(167.402158 111.122192) scale(0.08 -0.08)">
      <use xlink:href="#CMSY10-6a" transform="scale(0.996264)"/>
      <use xlink:href="#CMMI12-53" transform="translate(27.674085 0) scale(0.996264)"/>
      <use xlink:href="#CMR17-31" transform="translate(87.668573 -14.943915) scale(0.697382)"/>
      <use xlink:href="#CMR17-33" transform="translate(119.651755 -14.943915) scale(0.697382)"/>
      <use xlink:href="#CMSY10-6a" transform="translate(152.133068 0) scale(0.996264)"/>
     </g>
    </g>
    <g id="line2d_33">
     <path d="M 151.402158 120.292304 
L 157.402158 120.292304 
L 163.402158 120.292304 
" style="fill: none; stroke: #f57e20; stroke-linecap: square"/>
    </g>
    <g id="text_17">
     <!-- $|S_{42}|$ -->
     <g transform="translate(167.402158 123.092304) scale(0.08 -0.08)">
      <defs>
       <path id="CMR17-34" d="M 2150 4147 
C 2150 4281 2144 4288 2029 4288 
L 128 1254 
L 128 1088 
L 1779 1088 
L 1779 460 
C 1779 230 1766 166 1318 166 
L 1197 166 
L 1197 0 
C 1402 12 1747 12 1965 12 
C 2182 12 2528 12 2733 0 
L 2733 166 
L 2611 166 
C 2163 166 2150 230 2150 460 
L 2150 1088 
L 2803 1088 
L 2803 1254 
L 2150 1254 
L 2150 4147 
z
M 1798 3723 
L 1798 1254 
L 256 1254 
L 1798 3723 
z
" transform="scale(0.015625)"/>
       <path id="CMR17-32" d="M 2669 990 
L 2554 990 
C 2490 537 2438 460 2413 422 
C 2381 371 1920 371 1830 371 
L 602 371 
C 832 620 1280 1073 1824 1596 
C 2214 1966 2669 2400 2669 3033 
C 2669 3788 2067 4224 1395 4224 
C 691 4224 262 3603 262 3027 
C 262 2777 448 2745 525 2745 
C 589 2745 781 2783 781 3007 
C 781 3206 614 3264 525 3264 
C 486 3264 448 3257 422 3244 
C 544 3788 915 4057 1306 4057 
C 1862 4057 2227 3616 2227 3033 
C 2227 2477 1901 1998 1536 1583 
L 262 147 
L 262 0 
L 2515 0 
L 2669 990 
z
" transform="scale(0.015625)"/>
      </defs>
      <use xlink:href="#CMSY10-6a" transform="scale(0.996264)"/>
      <use xlink:href="#CMMI12-53" transform="translate(27.674085 0) scale(0.996264)"/>
      <use xlink:href="#CMR17-34" transform="translate(87.668573 -14.943915) scale(0.697382)"/>
      <use xlink:href="#CMR17-32" transform="translate(119.651755 -14.943915) scale(0.697382)"/>
      <use xlink:href="#CMSY10-6a" transform="translate(152.133068 0) scale(0.996264)"/>
     </g>
    </g>
    <g id="line2d_34">
     <path d="M 151.402158 132.262416 
L 157.402158 132.262416 
L 163.402158 132.262416 
" style="fill: none; stroke: #4daf49; stroke-opacity: 0.7; stroke-linecap: square"/>
    </g>
    <g id="text_18">
     <!-- $|S_{11}|$ -->
     <g transform="translate(167.402158 135.062416) scale(0.08 -0.08)">
      <use xlink:href="#CMSY10-6a" transform="scale(0.996264)"/>
      <use xlink:href="#CMMI12-53" transform="translate(27.674085 0) scale(0.996264)"/>
      <use xlink:href="#CMR17-31" transform="translate(87.668573 -14.943915) scale(0.697382)"/>
      <use xlink:href="#CMR17-31" transform="translate(119.651755 -14.943915) scale(0.697382)"/>
      <use xlink:href="#CMSY10-6a" transform="translate(152.133068 0) scale(0.996264)"/>
     </g>
    </g>
    <g id="line2d_35">
     <path d="M 151.402158 144.232528 
L 157.402158 144.232528 
L 163.402158 144.232528 
" style="fill: none; stroke-dasharray: 3.7,1.6; stroke-dashoffset: 0; stroke: #4daf49; stroke-opacity: 0.7"/>
    </g>
    <g id="text_19">
     <!-- $|S_{33}|$ -->
     <g transform="translate(167.402158 147.032528) scale(0.08 -0.08)">
      <use xlink:href="#CMSY10-6a" transform="scale(0.996264)"/>
      <use xlink:href="#CMMI12-53" transform="translate(27.674085 0) scale(0.996264)"/>
      <use xlink:href="#CMR17-33" transform="translate(87.668573 -14.943915) scale(0.697382)"/>
      <use xlink:href="#CMR17-33" transform="translate(119.651755 -14.943915) scale(0.697382)"/>
      <use xlink:href="#CMSY10-6a" transform="translate(152.133068 0) scale(0.996264)"/>
     </g>
    </g>
    <g id="line2d_36">
     <path d="M 151.402158 155.825056 
L 157.402158 155.825056 
L 163.402158 155.825056 
" style="fill: none; stroke-dasharray: 1,1.65; stroke-dashoffset: 0; stroke: #98509f; stroke-opacity: 0.5"/>
    </g>
    <g id="text_20">
     <!-- $f_a = 8.63$ GHz -->
     <g transform="translate(167.402158 158.625056) scale(0.08 -0.08)">
      <defs>
       <path id="CMMI12-66" d="M 2854 2566 
C 2982 2566 3034 2566 3034 2687 
C 3034 2752 2982 2752 2867 2752 
L 2349 2752 
C 2470 3398 2560 3846 2611 4051 
C 2650 4204 2784 4351 2950 4351 
C 3085 4351 3219 4294 3283 4236 
C 3034 4211 2957 4025 2957 3916 
C 2957 3788 3053 3712 3174 3712 
C 3302 3712 3494 3820 3494 4064 
C 3494 4332 3226 4480 2944 4480 
C 2669 4480 2400 4275 2272 4025 
C 2157 3801 2093 3573 1946 2752 
L 1517 2752 
C 1395 2752 1331 2752 1331 2636 
C 1331 2566 1370 2566 1498 2566 
L 1907 2566 
C 1792 1977 1530 545 1382 -132 
C 1274 -685 1178 -1152 858 -1152 
C 838 -1152 653 -1152 538 -1031 
C 864 -1005 864 -724 864 -717 
C 864 -589 768 -512 646 -512 
C 518 -512 326 -621 326 -865 
C 326 -1140 608 -1280 858 -1280 
C 1510 -1280 1779 -113 1850 203 
C 1965 691 2278 2376 2310 2566 
L 2854 2566 
z
" transform="scale(0.015625)"/>
       <path id="CMMI12-61" d="M 1926 759 
C 1894 651 1894 638 1805 517 
C 1664 338 1382 64 1082 64 
C 819 64 672 300 672 676 
C 672 1028 870 1743 992 2011 
C 1210 2458 1510 2687 1760 2687 
C 2182 2687 2266 2164 2266 2113 
C 2266 2107 2246 2024 2240 2011 
L 1926 759 
z
M 2336 2394 
C 2266 2560 2093 2816 1760 2816 
C 1037 2816 256 1883 256 938 
C 256 306 627 -64 1062 -64 
C 1414 -64 1715 210 1894 421 
C 1958 44 2259 -64 2451 -64 
C 2643 -64 2797 51 2912 280 
C 3014 496 3104 885 3104 910 
C 3104 942 3078 968 3040 968 
C 2982 968 2976 936 2950 840 
C 2854 465 2733 64 2470 64 
C 2285 64 2272 229 2272 356 
C 2272 503 2291 573 2349 821 
C 2394 980 2426 1120 2477 1305 
C 2714 2260 2771 2489 2771 2528 
C 2771 2617 2701 2688 2605 2688 
C 2400 2688 2349 2464 2336 2388 
L 2336 2394 
z
" transform="scale(0.015625)"/>
       <path id="CMR17-3d" d="M 4115 2048 
C 4211 2048 4307 2048 4307 2156 
C 4307 2272 4198 2272 4090 2272 
L 512 2272 
C 403 2272 294 2272 294 2156 
C 294 2048 390 2048 486 2048 
L 4115 2048 
z
M 4090 927 
C 4198 927 4307 927 4307 1043 
C 4307 1152 4211 1152 4115 1152 
L 486 1152 
C 390 1152 294 1152 294 1043 
C 294 927 403 927 512 927 
L 4090 927 
z
" transform="scale(0.015625)"/>
       <path id="CMR17-38" d="M 1741 2289 
C 2144 2494 2554 2803 2554 3298 
C 2554 3884 1990 4224 1472 4224 
C 890 4224 378 3800 378 3215 
C 378 3054 416 2777 666 2533 
C 730 2469 998 2276 1171 2154 
C 883 2006 211 1652 211 945 
C 211 282 838 -128 1459 -128 
C 2144 -128 2720 366 2720 1022 
C 2720 1607 2330 1877 2074 2051 
L 1741 2289 
z
M 902 2855 
C 851 2887 595 3086 595 3388 
C 595 3781 998 4076 1459 4076 
C 1965 4076 2336 3716 2336 3298 
C 2336 2700 1670 2359 1638 2359 
C 1632 2359 1626 2359 1574 2398 
L 902 2855 
z
M 2080 1536 
C 2176 1466 2483 1253 2483 861 
C 2483 385 2010 25 1472 25 
C 890 25 448 443 448 951 
C 448 1459 838 1884 1280 2083 
L 2080 1536 
z
" transform="scale(0.015625)"/>
       <path id="CMMI12-3a" d="M 1178 307 
C 1178 492 1024 620 870 620 
C 685 620 557 467 557 313 
C 557 128 710 0 864 0 
C 1050 0 1178 153 1178 307 
z
" transform="scale(0.015625)"/>
       <path id="CMR17-36" d="M 678 2198 
C 678 3712 1395 4076 1811 4076 
C 1946 4076 2272 4049 2400 3782 
C 2298 3782 2106 3782 2106 3558 
C 2106 3385 2246 3328 2336 3328 
C 2394 3328 2566 3353 2566 3571 
C 2566 3987 2246 4224 1805 4224 
C 1043 4224 243 3411 243 2011 
C 243 257 966 -128 1478 -128 
C 2099 -128 2688 431 2688 1295 
C 2688 2101 2170 2688 1517 2688 
C 1126 2688 838 2430 678 1979 
L 678 2198 
z
M 1478 25 
C 691 25 691 1212 691 1450 
C 691 1914 909 2585 1504 2585 
C 1613 2585 1926 2585 2138 2140 
C 2253 1889 2253 1624 2253 1302 
C 2253 954 2253 696 2118 438 
C 1978 173 1773 25 1478 25 
z
" transform="scale(0.015625)"/>
       <path id="CMSS17-47" d="M 3610 1868 
L 2336 1868 
L 2336 1472 
L 3123 1472 
L 3123 473 
C 2874 403 2618 352 2362 352 
C 1466 352 934 1311 934 2220 
C 934 3123 1491 4070 2362 4070 
C 2854 4070 3130 3916 3469 3660 
L 3552 4172 
C 3130 4390 2867 4480 2387 4480 
C 1146 4480 397 3353 397 2201 
C 397 1100 1152 -64 2349 -64 
C 2797 -64 3213 51 3610 249 
L 3610 1868 
z
" transform="scale(0.015625)"/>
       <path id="CMSS17-48" d="M 3674 4416 
L 3136 4416 
L 3136 2496 
L 1101 2496 
L 1101 4416 
L 563 4416 
L 563 0 
L 1101 0 
L 1101 2105 
L 3136 2105 
L 3136 0 
L 3674 0 
L 3674 4416 
z
" transform="scale(0.015625)"/>
       <path id="CMSS17-7a" d="M 2400 2502 
L 2400 2752 
L 250 2752 
L 250 2367 
L 1069 2367 
C 1146 2367 1222 2374 1299 2374 
L 1747 2374 
L 166 262 
L 166 0 
L 2419 0 
L 2419 396 
L 1549 396 
C 1472 396 1395 390 1318 390 
L 826 390 
L 2400 2502 
z
" transform="scale(0.015625)"/>
      </defs>
      <use xlink:href="#CMMI12-66" transform="scale(0.996264)"/>
      <use xlink:href="#CMMI12-61" transform="translate(48.083238 -14.943915) scale(0.697382)"/>
      <use xlink:href="#CMR17-3d" transform="translate(112.100725 0) scale(0.996264)"/>
      <use xlink:href="#CMR17-38" transform="translate(211.489522 0) scale(0.996264)"/>
      <use xlink:href="#CMMI12-3a" transform="translate(257.179999 0) scale(0.996264)"/>
      <use xlink:href="#CMR17-36" transform="translate(284.277177 0) scale(0.996264)"/>
      <use xlink:href="#CMR17-33" transform="translate(329.967654 0) scale(0.996264)"/>
      <use xlink:href="#CMSS17-47" transform="translate(406.887244 0) scale(0.996264)"/>
      <use xlink:href="#CMSS17-48" transform="translate(469.345469 0) scale(0.996264)"/>
      <use xlink:href="#CMSS17-7a" transform="translate(535.406988 0) scale(0.996264)"/>
     </g>
    </g>
   </g>
  </g>
  <g id="axes_2">
   <g id="patch_8">
    <path d="M 37.946186 295.934802 
L 226.875319 295.934802 
L 226.875319 222.014802 
L 37.946186 222.014802 
z
" style="fill: #ffffff"/>
   </g>
   <g id="matplotlib.axis_3">
    <g id="xtick_6">
     <g id="line2d_37">
      <path d="M 37.946186 295.934802 
L 37.946186 222.014802 
" clip-path="url(#pa3b4bcf874)" style="fill: none; stroke: #b0b0b0; stroke-opacity: 0.3; stroke-width: 0.8; stroke-linecap: square"/>
     </g>
     <g id="line2d_38">
      <g>
       <use xlink:href="#m8116adbfbe" x="37.946186" y="295.934802" style="stroke: #000000; stroke-width: 0.8"/>
      </g>
     </g>
     <g id="text_21">
      <!-- 4 -->
      <g transform="translate(35.455518 306.3533) scale(0.1 -0.1)">
       <use xlink:href="#CMSS17-34" transform="scale(0.996264)"/>
      </g>
     </g>
    </g>
    <g id="xtick_7">
     <g id="line2d_39">
      <path d="M 85.178469 295.934802 
L 85.178469 222.014802 
" clip-path="url(#pa3b4bcf874)" style="fill: none; stroke: #b0b0b0; stroke-opacity: 0.3; stroke-width: 0.8; stroke-linecap: square"/>
     </g>
     <g id="line2d_40">
      <g>
       <use xlink:href="#m8116adbfbe" x="85.178469" y="295.934802" style="stroke: #000000; stroke-width: 0.8"/>
      </g>
     </g>
     <g id="text_22">
      <!-- 6 -->
      <g transform="translate(82.687801 306.3533) scale(0.1 -0.1)">
       <use xlink:href="#CMSS17-36" transform="scale(0.996264)"/>
      </g>
     </g>
    </g>
    <g id="xtick_8">
     <g id="line2d_41">
      <path d="M 132.410752 295.934802 
L 132.410752 222.014802 
" clip-path="url(#pa3b4bcf874)" style="fill: none; stroke: #b0b0b0; stroke-opacity: 0.3; stroke-width: 0.8; stroke-linecap: square"/>
     </g>
     <g id="line2d_42">
      <g>
       <use xlink:href="#m8116adbfbe" x="132.410752" y="295.934802" style="stroke: #000000; stroke-width: 0.8"/>
      </g>
     </g>
     <g id="text_23">
      <!-- 8 -->
      <g transform="translate(129.920085 306.3533) scale(0.1 -0.1)">
       <use xlink:href="#CMSS17-38" transform="scale(0.996264)"/>
      </g>
     </g>
    </g>
    <g id="xtick_9">
     <g id="line2d_43">
      <path d="M 179.643036 295.934802 
L 179.643036 222.014802 
" clip-path="url(#pa3b4bcf874)" style="fill: none; stroke: #b0b0b0; stroke-opacity: 0.3; stroke-width: 0.8; stroke-linecap: square"/>
     </g>
     <g id="line2d_44">
      <g>
       <use xlink:href="#m8116adbfbe" x="179.643036" y="295.934802" style="stroke: #000000; stroke-width: 0.8"/>
      </g>
     </g>
     <g id="text_24">
      <!-- 10 -->
      <g transform="translate(174.661701 306.3533) scale(0.1 -0.1)">
       <use xlink:href="#CMSS17-31" transform="scale(0.996264)"/>
       <use xlink:href="#CMSS17-30" transform="translate(46.843624 0) scale(0.996264)"/>
      </g>
     </g>
    </g>
    <g id="xtick_10">
     <g id="line2d_45">
      <path d="M 226.875319 295.934802 
L 226.875319 222.014802 
" clip-path="url(#pa3b4bcf874)" style="fill: none; stroke: #b0b0b0; stroke-opacity: 0.3; stroke-width: 0.8; stroke-linecap: square"/>
     </g>
     <g id="line2d_46">
      <g>
       <use xlink:href="#m8116adbfbe" x="226.875319" y="295.934802" style="stroke: #000000; stroke-width: 0.8"/>
      </g>
     </g>
     <g id="text_25">
      <!-- 12 -->
      <g transform="translate(221.893984 306.3533) scale(0.1 -0.1)">
       <use xlink:href="#CMSS17-31" transform="scale(0.996264)"/>
       <use xlink:href="#CMSS17-32" transform="translate(46.843624 0) scale(0.996264)"/>
      </g>
     </g>
    </g>
    <g id="text_26">
     <!-- frequency [GHz] -->
     <g transform="translate(98.973581 319.762459) scale(0.1 -0.1)">
      <defs>
       <path id="CMSS17-66" d="M 1075 2380 
L 1722 2380 
L 1722 2752 
L 1062 2752 
L 1062 3563 
C 1062 4013 1408 4089 1606 4089 
C 1670 4089 1850 4089 2080 4007 
L 2080 4428 
C 1933 4460 1754 4480 1613 4480 
C 1018 4480 602 3994 602 3366 
L 602 2752 
L 160 2752 
L 160 2380 
L 602 2380 
L 602 0 
L 1075 0 
L 1075 2380 
z
" transform="scale(0.015625)"/>
       <path id="CMSS17-71" d="M 2611 2816 
L 2138 2816 
L 2138 2425 
C 2112 2457 1818 2816 1318 2816 
C 736 2816 211 2218 211 1369 
C 211 585 653 -64 1229 -64 
C 1498 -64 1837 32 2125 307 
L 2125 -1280 
L 2611 -1280 
L 2611 2816 
z
M 2138 870 
C 2138 786 2138 669 1939 501 
C 1888 456 1747 326 1504 326 
C 1050 326 698 805 698 1369 
C 698 1998 1126 2412 1562 2412 
C 1926 2412 2138 2049 2138 1777 
L 2138 870 
z
" transform="scale(0.015625)"/>
       <path id="CMSS17-75" d="M 2618 2752 
L 2131 2752 
L 2131 976 
C 2131 500 1786 307 1421 307 
C 998 307 960 448 960 712 
L 960 2752 
L 474 2752 
L 474 680 
C 474 179 646 -64 1088 -64 
C 1306 -64 1798 -13 2144 307 
L 2144 -13 
L 2618 -13 
L 2618 2752 
z
" transform="scale(0.015625)"/>
       <path id="CMSS17-6e" d="M 2618 1878 
C 2618 2283 2522 2816 1798 2816 
C 1389 2816 1120 2604 941 2386 
L 941 2783 
L 474 2783 
L 474 0 
L 960 0 
L 960 1556 
C 960 1962 1114 2425 1549 2425 
C 2112 2425 2131 2045 2131 1826 
L 2131 0 
L 2618 0 
L 2618 1878 
z
" transform="scale(0.015625)"/>
       <path id="CMSS17-63" d="M 2464 2540 
C 2464 2585 2170 2713 2093 2739 
C 1882 2816 1613 2816 1542 2816 
C 710 2816 211 2092 211 1363 
C 211 595 768 -64 1517 -64 
C 1946 -64 2253 76 2502 243 
L 2464 665 
C 2189 454 1869 339 1523 339 
C 1024 339 698 774 698 1369 
C 698 1830 909 2412 1549 2412 
C 1901 2412 2099 2342 2394 2143 
L 2464 2540 
z
" transform="scale(0.015625)"/>
       <path id="CMSS17-79" d="M 2675 2752 
L 2176 2752 
C 1632 1293 1446 701 1434 383 
L 1427 383 
C 1408 695 1126 1459 902 2006 
L 602 2752 
L 83 2752 
L 1216 14 
C 1146 -177 1043 -464 1011 -527 
C 870 -884 774 -884 672 -884 
C 646 -884 442 -877 211 -807 
L 250 -1229 
C 410 -1261 570 -1280 685 -1280 
C 845 -1280 1165 -1280 1459 -495 
L 2675 2752 
z
" transform="scale(0.015625)"/>
      </defs>
      <use xlink:href="#CMSS17-66" transform="scale(0.996264)"/>
      <use xlink:href="#CMSS17-72" transform="translate(28.626659 0) scale(0.996264)"/>
      <use xlink:href="#CMSS17-65" transform="translate(60.536431 0) scale(0.996264)"/>
      <use xlink:href="#CMSS17-71" transform="translate(102.175253 0) scale(0.996264)"/>
      <use xlink:href="#CMSS17-75" transform="translate(150.380197 0) scale(0.996264)"/>
      <use xlink:href="#CMSS17-65" transform="translate(198.58514 0) scale(0.996264)"/>
      <use xlink:href="#CMSS17-6e" transform="translate(240.223962 0) scale(0.996264)"/>
      <use xlink:href="#CMSS17-63" transform="translate(288.428905 0) scale(0.996264)"/>
      <use xlink:href="#CMSS17-79" transform="translate(330.067727 0) scale(0.996264)"/>
      <use xlink:href="#CMSS17-5b" transform="translate(404.296981 0) scale(0.996264)"/>
      <use xlink:href="#CMSS17-47" transform="translate(431.48242 0) scale(0.996264)"/>
      <use xlink:href="#CMSS17-48" transform="translate(493.940646 0) scale(0.996264)"/>
      <use xlink:href="#CMSS17-7a" transform="translate(560.002165 0) scale(0.996264)"/>
      <use xlink:href="#CMSS17-5d" transform="translate(600.680037 0) scale(0.996264)"/>
     </g>
    </g>
   </g>
   <g id="matplotlib.axis_4">
    <g id="ytick_8">
     <g id="line2d_47">
      <path d="M 37.946186 295.934802 
L 226.875319 295.934802 
" clip-path="url(#pa3b4bcf874)" style="fill: none; stroke: #b0b0b0; stroke-opacity: 0.3; stroke-width: 0.8; stroke-linecap: square"/>
     </g>
     <g id="line2d_48">
      <g>
       <use xlink:href="#m62c3ef5d59" x="37.946186" y="295.934802" style="stroke: #000000; stroke-width: 0.8"/>
      </g>
     </g>
     <g id="text_27">
      <!-- 0.7 -->
      <g transform="translate(21.716107 299.394051) scale(0.1 -0.1)">
       <defs>
        <path id="CMSS17-2e" d="M 1088 512 
L 576 512 
L 576 0 
L 1088 0 
L 1088 512 
z
" transform="scale(0.015625)"/>
        <path id="CMSS17-37" d="M 1389 3788 
C 1466 3788 1542 3795 1619 3795 
L 2355 3795 
C 1440 2715 915 1350 915 -64 
L 1427 -64 
C 1427 1305 1875 2695 2752 3807 
L 2752 4224 
L 250 4224 
L 250 3788 
L 1389 3788 
z
" transform="scale(0.015625)"/>
       </defs>
       <use xlink:href="#CMSS17-30" transform="scale(0.996264)"/>
       <use xlink:href="#CMSS17-2e" transform="translate(46.843624 0) scale(0.996264)"/>
       <use xlink:href="#CMSS17-37" transform="translate(72.867828 0) scale(0.996264)"/>
      </g>
     </g>
    </g>
    <g id="ytick_9">
     <g id="line2d_49">
      <path d="M 37.946186 274.814802 
L 226.875319 274.814802 
" clip-path="url(#pa3b4bcf874)" style="fill: none; stroke: #b0b0b0; stroke-opacity: 0.3; stroke-width: 0.8; stroke-linecap: square"/>
     </g>
     <g id="line2d_50">
      <g>
       <use xlink:href="#m62c3ef5d59" x="37.946186" y="274.814802" style="stroke: #000000; stroke-width: 0.8"/>
      </g>
     </g>
     <g id="text_28">
      <!-- 0.8 -->
      <g transform="translate(21.716107 278.274051) scale(0.1 -0.1)">
       <use xlink:href="#CMSS17-30" transform="scale(0.996264)"/>
       <use xlink:href="#CMSS17-2e" transform="translate(46.843624 0) scale(0.996264)"/>
       <use xlink:href="#CMSS17-38" transform="translate(72.867828 0) scale(0.996264)"/>
      </g>
     </g>
    </g>
    <g id="ytick_10">
     <g id="line2d_51">
      <path d="M 37.946186 253.694802 
L 226.875319 253.694802 
" clip-path="url(#pa3b4bcf874)" style="fill: none; stroke: #b0b0b0; stroke-opacity: 0.3; stroke-width: 0.8; stroke-linecap: square"/>
     </g>
     <g id="line2d_52">
      <g>
       <use xlink:href="#m62c3ef5d59" x="37.946186" y="253.694802" style="stroke: #000000; stroke-width: 0.8"/>
      </g>
     </g>
     <g id="text_29">
      <!-- 0.9 -->
      <g transform="translate(21.716107 257.154051) scale(0.1 -0.1)">
       <defs>
        <path id="CMSS17-39" d="M 435 172 
C 614 19 845 -128 1235 -128 
C 2010 -128 2752 738 2752 2136 
C 2752 3987 1952 4288 1523 4288 
C 1094 4288 819 4095 582 3789 
C 301 3438 250 3125 250 2761 
C 250 2327 326 2059 506 1753 
C 749 1356 973 1273 1222 1273 
C 1600 1273 1978 1459 2234 1778 
C 2189 908 1798 268 1235 268 
C 1005 268 819 340 634 516 
L 435 172 
z
M 2214 2774 
C 2221 2729 2221 2646 2221 2621 
C 2221 2085 1914 1664 1466 1664 
C 1171 1664 1018 1817 902 2015 
C 762 2263 755 2506 755 2761 
C 755 3010 755 3284 934 3559 
C 1069 3757 1235 3897 1523 3897 
C 2112 3897 2208 3036 2214 2774 
z
" transform="scale(0.015625)"/>
       </defs>
       <use xlink:href="#CMSS17-30" transform="scale(0.996264)"/>
       <use xlink:href="#CMSS17-2e" transform="translate(46.843624 0) scale(0.996264)"/>
       <use xlink:href="#CMSS17-39" transform="translate(72.867828 0) scale(0.996264)"/>
      </g>
     </g>
    </g>
    <g id="ytick_11">
     <g id="line2d_53">
      <path d="M 37.946186 232.574802 
L 226.875319 232.574802 
" clip-path="url(#pa3b4bcf874)" style="fill: none; stroke: #b0b0b0; stroke-opacity: 0.3; stroke-width: 0.8; stroke-linecap: square"/>
     </g>
     <g id="line2d_54">
      <g>
       <use xlink:href="#m62c3ef5d59" x="37.946186" y="232.574802" style="stroke: #000000; stroke-width: 0.8"/>
      </g>
     </g>
     <g id="text_30">
      <!-- 1 -->
      <g transform="translate(29.46485 236.034051) scale(0.1 -0.1)">
       <use xlink:href="#CMSS17-31" transform="scale(0.996264)"/>
      </g>
     </g>
    </g>
    <g id="text_31">
     <!-- $\mathsf{QE}/\mathsf{QE}_\mathsf{ideal}$ -->
     <g transform="translate(15.225447 281.856107) rotate(-90) scale(0.1 -0.1)">
      <defs>
       <path id="CMSS17-51" d="M 3200 211 
C 3981 848 4096 1711 4096 2201 
C 4096 3541 3219 4544 2214 4544 
C 1210 4544 333 3535 333 2201 
C 333 855 1222 -128 2214 -128 
C 2438 -128 2630 -77 2765 -26 
L 3302 -832 
L 3930 -832 
L 3200 211 
z
M 2528 326 
C 2438 294 2330 275 2214 275 
C 1523 275 858 1003 858 2201 
C 858 3393 1517 4140 2214 4140 
C 2918 4140 3571 3386 3571 2201 
C 3571 1789 3507 1099 2950 571 
L 2490 1222 
L 1939 1222 
L 2528 326 
z
" transform="scale(0.015625)"/>
       <path id="CMSS17-45" d="M 1958 435 
C 1446 435 1216 435 1101 428 
L 1101 2105 
L 3085 2105 
L 3085 2496 
L 1101 2496 
L 1101 3993 
L 1926 3993 
C 2003 3993 2080 3987 2157 3987 
L 3251 3987 
L 3251 4403 
L 563 4403 
L 563 0 
L 3334 0 
L 3334 441 
L 1958 435 
z
" transform="scale(0.015625)"/>
       <path id="CMMI12-3d" d="M 2746 4563 
C 2746 4569 2784 4665 2784 4678 
C 2784 4755 2720 4800 2669 4800 
C 2637 4800 2579 4800 2528 4659 
L 384 -1364 
C 384 -1370 346 -1466 346 -1479 
C 346 -1556 410 -1600 461 -1600 
C 499 -1600 557 -1594 602 -1460 
L 2746 4563 
z
" transform="scale(0.015625)"/>
      </defs>
      <use xlink:href="#CMSS17-51" transform="scale(0.996264)"/>
      <use xlink:href="#CMSS17-45" transform="translate(69.024255 0) scale(0.996264)"/>
      <use xlink:href="#CMMI12-3d" transform="translate(124.916269 0) scale(0.996264)"/>
      <use xlink:href="#CMSS17-51" transform="translate(173.691187 0) scale(0.996264)"/>
      <use xlink:href="#CMSS17-45" transform="translate(242.715443 0) scale(0.996264)"/>
      <use xlink:href="#CMSS17-69" transform="translate(298.607456 -15.978685) scale(0.697382)"/>
      <use xlink:href="#CMSS17-64" transform="translate(314.133888 -15.978685) scale(0.697382)"/>
      <use xlink:href="#CMSS17-65" transform="translate(347.877193 -15.978685) scale(0.697382)"/>
      <use xlink:href="#CMSS17-61" transform="translate(377.024239 -15.978685) scale(0.697382)"/>
      <use xlink:href="#CMSS17-6c" transform="translate(408.469445 -15.978685) scale(0.697382)"/>
     </g>
    </g>
   </g>
   <g id="line2d_55">
    <path d="M 37.946186 234.092669 
L 39.126993 234.142989 
L 41.488607 234.570046 
L 43.850221 234.715594 
L 46.211835 234.49634 
L 47.392642 234.223543 
L 50.935064 233.944329 
L 53.296678 234.233009 
L 55.658292 234.403275 
L 58.019906 234.327978 
L 59.200713 234.088837 
L 61.562327 233.939053 
L 63.923941 233.998623 
L 65.104749 234.203607 
L 67.466363 234.293165 
L 69.827977 234.157823 
L 72.189591 233.86806 
L 78.093627 234.276345 
L 81.636048 233.965296 
L 83.997662 233.905642 
L 86.359276 234.20863 
L 88.72089 234.166041 
L 89.901697 234.127983 
L 92.263312 233.873713 
L 94.624926 234.122879 
L 96.98654 234.234904 
L 98.167347 234.249797 
L 100.528961 233.941487 
L 105.25219 234.312673 
L 106.432997 234.358591 
L 108.794611 234.091987 
L 114.698646 234.670759 
L 115.879453 234.603229 
L 118.241067 234.987831 
L 119.421875 235.19337 
L 120.602682 235.753164 
L 121.783489 236.583858 
L 122.964296 237.262474 
L 124.145103 238.230378 
L 125.32591 239.723225 
L 126.506717 241.500443 
L 127.687524 244.049441 
L 128.868331 247.955157 
L 130.049138 252.912562 
L 131.229945 259.228565 
L 132.410752 267.690521 
L 133.59156 278.203366 
L 134.772367 293.101087 
L 135.953174 318.158869 
L 136.234081 330.453119 
L 136.234081 330.453119 
" clip-path="url(#pa3b4bcf874)" style="fill: none; stroke: #387eb9; stroke-linecap: square"/>
   </g>
   <g id="line2d_56">
    <path d="M 37.946186 232.574802 
L 226.875319 232.574802 
" clip-path="url(#pa3b4bcf874)" style="fill: none; stroke-dasharray: 3.7,1.6; stroke-dashoffset: 0; stroke: #000000; stroke-opacity: 0.7"/>
   </g>
   <g id="patch_9">
    <path d="M 37.946186 295.934802 
L 37.946186 222.014802 
" style="fill: none; stroke: #000000; stroke-width: 0.8; stroke-linejoin: miter; stroke-linecap: square"/>
   </g>
   <g id="patch_10">
    <path d="M 226.875319 295.934802 
L 226.875319 222.014802 
" style="fill: none; stroke: #000000; stroke-width: 0.8; stroke-linejoin: miter; stroke-linecap: square"/>
   </g>
   <g id="patch_11">
    <path d="M 37.946186 295.934802 
L 226.875319 295.934802 
" style="fill: none; stroke: #000000; stroke-width: 0.8; stroke-linejoin: miter; stroke-linecap: square"/>
   </g>
   <g id="patch_12">
    <path d="M 37.946186 222.014802 
L 226.875319 222.014802 
" style="fill: none; stroke: #000000; stroke-width: 0.8; stroke-linejoin: miter; stroke-linecap: square"/>
   </g>
   <g id="text_32">
    <!-- Quantum Efficiency -->
    <g transform="translate(97.610209 216.014802) scale(0.08 -0.08)">
     <defs>
      <path id="CMSS17-e" d="M 4422 4480 
L 3910 4480 
L 3910 3967 
L 4422 3967 
L 4422 4480 
z
M 4403 2752 
L 3930 2752 
L 3930 0 
L 4403 0 
L 4403 2752 
z
M 2739 2380 
L 3437 2380 
L 3437 2752 
L 2726 2752 
L 2726 3613 
C 2726 3961 2880 4134 3085 4134 
C 3226 4134 3360 4089 3437 4044 
L 3437 4480 
C 3322 4512 3270 4524 3085 4524 
C 2605 4524 2266 4038 2266 3402 
L 2266 0 
L 2739 0 
L 2739 2380 
z
M 1075 2380 
L 1773 2380 
L 1773 2752 
L 1062 2752 
L 1062 3599 
C 1062 4038 1325 4134 1510 4134 
C 1619 4134 1773 4115 1920 4051 
L 1920 4473 
C 1754 4518 1728 4524 1510 4524 
C 986 4524 602 4044 602 3396 
L 602 2752 
L 160 2752 
L 160 2380 
L 602 2380 
L 602 0 
L 1075 0 
L 1075 2380 
z
" transform="scale(0.015625)"/>
     </defs>
     <use xlink:href="#CMSS17-51" transform="scale(0.996264)"/>
     <use xlink:href="#CMSS17-75" transform="translate(69.024255 0) scale(0.996264)"/>
     <use xlink:href="#CMSS17-61" transform="translate(117.229198 0) scale(0.996264)"/>
     <use xlink:href="#CMSS17-6e" transform="translate(162.151119 0) scale(0.996264)"/>
     <use xlink:href="#CMSS17-74" transform="translate(210.356062 0) scale(0.996264)"/>
     <use xlink:href="#CMSS17-75" transform="translate(244.187629 0) scale(0.996264)"/>
     <use xlink:href="#CMSS17-6d" transform="translate(292.392572 0) scale(0.996264)"/>
     <use xlink:href="#CMSS17-45" transform="translate(397.850939 0) scale(0.996264)"/>
     <use xlink:href="#CMSS17-e" transform="translate(453.742952 0) scale(0.996264)"/>
     <use xlink:href="#CMSS17-63" transform="translate(529.893895 0) scale(0.996264)"/>
     <use xlink:href="#CMSS17-69" transform="translate(571.532717 0) scale(0.996264)"/>
     <use xlink:href="#CMSS17-65" transform="translate(593.71344 0) scale(0.996264)"/>
     <use xlink:href="#CMSS17-6e" transform="translate(635.352262 0) scale(0.996264)"/>
     <use xlink:href="#CMSS17-63" transform="translate(683.557205 0) scale(0.996264)"/>
     <use xlink:href="#CMSS17-79" transform="translate(725.196027 0) scale(0.996264)"/>
    </g>
   </g>
  </g>
 </g>
 <defs>
  <clipPath id="p8cb4c89875">
   <rect x="37.946186" y="18.734802" width="188.929134" height="147.84"/>
  </clipPath>
  <clipPath id="pa3b4bcf874">
   <rect x="37.946186" y="222.014802" width="188.929134" height="73.92"/>
  </clipPath>
 </defs>
</svg>
