<?xml version="1.0" encoding="utf-8" standalone="no"?>
<!DOCTYPE svg PUBLIC "-//W3C//DTD SVG 1.1//EN"
  "http://www.w3.org/Graphics/SVG/1.1/DTD/svg11.dtd">
<svg xmlns:xlink="http://www.w3.org/1999/xlink" width="239.056655pt" height="329.453119pt" viewBox="0 0 239.056655 329.453119" xmlns="http://www.w3.org/2000/svg" version="1.1">
 <metadata>
  <rdf:RDF xmlns:dc="http://purl.org/dc/elements/1.1/" xmlns:cc="http://creativecommons.org/ns#" xmlns:rdf="http://www.w3.org/1999/02/22-rdf-syntax-ns#">
   <cc:Work>
    <dc:type rdf:resource="http://purl.org/dc/dcmitype/StillImage"/>
    <dc:date>2026-04-09T16:50:03.478271</dc:date>
    <dc:format>image/svg+xml</dc:format>
    <dc:creator>
     <cc:Agent>
      <dc:title>Matplotlib v3.10.8, https://matplotlib.org/</dc:title>
     </cc:Agent>
    </dc:creator>
   </cc:Work>
  </rdf:RDF>
 </metadata>
 <defs>
  <style type="text/css">*{stroke-linejoin: round; stroke-linecap: butt}</style>
 </defs>
 <g id="figure_1">
  <g id="patch_1">
   <path d="M 0 329.453119 
L 239.056655 329.453119 
L 239.056655 0 
L 0 0 
z
" style="fill: #ffffff"/>
  </g>
  <g id="axes_1">
   <g id="patch_2">
    <path d="M 37.946186 166.574802 
L 226.875319 166.574802 
L 226.875319 18.734802 
L 37.946186 18.734802 
z
" style="fill: #ffffff"/>
   </g>
   <g id="matplotlib.axis_1">
    <g id="xtick_1">
     <g id="line2d_1">
      <path d="M 37.946186 166.574802 
L 37.946186 18.734802 
" clip-path="url(#p0c47c3a1e3)" style="fill: none; stroke: #b0b0b0; stroke-opacity: 0.3; stroke-width: 0.8; stroke-linecap: square"/>
     </g>
     <g id="line2d_2">
      <defs>
       <path id="me3c9e8ce2d" d="M 0 0 
L 0 -3.5 
" style="stroke: #000000; stroke-width: 0.8"/>
      </defs>
      <g>
       <use xlink:href="#me3c9e8ce2d" x="37.946186" y="166.574802" style="stroke: #000000; stroke-width: 0.8"/>
      </g>
     </g>
     <g id="text_1">
      <!-- 4 -->
      <g transform="translate(35.455518 176.9933) scale(0.1 -0.1)">
       <defs>
        <path id="CMSS17-34" d="M 2253 1088 
L 2835 1088 
L 2835 1478 
L 2253 1478 
L 2253 4224 
L 1690 4224 
L 166 1478 
L 166 1088 
L 1747 1088 
L 1747 0 
L 2253 0 
L 2253 1088 
z
M 659 1478 
C 1030 2139 1766 3474 1766 3927 
L 1766 1478 
L 659 1478 
z
" transform="scale(0.015625)"/>
       </defs>
       <use xlink:href="#CMSS17-34" transform="scale(0.996264)"/>
      </g>
     </g>
    </g>
    <g id="xtick_2">
     <g id="line2d_3">
      <path d="M 85.178469 166.574802 
L 85.178469 18.734802 
" clip-path="url(#p0c47c3a1e3)" style="fill: none; stroke: #b0b0b0; stroke-opacity: 0.3; stroke-width: 0.8; stroke-linecap: square"/>
     </g>
     <g id="line2d_4">
      <g>
       <use xlink:href="#me3c9e8ce2d" x="85.178469" y="166.574802" style="stroke: #000000; stroke-width: 0.8"/>
      </g>
     </g>
     <g id="text_2">
      <!-- 6 -->
      <g transform="translate(82.687801 176.9933) scale(0.1 -0.1)">
       <defs>
        <path id="CMSS17-36" d="M 2496 4159 
C 2227 4268 2035 4288 1856 4288 
C 1024 4288 250 3408 250 2023 
C 250 268 986 -128 1510 -128 
C 1798 -128 2086 -39 2362 281 
C 2643 619 2752 900 2752 1392 
C 2752 2183 2362 2886 1779 2886 
C 1357 2886 992 2662 768 2381 
C 832 3290 1254 3897 1862 3897 
C 2029 3897 2246 3871 2496 3760 
L 2496 4159 
z
M 774 1372 
C 774 1423 774 1455 781 1551 
C 781 2049 1069 2496 1536 2496 
C 1837 2496 1990 2336 2106 2138 
C 2240 1889 2246 1653 2246 1392 
C 2246 1143 2246 894 2099 638 
C 1978 441 1818 268 1510 268 
C 902 268 800 1117 774 1372 
z
" transform="scale(0.015625)"/>
       </defs>
       <use xlink:href="#CMSS17-36" transform="scale(0.996264)"/>
      </g>
     </g>
    </g>
    <g id="xtick_3">
     <g id="line2d_5">
      <path d="M 132.410752 166.574802 
L 132.410752 18.734802 
" clip-path="url(#p0c47c3a1e3)" style="fill: none; stroke: #b0b0b0; stroke-opacity: 0.3; stroke-width: 0.8; stroke-linecap: square"/>
     </g>
     <g id="line2d_6">
      <g>
       <use xlink:href="#me3c9e8ce2d" x="132.410752" y="166.574802" style="stroke: #000000; stroke-width: 0.8"/>
      </g>
     </g>
     <g id="text_3">
      <!-- 8 -->
      <g transform="translate(129.920085 176.9933) scale(0.1 -0.1)">
       <defs>
        <path id="CMSS17-38" d="M 1933 2246 
C 2419 2406 2669 2793 2669 3174 
C 2669 3774 2157 4288 1504 4288 
C 826 4288 333 3755 333 3174 
C 333 2799 576 2412 1069 2246 
C 442 2003 250 1516 250 1152 
C 250 448 819 -128 1498 -128 
C 2202 -128 2752 460 2752 1152 
C 2752 1574 2502 2022 1933 2246 
z
M 1504 2438 
C 1075 2438 787 2728 787 3167 
C 787 3613 1075 3897 1504 3897 
C 1901 3897 2214 3639 2214 3167 
C 2214 2703 1907 2438 1504 2438 
z
M 1504 268 
C 1139 268 749 518 749 1158 
C 749 1817 1184 2048 1498 2048 
C 1843 2048 2253 1804 2253 1158 
C 2253 492 1830 268 1504 268 
z
" transform="scale(0.015625)"/>
       </defs>
       <use xlink:href="#CMSS17-38" transform="scale(0.996264)"/>
      </g>
     </g>
    </g>
    <g id="xtick_4">
     <g id="line2d_7">
      <path d="M 179.643036 166.574802 
L 179.643036 18.734802 
" clip-path="url(#p0c47c3a1e3)" style="fill: none; stroke: #b0b0b0; stroke-opacity: 0.3; stroke-width: 0.8; stroke-linecap: square"/>
     </g>
     <g id="line2d_8">
      <g>
       <use xlink:href="#me3c9e8ce2d" x="179.643036" y="166.574802" style="stroke: #000000; stroke-width: 0.8"/>
      </g>
     </g>
     <g id="text_4">
      <!-- 10 -->
      <g transform="translate(174.661701 176.9933) scale(0.1 -0.1)">
       <defs>
        <path id="CMSS17-31" d="M 1818 4288 
L 1696 4288 
C 1350 3949 947 3902 538 3891 
L 538 3520 
C 723 3526 1024 3539 1325 3673 
L 1325 371 
L 570 371 
L 570 0 
L 2573 0 
L 2573 371 
L 1818 371 
L 1818 4288 
z
" transform="scale(0.015625)"/>
        <path id="CMSS17-30" d="M 2758 2073 
C 2758 2439 2752 3120 2490 3647 
C 2227 4153 1805 4288 1504 4288 
C 1069 4288 698 4031 506 3621 
C 301 3191 243 2748 243 2073 
C 243 1611 262 1046 493 551 
C 755 6 1197 -128 1498 -128 
C 1894 -128 2278 83 2496 525 
C 2720 988 2758 1495 2758 2073 
z
M 1498 262 
C 1011 262 864 821 819 1007 
C 742 1328 730 1636 730 2144 
C 730 2542 730 2992 851 3345 
C 998 3756 1254 3897 1498 3897 
C 1971 3897 2125 3422 2176 3255 
C 2272 2915 2272 2516 2272 2144 
C 2272 1546 2272 262 1498 262 
z
" transform="scale(0.015625)"/>
       </defs>
       <use xlink:href="#CMSS17-31" transform="scale(0.996264)"/>
       <use xlink:href="#CMSS17-30" transform="translate(46.843624 0) scale(0.996264)"/>
      </g>
     </g>
    </g>
    <g id="xtick_5">
     <g id="line2d_9">
      <path d="M 226.875319 166.574802 
L 226.875319 18.734802 
" clip-path="url(#p0c47c3a1e3)" style="fill: none; stroke: #b0b0b0; stroke-opacity: 0.3; stroke-width: 0.8; stroke-linecap: square"/>
     </g>
     <g id="line2d_10">
      <g>
       <use xlink:href="#me3c9e8ce2d" x="226.875319" y="166.574802" style="stroke: #000000; stroke-width: 0.8"/>
      </g>
     </g>
     <g id="text_5">
      <!-- 12 -->
      <g transform="translate(221.893984 176.9933) scale(0.1 -0.1)">
       <defs>
        <path id="CMSS17-32" d="M 1651 1353 
C 1830 1538 2099 1761 2285 1984 
C 2464 2201 2701 2507 2701 2953 
C 2701 3655 2227 4288 1421 4288 
C 787 4288 422 3891 250 3272 
L 499 2928 
C 640 3508 838 3878 1338 3878 
C 1888 3878 2195 3431 2195 2940 
C 2195 2354 1747 1901 1408 1563 
C 1030 1187 659 805 301 409 
L 301 0 
L 2701 0 
L 2701 435 
L 1613 435 
C 1536 435 1459 428 1382 428 
L 742 428 
L 742 435 
L 1651 1353 
z
" transform="scale(0.015625)"/>
       </defs>
       <use xlink:href="#CMSS17-31" transform="scale(0.996264)"/>
       <use xlink:href="#CMSS17-32" transform="translate(46.843624 0) scale(0.996264)"/>
      </g>
     </g>
    </g>
   </g>
   <g id="matplotlib.axis_2">
    <g id="ytick_1">
     <g id="line2d_11">
      <path d="M 37.946186 166.574802 
L 226.875319 166.574802 
" clip-path="url(#p0c47c3a1e3)" style="fill: none; stroke: #b0b0b0; stroke-opacity: 0.3; stroke-width: 0.8; stroke-linecap: square"/>
     </g>
     <g id="line2d_12">
      <defs>
       <path id="maf7e3699ee" d="M 0 0 
L 3.5 0 
" style="stroke: #000000; stroke-width: 0.8"/>
      </defs>
      <g>
       <use xlink:href="#maf7e3699ee" x="37.946186" y="166.574802" style="stroke: #000000; stroke-width: 0.8"/>
      </g>
     </g>
     <g id="text_6">
      <!-- -30 -->
      <g transform="translate(21.16264 170.034051) scale(0.1 -0.1)">
       <defs>
        <path id="CMSS17-2d" d="M 1664 1216 
L 1664 1587 
L 64 1587 
L 64 1216 
L 1664 1216 
z
" transform="scale(0.015625)"/>
        <path id="CMSS17-33" d="M 1005 2060 
L 1440 2060 
C 2042 2060 2214 1532 2214 1164 
C 2214 662 1933 268 1472 268 
C 1114 268 608 449 320 926 
C 275 700 275 687 250 533 
C 550 89 1037 -128 1485 -128 
C 2214 -128 2752 481 2752 1158 
C 2752 1667 2400 2092 1920 2252 
C 2304 2463 2586 2860 2586 3321 
C 2586 3859 2093 4288 1491 4288 
C 941 4288 512 3948 333 3583 
C 378 3519 493 3334 550 3238 
C 691 3615 1056 3897 1485 3897 
C 1843 3897 2080 3660 2080 3321 
C 2080 2969 1856 2585 1478 2496 
C 1453 2496 1056 2457 1005 2451 
L 1005 2060 
z
" transform="scale(0.015625)"/>
       </defs>
       <use xlink:href="#CMSS17-2d" transform="scale(0.996264)"/>
       <use xlink:href="#CMSS17-33" transform="translate(31.229113 0) scale(0.996264)"/>
       <use xlink:href="#CMSS17-30" transform="translate(78.072736 0) scale(0.996264)"/>
      </g>
     </g>
    </g>
    <g id="ytick_2">
     <g id="line2d_13">
      <path d="M 37.946186 141.934802 
L 226.875319 141.934802 
" clip-path="url(#p0c47c3a1e3)" style="fill: none; stroke: #b0b0b0; stroke-opacity: 0.3; stroke-width: 0.8; stroke-linecap: square"/>
     </g>
     <g id="line2d_14">
      <g>
       <use xlink:href="#maf7e3699ee" x="37.946186" y="141.934802" style="stroke: #000000; stroke-width: 0.8"/>
      </g>
     </g>
     <g id="text_7">
      <!-- -20 -->
      <g transform="translate(21.16264 145.394051) scale(0.1 -0.1)">
       <use xlink:href="#CMSS17-2d" transform="scale(0.996264)"/>
       <use xlink:href="#CMSS17-32" transform="translate(31.229113 0) scale(0.996264)"/>
       <use xlink:href="#CMSS17-30" transform="translate(78.072736 0) scale(0.996264)"/>
      </g>
     </g>
    </g>
    <g id="ytick_3">
     <g id="line2d_15">
      <path d="M 37.946186 117.294802 
L 226.875319 117.294802 
" clip-path="url(#p0c47c3a1e3)" style="fill: none; stroke: #b0b0b0; stroke-opacity: 0.3; stroke-width: 0.8; stroke-linecap: square"/>
     </g>
     <g id="line2d_16">
      <g>
       <use xlink:href="#maf7e3699ee" x="37.946186" y="117.294802" style="stroke: #000000; stroke-width: 0.8"/>
      </g>
     </g>
     <g id="text_8">
      <!-- -10 -->
      <g transform="translate(21.16264 120.754051) scale(0.1 -0.1)">
       <use xlink:href="#CMSS17-2d" transform="scale(0.996264)"/>
       <use xlink:href="#CMSS17-31" transform="translate(31.229113 0) scale(0.996264)"/>
       <use xlink:href="#CMSS17-30" transform="translate(78.072736 0) scale(0.996264)"/>
      </g>
     </g>
    </g>
    <g id="ytick_4">
     <g id="line2d_17">
      <path d="M 37.946186 92.654802 
L 226.875319 92.654802 
" clip-path="url(#p0c47c3a1e3)" style="fill: none; stroke: #b0b0b0; stroke-opacity: 0.3; stroke-width: 0.8; stroke-linecap: square"/>
     </g>
     <g id="line2d_18">
      <g>
       <use xlink:href="#maf7e3699ee" x="37.946186" y="92.654802" style="stroke: #000000; stroke-width: 0.8"/>
      </g>
     </g>
     <g id="text_9">
      <!-- 0 -->
      <g transform="translate(29.46485 96.114051) scale(0.1 -0.1)">
       <use xlink:href="#CMSS17-30" transform="scale(0.996264)"/>
      </g>
     </g>
    </g>
    <g id="ytick_5">
     <g id="line2d_19">
      <path d="M 37.946186 68.014802 
L 226.875319 68.014802 
" clip-path="url(#p0c47c3a1e3)" style="fill: none; stroke: #b0b0b0; stroke-opacity: 0.3; stroke-width: 0.8; stroke-linecap: square"/>
     </g>
     <g id="line2d_20">
      <g>
       <use xlink:href="#maf7e3699ee" x="37.946186" y="68.014802" style="stroke: #000000; stroke-width: 0.8"/>
      </g>
     </g>
     <g id="text_10">
      <!-- 10 -->
      <g transform="translate(24.483515 71.474051) scale(0.1 -0.1)">
       <use xlink:href="#CMSS17-31" transform="scale(0.996264)"/>
       <use xlink:href="#CMSS17-30" transform="translate(46.843624 0) scale(0.996264)"/>
      </g>
     </g>
    </g>
    <g id="ytick_6">
     <g id="line2d_21">
      <path d="M 37.946186 43.374802 
L 226.875319 43.374802 
" clip-path="url(#p0c47c3a1e3)" style="fill: none; stroke: #b0b0b0; stroke-opacity: 0.3; stroke-width: 0.8; stroke-linecap: square"/>
     </g>
     <g id="line2d_22">
      <g>
       <use xlink:href="#maf7e3699ee" x="37.946186" y="43.374802" style="stroke: #000000; stroke-width: 0.8"/>
      </g>
     </g>
     <g id="text_11">
      <!-- 20 -->
      <g transform="translate(24.483515 46.834051) scale(0.1 -0.1)">
       <use xlink:href="#CMSS17-32" transform="scale(0.996264)"/>
       <use xlink:href="#CMSS17-30" transform="translate(46.843624 0) scale(0.996264)"/>
      </g>
     </g>
    </g>
    <g id="ytick_7">
     <g id="line2d_23">
      <path d="M 37.946186 18.734802 
L 226.875319 18.734802 
" clip-path="url(#p0c47c3a1e3)" style="fill: none; stroke: #b0b0b0; stroke-opacity: 0.3; stroke-width: 0.8; stroke-linecap: square"/>
     </g>
     <g id="line2d_24">
      <g>
       <use xlink:href="#maf7e3699ee" x="37.946186" y="18.734802" style="stroke: #000000; stroke-width: 0.8"/>
      </g>
     </g>
     <g id="text_12">
      <!-- 30 -->
      <g transform="translate(24.483515 22.194051) scale(0.1 -0.1)">
       <use xlink:href="#CMSS17-33" transform="scale(0.996264)"/>
       <use xlink:href="#CMSS17-30" transform="translate(46.843624 0) scale(0.996264)"/>
      </g>
     </g>
    </g>
    <g id="text_13">
     <!-- $|S|$-parameters [dB] -->
     <g transform="translate(14.67198 133.577772) rotate(-90) scale(0.1 -0.1)">
      <defs>
       <path id="CMSY10-6a" d="M 1018 4569 
C 1018 4684 1018 4800 890 4800 
C 762 4800 762 4684 762 4569 
L 762 -1370 
C 762 -1485 762 -1600 890 -1600 
C 1018 -1600 1018 -1485 1018 -1370 
L 1018 4569 
z
" transform="scale(0.015625)"/>
       <path id="CMMI12-53" d="M 4064 4422 
C 4064 4480 4019 4480 4006 4480 
C 3981 4480 3974 4473 3898 4377 
C 3859 4332 3597 4002 3590 3996 
C 3379 4409 2957 4480 2688 4480 
C 1875 4480 1139 3742 1139 3024 
C 1139 2547 1427 2268 1741 2160 
C 1811 2134 2189 2033 2381 1988 
C 2707 1899 2790 1874 2925 1734 
C 2950 1702 3078 1556 3078 1258 
C 3078 667 2528 57 1888 57 
C 1363 57 781 279 781 991 
C 781 1112 806 1264 826 1328 
C 826 1347 832 1378 832 1391 
C 832 1417 819 1448 768 1448 
C 710 1448 704 1436 678 1328 
L 352 25 
C 352 19 326 -64 326 -71 
C 326 -128 378 -128 390 -128 
C 416 -128 422 -122 499 -26 
L 794 356 
C 947 127 1280 -128 1875 -128 
C 2701 -128 3456 667 3456 1461 
C 3456 1728 3392 1963 3149 2198 
C 3014 2331 2899 2363 2310 2516 
C 1882 2630 1824 2649 1709 2751 
C 1600 2859 1517 3011 1517 3227 
C 1517 3761 2061 4307 2669 4307 
C 3296 4307 3590 3926 3590 3322 
C 3590 3157 3558 2986 3558 2960 
C 3558 2903 3610 2903 3629 2903 
C 3686 2903 3693 2922 3718 3024 
L 4064 4422 
z
" transform="scale(0.015625)"/>
       <path id="CMSS17-70" d="M 966 275 
C 1178 70 1466 -64 1773 -64 
C 2368 -64 2880 553 2880 1382 
C 2880 2147 2496 2816 1946 2816 
C 1626 2816 1242 2700 954 2470 
L 954 2764 
L 480 2764 
L 480 -1280 
L 966 -1280 
L 966 275 
z
M 966 2088 
C 1018 2166 1235 2412 1587 2412 
C 2035 2412 2394 1946 2394 1382 
C 2394 741 1958 326 1530 326 
C 1402 326 1267 358 1139 468 
C 966 624 966 721 966 812 
L 966 2088 
z
" transform="scale(0.015625)"/>
       <path id="CMSS17-61" d="M 2406 1789 
C 2406 2399 1978 2816 1402 2816 
C 1120 2816 813 2764 461 2559 
L 499 2133 
C 659 2250 934 2438 1395 2438 
C 1722 2438 1920 2185 1920 1782 
L 1920 1536 
C 896 1504 256 1209 256 711 
C 256 452 416 -64 947 -64 
C 1043 -64 1562 -52 1933 224 
L 1933 -13 
L 2406 -13 
L 2406 1789 
z
M 1920 824 
C 1920 711 1920 559 1728 446 
C 1562 339 1350 326 1261 326 
C 941 326 723 503 723 723 
C 723 1165 1722 1209 1920 1216 
L 1920 824 
z
" transform="scale(0.015625)"/>
       <path id="CMSS17-72" d="M 954 1369 
C 954 1974 1395 2379 1958 2392 
L 1958 2816 
C 1549 2809 1165 2604 934 2270 
L 934 2783 
L 480 2783 
L 480 0 
L 954 0 
L 954 1369 
z
" transform="scale(0.015625)"/>
       <path id="CMSS17-6d" d="M 4288 1878 
C 4288 2309 4179 2816 3462 2816 
C 2982 2816 2694 2515 2566 2328 
C 2451 2668 2182 2816 1798 2816 
C 1363 2816 1088 2566 941 2386 
L 941 2783 
L 474 2783 
L 474 0 
L 960 0 
L 960 1556 
C 960 1936 1101 2425 1555 2425 
C 2138 2425 2138 2013 2138 1826 
L 2138 0 
L 2624 0 
L 2624 1556 
C 2624 1936 2765 2425 3219 2425 
C 3802 2425 3802 2013 3802 1826 
L 3802 0 
L 4288 0 
L 4288 1878 
z
" transform="scale(0.015625)"/>
       <path id="CMSS17-65" d="M 2502 1375 
C 2502 1587 2490 2001 2285 2347 
C 2061 2713 1696 2816 1421 2816 
C 755 2816 192 2184 192 1363 
C 192 579 774 -64 1510 -64 
C 1798 -64 2150 19 2470 249 
C 2470 275 2458 414 2451 421 
C 2451 433 2432 629 2432 655 
C 2125 408 1773 326 1517 326 
C 1107 326 666 667 646 1375 
L 2502 1375 
z
M 698 1728 
C 781 2086 1062 2425 1421 2425 
C 1517 2425 1965 2412 2080 1728 
L 698 1728 
z
" transform="scale(0.015625)"/>
       <path id="CMSS17-74" d="M 1069 2380 
L 1901 2380 
L 1901 2752 
L 1069 2752 
L 1069 3520 
L 614 3520 
L 614 2752 
L 109 2752 
L 109 2380 
L 602 2380 
L 602 751 
C 602 384 685 -64 1107 -64 
C 1427 -64 1722 25 2003 172 
L 1901 551 
C 1747 416 1562 339 1363 339 
C 1082 339 1069 699 1069 860 
L 1069 2380 
z
" transform="scale(0.015625)"/>
       <path id="CMSS17-73" d="M 2061 2623 
C 1683 2803 1389 2816 1197 2816 
C 742 2816 198 2655 198 2009 
C 198 1363 902 1222 1094 1183 
C 1389 1126 1715 1062 1715 742 
C 1715 339 1254 339 1171 339 
C 915 339 563 409 243 639 
L 166 211 
C 531 0 883 -64 1178 -64 
C 1965 -64 2163 416 2163 780 
C 2163 1094 1984 1305 1862 1401 
C 1651 1567 1574 1587 1050 1695 
C 960 1708 646 1779 646 2067 
C 646 2431 1050 2431 1139 2431 
C 1555 2431 1811 2303 1984 2207 
L 2061 2623 
z
" transform="scale(0.015625)"/>
       <path id="CMSS17-5b" d="M 1613 -1600 
L 1613 -1210 
L 1062 -1210 
L 1062 4409 
L 1613 4409 
L 1613 4800 
L 595 4800 
L 595 -1600 
L 1613 -1600 
z
" transform="scale(0.015625)"/>
       <path id="CMSS17-64" d="M 2611 4416 
L 2138 4416 
L 2138 2495 
C 1939 2662 1613 2816 1254 2816 
C 672 2816 211 2179 211 1375 
C 211 572 666 -64 1235 -64 
C 1677 -64 1971 172 2125 307 
L 2125 -13 
L 2611 -13 
L 2611 4416 
z
M 2125 851 
C 2125 760 2125 663 1926 488 
C 1798 378 1645 326 1498 326 
C 1152 326 698 585 698 1369 
C 698 2185 1210 2425 1562 2425 
C 1798 2425 1990 2308 2125 2114 
L 2125 851 
z
" transform="scale(0.015625)"/>
       <path id="CMSS17-42" d="M 570 4416 
L 570 0 
L 2163 0 
C 3034 0 3667 575 3667 1200 
C 3667 1684 3251 2175 2502 2316 
C 3334 2559 3501 3039 3501 3311 
C 3501 3880 2874 4416 1997 4416 
L 570 4416 
z
M 1088 2496 
L 1088 4057 
L 1824 4057 
C 2483 4057 3002 3722 3002 3305 
C 3002 2925 2592 2496 1766 2496 
L 1088 2496 
z
M 1088 358 
L 1088 2105 
L 1939 2105 
C 2630 2105 3162 1678 3162 1206 
C 3162 772 2694 358 1984 358 
L 1088 358 
z
" transform="scale(0.015625)"/>
       <path id="CMSS17-5d" d="M 1146 4800 
L 128 4800 
L 128 4409 
L 678 4409 
L 678 -1210 
L 128 -1210 
L 128 -1600 
L 1146 -1600 
L 1146 4800 
z
" transform="scale(0.015625)"/>
      </defs>
      <use xlink:href="#CMSY10-6a" transform="scale(0.996264)"/>
      <use xlink:href="#CMMI12-53" transform="translate(27.674085 0) scale(0.996264)"/>
      <use xlink:href="#CMSY10-6a" transform="translate(93.468524 0) scale(0.996264)"/>
      <use xlink:href="#CMSS17-2d" transform="translate(121.142609 0) scale(0.996264)"/>
      <use xlink:href="#CMSS17-70" transform="translate(152.371721 0) scale(0.996264)"/>
      <use xlink:href="#CMSS17-61" transform="translate(200.576664 0) scale(0.996264)"/>
      <use xlink:href="#CMSS17-72" transform="translate(242.896131 0) scale(0.996264)"/>
      <use xlink:href="#CMSS17-61" transform="translate(274.805904 0) scale(0.996264)"/>
      <use xlink:href="#CMSS17-6d" transform="translate(319.727824 0) scale(0.996264)"/>
      <use xlink:href="#CMSS17-65" transform="translate(393.957079 0) scale(0.996264)"/>
      <use xlink:href="#CMSS17-74" transform="translate(435.595901 0) scale(0.996264)"/>
      <use xlink:href="#CMSS17-65" transform="translate(469.427467 0) scale(0.996264)"/>
      <use xlink:href="#CMSS17-72" transform="translate(511.06629 0) scale(0.996264)"/>
      <use xlink:href="#CMSS17-73" transform="translate(542.976062 0) scale(0.996264)"/>
      <use xlink:href="#CMSS17-5b" transform="translate(610.118717 0) scale(0.996264)"/>
      <use xlink:href="#CMSS17-64" transform="translate(637.304155 0) scale(0.996264)"/>
      <use xlink:href="#CMSS17-42" transform="translate(685.509099 0) scale(0.996264)"/>
      <use xlink:href="#CMSS17-5d" transform="translate(747.847139 0) scale(0.996264)"/>
     </g>
    </g>
   </g>
   <g id="line2d_25">
    <path d="M 37.946186 79.189456 
L 39.126993 76.80842 
L 40.3078 73.706625 
L 41.488607 71.501358 
L 42.669414 69.672861 
L 43.850221 66.970155 
L 45.031028 65.293621 
L 46.211835 63.949912 
L 47.392642 61.631575 
L 48.573449 60.273056 
L 49.754256 59.339409 
L 50.935064 57.301214 
L 52.115871 56.130072 
L 53.296678 55.545461 
L 54.477485 53.768572 
L 55.658292 52.732577 
L 56.839099 52.424983 
L 58.019906 50.902416 
L 59.200713 49.991626 
L 60.38152 49.999776 
L 61.562327 48.705017 
L 62.743134 47.875964 
L 63.923941 48.159203 
L 65.104749 47.066439 
L 66.285556 46.346001 
L 67.466363 46.731781 
L 68.64717 45.926238 
L 69.827977 45.299209 
L 71.008784 45.616142 
L 73.370398 44.680566 
L 74.551205 44.805416 
L 78.093627 44.313588 
L 80.455241 44.74899 
L 81.636048 44.130646 
L 82.816855 44.422834 
L 83.997662 45.113485 
L 85.178469 44.190449 
L 86.359276 44.464823 
L 87.540083 45.49101 
L 88.72089 44.582039 
L 89.901697 44.739305 
L 91.082504 46.008404 
L 92.263312 45.32441 
L 93.444119 45.333765 
L 94.624926 46.576096 
L 95.805733 46.181023 
L 96.98654 46.143011 
L 98.167347 47.124622 
L 100.528961 47.188241 
L 101.709768 47.866222 
L 102.890575 48.370283 
L 104.071382 48.638899 
L 105.25219 49.055661 
L 106.432997 49.950207 
L 108.794611 50.176996 
L 109.975418 51.157114 
L 112.337032 51.9374 
L 113.517839 52.870598 
L 114.698646 53.439324 
L 115.879453 54.167212 
L 117.06026 55.156434 
L 118.241067 55.695764 
L 121.783489 59.193128 
L 122.964296 60.750117 
L 124.145103 62.516257 
L 125.32591 65.566854 
L 126.506717 67.233537 
L 127.687524 71.389044 
L 128.868331 78.713281 
L 130.049138 84.535351 
L 131.229945 100.168069 
L 132.410752 132.749826 
L 133.59156 128.654483 
L 134.772367 105.289973 
L 135.953174 104.681529 
L 137.133981 119.699961 
L 138.314788 115.584542 
L 139.495595 118.617474 
L 140.676402 122.71417 
L 141.857209 121.385786 
L 143.038016 125.819592 
L 144.218823 105.536627 
L 145.39963 104.489065 
L 146.580438 115.477406 
L 147.761245 137.64944 
L 150.122859 154.335504 
L 151.303666 173.375472 
L 152.484473 322.286153 
L 153.66528 187.569584 
L 154.846087 174.89466 
L 156.026894 203.720044 
L 157.207701 185.38775 
L 158.388508 177.090506 
L 159.569315 175.572302 
L 160.750123 174.836839 
L 161.93093 179.383485 
L 163.111737 180.727426 
L 164.292544 184.25089 
L 165.473351 189.602433 
L 166.654158 193.121298 
L 170.196579 207.128782 
L 178.462229 241.198347 
L 180.823843 251.393156 
L 182.00465 255.915652 
L 184.366264 266.369379 
L 185.547071 270.773462 
L 196.174335 315.045022 
L 197.355142 318.856299 
L 198.535949 323.895538 
L 199.988102 330.453119 
L 199.988102 330.453119 
" clip-path="url(#p0c47c3a1e3)" style="fill: none; stroke: #387eb9; stroke-linecap: square"/>
   </g>
   <g id="line2d_26">
    <path d="M 37.946186 273.615423 
L 39.126993 281.08719 
L 40.3078 253.453679 
L 41.488607 257.557027 
L 42.669414 219.780582 
L 43.850221 241.877398 
L 45.031028 217.757733 
L 47.392642 270.966561 
L 48.573449 266.109504 
L 49.754256 261.765908 
L 50.935064 263.499062 
L 52.115871 264.880469 
L 53.296678 260.520868 
L 54.477485 261.938381 
L 55.658292 265.336072 
L 56.839099 261.773934 
L 58.019906 259.824236 
L 59.200713 268.125492 
L 60.38152 265.264455 
L 61.562327 262.006474 
L 62.743134 270.038001 
L 63.923941 268.667877 
L 65.104749 264.951534 
L 66.285556 265.453416 
L 67.466363 275.823028 
L 68.64717 265.412705 
L 69.827977 266.834116 
L 71.008784 274.132046 
L 72.189591 270.238493 
L 73.370398 264.660587 
L 74.551205 272.142556 
L 75.732012 275.923962 
L 76.912819 267.642284 
L 78.093627 276.138839 
L 79.274434 282.680734 
L 80.455241 282.638851 
L 81.636048 277.759087 
L 82.816855 303.442769 
L 83.997662 282.475 
L 85.178469 281.321689 
L 86.359276 294.939593 
L 87.540083 296.882376 
L 88.72089 284.424894 
L 89.901697 313.255804 
L 90.870841 330.453119 
M 91.206353 330.453119 
L 92.263312 298.398788 
L 93.444119 320.649612 
L 94.624926 295.547244 
L 95.805733 298.567842 
L 96.98654 298.625771 
L 98.167347 304.050679 
L 99.348154 296.727713 
L 100.528961 326.094719 
L 101.709768 307.651006 
L 102.890575 295.232694 
L 104.071382 304.253874 
L 105.25219 286.847643 
L 106.432997 291.735462 
L 107.613804 295.785753 
L 108.794611 317.170178 
L 109.975418 311.807672 
L 111.156225 310.536862 
L 113.517839 287.246776 
L 114.698646 281.805705 
L 117.06026 298.904037 
L 118.241067 299.178953 
L 119.421875 301.502367 
L 120.602682 288.745739 
L 121.783489 277.206838 
L 122.964296 269.55932 
L 124.145103 271.560998 
L 125.32591 264.908793 
L 126.506717 257.015035 
L 127.687524 244.943252 
L 131.229945 198.897229 
L 132.410752 180.00939 
L 133.59156 152.244446 
L 134.772367 111.703066 
L 135.953174 126.027988 
L 138.314788 115.286623 
L 139.495595 118.64558 
L 140.676402 124.087038 
L 141.857209 125.292823 
L 143.038016 127.538099 
L 144.218823 127.937126 
L 145.39963 132.389999 
L 146.580438 139.955045 
L 147.761245 143.937999 
L 148.942052 149.39354 
L 150.122859 156.688209 
L 151.303666 173.086595 
L 152.388899 330.453119 
M 152.589215 330.453119 
L 153.66528 188.073759 
L 154.846087 161.41347 
L 156.026894 197.724058 
L 157.207701 192.435082 
L 158.388508 193.956117 
L 160.750123 203.845777 
L 161.93093 210.922166 
L 163.111737 214.926896 
L 164.292544 220.87159 
L 165.473351 227.418841 
L 166.654158 232.208179 
L 169.015772 243.697873 
L 184.366264 314.366324 
L 186.727878 324.399777 
L 188.042578 330.453119 
L 188.042578 330.453119 
" clip-path="url(#p0c47c3a1e3)" style="fill: none; stroke: #e21f26; stroke-linecap: square"/>
   </g>
   <g id="line2d_27">
    <path d="M 93.684321 330.453119 
L 94.624926 324.75706 
L 96.98654 307.73292 
L 98.167347 300.514478 
L 100.528961 284.364126 
L 112.337032 211.535732 
L 120.602682 166.406297 
L 122.964296 155.033845 
L 124.145103 149.7829 
L 125.32591 145.862127 
L 126.506717 140.602561 
L 127.687524 137.876363 
L 128.868331 138.362866 
L 130.049138 137.390618 
L 131.229945 146.271884 
L 132.410752 172.144517 
L 133.59156 161.381853 
L 134.772367 131.391306 
L 135.953174 124.197601 
L 137.133981 132.671048 
L 138.314788 122.050432 
L 139.495595 118.617474 
L 140.676402 116.287114 
L 141.857209 108.570045 
L 143.038016 106.653081 
L 144.218823 80.056813 
L 145.39963 72.732978 
L 146.580438 77.481642 
L 147.761245 93.450171 
L 150.122859 97.836081 
L 151.303666 110.778587 
L 152.484473 253.626354 
L 153.66528 112.881028 
L 154.846087 94.21112 
L 156.026894 117.074921 
L 157.207701 92.814071 
L 158.388508 78.620935 
L 159.569315 71.239146 
L 160.750123 64.672052 
L 161.93093 63.418676 
L 163.111737 58.99386 
L 164.292544 56.7795 
L 165.473351 56.423821 
L 166.654158 54.265742 
L 169.015772 52.180268 
L 172.558193 49.812462 
L 173.739001 49.410311 
L 174.919808 48.639414 
L 176.100615 48.173288 
L 177.281422 47.912693 
L 178.462229 47.170696 
L 180.823843 46.6644 
L 182.00465 45.876207 
L 184.366264 45.786975 
L 185.547071 44.958277 
L 186.727878 44.629673 
L 187.908686 44.541019 
L 189.089493 44.184014 
L 190.2703 43.577569 
L 192.631914 43.671463 
L 193.812721 42.760398 
L 194.993528 42.827975 
L 196.174335 43.251813 
L 197.355142 42.074263 
L 198.535949 42.147824 
L 199.716756 42.905975 
L 200.897564 41.713989 
L 202.078371 41.611839 
L 203.259178 42.573899 
L 204.439985 41.584207 
L 205.620792 41.342137 
L 206.801599 42.262957 
L 207.982406 41.596062 
L 209.163213 41.342278 
L 210.34402 41.989962 
L 211.524827 41.736014 
L 212.705634 41.621468 
L 215.067249 42.029482 
L 216.248056 42.16234 
L 217.428863 42.04974 
L 219.790477 42.955908 
L 220.971284 42.625129 
L 222.152091 43.229804 
L 223.332898 44.014139 
L 224.513705 43.622309 
L 225.694512 44.333861 
L 225.694512 44.333861 
" clip-path="url(#p0c47c3a1e3)" style="fill: none; stroke: #f57e20; stroke-linecap: square"/>
   </g>
   <g id="line2d_28">
    <path d="M 37.946186 157.495668 
L 39.126993 170.160186 
L 40.3078 161.745626 
L 41.488607 149.16831 
L 42.669414 166.455523 
L 43.850221 176.196584 
L 45.031028 144.495081 
L 47.392642 181.015193 
L 48.573449 151.208407 
L 49.754256 161.092702 
L 50.935064 156.445011 
L 52.115871 162.223844 
L 53.296678 166.826542 
L 54.477485 146.028554 
L 55.658292 173.630609 
L 56.839099 174.006839 
L 58.019906 140.721961 
L 59.200713 156.170234 
L 60.38152 159.181408 
L 61.562327 140.858733 
L 62.743134 148.325784 
L 63.923941 148.649755 
L 65.104749 143.246169 
L 66.285556 145.566319 
L 67.466363 141.381126 
L 68.64717 149.191032 
L 69.827977 147.590803 
L 71.008784 137.447424 
L 72.189591 152.690052 
L 73.370398 153.057193 
L 74.551205 136.168499 
L 75.732012 147.615884 
L 76.912819 153.985578 
L 78.093627 137.604739 
L 79.274434 141.112266 
L 80.455241 145.528655 
L 81.636048 140.513624 
L 82.816855 138.043201 
L 83.997662 138.151906 
L 85.178469 144.35476 
L 86.359276 138.564106 
L 87.540083 134.523034 
L 88.72089 145.12552 
L 89.901697 142.218599 
L 91.082504 133.881465 
L 92.263312 142.017298 
L 93.444119 147.334933 
L 94.624926 136.165941 
L 95.805733 138.715079 
L 96.98654 148.679035 
L 98.167347 141.454357 
L 99.348154 136.995096 
L 100.528961 142.604406 
L 101.709768 149.5108 
L 102.890575 138.294671 
L 104.071382 138.231847 
L 105.25219 154.760351 
L 106.432997 143.105306 
L 107.613804 136.980581 
L 108.794611 147.42727 
L 109.975418 152.842901 
L 111.156225 139.257868 
L 112.337032 141.144458 
L 113.517839 159.993654 
L 114.698646 145.568544 
L 115.879453 138.08709 
L 117.06026 148.014726 
L 118.241067 154.996498 
L 119.421875 138.927265 
L 120.602682 137.791759 
L 121.783489 149.388166 
L 122.964296 138.784597 
L 124.145103 131.119382 
L 125.32591 134.879167 
L 127.687524 124.050994 
L 128.868331 125.648155 
L 130.049138 117.080982 
L 131.229945 120.777805 
L 132.410752 121.311064 
L 133.59156 114.041168 
L 134.772367 128.33658 
L 135.953174 146.542873 
L 137.133981 109.991134 
L 138.314788 127.443204 
L 139.495595 105.438335 
L 140.676402 109.96078 
L 141.857209 101.368475 
L 143.038016 104.685512 
L 145.39963 96.645887 
L 146.580438 94.915608 
L 147.761245 94.222307 
L 150.122859 94.127609 
L 151.303666 93.702609 
L 152.484473 93.071135 
L 153.66528 93.408007 
L 154.846087 93.143526 
L 156.026894 93.152039 
L 157.207701 92.77903 
L 163.111737 92.757824 
L 165.473351 92.704307 
L 194.993528 92.654895 
L 225.694512 92.654802 
L 225.694512 92.654802 
" clip-path="url(#p0c47c3a1e3)" style="fill: none; stroke: #4daf49; stroke-opacity: 0.7; stroke-linecap: square"/>
   </g>
   <g id="line2d_29">
    <path d="M 37.946186 173.017675 
L 39.126993 198.209264 
L 40.3078 187.467339 
L 41.488607 173.652647 
L 42.669414 173.648429 
L 43.850221 212.030779 
L 45.031028 176.724759 
L 46.211835 169.080871 
L 47.392642 177.749479 
L 48.573449 200.897608 
L 49.754256 170.647953 
L 50.935064 166.66115 
L 52.115871 189.997843 
L 53.296678 182.844892 
L 54.477485 163.85569 
L 55.658292 169.711019 
L 56.839099 201.131007 
L 58.019906 167.359825 
L 59.200713 162.335144 
L 60.38152 171.698273 
L 61.562327 178.12658 
L 62.743134 161.426213 
L 63.923941 161.192569 
L 65.104749 186.90486 
L 66.285556 167.215168 
L 67.466363 157.580199 
L 69.827977 180.79304 
L 71.008784 158.594322 
L 72.189591 159.502613 
L 73.370398 175.431187 
L 74.551205 164.585954 
L 75.732012 156.384098 
L 76.912819 162.420989 
L 78.093627 177.764305 
L 79.274434 158.014892 
L 80.455241 155.873512 
L 81.636048 173.101431 
L 82.816855 164.398143 
L 83.997662 153.82381 
L 85.178469 161.043834 
L 86.359276 175.190504 
L 87.540083 156.326791 
L 88.72089 155.250657 
L 89.901697 170.288737 
L 91.082504 163.826677 
L 92.263312 153.568325 
L 93.444119 159.20248 
L 94.624926 175.838595 
L 95.805733 155.763804 
L 96.98654 154.027552 
L 98.167347 171.747222 
L 99.348154 163.200718 
L 100.528961 153.043054 
L 101.709768 160.224131 
L 102.890575 175.189363 
L 104.071382 155.143545 
L 105.25219 154.255851 
L 106.432997 174.375094 
L 107.613804 162.400521 
L 108.794611 152.988286 
L 109.975418 162.048488 
L 111.156225 174.41399 
L 112.337032 154.825209 
L 113.517839 155.59538 
L 114.698646 176.73781 
L 115.879453 160.372509 
L 117.06026 154.290921 
L 118.241067 165.988188 
L 119.421875 172.131924 
L 120.602682 156.381699 
L 121.783489 160.392239 
L 122.964296 181.018805 
L 124.145103 166.219706 
L 125.32591 160.649152 
L 126.506717 167.059966 
L 127.687524 181.959321 
L 128.868331 152.088365 
L 130.049138 152.545438 
L 131.229945 146.342454 
L 132.410752 129.324713 
L 133.59156 144.468724 
L 134.772367 104.984134 
L 135.953174 118.044635 
L 137.133981 122.758803 
L 138.314788 103.959901 
L 139.495595 114.822025 
L 140.676402 101.875365 
L 141.857209 103.209933 
L 143.038016 99.036703 
L 144.218823 100.774188 
L 145.39963 95.402322 
L 146.580438 94.317015 
L 147.761245 95.823473 
L 150.122859 94.013208 
L 151.303666 93.800322 
L 152.484473 93.001332 
L 153.66528 93.37563 
L 156.026894 93.25673 
L 157.207701 92.805211 
L 158.388508 92.947053 
L 163.111737 92.727677 
L 171.377386 92.669468 
L 193.812721 92.654901 
L 225.694512 92.654802 
L 225.694512 92.654802 
" clip-path="url(#p0c47c3a1e3)" style="fill: none; stroke-dasharray: 3.7,1.6; stroke-dashoffset: 0; stroke: #4daf49; stroke-opacity: 0.7"/>
   </g>
   <g id="line2d_30">
    <path d="M 145.39963 166.574802 
L 145.39963 18.734802 
" clip-path="url(#p0c47c3a1e3)" style="fill: none; stroke-dasharray: 1,1.65; stroke-dashoffset: 0; stroke: #98509f; stroke-opacity: 0.5"/>
   </g>
   <g id="patch_3">
    <path d="M 37.946186 166.574802 
L 37.946186 18.734802 
" style="fill: none; stroke: #000000; stroke-width: 0.8; stroke-linejoin: miter; stroke-linecap: square"/>
   </g>
   <g id="patch_4">
    <path d="M 226.875319 166.574802 
L 226.875319 18.734802 
" style="fill: none; stroke: #000000; stroke-width: 0.8; stroke-linejoin: miter; stroke-linecap: square"/>
   </g>
   <g id="patch_5">
    <path d="M 37.946186 166.574802 
L 226.875319 166.574802 
" style="fill: none; stroke: #000000; stroke-width: 0.8; stroke-linejoin: miter; stroke-linecap: square"/>
   </g>
   <g id="patch_6">
    <path d="M 37.946186 18.734802 
L 226.875319 18.734802 
" style="fill: none; stroke: #000000; stroke-width: 0.8; stroke-linejoin: miter; stroke-linecap: square"/>
   </g>
   <g id="text_14">
    <!-- TWPA-TWPA -->
    <g transform="translate(106.867274 12.734802) scale(0.08 -0.08)">
     <defs>
      <path id="CMSS17-54" d="M 2317 3987 
L 2848 3987 
C 2925 3987 3002 3980 3078 3980 
L 3878 3980 
L 3878 4396 
L 218 4396 
L 218 3980 
L 1018 3980 
C 1094 3980 1171 3987 1248 3987 
L 1779 3987 
L 1779 0 
L 2317 0 
L 2317 3987 
z
" transform="scale(0.015625)"/>
      <path id="CMSS17-57" d="M 5581 4416 
L 5094 4416 
L 4557 2436 
C 4474 2118 4397 1800 4320 1482 
C 4205 1012 4122 681 4109 516 
L 4102 516 
C 4090 687 4006 1050 3904 1457 
C 3827 1794 3744 2131 3654 2462 
L 3123 4416 
L 2586 4416 
L 2080 2564 
L 1824 1552 
C 1632 751 1626 636 1613 509 
L 1606 509 
C 1606 547 1581 757 1402 1501 
C 1312 1870 1222 2246 1126 2602 
L 634 4416 
L 83 4416 
L 1299 0 
L 1830 0 
L 2336 1838 
L 2592 2850 
C 2765 3562 2803 3740 2816 3899 
L 2822 3899 
C 2822 3874 2880 3473 3130 2544 
L 3808 0 
L 4365 0 
L 5581 4416 
z
" transform="scale(0.015625)"/>
      <path id="CMSS17-50" d="M 2106 1856 
C 2874 1856 3501 2447 3501 3139 
C 3501 3818 2899 4416 2067 4416 
L 570 4416 
L 570 0 
L 1107 0 
L 1107 1856 
L 2106 1856 
z
M 1926 4057 
C 2669 4057 2995 3598 2995 3139 
C 2995 2711 2694 2227 1926 2227 
L 1094 2227 
L 1094 4057 
L 1926 4057 
z
" transform="scale(0.015625)"/>
      <path id="CMSS17-41" d="M 2272 4416 
L 1722 4416 
L 166 0 
L 653 0 
L 1101 1280 
L 2816 1280 
L 3270 0 
L 3827 0 
L 2272 4416 
z
M 2694 1638 
L 1222 1638 
C 1530 2530 1914 3638 1958 3924 
L 1965 3924 
C 2010 3663 2138 3281 2246 2956 
L 2694 1638 
z
" transform="scale(0.015625)"/>
     </defs>
     <use xlink:href="#CMSS17-54" transform="scale(0.996264)"/>
     <use xlink:href="#CMSS17-57" transform="translate(63.819454 0) scale(0.996264)"/>
     <use xlink:href="#CMSS17-50" transform="translate(152.06162 0) scale(0.996264)"/>
     <use xlink:href="#CMSS17-41" transform="translate(203.989951 0) scale(0.996264)"/>
     <use xlink:href="#CMSS17-2d" transform="translate(266.207806 0) scale(0.996264)"/>
     <use xlink:href="#CMSS17-54" transform="translate(297.436919 0) scale(0.996264)"/>
     <use xlink:href="#CMSS17-57" transform="translate(361.256373 0) scale(0.996264)"/>
     <use xlink:href="#CMSS17-50" transform="translate(449.498539 0) scale(0.996264)"/>
     <use xlink:href="#CMSS17-41" transform="translate(501.42687 0) scale(0.996264)"/>
    </g>
   </g>
   <g id="legend_1">
    <g id="patch_7">
     <path d="M 150.602158 162.574802 
L 221.275319 162.574802 
Q 222.875319 162.574802 222.875319 160.974802 
L 222.875319 92.374496 
Q 222.875319 90.774496 221.275319 90.774496 
L 150.602158 90.774496 
Q 149.002158 90.774496 149.002158 92.374496 
L 149.002158 160.974802 
Q 149.002158 162.574802 150.602158 162.574802 
z
" style="fill: #ffffff; opacity: 0.7; stroke: #808080; stroke-linejoin: miter"/>
    </g>
    <g id="line2d_31">
     <path d="M 151.402158 96.35208 
L 157.402158 96.35208 
L 163.402158 96.35208 
" style="fill: none; stroke: #387eb9; stroke-linecap: square"/>
    </g>
    <g id="text_15">
     <!-- $|S_{31}|$ -->
     <g transform="translate(167.402158 99.15208) scale(0.08 -0.08)">
      <defs>
       <path id="CMR17-33" d="M 1414 2176 
C 1984 2176 2234 1673 2234 1094 
C 2234 322 1824 25 1453 25 
C 1114 25 563 193 390 691 
C 422 678 454 678 486 678 
C 640 678 755 780 755 947 
C 755 1132 614 1216 486 1216 
C 378 1216 211 1164 211 927 
C 211 335 787 -128 1466 -128 
C 2176 -128 2720 432 2720 1087 
C 2720 1718 2208 2176 1600 2246 
C 2086 2347 2554 2776 2554 3353 
C 2554 3856 2048 4224 1472 4224 
C 890 4224 378 3862 378 3347 
C 378 3123 544 3084 627 3084 
C 762 3084 877 3167 877 3334 
C 877 3500 762 3584 627 3584 
C 602 3584 570 3584 544 3571 
C 730 3999 1235 4076 1459 4076 
C 1683 4076 2106 3966 2106 3347 
C 2106 3167 2080 2851 1862 2574 
C 1670 2329 1453 2316 1242 2297 
C 1210 2297 1062 2284 1037 2284 
C 992 2278 966 2272 966 2227 
C 966 2182 973 2176 1101 2176 
L 1414 2176 
z
" transform="scale(0.015625)"/>
       <path id="CMR17-31" d="M 1702 4083 
C 1702 4217 1696 4224 1606 4224 
C 1357 3927 979 3833 621 3820 
C 602 3820 570 3820 563 3808 
C 557 3795 557 3782 557 3648 
C 755 3648 1088 3686 1344 3839 
L 1344 467 
C 1344 243 1331 166 781 166 
L 589 166 
L 589 0 
C 896 6 1216 12 1523 12 
C 1830 12 2150 6 2458 0 
L 2458 166 
L 2266 166 
C 1715 166 1702 236 1702 467 
L 1702 4083 
z
" transform="scale(0.015625)"/>
      </defs>
      <use xlink:href="#CMSY10-6a" transform="scale(0.996264)"/>
      <use xlink:href="#CMMI12-53" transform="translate(27.674085 0) scale(0.996264)"/>
      <use xlink:href="#CMR17-33" transform="translate(87.668573 -14.943915) scale(0.697382)"/>
      <use xlink:href="#CMR17-31" transform="translate(119.651755 -14.943915) scale(0.697382)"/>
      <use xlink:href="#CMSY10-6a" transform="translate(152.133068 0) scale(0.996264)"/>
     </g>
    </g>
    <g id="line2d_32">
     <path d="M 151.402158 108.322192 
L 157.402158 108.322192 
L 163.402158 108.322192 
" style="fill: none; stroke: #e21f26; stroke-linecap: square"/>
    </g>
    <g id="text_16">
     <!-- $|S_{13}|$ -->
     <g transform="translate(167.402158 111.122192) scale(0.08 -0.08)">
      <use xlink:href="#CMSY10-6a" transform="scale(0.996264)"/>
      <use xlink:href="#CMMI12-53" transform="translate(27.674085 0) scale(0.996264)"/>
      <use xlink:href="#CMR17-31" transform="translate(87.668573 -14.943915) scale(0.697382)"/>
      <use xlink:href="#CMR17-33" transform="translate(119.651755 -14.943915) scale(0.697382)"/>
      <use xlink:href="#CMSY10-6a" transform="translate(152.133068 0) scale(0.996264)"/>
     </g>
    </g>
    <g id="line2d_33">
     <path d="M 151.402158 120.292304 
L 157.402158 120.292304 
L 163.402158 120.292304 
" style="fill: none; stroke: #f57e20; stroke-linecap: square"/>
    </g>
    <g id="text_17">
     <!-- $|S_{42}|$ -->
     <g transform="translate(167.402158 123.092304) scale(0.08 -0.08)">
      <defs>
       <path id="CMR17-34" d="M 2150 4147 
C 2150 4281 2144 4288 2029 4288 
L 128 1254 
L 128 1088 
L 1779 1088 
L 1779 460 
C 1779 230 1766 166 1318 166 
L 1197 166 
L 1197 0 
C 1402 12 1747 12 1965 12 
C 2182 12 2528 12 2733 0 
L 2733 166 
L 2611 166 
C 2163 166 2150 230 2150 460 
L 2150 1088 
L 2803 1088 
L 2803 1254 
L 2150 1254 
L 2150 4147 
z
M 1798 3723 
L 1798 1254 
L 256 1254 
L 1798 3723 
z
" transform="scale(0.015625)"/>
       <path id="CMR17-32" d="M 2669 990 
L 2554 990 
C 2490 537 2438 460 2413 422 
C 2381 371 1920 371 1830 371 
L 602 371 
C 832 620 1280 1073 1824 1596 
C 2214 1966 2669 2400 2669 3033 
C 2669 3788 2067 4224 1395 4224 
C 691 4224 262 3603 262 3027 
C 262 2777 448 2745 525 2745 
C 589 2745 781 2783 781 3007 
C 781 3206 614 3264 525 3264 
C 486 3264 448 3257 422 3244 
C 544 3788 915 4057 1306 4057 
C 1862 4057 2227 3616 2227 3033 
C 2227 2477 1901 1998 1536 1583 
L 262 147 
L 262 0 
L 2515 0 
L 2669 990 
z
" transform="scale(0.015625)"/>
      </defs>
      <use xlink:href="#CMSY10-6a" transform="scale(0.996264)"/>
      <use xlink:href="#CMMI12-53" transform="translate(27.674085 0) scale(0.996264)"/>
      <use xlink:href="#CMR17-34" transform="translate(87.668573 -14.943915) scale(0.697382)"/>
      <use xlink:href="#CMR17-32" transform="translate(119.651755 -14.943915) scale(0.697382)"/>
      <use xlink:href="#CMSY10-6a" transform="translate(152.133068 0) scale(0.996264)"/>
     </g>
    </g>
    <g id="line2d_34">
     <path d="M 151.402158 132.262416 
L 157.402158 132.262416 
L 163.402158 132.262416 
" style="fill: none; stroke: #4daf49; stroke-opacity: 0.7; stroke-linecap: square"/>
    </g>
    <g id="text_18">
     <!-- $|S_{11}|$ -->
     <g transform="translate(167.402158 135.062416) scale(0.08 -0.08)">
      <use xlink:href="#CMSY10-6a" transform="scale(0.996264)"/>
      <use xlink:href="#CMMI12-53" transform="translate(27.674085 0) scale(0.996264)"/>
      <use xlink:href="#CMR17-31" transform="translate(87.668573 -14.943915) scale(0.697382)"/>
      <use xlink:href="#CMR17-31" transform="translate(119.651755 -14.943915) scale(0.697382)"/>
      <use xlink:href="#CMSY10-6a" transform="translate(152.133068 0) scale(0.996264)"/>
     </g>
    </g>
    <g id="line2d_35">
     <path d="M 151.402158 144.232528 
L 157.402158 144.232528 
L 163.402158 144.232528 
" style="fill: none; stroke-dasharray: 3.7,1.6; stroke-dashoffset: 0; stroke: #4daf49; stroke-opacity: 0.7"/>
    </g>
    <g id="text_19">
     <!-- $|S_{33}|$ -->
     <g transform="translate(167.402158 147.032528) scale(0.08 -0.08)">
      <use xlink:href="#CMSY10-6a" transform="scale(0.996264)"/>
      <use xlink:href="#CMMI12-53" transform="translate(27.674085 0) scale(0.996264)"/>
      <use xlink:href="#CMR17-33" transform="translate(87.668573 -14.943915) scale(0.697382)"/>
      <use xlink:href="#CMR17-33" transform="translate(119.651755 -14.943915) scale(0.697382)"/>
      <use xlink:href="#CMSY10-6a" transform="translate(152.133068 0) scale(0.996264)"/>
     </g>
    </g>
    <g id="line2d_36">
     <path d="M 151.402158 155.825056 
L 157.402158 155.825056 
L 163.402158 155.825056 
" style="fill: none; stroke-dasharray: 1,1.65; stroke-dashoffset: 0; stroke: #98509f; stroke-opacity: 0.5"/>
    </g>
    <g id="text_20">
     <!-- $f_a = 8.55$ GHz -->
     <g transform="translate(167.402158 158.625056) scale(0.08 -0.08)">
      <defs>
       <path id="CMMI12-66" d="M 2854 2566 
C 2982 2566 3034 2566 3034 2687 
C 3034 2752 2982 2752 2867 2752 
L 2349 2752 
C 2470 3398 2560 3846 2611 4051 
C 2650 4204 2784 4351 2950 4351 
C 3085 4351 3219 4294 3283 4236 
C 3034 4211 2957 4025 2957 3916 
C 2957 3788 3053 3712 3174 3712 
C 3302 3712 3494 3820 3494 4064 
C 3494 4332 3226 4480 2944 4480 
C 2669 4480 2400 4275 2272 4025 
C 2157 3801 2093 3573 1946 2752 
L 1517 2752 
C 1395 2752 1331 2752 1331 2636 
C 1331 2566 1370 2566 1498 2566 
L 1907 2566 
C 1792 1977 1530 545 1382 -132 
C 1274 -685 1178 -1152 858 -1152 
C 838 -1152 653 -1152 538 -1031 
C 864 -1005 864 -724 864 -717 
C 864 -589 768 -512 646 -512 
C 518 -512 326 -621 326 -865 
C 326 -1140 608 -1280 858 -1280 
C 1510 -1280 1779 -113 1850 203 
C 1965 691 2278 2376 2310 2566 
L 2854 2566 
z
" transform="scale(0.015625)"/>
       <path id="CMMI12-61" d="M 1926 759 
C 1894 651 1894 638 1805 517 
C 1664 338 1382 64 1082 64 
C 819 64 672 300 672 676 
C 672 1028 870 1743 992 2011 
C 1210 2458 1510 2687 1760 2687 
C 2182 2687 2266 2164 2266 2113 
C 2266 2107 2246 2024 2240 2011 
L 1926 759 
z
M 2336 2394 
C 2266 2560 2093 2816 1760 2816 
C 1037 2816 256 1883 256 938 
C 256 306 627 -64 1062 -64 
C 1414 -64 1715 210 1894 421 
C 1958 44 2259 -64 2451 -64 
C 2643 -64 2797 51 2912 280 
C 3014 496 3104 885 3104 910 
C 3104 942 3078 968 3040 968 
C 2982 968 2976 936 2950 840 
C 2854 465 2733 64 2470 64 
C 2285 64 2272 229 2272 356 
C 2272 503 2291 573 2349 821 
C 2394 980 2426 1120 2477 1305 
C 2714 2260 2771 2489 2771 2528 
C 2771 2617 2701 2688 2605 2688 
C 2400 2688 2349 2464 2336 2388 
L 2336 2394 
z
" transform="scale(0.015625)"/>
       <path id="CMR17-3d" d="M 4115 2048 
C 4211 2048 4307 2048 4307 2156 
C 4307 2272 4198 2272 4090 2272 
L 512 2272 
C 403 2272 294 2272 294 2156 
C 294 2048 390 2048 486 2048 
L 4115 2048 
z
M 4090 927 
C 4198 927 4307 927 4307 1043 
C 4307 1152 4211 1152 4115 1152 
L 486 1152 
C 390 1152 294 1152 294 1043 
C 294 927 403 927 512 927 
L 4090 927 
z
" transform="scale(0.015625)"/>
       <path id="CMR17-38" d="M 1741 2289 
C 2144 2494 2554 2803 2554 3298 
C 2554 3884 1990 4224 1472 4224 
C 890 4224 378 3800 378 3215 
C 378 3054 416 2777 666 2533 
C 730 2469 998 2276 1171 2154 
C 883 2006 211 1652 211 945 
C 211 282 838 -128 1459 -128 
C 2144 -128 2720 366 2720 1022 
C 2720 1607 2330 1877 2074 2051 
L 1741 2289 
z
M 902 2855 
C 851 2887 595 3086 595 3388 
C 595 3781 998 4076 1459 4076 
C 1965 4076 2336 3716 2336 3298 
C 2336 2700 1670 2359 1638 2359 
C 1632 2359 1626 2359 1574 2398 
L 902 2855 
z
M 2080 1536 
C 2176 1466 2483 1253 2483 861 
C 2483 385 2010 25 1472 25 
C 890 25 448 443 448 951 
C 448 1459 838 1884 1280 2083 
L 2080 1536 
z
" transform="scale(0.015625)"/>
       <path id="CMMI12-3a" d="M 1178 307 
C 1178 492 1024 620 870 620 
C 685 620 557 467 557 313 
C 557 128 710 0 864 0 
C 1050 0 1178 153 1178 307 
z
" transform="scale(0.015625)"/>
       <path id="CMR17-35" d="M 730 3750 
C 794 3724 1056 3641 1325 3641 
C 1920 3641 2246 3961 2432 4140 
C 2432 4191 2432 4224 2394 4224 
C 2387 4224 2374 4224 2323 4198 
C 2099 4102 1837 4032 1517 4032 
C 1325 4032 1037 4055 723 4191 
C 653 4224 640 4224 634 4224 
C 602 4224 595 4217 595 4090 
L 595 2231 
C 595 2113 595 2080 659 2080 
C 691 2080 704 2093 736 2139 
C 941 2435 1222 2560 1542 2560 
C 1766 2560 2246 2415 2246 1293 
C 2246 1087 2246 716 2054 422 
C 1894 159 1645 25 1370 25 
C 947 25 518 319 403 812 
C 429 806 480 793 506 793 
C 589 793 749 838 749 1036 
C 749 1209 627 1280 506 1280 
C 358 1280 262 1190 262 1011 
C 262 454 704 -128 1382 -128 
C 2042 -128 2669 441 2669 1267 
C 2669 2054 2170 2662 1549 2662 
C 1222 2662 947 2540 730 2304 
L 730 3750 
z
" transform="scale(0.015625)"/>
       <path id="CMSS17-47" d="M 3610 1868 
L 2336 1868 
L 2336 1472 
L 3123 1472 
L 3123 473 
C 2874 403 2618 352 2362 352 
C 1466 352 934 1311 934 2220 
C 934 3123 1491 4070 2362 4070 
C 2854 4070 3130 3916 3469 3660 
L 3552 4172 
C 3130 4390 2867 4480 2387 4480 
C 1146 4480 397 3353 397 2201 
C 397 1100 1152 -64 2349 -64 
C 2797 -64 3213 51 3610 249 
L 3610 1868 
z
" transform="scale(0.015625)"/>
       <path id="CMSS17-48" d="M 3674 4416 
L 3136 4416 
L 3136 2496 
L 1101 2496 
L 1101 4416 
L 563 4416 
L 563 0 
L 1101 0 
L 1101 2105 
L 3136 2105 
L 3136 0 
L 3674 0 
L 3674 4416 
z
" transform="scale(0.015625)"/>
       <path id="CMSS17-7a" d="M 2400 2502 
L 2400 2752 
L 250 2752 
L 250 2367 
L 1069 2367 
C 1146 2367 1222 2374 1299 2374 
L 1747 2374 
L 166 262 
L 166 0 
L 2419 0 
L 2419 396 
L 1549 396 
C 1472 396 1395 390 1318 390 
L 826 390 
L 2400 2502 
z
" transform="scale(0.015625)"/>
      </defs>
      <use xlink:href="#CMMI12-66" transform="scale(0.996264)"/>
      <use xlink:href="#CMMI12-61" transform="translate(48.083238 -14.943915) scale(0.697382)"/>
      <use xlink:href="#CMR17-3d" transform="translate(112.100725 0) scale(0.996264)"/>
      <use xlink:href="#CMR17-38" transform="translate(211.489522 0) scale(0.996264)"/>
      <use xlink:href="#CMMI12-3a" transform="translate(257.179999 0) scale(0.996264)"/>
      <use xlink:href="#CMR17-35" transform="translate(284.277177 0) scale(0.996264)"/>
      <use xlink:href="#CMR17-35" transform="translate(329.967654 0) scale(0.996264)"/>
      <use xlink:href="#CMSS17-47" transform="translate(406.887244 0) scale(0.996264)"/>
      <use xlink:href="#CMSS17-48" transform="translate(469.345469 0) scale(0.996264)"/>
      <use xlink:href="#CMSS17-7a" transform="translate(535.406988 0) scale(0.996264)"/>
     </g>
    </g>
   </g>
  </g>
  <g id="axes_2">
   <g id="patch_8">
    <path d="M 37.946186 295.934802 
L 226.875319 295.934802 
L 226.875319 222.014802 
L 37.946186 222.014802 
z
" style="fill: #ffffff"/>
   </g>
   <g id="matplotlib.axis_3">
    <g id="xtick_6">
     <g id="line2d_37">
      <path d="M 37.946186 295.934802 
L 37.946186 222.014802 
" clip-path="url(#pfb4e158add)" style="fill: none; stroke: #b0b0b0; stroke-opacity: 0.3; stroke-width: 0.8; stroke-linecap: square"/>
     </g>
     <g id="line2d_38">
      <g>
       <use xlink:href="#me3c9e8ce2d" x="37.946186" y="295.934802" style="stroke: #000000; stroke-width: 0.8"/>
      </g>
     </g>
     <g id="text_21">
      <!-- 4 -->
      <g transform="translate(35.455518 306.3533) scale(0.1 -0.1)">
       <use xlink:href="#CMSS17-34" transform="scale(0.996264)"/>
      </g>
     </g>
    </g>
    <g id="xtick_7">
     <g id="line2d_39">
      <path d="M 85.178469 295.934802 
L 85.178469 222.014802 
" clip-path="url(#pfb4e158add)" style="fill: none; stroke: #b0b0b0; stroke-opacity: 0.3; stroke-width: 0.8; stroke-linecap: square"/>
     </g>
     <g id="line2d_40">
      <g>
       <use xlink:href="#me3c9e8ce2d" x="85.178469" y="295.934802" style="stroke: #000000; stroke-width: 0.8"/>
      </g>
     </g>
     <g id="text_22">
      <!-- 6 -->
      <g transform="translate(82.687801 306.3533) scale(0.1 -0.1)">
       <use xlink:href="#CMSS17-36" transform="scale(0.996264)"/>
      </g>
     </g>
    </g>
    <g id="xtick_8">
     <g id="line2d_41">
      <path d="M 132.410752 295.934802 
L 132.410752 222.014802 
" clip-path="url(#pfb4e158add)" style="fill: none; stroke: #b0b0b0; stroke-opacity: 0.3; stroke-width: 0.8; stroke-linecap: square"/>
     </g>
     <g id="line2d_42">
      <g>
       <use xlink:href="#me3c9e8ce2d" x="132.410752" y="295.934802" style="stroke: #000000; stroke-width: 0.8"/>
      </g>
     </g>
     <g id="text_23">
      <!-- 8 -->
      <g transform="translate(129.920085 306.3533) scale(0.1 -0.1)">
       <use xlink:href="#CMSS17-38" transform="scale(0.996264)"/>
      </g>
     </g>
    </g>
    <g id="xtick_9">
     <g id="line2d_43">
      <path d="M 179.643036 295.934802 
L 179.643036 222.014802 
" clip-path="url(#pfb4e158add)" style="fill: none; stroke: #b0b0b0; stroke-opacity: 0.3; stroke-width: 0.8; stroke-linecap: square"/>
     </g>
     <g id="line2d_44">
      <g>
       <use xlink:href="#me3c9e8ce2d" x="179.643036" y="295.934802" style="stroke: #000000; stroke-width: 0.8"/>
      </g>
     </g>
     <g id="text_24">
      <!-- 10 -->
      <g transform="translate(174.661701 306.3533) scale(0.1 -0.1)">
       <use xlink:href="#CMSS17-31" transform="scale(0.996264)"/>
       <use xlink:href="#CMSS17-30" transform="translate(46.843624 0) scale(0.996264)"/>
      </g>
     </g>
    </g>
    <g id="xtick_10">
     <g id="line2d_45">
      <path d="M 226.875319 295.934802 
L 226.875319 222.014802 
" clip-path="url(#pfb4e158add)" style="fill: none; stroke: #b0b0b0; stroke-opacity: 0.3; stroke-width: 0.8; stroke-linecap: square"/>
     </g>
     <g id="line2d_46">
      <g>
       <use xlink:href="#me3c9e8ce2d" x="226.875319" y="295.934802" style="stroke: #000000; stroke-width: 0.8"/>
      </g>
     </g>
     <g id="text_25">
      <!-- 12 -->
      <g transform="translate(221.893984 306.3533) scale(0.1 -0.1)">
       <use xlink:href="#CMSS17-31" transform="scale(0.996264)"/>
       <use xlink:href="#CMSS17-32" transform="translate(46.843624 0) scale(0.996264)"/>
      </g>
     </g>
    </g>
    <g id="text_26">
     <!-- frequency [GHz] -->
     <g transform="translate(98.973581 319.762459) scale(0.1 -0.1)">
      <defs>
       <path id="CMSS17-66" d="M 1075 2380 
L 1722 2380 
L 1722 2752 
L 1062 2752 
L 1062 3563 
C 1062 4013 1408 4089 1606 4089 
C 1670 4089 1850 4089 2080 4007 
L 2080 4428 
C 1933 4460 1754 4480 1613 4480 
C 1018 4480 602 3994 602 3366 
L 602 2752 
L 160 2752 
L 160 2380 
L 602 2380 
L 602 0 
L 1075 0 
L 1075 2380 
z
" transform="scale(0.015625)"/>
       <path id="CMSS17-71" d="M 2611 2816 
L 2138 2816 
L 2138 2425 
C 2112 2457 1818 2816 1318 2816 
C 736 2816 211 2218 211 1369 
C 211 585 653 -64 1229 -64 
C 1498 -64 1837 32 2125 307 
L 2125 -1280 
L 2611 -1280 
L 2611 2816 
z
M 2138 870 
C 2138 786 2138 669 1939 501 
C 1888 456 1747 326 1504 326 
C 1050 326 698 805 698 1369 
C 698 1998 1126 2412 1562 2412 
C 1926 2412 2138 2049 2138 1777 
L 2138 870 
z
" transform="scale(0.015625)"/>
       <path id="CMSS17-75" d="M 2618 2752 
L 2131 2752 
L 2131 976 
C 2131 500 1786 307 1421 307 
C 998 307 960 448 960 712 
L 960 2752 
L 474 2752 
L 474 680 
C 474 179 646 -64 1088 -64 
C 1306 -64 1798 -13 2144 307 
L 2144 -13 
L 2618 -13 
L 2618 2752 
z
" transform="scale(0.015625)"/>
       <path id="CMSS17-6e" d="M 2618 1878 
C 2618 2283 2522 2816 1798 2816 
C 1389 2816 1120 2604 941 2386 
L 941 2783 
L 474 2783 
L 474 0 
L 960 0 
L 960 1556 
C 960 1962 1114 2425 1549 2425 
C 2112 2425 2131 2045 2131 1826 
L 2131 0 
L 2618 0 
L 2618 1878 
z
" transform="scale(0.015625)"/>
       <path id="CMSS17-63" d="M 2464 2540 
C 2464 2585 2170 2713 2093 2739 
C 1882 2816 1613 2816 1542 2816 
C 710 2816 211 2092 211 1363 
C 211 595 768 -64 1517 -64 
C 1946 -64 2253 76 2502 243 
L 2464 665 
C 2189 454 1869 339 1523 339 
C 1024 339 698 774 698 1369 
C 698 1830 909 2412 1549 2412 
C 1901 2412 2099 2342 2394 2143 
L 2464 2540 
z
" transform="scale(0.015625)"/>
       <path id="CMSS17-79" d="M 2675 2752 
L 2176 2752 
C 1632 1293 1446 701 1434 383 
L 1427 383 
C 1408 695 1126 1459 902 2006 
L 602 2752 
L 83 2752 
L 1216 14 
C 1146 -177 1043 -464 1011 -527 
C 870 -884 774 -884 672 -884 
C 646 -884 442 -877 211 -807 
L 250 -1229 
C 410 -1261 570 -1280 685 -1280 
C 845 -1280 1165 -1280 1459 -495 
L 2675 2752 
z
" transform="scale(0.015625)"/>
      </defs>
      <use xlink:href="#CMSS17-66" transform="scale(0.996264)"/>
      <use xlink:href="#CMSS17-72" transform="translate(28.626659 0) scale(0.996264)"/>
      <use xlink:href="#CMSS17-65" transform="translate(60.536431 0) scale(0.996264)"/>
      <use xlink:href="#CMSS17-71" transform="translate(102.175253 0) scale(0.996264)"/>
      <use xlink:href="#CMSS17-75" transform="translate(150.380197 0) scale(0.996264)"/>
      <use xlink:href="#CMSS17-65" transform="translate(198.58514 0) scale(0.996264)"/>
      <use xlink:href="#CMSS17-6e" transform="translate(240.223962 0) scale(0.996264)"/>
      <use xlink:href="#CMSS17-63" transform="translate(288.428905 0) scale(0.996264)"/>
      <use xlink:href="#CMSS17-79" transform="translate(330.067727 0) scale(0.996264)"/>
      <use xlink:href="#CMSS17-5b" transform="translate(404.296981 0) scale(0.996264)"/>
      <use xlink:href="#CMSS17-47" transform="translate(431.48242 0) scale(0.996264)"/>
      <use xlink:href="#CMSS17-48" transform="translate(493.940646 0) scale(0.996264)"/>
      <use xlink:href="#CMSS17-7a" transform="translate(560.002165 0) scale(0.996264)"/>
      <use xlink:href="#CMSS17-5d" transform="translate(600.680037 0) scale(0.996264)"/>
     </g>
    </g>
   </g>
   <g id="matplotlib.axis_4">
    <g id="ytick_8">
     <g id="line2d_47">
      <path d="M 37.946186 295.934802 
L 226.875319 295.934802 
" clip-path="url(#pfb4e158add)" style="fill: none; stroke: #b0b0b0; stroke-opacity: 0.3; stroke-width: 0.8; stroke-linecap: square"/>
     </g>
     <g id="line2d_48">
      <g>
       <use xlink:href="#maf7e3699ee" x="37.946186" y="295.934802" style="stroke: #000000; stroke-width: 0.8"/>
      </g>
     </g>
     <g id="text_27">
      <!-- 0.7 -->
      <g transform="translate(21.716107 299.394051) scale(0.1 -0.1)">
       <defs>
        <path id="CMSS17-2e" d="M 1088 512 
L 576 512 
L 576 0 
L 1088 0 
L 1088 512 
z
" transform="scale(0.015625)"/>
        <path id="CMSS17-37" d="M 1389 3788 
C 1466 3788 1542 3795 1619 3795 
L 2355 3795 
C 1440 2715 915 1350 915 -64 
L 1427 -64 
C 1427 1305 1875 2695 2752 3807 
L 2752 4224 
L 250 4224 
L 250 3788 
L 1389 3788 
z
" transform="scale(0.015625)"/>
       </defs>
       <use xlink:href="#CMSS17-30" transform="scale(0.996264)"/>
       <use xlink:href="#CMSS17-2e" transform="translate(46.843624 0) scale(0.996264)"/>
       <use xlink:href="#CMSS17-37" transform="translate(72.867828 0) scale(0.996264)"/>
      </g>
     </g>
    </g>
    <g id="ytick_9">
     <g id="line2d_49">
      <path d="M 37.946186 274.814802 
L 226.875319 274.814802 
" clip-path="url(#pfb4e158add)" style="fill: none; stroke: #b0b0b0; stroke-opacity: 0.3; stroke-width: 0.8; stroke-linecap: square"/>
     </g>
     <g id="line2d_50">
      <g>
       <use xlink:href="#maf7e3699ee" x="37.946186" y="274.814802" style="stroke: #000000; stroke-width: 0.8"/>
      </g>
     </g>
     <g id="text_28">
      <!-- 0.8 -->
      <g transform="translate(21.716107 278.274051) scale(0.1 -0.1)">
       <use xlink:href="#CMSS17-30" transform="scale(0.996264)"/>
       <use xlink:href="#CMSS17-2e" transform="translate(46.843624 0) scale(0.996264)"/>
       <use xlink:href="#CMSS17-38" transform="translate(72.867828 0) scale(0.996264)"/>
      </g>
     </g>
    </g>
    <g id="ytick_10">
     <g id="line2d_51">
      <path d="M 37.946186 253.694802 
L 226.875319 253.694802 
" clip-path="url(#pfb4e158add)" style="fill: none; stroke: #b0b0b0; stroke-opacity: 0.3; stroke-width: 0.8; stroke-linecap: square"/>
     </g>
     <g id="line2d_52">
      <g>
       <use xlink:href="#maf7e3699ee" x="37.946186" y="253.694802" style="stroke: #000000; stroke-width: 0.8"/>
      </g>
     </g>
     <g id="text_29">
      <!-- 0.9 -->
      <g transform="translate(21.716107 257.154051) scale(0.1 -0.1)">
       <defs>
        <path id="CMSS17-39" d="M 435 172 
C 614 19 845 -128 1235 -128 
C 2010 -128 2752 738 2752 2136 
C 2752 3987 1952 4288 1523 4288 
C 1094 4288 819 4095 582 3789 
C 301 3438 250 3125 250 2761 
C 250 2327 326 2059 506 1753 
C 749 1356 973 1273 1222 1273 
C 1600 1273 1978 1459 2234 1778 
C 2189 908 1798 268 1235 268 
C 1005 268 819 340 634 516 
L 435 172 
z
M 2214 2774 
C 2221 2729 2221 2646 2221 2621 
C 2221 2085 1914 1664 1466 1664 
C 1171 1664 1018 1817 902 2015 
C 762 2263 755 2506 755 2761 
C 755 3010 755 3284 934 3559 
C 1069 3757 1235 3897 1523 3897 
C 2112 3897 2208 3036 2214 2774 
z
" transform="scale(0.015625)"/>
       </defs>
       <use xlink:href="#CMSS17-30" transform="scale(0.996264)"/>
       <use xlink:href="#CMSS17-2e" transform="translate(46.843624 0) scale(0.996264)"/>
       <use xlink:href="#CMSS17-39" transform="translate(72.867828 0) scale(0.996264)"/>
      </g>
     </g>
    </g>
    <g id="ytick_11">
     <g id="line2d_53">
      <path d="M 37.946186 232.574802 
L 226.875319 232.574802 
" clip-path="url(#pfb4e158add)" style="fill: none; stroke: #b0b0b0; stroke-opacity: 0.3; stroke-width: 0.8; stroke-linecap: square"/>
     </g>
     <g id="line2d_54">
      <g>
       <use xlink:href="#maf7e3699ee" x="37.946186" y="232.574802" style="stroke: #000000; stroke-width: 0.8"/>
      </g>
     </g>
     <g id="text_30">
      <!-- 1 -->
      <g transform="translate(29.46485 236.034051) scale(0.1 -0.1)">
       <use xlink:href="#CMSS17-31" transform="scale(0.996264)"/>
      </g>
     </g>
    </g>
    <g id="text_31">
     <!-- $\mathsf{QE}/\mathsf{QE}_\mathsf{ideal}$ -->
     <g transform="translate(15.225447 281.856107) rotate(-90) scale(0.1 -0.1)">
      <defs>
       <path id="CMSS17-51" d="M 3200 211 
C 3981 848 4096 1711 4096 2201 
C 4096 3541 3219 4544 2214 4544 
C 1210 4544 333 3535 333 2201 
C 333 855 1222 -128 2214 -128 
C 2438 -128 2630 -77 2765 -26 
L 3302 -832 
L 3930 -832 
L 3200 211 
z
M 2528 326 
C 2438 294 2330 275 2214 275 
C 1523 275 858 1003 858 2201 
C 858 3393 1517 4140 2214 4140 
C 2918 4140 3571 3386 3571 2201 
C 3571 1789 3507 1099 2950 571 
L 2490 1222 
L 1939 1222 
L 2528 326 
z
" transform="scale(0.015625)"/>
       <path id="CMSS17-45" d="M 1958 435 
C 1446 435 1216 435 1101 428 
L 1101 2105 
L 3085 2105 
L 3085 2496 
L 1101 2496 
L 1101 3993 
L 1926 3993 
C 2003 3993 2080 3987 2157 3987 
L 3251 3987 
L 3251 4403 
L 563 4403 
L 563 0 
L 3334 0 
L 3334 441 
L 1958 435 
z
" transform="scale(0.015625)"/>
       <path id="CMMI12-3d" d="M 2746 4563 
C 2746 4569 2784 4665 2784 4678 
C 2784 4755 2720 4800 2669 4800 
C 2637 4800 2579 4800 2528 4659 
L 384 -1364 
C 384 -1370 346 -1466 346 -1479 
C 346 -1556 410 -1600 461 -1600 
C 499 -1600 557 -1594 602 -1460 
L 2746 4563 
z
" transform="scale(0.015625)"/>
       <path id="CMSS17-69" d="M 979 4224 
L 442 4224 
L 442 3686 
L 979 3686 
L 979 4224 
z
M 947 2752 
L 474 2752 
L 474 0 
L 947 0 
L 947 2752 
z
" transform="scale(0.015625)"/>
       <path id="CMSS17-6c" d="M 947 4416 
L 474 4416 
L 474 0 
L 947 0 
L 947 4416 
z
" transform="scale(0.015625)"/>
      </defs>
      <use xlink:href="#CMSS17-51" transform="scale(0.996264)"/>
      <use xlink:href="#CMSS17-45" transform="translate(69.024255 0) scale(0.996264)"/>
      <use xlink:href="#CMMI12-3d" transform="translate(124.916269 0) scale(0.996264)"/>
      <use xlink:href="#CMSS17-51" transform="translate(173.691187 0) scale(0.996264)"/>
      <use xlink:href="#CMSS17-45" transform="translate(242.715443 0) scale(0.996264)"/>
      <use xlink:href="#CMSS17-69" transform="translate(298.607456 -15.978685) scale(0.697382)"/>
      <use xlink:href="#CMSS17-64" transform="translate(314.133888 -15.978685) scale(0.697382)"/>
      <use xlink:href="#CMSS17-65" transform="translate(347.877193 -15.978685) scale(0.697382)"/>
      <use xlink:href="#CMSS17-61" transform="translate(377.024239 -15.978685) scale(0.697382)"/>
      <use xlink:href="#CMSS17-6c" transform="translate(408.469445 -15.978685) scale(0.697382)"/>
     </g>
    </g>
   </g>
   <g id="line2d_55">
    <path d="M 38.005219 330.453119 
L 39.126993 319.93724 
L 40.3078 307.3349 
L 41.488607 299.482813 
L 42.669414 292.492133 
L 43.850221 283.900143 
L 46.211835 275.646708 
L 47.392642 270.356547 
L 49.754256 265.797666 
L 50.935064 261.993892 
L 53.296678 259.125499 
L 54.477485 256.505984 
L 56.839099 254.386404 
L 58.019906 252.24 
L 59.200713 251.380177 
L 60.38152 250.814943 
L 61.562327 249.518242 
L 62.743134 248.988698 
L 63.923941 248.743425 
L 65.104749 247.837505 
L 66.285556 247.419358 
L 67.466363 247.413591 
L 68.64717 246.974888 
L 69.827977 246.384848 
L 72.189591 245.799125 
L 73.370398 245.223495 
L 74.551205 245.006262 
L 75.732012 245.141652 
L 76.912819 244.674661 
L 78.093627 244.339888 
L 79.274434 244.917122 
L 80.455241 244.854999 
L 81.636048 244.24155 
L 82.816855 244.73816 
L 83.997662 244.613611 
L 85.178469 243.739027 
L 86.359276 244.213264 
L 87.540083 244.395662 
L 88.72089 243.558278 
L 89.901697 243.927592 
L 91.082504 244.592571 
L 92.263312 244.194298 
L 93.444119 244.271181 
L 94.624926 244.724899 
L 95.805733 244.387638 
L 96.98654 244.210435 
L 98.167347 244.49888 
L 100.528961 244.421239 
L 101.709768 244.800649 
L 102.890575 245.48885 
L 105.25219 245.444524 
L 106.432997 246.505423 
L 108.794611 245.76048 
L 109.975418 246.654052 
L 111.156225 246.977717 
L 112.337032 247.072345 
L 113.517839 248.042977 
L 114.698646 248.603612 
L 115.879453 249.038213 
L 117.06026 250.173166 
L 118.241067 250.781252 
L 119.421875 251.647157 
L 120.602682 252.929411 
L 122.964296 257.327855 
L 124.145103 259.975962 
L 125.32591 266.050892 
L 126.506717 270.327715 
L 127.687524 280.867762 
L 129.959447 330.453119 
L 129.959447 330.453119 
" clip-path="url(#pfb4e158add)" style="fill: none; stroke: #387eb9; stroke-linecap: square"/>
   </g>
   <g id="line2d_56">
    <path d="M 37.946186 232.574802 
L 226.875319 232.574802 
" clip-path="url(#pfb4e158add)" style="fill: none; stroke-dasharray: 3.7,1.6; stroke-dashoffset: 0; stroke: #000000; stroke-opacity: 0.7"/>
   </g>
   <g id="patch_9">
    <path d="M 37.946186 295.934802 
L 37.946186 222.014802 
" style="fill: none; stroke: #000000; stroke-width: 0.8; stroke-linejoin: miter; stroke-linecap: square"/>
   </g>
   <g id="patch_10">
    <path d="M 226.875319 295.934802 
L 226.875319 222.014802 
" style="fill: none; stroke: #000000; stroke-width: 0.8; stroke-linejoin: miter; stroke-linecap: square"/>
   </g>
   <g id="patch_11">
    <path d="M 37.946186 295.934802 
L 226.875319 295.934802 
" style="fill: none; stroke: #000000; stroke-width: 0.8; stroke-linejoin: miter; stroke-linecap: square"/>
   </g>
   <g id="patch_12">
    <path d="M 37.946186 222.014802 
L 226.875319 222.014802 
" style="fill: none; stroke: #000000; stroke-width: 0.8; stroke-linejoin: miter; stroke-linecap: square"/>
   </g>
   <g id="text_32">
    <!-- Quantum Efficiency -->
    <g transform="translate(97.610209 216.014802) scale(0.08 -0.08)">
     <defs>
      <path id="CMSS17-e" d="M 4422 4480 
L 3910 4480 
L 3910 3967 
L 4422 3967 
L 4422 4480 
z
M 4403 2752 
L 3930 2752 
L 3930 0 
L 4403 0 
L 4403 2752 
z
M 2739 2380 
L 3437 2380 
L 3437 2752 
L 2726 2752 
L 2726 3613 
C 2726 3961 2880 4134 3085 4134 
C 3226 4134 3360 4089 3437 4044 
L 3437 4480 
C 3322 4512 3270 4524 3085 4524 
C 2605 4524 2266 4038 2266 3402 
L 2266 0 
L 2739 0 
L 2739 2380 
z
M 1075 2380 
L 1773 2380 
L 1773 2752 
L 1062 2752 
L 1062 3599 
C 1062 4038 1325 4134 1510 4134 
C 1619 4134 1773 4115 1920 4051 
L 1920 4473 
C 1754 4518 1728 4524 1510 4524 
C 986 4524 602 4044 602 3396 
L 602 2752 
L 160 2752 
L 160 2380 
L 602 2380 
L 602 0 
L 1075 0 
L 1075 2380 
z
" transform="scale(0.015625)"/>
     </defs>
     <use xlink:href="#CMSS17-51" transform="scale(0.996264)"/>
     <use xlink:href="#CMSS17-75" transform="translate(69.024255 0) scale(0.996264)"/>
     <use xlink:href="#CMSS17-61" transform="translate(117.229198 0) scale(0.996264)"/>
     <use xlink:href="#CMSS17-6e" transform="translate(162.151119 0) scale(0.996264)"/>
     <use xlink:href="#CMSS17-74" transform="translate(210.356062 0) scale(0.996264)"/>
     <use xlink:href="#CMSS17-75" transform="translate(244.187629 0) scale(0.996264)"/>
     <use xlink:href="#CMSS17-6d" transform="translate(292.392572 0) scale(0.996264)"/>
     <use xlink:href="#CMSS17-45" transform="translate(397.850939 0) scale(0.996264)"/>
     <use xlink:href="#CMSS17-e" transform="translate(453.742952 0) scale(0.996264)"/>
     <use xlink:href="#CMSS17-63" transform="translate(529.893895 0) scale(0.996264)"/>
     <use xlink:href="#CMSS17-69" transform="translate(571.532717 0) scale(0.996264)"/>
     <use xlink:href="#CMSS17-65" transform="translate(593.71344 0) scale(0.996264)"/>
     <use xlink:href="#CMSS17-6e" transform="translate(635.352262 0) scale(0.996264)"/>
     <use xlink:href="#CMSS17-63" transform="translate(683.557205 0) scale(0.996264)"/>
     <use xlink:href="#CMSS17-79" transform="translate(725.196027 0) scale(0.996264)"/>
    </g>
   </g>
  </g>
 </g>
 <defs>
  <clipPath id="p0c47c3a1e3">
   <rect x="37.946186" y="18.734802" width="188.929134" height="147.84"/>
  </clipPath>
  <clipPath id="pfb4e158add">
   <rect x="37.946186" y="222.014802" width="188.929134" height="73.92"/>
  </clipPath>
 </defs>
</svg>
